<svg width="28" height="28" viewBox="0 0 28 28" fill="none" xmlns="http://www.w3.org/2000/svg">
    <path fill-rule="evenodd" clip-rule="evenodd" d="M13.9997 4.08331C8.53151 4.08331 4.08301 8.53181 4.08301 14C4.08301 19.4681 8.53151 23.9166 13.9997 23.9166C19.4678 23.9166 23.9163 19.4681 23.9163 14C23.9163 8.53181 19.4678 4.08331 13.9997 4.08331ZM13.9997 25.6666C7.56667 25.6666 2.33301 20.433 2.33301 14C2.33301 7.56698 7.56667 2.33331 13.9997 2.33331C20.4327 2.33331 25.6663 7.56698 25.6663 14C25.6663 20.433 20.4327 25.6666 13.9997 25.6666Z" fill="currentColor"/>
    <path fill-rule="evenodd" clip-rule="evenodd" d="M13.9932 15.6018C13.5102 15.6018 13.1182 15.2098 13.1182 14.7268V9.57129C13.1182 9.08829 13.5102 8.69629 13.9932 8.69629C14.4762 8.69629 14.8682 9.08829 14.8682 9.57129V14.7268C14.8682 15.2098 14.4762 15.6018 13.9932 15.6018Z" fill="white"/>
    <path fill-rule="evenodd" clip-rule="evenodd" d="M14.0045 19.5952C13.3594 19.5952 12.832 19.0737 12.832 18.4285C12.832 17.7833 13.3489 17.2618 13.9929 17.2618H14.0045C14.6497 17.2618 15.1712 17.7833 15.1712 18.4285C15.1712 19.0737 14.6497 19.5952 14.0045 19.5952Z" fill="white"/>
    </svg>
    