<svg width="200" height="64" viewBox="0 0 200 64" fill="none" xmlns="http://www.w3.org/2000/svg">
<mask id="path-1-inside-1_2032_27992" fill="white">
<path fill-rule="evenodd" clip-rule="evenodd" d="M1.21793 9.87706C0 12.8174 0 16.5449 0 24C0 31.4551 0 35.1826 1.21793 38.1229C2.84183 42.0434 5.95662 45.1582 9.87706 46.7821C12.8174 48 16.5449 48 24 48H87.6299C88.2875 49.7133 89.5499 51.9 91.3397 55C94.3771 60.2608 95.8958 62.8912 97.9479 63.6382C99.2734 64.1206 100.727 64.1206 102.052 63.6382C104.104 62.8912 105.623 60.2608 108.66 55C110.45 51.9 111.713 49.7133 112.37 48H176C183.455 48 187.183 48 190.123 46.7821C194.043 45.1582 197.158 42.0434 198.782 38.1229C200 35.1826 200 31.4551 200 24C200 16.5449 200 12.8174 198.782 9.87706C197.158 5.95662 194.043 2.84183 190.123 1.21793C187.183 0 183.455 0 176 0H24C16.5449 0 12.8174 0 9.87706 1.21793C5.95662 2.84183 2.84183 5.95662 1.21793 9.87706Z"/>
</mask>
<path fill-rule="evenodd" clip-rule="evenodd" d="M1.21793 9.87706C0 12.8174 0 16.5449 0 24C0 31.4551 0 35.1826 1.21793 38.1229C2.84183 42.0434 5.95662 45.1582 9.87706 46.7821C12.8174 48 16.5449 48 24 48H87.6299C88.2875 49.7133 89.5499 51.9 91.3397 55C94.3771 60.2608 95.8958 62.8912 97.9479 63.6382C99.2734 64.1206 100.727 64.1206 102.052 63.6382C104.104 62.8912 105.623 60.2608 108.66 55C110.45 51.9 111.713 49.7133 112.37 48H176C183.455 48 187.183 48 190.123 46.7821C194.043 45.1582 197.158 42.0434 198.782 38.1229C200 35.1826 200 31.4551 200 24C200 16.5449 200 12.8174 198.782 9.87706C197.158 5.95662 194.043 2.84183 190.123 1.21793C187.183 0 183.455 0 176 0H24C16.5449 0 12.8174 0 9.87706 1.21793C5.95662 2.84183 2.84183 5.95662 1.21793 9.87706Z" fill="#FAFAFA"/>
<path d="M1.21793 9.87706L-0.629832 9.1117H-0.629832L1.21793 9.87706ZM1.21793 38.1229L-0.629832 38.8883H-0.629832L1.21793 38.1229ZM9.87706 46.7821L9.1117 48.6298H9.1117L9.87706 46.7821ZM87.6299 48L89.4972 47.2834L89.0046 46H87.6299V48ZM91.3397 55L93.0718 54L91.3397 55ZM97.9479 63.6382L98.6319 61.7588V61.7588L97.9479 63.6382ZM102.052 63.6382L101.368 61.7588V61.7588L102.052 63.6382ZM108.66 55L110.392 56L108.66 55ZM112.37 48V46H110.995L110.503 47.2834L112.37 48ZM190.123 46.7821L190.888 48.6298L190.123 46.7821ZM198.782 38.1229L200.63 38.8883L198.782 38.1229ZM198.782 9.87706L200.63 9.1117V9.1117L198.782 9.87706ZM190.123 1.21793L190.888 -0.629831V-0.629832L190.123 1.21793ZM9.87706 1.21793L9.1117 -0.629832V-0.629832L9.87706 1.21793ZM2 24C2 20.2451 2.00108 17.5291 2.1476 15.3817C2.29289 13.2522 2.57449 11.8283 3.06569 10.6424L-0.629832 9.1117C-1.35656 10.8662 -1.68393 12.7762 -1.84312 15.1094C-2.00108 17.4245 -2 20.2998 -2 24H2ZM3.06569 37.3576C2.57449 36.1717 2.29289 34.7478 2.1476 32.6183C2.00108 30.4709 2 27.7549 2 24H-2C-2 27.7002 -2.00108 30.5755 -1.84312 32.8906C-1.68393 35.2238 -1.35656 37.1338 -0.629832 38.8883L3.06569 37.3576ZM10.6424 44.9343C7.21204 43.5134 4.4866 40.788 3.06569 37.3576L-0.629832 38.8883C1.19706 43.2988 4.70119 46.8029 9.1117 48.6298L10.6424 44.9343ZM24 46C20.2451 46 17.5291 45.9989 15.3817 45.8524C13.2522 45.7071 11.8283 45.4255 10.6424 44.9343L9.1117 48.6298C10.8662 49.3566 12.7762 49.6839 15.1094 49.8431C17.4245 50.0011 20.2998 50 24 50V46ZM87.6299 46H24V50H87.6299V46ZM93.0718 54C91.244 50.8341 90.0841 48.8127 89.4972 47.2834L85.7627 48.7166C86.4909 50.6139 87.8559 52.9659 89.6077 56L93.0718 54ZM98.6319 61.7588C98.182 61.595 97.5829 61.1557 96.6354 59.8419C95.6931 58.5353 94.6125 56.6685 93.0718 54L89.6077 56C91.1044 58.5923 92.3017 60.6712 93.3911 62.1817C94.4753 63.6851 95.6616 64.9344 97.2638 65.5175L98.6319 61.7588ZM101.368 61.7588C100.484 62.0804 99.5156 62.0804 98.6319 61.7588L97.2638 65.5175C99.0312 66.1608 100.969 66.1608 102.736 65.5175L101.368 61.7588ZM106.928 54C105.388 56.6685 104.307 58.5353 103.365 59.8419C102.417 61.1557 101.818 61.595 101.368 61.7588L102.736 65.5175C104.338 64.9344 105.525 63.6851 106.609 62.1817C107.698 60.6712 108.896 58.5923 110.392 56L106.928 54ZM110.503 47.2834C109.916 48.8127 108.756 50.8341 106.928 54L110.392 56C112.144 52.9659 113.509 50.6139 114.237 48.7166L110.503 47.2834ZM176 46H112.37V50H176V46ZM189.358 44.9343C188.172 45.4255 186.748 45.7071 184.618 45.8524C182.471 45.9989 179.755 46 176 46V50C179.7 50 182.575 50.0011 184.891 49.8431C187.224 49.6839 189.134 49.3566 190.888 48.6298L189.358 44.9343ZM196.934 37.3576C195.513 40.788 192.788 43.5134 189.358 44.9343L190.888 48.6298C195.299 46.8029 198.803 43.2988 200.63 38.8883L196.934 37.3576ZM198 24C198 27.7549 197.999 30.4709 197.852 32.6183C197.707 34.7478 197.426 36.1717 196.934 37.3576L200.63 38.8883C201.357 37.1338 201.684 35.2238 201.843 32.8906C202.001 30.5755 202 27.7002 202 24H198ZM196.934 10.6424C197.426 11.8283 197.707 13.2522 197.852 15.3817C197.999 17.5291 198 20.2451 198 24H202C202 20.2998 202.001 17.4245 201.843 15.1094C201.684 12.7762 201.357 10.8662 200.63 9.1117L196.934 10.6424ZM189.358 3.06569C192.788 4.4866 195.513 7.21204 196.934 10.6424L200.63 9.1117C198.803 4.70119 195.299 1.19706 190.888 -0.629831L189.358 3.06569ZM176 2C179.755 2 182.471 2.00108 184.618 2.1476C186.748 2.2929 188.172 2.57449 189.358 3.06569L190.888 -0.629832C189.134 -1.35656 187.224 -1.68393 184.891 -1.84312C182.575 -2.00108 179.7 -2 176 -2V2ZM24 2H176V-2H24V2ZM10.6424 3.06569C11.8283 2.57449 13.2522 2.29289 15.3817 2.1476C17.5291 2.00108 20.2451 2 24 2V-2C20.2998 -2 17.4245 -2.00108 15.1094 -1.84312C12.7762 -1.68393 10.8662 -1.35656 9.1117 -0.629832L10.6424 3.06569ZM3.06569 10.6424C4.4866 7.21204 7.21204 4.4866 10.6424 3.06569L9.1117 -0.629832C4.70119 1.19706 1.19706 4.70119 -0.629832 9.1117L3.06569 10.6424Z" fill="#EEEEEE" mask="url(#path-1-inside-1_2032_27992)"/>
<path d="M53.3597 31.16C52.893 31.16 52.5597 31 52.3597 30.68C52.1597 30.36 52.1664 29.9733 52.3797 29.52L57.6597 17.82C57.833 17.4333 58.0397 17.16 58.2797 17C58.533 16.8267 58.8197 16.74 59.1397 16.74C59.4464 16.74 59.7197 16.8267 59.9597 17C60.213 17.16 60.4264 17.4333 60.5997 17.82L65.8997 29.52C66.113 29.9867 66.1264 30.38 65.9397 30.7C65.753 31.0067 65.433 31.16 64.9797 31.16C64.6064 31.16 64.313 31.0733 64.0997 30.9C63.8997 30.7133 63.7197 30.4333 63.5597 30.06L62.5597 27.74H55.6797L54.6997 30.06C54.5264 30.4467 54.3464 30.7267 54.1597 30.9C53.973 31.0733 53.7064 31.16 53.3597 31.16ZM59.0997 19.68L56.5597 25.7H61.6797L59.1397 19.68H59.0997ZM71.0761 31.16C70.3828 31.16 69.9028 30.8133 69.6361 30.12L66.7361 22.72C66.5628 22.2533 66.5694 21.86 66.7561 21.54C66.9561 21.22 67.3028 21.06 67.7961 21.06C68.0894 21.06 68.3294 21.1333 68.5161 21.28C68.7028 21.4133 68.8628 21.6733 68.9961 22.06L71.1961 28.08L73.4561 21.9C73.6694 21.34 74.0494 21.06 74.5961 21.06C75.1561 21.06 75.5361 21.34 75.7361 21.9L77.9961 28.14L80.2161 22C80.3494 21.64 80.5161 21.3933 80.7161 21.26C80.9294 21.1267 81.1628 21.06 81.4161 21.06C81.8961 21.06 82.2094 21.2333 82.3561 21.58C82.5028 21.9133 82.4894 22.2933 82.3161 22.72L79.4361 30.12C79.1561 30.8133 78.6761 31.16 77.9961 31.16C77.2894 31.16 76.8094 30.8133 76.5561 30.12L74.5161 24.7L72.5161 30.1C72.2628 30.8067 71.7828 31.16 71.0761 31.16ZM88.9716 31.2C87.8649 31.2 86.9116 30.9933 86.1116 30.58C85.3116 30.1667 84.6916 29.58 84.2516 28.82C83.8249 28.06 83.6116 27.16 83.6116 26.12C83.6116 25.1067 83.8182 24.22 84.2316 23.46C84.6582 22.7 85.2382 22.1067 85.9716 21.68C86.7182 21.24 87.5649 21.02 88.5116 21.02C89.8982 21.02 90.9916 21.46 91.7916 22.34C92.6049 23.22 93.0116 24.42 93.0116 25.94C93.0116 26.4333 92.6916 26.68 92.0516 26.68H86.0116C86.1982 28.4267 87.1982 29.3 89.0116 29.3C89.3582 29.3 89.7449 29.26 90.1716 29.18C90.6116 29.0867 91.0249 28.9333 91.4116 28.72C91.7582 28.52 92.0516 28.46 92.2916 28.54C92.5316 28.6067 92.6982 28.7467 92.7916 28.96C92.8982 29.1733 92.9116 29.4133 92.8316 29.68C92.7649 29.9333 92.5782 30.1533 92.2716 30.34C91.8049 30.6333 91.2649 30.8533 90.6516 31C90.0516 31.1333 89.4916 31.2 88.9716 31.2ZM88.6116 22.72C87.8782 22.72 87.2849 22.9467 86.8316 23.4C86.3782 23.8533 86.1049 24.4667 86.0116 25.24H90.9316C90.8782 24.4267 90.6516 23.8067 90.2516 23.38C89.8649 22.94 89.3182 22.72 88.6116 22.72ZM98.5714 31.2C97.9981 31.2 97.3914 31.14 96.7514 31.02C96.1114 30.9 95.5381 30.6933 95.0314 30.4C94.7514 30.24 94.5781 30.0467 94.5114 29.82C94.4447 29.58 94.4514 29.36 94.5314 29.16C94.6247 28.9467 94.7714 28.7933 94.9714 28.7C95.1847 28.6067 95.4314 28.6267 95.7114 28.76C96.2447 29.0133 96.7447 29.1933 97.2114 29.3C97.6781 29.3933 98.1381 29.44 98.5914 29.44C99.2314 29.44 99.7047 29.3333 100.011 29.12C100.331 28.8933 100.491 28.6 100.491 28.24C100.491 27.68 100.078 27.32 99.2514 27.16L97.2514 26.78C95.5581 26.46 94.7114 25.58 94.7114 24.14C94.7114 23.5 94.8847 22.9467 95.2314 22.48C95.5914 22.0133 96.0847 21.6533 96.7114 21.4C97.3381 21.1467 98.0581 21.02 98.8714 21.02C100.045 21.02 101.091 21.28 102.011 21.8C102.265 21.9333 102.411 22.12 102.451 22.36C102.505 22.5867 102.478 22.8067 102.371 23.02C102.278 23.22 102.125 23.3667 101.911 23.46C101.698 23.54 101.451 23.5133 101.171 23.38C100.758 23.1667 100.358 23.0133 99.9714 22.92C99.5981 22.8267 99.2381 22.78 98.8914 22.78C98.2381 22.78 97.7514 22.8933 97.4314 23.12C97.1247 23.3467 96.9714 23.6467 96.9714 24.02C96.9714 24.6067 97.3514 24.9667 98.1114 25.1L100.111 25.48C100.978 25.64 101.631 25.9333 102.071 26.36C102.525 26.7867 102.751 27.36 102.751 28.08C102.751 29.0533 102.371 29.82 101.611 30.38C100.851 30.9267 99.8381 31.2 98.5714 31.2ZM109.217 31.2C108.204 31.2 107.324 30.9933 106.577 30.58C105.83 30.1667 105.25 29.58 104.837 28.82C104.424 28.0467 104.217 27.14 104.217 26.1C104.217 25.06 104.424 24.16 104.837 23.4C105.25 22.64 105.83 22.0533 106.577 21.64C107.324 21.2267 108.204 21.02 109.217 21.02C110.23 21.02 111.11 21.2267 111.857 21.64C112.604 22.0533 113.184 22.64 113.597 23.4C114.01 24.16 114.217 25.06 114.217 26.1C114.217 27.14 114.01 28.0467 113.597 28.82C113.184 29.58 112.604 30.1667 111.857 30.58C111.11 30.9933 110.23 31.2 109.217 31.2ZM109.217 29.3C109.964 29.3 110.564 29.0333 111.017 28.5C111.47 27.9533 111.697 27.1533 111.697 26.1C111.697 25.0333 111.47 24.24 111.017 23.72C110.564 23.1867 109.964 22.92 109.217 22.92C108.47 22.92 107.87 23.1867 107.417 23.72C106.964 24.24 106.737 25.0333 106.737 26.1C106.737 27.1533 106.964 27.9533 107.417 28.5C107.87 29.0333 108.47 29.3 109.217 29.3ZM117.56 31.16C116.734 31.16 116.32 30.7333 116.32 29.88V22.32C116.32 21.48 116.727 21.06 117.54 21.06C118.354 21.06 118.76 21.48 118.76 22.32V22.72C119.054 22.1867 119.46 21.7733 119.98 21.48C120.5 21.1733 121.1 21.02 121.78 21.02C123.247 21.02 124.207 21.66 124.66 22.94C124.967 22.34 125.407 21.8733 125.98 21.54C126.554 21.1933 127.207 21.02 127.94 21.02C130.14 21.02 131.24 22.36 131.24 25.04V29.88C131.24 30.7333 130.82 31.16 129.98 31.16C129.154 31.16 128.74 30.7333 128.74 29.88V25.14C128.74 24.3933 128.614 23.8467 128.36 23.5C128.12 23.1533 127.707 22.98 127.12 22.98C126.467 22.98 125.954 23.2133 125.58 23.68C125.207 24.1333 125.02 24.7667 125.02 25.58V29.88C125.02 30.7333 124.607 31.16 123.78 31.16C122.94 31.16 122.52 30.7333 122.52 29.88V25.14C122.52 24.3933 122.394 23.8467 122.14 23.5C121.9 23.1533 121.494 22.98 120.92 22.98C120.267 22.98 119.754 23.2133 119.38 23.68C119.007 24.1333 118.82 24.7667 118.82 25.58V29.88C118.82 30.7333 118.4 31.16 117.56 31.16ZM138.64 31.2C137.533 31.2 136.58 30.9933 135.78 30.58C134.98 30.1667 134.36 29.58 133.92 28.82C133.493 28.06 133.28 27.16 133.28 26.12C133.28 25.1067 133.486 24.22 133.9 23.46C134.326 22.7 134.906 22.1067 135.64 21.68C136.386 21.24 137.233 21.02 138.18 21.02C139.566 21.02 140.66 21.46 141.46 22.34C142.273 23.22 142.68 24.42 142.68 25.94C142.68 26.4333 142.36 26.68 141.72 26.68H135.68C135.866 28.4267 136.866 29.3 138.68 29.3C139.026 29.3 139.413 29.26 139.84 29.18C140.28 29.0867 140.693 28.9333 141.08 28.72C141.426 28.52 141.72 28.46 141.96 28.54C142.2 28.6067 142.366 28.7467 142.46 28.96C142.566 29.1733 142.58 29.4133 142.5 29.68C142.433 29.9333 142.246 30.1533 141.94 30.34C141.473 30.6333 140.933 30.8533 140.32 31C139.72 31.1333 139.16 31.2 138.64 31.2ZM138.28 22.72C137.546 22.72 136.953 22.9467 136.5 23.4C136.046 23.8533 135.773 24.4667 135.68 25.24H140.6C140.546 24.4267 140.32 23.8067 139.92 23.38C139.533 22.94 138.986 22.72 138.28 22.72ZM145.859 26.94C145.339 26.94 145.059 26.6333 145.019 26.02L144.419 18.38C144.379 17.8867 144.486 17.4933 144.739 17.2C144.993 16.8933 145.366 16.74 145.859 16.74C146.339 16.74 146.699 16.8933 146.939 17.2C147.193 17.4933 147.299 17.8867 147.259 18.38L146.659 26.02C146.619 26.6333 146.353 26.94 145.859 26.94ZM145.859 31.1C145.406 31.1 145.039 30.96 144.759 30.68C144.493 30.4 144.359 30.04 144.359 29.6C144.359 29.1733 144.493 28.8267 144.759 28.56C145.039 28.28 145.406 28.14 145.859 28.14C146.326 28.14 146.686 28.28 146.939 28.56C147.206 28.8267 147.339 29.1733 147.339 29.6C147.339 30.04 147.206 30.4 146.939 30.68C146.686 30.96 146.326 31.1 145.859 31.1Z" fill="#212121"/>
</svg>
