<svg width="240" height="116" viewBox="0 0 240 116" fill="none" xmlns="http://www.w3.org/2000/svg">
<mask id="path-1-inside-1_2031_26576" fill="white">
<path fill-rule="evenodd" clip-rule="evenodd" d="M21.6863 4.68629C17 9.37258 17 16.9151 17 32V45.3019C15.1467 45.7909 12.737 47.1822 9 49.3397C3.73917 52.3771 1.10876 53.8958 0.361845 55.9479C-0.120615 57.2734 -0.120615 58.7266 0.361845 60.0521C1.10876 62.1042 3.73917 63.6229 9 66.6603C12.737 68.8178 15.1467 70.209 17 70.6981V84C17 99.0849 17 106.627 21.6863 111.314C26.3726 116 33.9151 116 49 116H208C223.085 116 230.627 116 235.314 111.314C240 106.627 240 99.0849 240 84V32C240 16.9151 240 9.37258 235.314 4.68629C230.627 0 223.085 0 208 0H49C33.9151 0 26.3726 0 21.6863 4.68629Z"/>
</mask>
<path fill-rule="evenodd" clip-rule="evenodd" d="M21.6863 4.68629C17 9.37258 17 16.9151 17 32V45.3019C15.1467 45.7909 12.737 47.1822 9 49.3397C3.73917 52.3771 1.10876 53.8958 0.361845 55.9479C-0.120615 57.2734 -0.120615 58.7266 0.361845 60.0521C1.10876 62.1042 3.73917 63.6229 9 66.6603C12.737 68.8178 15.1467 70.209 17 70.6981V84C17 99.0849 17 106.627 21.6863 111.314C26.3726 116 33.9151 116 49 116H208C223.085 116 230.627 116 235.314 111.314C240 106.627 240 99.0849 240 84V32C240 16.9151 240 9.37258 235.314 4.68629C230.627 0 223.085 0 208 0H49C33.9151 0 26.3726 0 21.6863 4.68629Z" fill="#FAFAFA"/>
<path d="M21.6863 4.68629L20.2721 3.27208V3.27208L21.6863 4.68629ZM17 45.3019L17.5103 47.2357L19 46.8426V45.3019H17ZM9 49.3397L10 51.0718H10L9 49.3397ZM0.361845 55.9479L2.24123 56.6319L0.361845 55.9479ZM0.361845 60.0521L-1.51754 60.7362H-1.51754L0.361845 60.0521ZM9 66.6603L8 68.3923L9 66.6603ZM17 70.6981H19V69.1574L17.5103 68.7643L17 70.6981ZM21.6863 111.314L23.1005 109.899L21.6863 111.314ZM235.314 111.314L233.899 109.899L235.314 111.314ZM19 32C19 24.401 19.0042 18.9029 19.568 14.7101C20.1239 10.5749 21.1909 8.01011 23.1005 6.1005L20.2721 3.27208C17.4954 6.04876 16.2192 9.59836 15.6036 14.1772C14.9958 18.6984 15 24.5141 15 32H19ZM19 45.3019V32H15V45.3019H19ZM10 51.0718C11.8816 49.9854 13.3765 49.1229 14.6312 48.4684C15.8956 47.8091 16.8031 47.4223 17.5103 47.2357L16.4897 43.3681C15.3436 43.6705 14.1196 44.2239 12.7815 44.9218C11.4339 45.6247 9.85534 46.5365 8 47.6077L10 51.0718ZM2.24123 56.6319C2.40499 56.182 2.84432 55.5829 4.15809 54.6354C5.4647 53.6931 7.3315 52.6125 10 51.0718L8 47.6077C5.40768 49.1044 3.32885 50.3017 1.81832 51.3911C0.314941 52.4753 -0.934389 53.6616 -1.51754 55.2638L2.24123 56.6319ZM2.24123 59.3681C1.91959 58.4844 1.91959 57.5156 2.24123 56.6319L-1.51754 55.2638C-2.16082 57.0312 -2.16082 58.9688 -1.51754 60.7362L2.24123 59.3681ZM10 64.9282C7.3315 63.3875 5.4647 62.3069 4.15809 61.3646C2.84432 60.4171 2.40499 59.818 2.24123 59.3681L-1.51754 60.7362C-0.934388 62.3384 0.314942 63.5247 1.81832 64.6089C3.32885 65.6983 5.40768 66.8956 8 68.3923L10 64.9282ZM17.5103 68.7643C16.8031 68.5777 15.8956 68.1909 14.6312 67.5315C13.3765 66.8771 11.8816 66.0146 10 64.9282L8 68.3923C9.85535 69.4635 11.4339 70.3753 12.7815 71.0782C14.1196 71.776 15.3436 72.3294 16.4897 72.6319L17.5103 68.7643ZM19 84V70.6981H15V84H19ZM23.1005 109.899C21.1909 107.99 20.1239 105.425 19.568 101.29C19.0042 97.0971 19 91.599 19 84H15C15 91.4859 14.9958 97.3016 15.6036 101.823C16.2192 106.402 17.4954 109.951 20.2721 112.728L23.1005 109.899ZM49 114C41.401 114 35.9029 113.996 31.7101 113.432C27.5749 112.876 25.0101 111.809 23.1005 109.899L20.2721 112.728C23.0488 115.505 26.5984 116.781 31.1772 117.396C35.6984 118.004 41.5141 118 49 118V114ZM208 114H49V118H208V114ZM233.899 109.899C231.99 111.809 229.425 112.876 225.29 113.432C221.097 113.996 215.599 114 208 114V118C215.486 118 221.302 118.004 225.823 117.396C230.402 116.781 233.951 115.505 236.728 112.728L233.899 109.899ZM238 84C238 91.599 237.996 97.0971 237.432 101.29C236.876 105.425 235.809 107.99 233.899 109.899L236.728 112.728C239.505 109.951 240.781 106.402 241.396 101.823C242.004 97.3016 242 91.4859 242 84H238ZM238 32V84H242V32H238ZM233.899 6.10051C235.809 8.01011 236.876 10.5749 237.432 14.7101C237.996 18.9029 238 24.401 238 32H242C242 24.5141 242.004 18.6984 241.396 14.1772C240.781 9.59836 239.505 6.04876 236.728 3.27208L233.899 6.10051ZM208 2C215.599 2 221.097 2.00425 225.29 2.56795C229.425 3.12392 231.99 4.1909 233.899 6.10051L236.728 3.27208C233.951 0.495395 230.402 -0.780775 225.823 -1.39638C221.302 -2.00425 215.486 -2 208 -2V2ZM49 2H208V-2H49V2ZM23.1005 6.10051C25.0101 4.1909 27.5749 3.12392 31.7101 2.56795C35.9029 2.00425 41.401 2 49 2V-2C41.5141 -2 35.6984 -2.00425 31.1772 -1.39638C26.5984 -0.780775 23.0488 0.495394 20.2721 3.27208L23.1005 6.10051Z" fill="#EEEEEE" mask="url(#path-1-inside-1_2031_26576)"/>
<path d="M40.5 33.16C39.82 33.16 39.3533 32.8 39.1 32.08L34.92 20.26C34.7733 19.8333 34.8 19.4733 35 19.18C35.2133 18.8867 35.5667 18.74 36.06 18.74C36.42 18.74 36.7 18.8267 36.9 19C37.1 19.16 37.26 19.42 37.38 19.78L40.58 29.3L43.94 19.8C44.1933 19.0933 44.62 18.74 45.22 18.74C45.54 18.74 45.7933 18.8267 45.98 19C46.1667 19.1733 46.3267 19.4467 46.46 19.82L49.76 29.44L53.06 19.78C53.18 19.4333 53.34 19.1733 53.54 19C53.74 18.8267 54.0133 18.74 54.36 18.74C54.7867 18.74 55.1 18.8867 55.3 19.18C55.5 19.4733 55.5267 19.8333 55.38 20.26L51.16 32.1C51.0267 32.46 50.8533 32.7267 50.64 32.9C50.4267 33.0733 50.14 33.16 49.78 33.16C49.42 33.16 49.1333 33.0733 48.92 32.9C48.7067 32.7267 48.5333 32.4533 48.4 32.08L45.14 22.82L41.86 32.1C41.7267 32.46 41.5533 32.7267 41.34 32.9C41.14 33.0733 40.86 33.16 40.5 33.16ZM59.8017 33.16C58.9751 33.16 58.5617 32.7333 58.5617 31.88V20C58.5617 19.16 58.9751 18.74 59.8017 18.74C60.6417 18.74 61.0617 19.16 61.0617 20V24.64C61.3951 24.1067 61.8417 23.7067 62.4017 23.44C62.9617 23.16 63.5817 23.02 64.2617 23.02C66.5684 23.02 67.7217 24.36 67.7217 27.04V31.88C67.7217 32.7333 67.3084 33.16 66.4817 33.16C65.6417 33.16 65.2217 32.7333 65.2217 31.88V27.16C65.2217 26.4 65.0751 25.8467 64.7817 25.5C64.5017 25.1533 64.0617 24.98 63.4617 24.98C62.7284 24.98 62.1417 25.2133 61.7017 25.68C61.2751 26.1333 61.0617 26.74 61.0617 27.5V31.88C61.0617 32.7333 60.6417 33.16 59.8017 33.16ZM73.4809 33.2C72.7743 33.2 72.1409 33.0667 71.5809 32.8C71.0343 32.52 70.6009 32.1467 70.2809 31.68C69.9743 31.2133 69.8209 30.6867 69.8209 30.1C69.8209 29.38 70.0076 28.8133 70.3809 28.4C70.7543 27.9733 71.3609 27.6667 72.2009 27.48C73.0409 27.2933 74.1676 27.2 75.5809 27.2H76.2809V26.78C76.2809 26.1133 76.1343 25.6333 75.8409 25.34C75.5476 25.0467 75.0543 24.9 74.3609 24.9C73.9743 24.9 73.5543 24.9467 73.1009 25.04C72.6609 25.1333 72.1943 25.2933 71.7009 25.52C71.3809 25.6667 71.1143 25.6867 70.9009 25.58C70.6876 25.46 70.5409 25.28 70.4609 25.04C70.3943 24.7867 70.4076 24.5333 70.5009 24.28C70.6076 24.0267 70.8143 23.84 71.1209 23.72C71.7343 23.4667 72.3209 23.2867 72.8809 23.18C73.4543 23.0733 73.9743 23.02 74.4409 23.02C75.8676 23.02 76.9276 23.3533 77.6209 24.02C78.3143 24.6733 78.6609 25.6933 78.6609 27.08V31.88C78.6609 32.7333 78.2743 33.16 77.5009 33.16C76.7143 33.16 76.3209 32.7333 76.3209 31.88V31.44C76.0943 31.9867 75.7343 32.42 75.2409 32.74C74.7476 33.0467 74.1609 33.2 73.4809 33.2ZM74.0009 31.48C74.6543 31.48 75.1943 31.2533 75.6209 30.8C76.0609 30.3467 76.2809 29.7733 76.2809 29.08V28.64H75.6009C74.3476 28.64 73.4743 28.74 72.9809 28.94C72.5009 29.1267 72.2609 29.4733 72.2609 29.98C72.2609 30.42 72.4143 30.78 72.7209 31.06C73.0276 31.34 73.4543 31.48 74.0009 31.48ZM85.6784 33.2C83.0918 33.2 81.7984 31.92 81.7984 29.36V25.1H80.7584C80.0918 25.1 79.7584 24.7867 79.7584 24.16C79.7584 23.5333 80.0918 23.22 80.7584 23.22H81.7984V21.4C81.7984 20.56 82.2184 20.14 83.0584 20.14C83.8851 20.14 84.2984 20.56 84.2984 21.4V23.22H86.4184C87.0851 23.22 87.4184 23.5333 87.4184 24.16C87.4184 24.7867 87.0851 25.1 86.4184 25.1H84.2984V29.22C84.2984 29.86 84.4384 30.34 84.7184 30.66C84.9984 30.98 85.4518 31.14 86.0784 31.14C86.3051 31.14 86.5051 31.12 86.6784 31.08C86.8518 31.04 87.0051 31.0133 87.1384 31C87.2984 30.9867 87.4318 31.04 87.5384 31.16C87.6451 31.2667 87.6984 31.4933 87.6984 31.84C87.6984 32.1067 87.6518 32.3467 87.5584 32.56C87.4784 32.76 87.3251 32.9 87.0984 32.98C86.9251 33.0333 86.6984 33.08 86.4184 33.12C86.1384 33.1733 85.8918 33.2 85.6784 33.2ZM97.6439 33.2C95.4172 33.2 94.3039 31.9533 94.3039 29.46V20C94.3039 19.16 94.7172 18.74 95.5439 18.74C96.3839 18.74 96.8039 19.16 96.8039 20V29.34C96.8039 30.54 97.3039 31.14 98.3039 31.14C98.4106 31.14 98.5106 31.14 98.6039 31.14C98.6972 31.1267 98.7906 31.1133 98.8839 31.1C99.0706 31.0733 99.1972 31.1267 99.2639 31.26C99.3306 31.38 99.3639 31.6333 99.3639 32.02C99.3639 32.3533 99.2972 32.6133 99.1639 32.8C99.0306 32.9867 98.8106 33.1 98.5039 33.14C98.2239 33.18 97.9372 33.2 97.6439 33.2ZM103.911 33.2C103.204 33.2 102.571 33.0667 102.011 32.8C101.464 32.52 101.031 32.1467 100.711 31.68C100.404 31.2133 100.251 30.6867 100.251 30.1C100.251 29.38 100.437 28.8133 100.811 28.4C101.184 27.9733 101.791 27.6667 102.631 27.48C103.471 27.2933 104.597 27.2 106.011 27.2H106.711V26.78C106.711 26.1133 106.564 25.6333 106.271 25.34C105.977 25.0467 105.484 24.9 104.791 24.9C104.404 24.9 103.984 24.9467 103.531 25.04C103.091 25.1333 102.624 25.2933 102.131 25.52C101.811 25.6667 101.544 25.6867 101.331 25.58C101.117 25.46 100.971 25.28 100.891 25.04C100.824 24.7867 100.837 24.5333 100.931 24.28C101.037 24.0267 101.244 23.84 101.551 23.72C102.164 23.4667 102.751 23.2867 103.311 23.18C103.884 23.0733 104.404 23.02 104.871 23.02C106.297 23.02 107.357 23.3533 108.051 24.02C108.744 24.6733 109.091 25.6933 109.091 27.08V31.88C109.091 32.7333 108.704 33.16 107.931 33.16C107.144 33.16 106.751 32.7333 106.751 31.88V31.44C106.524 31.9867 106.164 32.42 105.671 32.74C105.177 33.0467 104.591 33.2 103.911 33.2ZM104.431 31.48C105.084 31.48 105.624 31.2533 106.051 30.8C106.491 30.3467 106.711 29.7733 106.711 29.08V28.64H106.031C104.777 28.64 103.904 28.74 103.411 28.94C102.931 29.1267 102.691 29.4733 102.691 29.98C102.691 30.42 102.844 30.78 103.151 31.06C103.457 31.34 103.884 31.48 104.431 31.48ZM112.868 33.16C112.041 33.16 111.628 32.7333 111.628 31.88V24.32C111.628 23.48 112.035 23.06 112.848 23.06C113.661 23.06 114.068 23.48 114.068 24.32V24.74C114.401 24.18 114.848 23.7533 115.408 23.46C115.981 23.1667 116.621 23.02 117.328 23.02C119.635 23.02 120.788 24.36 120.788 27.04V31.88C120.788 32.7333 120.375 33.16 119.548 33.16C118.708 33.16 118.288 32.7333 118.288 31.88V27.16C118.288 26.4 118.141 25.8467 117.848 25.5C117.568 25.1533 117.128 24.98 116.528 24.98C115.795 24.98 115.208 25.2133 114.768 25.68C114.341 26.1333 114.128 26.74 114.128 27.5V31.88C114.128 32.7333 113.708 33.16 112.868 33.16ZM127.887 36.8C127.167 36.8 126.467 36.7333 125.787 36.6C125.121 36.4667 124.514 36.26 123.967 35.98C123.647 35.82 123.454 35.6133 123.387 35.36C123.334 35.12 123.361 34.8867 123.467 34.66C123.574 34.4333 123.734 34.2667 123.947 34.16C124.174 34.0667 124.414 34.08 124.667 34.2C125.254 34.4933 125.807 34.68 126.327 34.76C126.861 34.8533 127.314 34.9 127.687 34.9C129.474 34.9 130.367 34.04 130.367 32.32V30.98C130.087 31.5267 129.654 31.96 129.067 32.28C128.494 32.6 127.854 32.76 127.147 32.76C126.267 32.76 125.501 32.56 124.847 32.16C124.194 31.7467 123.687 31.1733 123.327 30.44C122.967 29.7067 122.787 28.8533 122.787 27.88C122.787 26.9067 122.967 26.06 123.327 25.34C123.687 24.6067 124.194 24.04 124.847 23.64C125.501 23.2267 126.267 23.02 127.147 23.02C127.854 23.02 128.494 23.1733 129.067 23.48C129.641 23.7867 130.061 24.2067 130.327 24.74V24.32C130.327 23.9067 130.434 23.5933 130.647 23.38C130.874 23.1667 131.181 23.06 131.567 23.06C132.394 23.06 132.807 23.48 132.807 24.32V32.02C132.807 33.6067 132.387 34.8 131.547 35.6C130.707 36.4 129.487 36.8 127.887 36.8ZM127.827 30.86C128.601 30.86 129.214 30.5933 129.667 30.06C130.121 29.5267 130.347 28.8 130.347 27.88C130.347 26.96 130.121 26.24 129.667 25.72C129.214 25.1867 128.601 24.92 127.827 24.92C127.054 24.92 126.441 25.1867 125.987 25.72C125.534 26.24 125.307 26.96 125.307 27.88C125.307 28.8 125.534 29.5267 125.987 30.06C126.441 30.5933 127.054 30.86 127.827 30.86ZM138.938 33.2C136.538 33.2 135.338 31.8533 135.338 29.16V24.32C135.338 23.48 135.751 23.06 136.578 23.06C137.418 23.06 137.838 23.48 137.838 24.32V29.2C137.838 29.8933 137.978 30.4067 138.258 30.74C138.538 31.0733 138.984 31.24 139.598 31.24C140.264 31.24 140.811 31.0133 141.238 30.56C141.664 30.0933 141.878 29.48 141.878 28.72V24.32C141.878 23.48 142.291 23.06 143.118 23.06C143.958 23.06 144.378 23.48 144.378 24.32V31.88C144.378 32.7333 143.971 33.16 143.158 33.16C142.344 33.16 141.938 32.7333 141.938 31.88V31.54C141.284 32.6467 140.284 33.2 138.938 33.2ZM150.2 33.2C149.493 33.2 148.86 33.0667 148.3 32.8C147.753 32.52 147.32 32.1467 147 31.68C146.693 31.2133 146.54 30.6867 146.54 30.1C146.54 29.38 146.726 28.8133 147.1 28.4C147.473 27.9733 148.08 27.6667 148.92 27.48C149.76 27.2933 150.886 27.2 152.3 27.2H153V26.78C153 26.1133 152.853 25.6333 152.56 25.34C152.266 25.0467 151.773 24.9 151.08 24.9C150.693 24.9 150.273 24.9467 149.82 25.04C149.38 25.1333 148.913 25.2933 148.42 25.52C148.1 25.6667 147.833 25.6867 147.62 25.58C147.406 25.46 147.26 25.28 147.18 25.04C147.113 24.7867 147.126 24.5333 147.22 24.28C147.326 24.0267 147.533 23.84 147.84 23.72C148.453 23.4667 149.04 23.2867 149.6 23.18C150.173 23.0733 150.693 23.02 151.16 23.02C152.586 23.02 153.646 23.3533 154.34 24.02C155.033 24.6733 155.38 25.6933 155.38 27.08V31.88C155.38 32.7333 154.993 33.16 154.22 33.16C153.433 33.16 153.04 32.7333 153.04 31.88V31.44C152.813 31.9867 152.453 32.42 151.96 32.74C151.466 33.0467 150.88 33.2 150.2 33.2ZM150.72 31.48C151.373 31.48 151.913 31.2533 152.34 30.8C152.78 30.3467 153 29.7733 153 29.08V28.64H152.32C151.066 28.64 150.193 28.74 149.7 28.94C149.22 29.1267 148.98 29.4733 148.98 29.98C148.98 30.42 149.133 30.78 149.44 31.06C149.746 31.34 150.173 31.48 150.72 31.48ZM162.477 36.8C161.757 36.8 161.057 36.7333 160.377 36.6C159.711 36.4667 159.104 36.26 158.557 35.98C158.237 35.82 158.044 35.6133 157.977 35.36C157.924 35.12 157.951 34.8867 158.057 34.66C158.164 34.4333 158.324 34.2667 158.537 34.16C158.764 34.0667 159.004 34.08 159.257 34.2C159.844 34.4933 160.397 34.68 160.917 34.76C161.451 34.8533 161.904 34.9 162.277 34.9C164.064 34.9 164.957 34.04 164.957 32.32V30.98C164.677 31.5267 164.244 31.96 163.657 32.28C163.084 32.6 162.444 32.76 161.737 32.76C160.857 32.76 160.091 32.56 159.437 32.16C158.784 31.7467 158.277 31.1733 157.917 30.44C157.557 29.7067 157.377 28.8533 157.377 27.88C157.377 26.9067 157.557 26.06 157.917 25.34C158.277 24.6067 158.784 24.04 159.437 23.64C160.091 23.2267 160.857 23.02 161.737 23.02C162.444 23.02 163.084 23.1733 163.657 23.48C164.231 23.7867 164.651 24.2067 164.917 24.74V24.32C164.917 23.9067 165.024 23.5933 165.237 23.38C165.464 23.1667 165.771 23.06 166.157 23.06C166.984 23.06 167.397 23.48 167.397 24.32V32.02C167.397 33.6067 166.977 34.8 166.137 35.6C165.297 36.4 164.077 36.8 162.477 36.8ZM162.417 30.86C163.191 30.86 163.804 30.5933 164.257 30.06C164.711 29.5267 164.937 28.8 164.937 27.88C164.937 26.96 164.711 26.24 164.257 25.72C163.804 25.1867 163.191 24.92 162.417 24.92C161.644 24.92 161.031 25.1867 160.577 25.72C160.124 26.24 159.897 26.96 159.897 27.88C159.897 28.8 160.124 29.5267 160.577 30.06C161.031 30.5933 161.644 30.86 162.417 30.86ZM174.808 33.2C173.701 33.2 172.748 32.9933 171.948 32.58C171.148 32.1667 170.528 31.58 170.088 30.82C169.661 30.06 169.448 29.16 169.448 28.12C169.448 27.1067 169.654 26.22 170.068 25.46C170.494 24.7 171.074 24.1067 171.808 23.68C172.554 23.24 173.401 23.02 174.348 23.02C175.734 23.02 176.828 23.46 177.628 24.34C178.441 25.22 178.848 26.42 178.848 27.94C178.848 28.4333 178.528 28.68 177.888 28.68H171.848C172.034 30.4267 173.034 31.3 174.848 31.3C175.194 31.3 175.581 31.26 176.008 31.18C176.448 31.0867 176.861 30.9333 177.248 30.72C177.594 30.52 177.888 30.46 178.128 30.54C178.368 30.6067 178.534 30.7467 178.628 30.96C178.734 31.1733 178.748 31.4133 178.668 31.68C178.601 31.9333 178.414 32.1533 178.108 32.34C177.641 32.6333 177.101 32.8533 176.488 33C175.888 33.1333 175.328 33.2 174.808 33.2ZM174.448 24.72C173.714 24.72 173.121 24.9467 172.668 25.4C172.214 25.8533 171.941 26.4667 171.848 27.24H176.768C176.714 26.4267 176.488 25.8067 176.088 25.38C175.701 24.94 175.154 24.72 174.448 24.72ZM190.017 33.2C189.164 33.2 188.41 32.9933 187.757 32.58C187.117 32.1667 186.617 31.58 186.257 30.82C185.897 30.0467 185.717 29.14 185.717 28.1C185.717 27.0467 185.897 26.1467 186.257 25.4C186.617 24.64 187.117 24.0533 187.757 23.64C188.41 23.2267 189.164 23.02 190.017 23.02C190.71 23.02 191.337 23.1733 191.897 23.48C192.457 23.7867 192.877 24.1933 193.157 24.7V20C193.157 19.16 193.57 18.74 194.397 18.74C195.237 18.74 195.657 19.16 195.657 20V31.88C195.657 32.7333 195.244 33.16 194.417 33.16C193.59 33.16 193.177 32.7333 193.177 31.88V31.46C192.897 31.9933 192.477 32.42 191.917 32.74C191.357 33.0467 190.724 33.2 190.017 33.2ZM190.717 31.3C191.464 31.3 192.064 31.0333 192.517 30.5C192.97 29.9533 193.197 29.1533 193.197 28.1C193.197 27.0333 192.97 26.24 192.517 25.72C192.064 25.1867 191.464 24.92 190.717 24.92C189.97 24.92 189.37 25.1867 188.917 25.72C188.464 26.24 188.237 27.0333 188.237 28.1C188.237 29.1533 188.464 29.9533 188.917 30.5C189.37 31.0333 189.97 31.3 190.717 31.3ZM202.709 33.2C201.696 33.2 200.816 32.9933 200.069 32.58C199.323 32.1667 198.743 31.58 198.329 30.82C197.916 30.0467 197.709 29.14 197.709 28.1C197.709 27.06 197.916 26.16 198.329 25.4C198.743 24.64 199.323 24.0533 200.069 23.64C200.816 23.2267 201.696 23.02 202.709 23.02C203.723 23.02 204.603 23.2267 205.349 23.64C206.096 24.0533 206.676 24.64 207.089 25.4C207.503 26.16 207.709 27.06 207.709 28.1C207.709 29.14 207.503 30.0467 207.089 30.82C206.676 31.58 206.096 32.1667 205.349 32.58C204.603 32.9933 203.723 33.2 202.709 33.2ZM202.709 31.3C203.456 31.3 204.056 31.0333 204.509 30.5C204.963 29.9533 205.189 29.1533 205.189 28.1C205.189 27.0333 204.963 26.24 204.509 25.72C204.056 25.1867 203.456 24.92 202.709 24.92C201.963 24.92 201.363 25.1867 200.909 25.72C200.456 26.24 200.229 27.0333 200.229 28.1C200.229 29.1533 200.456 29.9533 200.909 30.5C201.363 31.0333 201.963 31.3 202.709 31.3ZM37.78 68.76C37.3267 68.76 37.0133 68.5933 36.84 68.26C36.6667 67.9267 36.6733 67.5467 36.86 67.12L38 64.6L34.58 56.72C34.3933 56.28 34.3933 55.8933 34.58 55.56C34.7667 55.2267 35.1333 55.06 35.68 55.06C35.9867 55.06 36.2333 55.1333 36.42 55.28C36.6067 55.4133 36.7733 55.6733 36.92 56.06L39.32 62.06L41.78 56.04C41.9267 55.6667 42.1 55.4133 42.3 55.28C42.5 55.1333 42.7667 55.06 43.1 55.06C43.5267 55.06 43.8267 55.2267 44 55.56C44.1733 55.8933 44.1667 56.2733 43.98 56.7L39.12 67.8C38.9467 68.1733 38.76 68.4267 38.56 68.56C38.36 68.6933 38.1 68.76 37.78 68.76ZM50.092 65.2C49.0787 65.2 48.1987 64.9933 47.452 64.58C46.7054 64.1667 46.1254 63.58 45.712 62.82C45.2987 62.0467 45.092 61.14 45.092 60.1C45.092 59.06 45.2987 58.16 45.712 57.4C46.1254 56.64 46.7054 56.0533 47.452 55.64C48.1987 55.2267 49.0787 55.02 50.092 55.02C51.1054 55.02 51.9854 55.2267 52.732 55.64C53.4787 56.0533 54.0587 56.64 54.472 57.4C54.8854 58.16 55.092 59.06 55.092 60.1C55.092 61.14 54.8854 62.0467 54.472 62.82C54.0587 63.58 53.4787 64.1667 52.732 64.58C51.9854 64.9933 51.1054 65.2 50.092 65.2ZM50.092 63.3C50.8387 63.3 51.4387 63.0333 51.892 62.5C52.3454 61.9533 52.572 61.1533 52.572 60.1C52.572 59.0333 52.3454 58.24 51.892 57.72C51.4387 57.1867 50.8387 56.92 50.092 56.92C49.3454 56.92 48.7454 57.1867 48.292 57.72C47.8387 58.24 47.612 59.0333 47.612 60.1C47.612 61.1533 47.8387 61.9533 48.292 62.5C48.7454 63.0333 49.3454 63.3 50.092 63.3ZM60.6955 65.2C58.2955 65.2 57.0955 63.8533 57.0955 61.16V56.32C57.0955 55.48 57.5088 55.06 58.3355 55.06C59.1755 55.06 59.5955 55.48 59.5955 56.32V61.2C59.5955 61.8933 59.7355 62.4067 60.0155 62.74C60.2955 63.0733 60.7421 63.24 61.3555 63.24C62.0221 63.24 62.5688 63.0133 62.9955 62.56C63.4221 62.0933 63.6355 61.48 63.6355 60.72V56.32C63.6355 55.48 64.0488 55.06 64.8755 55.06C65.7155 55.06 66.1355 55.48 66.1355 56.32V63.88C66.1355 64.7333 65.7288 65.16 64.9155 65.16C64.1021 65.16 63.6955 64.7333 63.6955 63.88V63.54C63.0421 64.6467 62.0421 65.2 60.6955 65.2ZM77.9472 65.16C77.2539 65.16 76.7739 64.8133 76.5072 64.12L73.6072 56.72C73.4339 56.2533 73.4405 55.86 73.6272 55.54C73.8272 55.22 74.1739 55.06 74.6672 55.06C74.9605 55.06 75.2005 55.1333 75.3872 55.28C75.5739 55.4133 75.7339 55.6733 75.8672 56.06L78.0672 62.08L80.3272 55.9C80.5405 55.34 80.9205 55.06 81.4672 55.06C82.0272 55.06 82.4072 55.34 82.6072 55.9L84.8672 62.14L87.0872 56C87.2205 55.64 87.3872 55.3933 87.5872 55.26C87.8005 55.1267 88.0339 55.06 88.2872 55.06C88.7672 55.06 89.0805 55.2333 89.2272 55.58C89.3739 55.9133 89.3605 56.2933 89.1872 56.72L86.3072 64.12C86.0272 64.8133 85.5472 65.16 84.8672 65.16C84.1605 65.16 83.6805 64.8133 83.4272 64.12L81.3872 58.7L79.3872 64.1C79.1339 64.8067 78.6539 65.16 77.9472 65.16ZM94.2427 65.2C93.536 65.2 92.9027 65.0667 92.3427 64.8C91.796 64.52 91.3627 64.1467 91.0427 63.68C90.736 63.2133 90.5827 62.6867 90.5827 62.1C90.5827 61.38 90.7693 60.8133 91.1427 60.4C91.516 59.9733 92.1227 59.6667 92.9627 59.48C93.8027 59.2933 94.9293 59.2 96.3427 59.2H97.0427V58.78C97.0427 58.1133 96.896 57.6333 96.6027 57.34C96.3093 57.0467 95.816 56.9 95.1227 56.9C94.736 56.9 94.316 56.9467 93.8627 57.04C93.4227 57.1333 92.956 57.2933 92.4627 57.52C92.1427 57.6667 91.876 57.6867 91.6627 57.58C91.4493 57.46 91.3027 57.28 91.2227 57.04C91.156 56.7867 91.1693 56.5333 91.2627 56.28C91.3693 56.0267 91.576 55.84 91.8827 55.72C92.496 55.4667 93.0827 55.2867 93.6427 55.18C94.216 55.0733 94.736 55.02 95.2027 55.02C96.6293 55.02 97.6893 55.3533 98.3827 56.02C99.076 56.6733 99.4227 57.6933 99.4227 59.08V63.88C99.4227 64.7333 99.036 65.16 98.2627 65.16C97.476 65.16 97.0827 64.7333 97.0827 63.88V63.44C96.856 63.9867 96.496 64.42 96.0027 64.74C95.5093 65.0467 94.9227 65.2 94.2427 65.2ZM94.7627 63.48C95.416 63.48 95.956 63.2533 96.3827 62.8C96.8227 62.3467 97.0427 61.7733 97.0427 61.08V60.64H96.3627C95.1093 60.64 94.236 60.74 93.7427 60.94C93.2627 61.1267 93.0227 61.4733 93.0227 61.98C93.0227 62.42 93.176 62.78 93.4827 63.06C93.7893 63.34 94.216 63.48 94.7627 63.48ZM103.2 65.16C102.373 65.16 101.96 64.7333 101.96 63.88V56.32C101.96 55.48 102.367 55.06 103.18 55.06C103.993 55.06 104.4 55.48 104.4 56.32V56.74C104.733 56.18 105.18 55.7533 105.74 55.46C106.313 55.1667 106.953 55.02 107.66 55.02C109.967 55.02 111.12 56.36 111.12 59.04V63.88C111.12 64.7333 110.707 65.16 109.88 65.16C109.04 65.16 108.62 64.7333 108.62 63.88V59.16C108.62 58.4 108.473 57.8467 108.18 57.5C107.9 57.1533 107.46 56.98 106.86 56.98C106.127 56.98 105.54 57.2133 105.1 57.68C104.673 58.1333 104.46 58.74 104.46 59.5V63.88C104.46 64.7333 104.04 65.16 103.2 65.16ZM118.139 65.2C115.553 65.2 114.259 63.92 114.259 61.36V57.1H113.219C112.553 57.1 112.219 56.7867 112.219 56.16C112.219 55.5333 112.553 55.22 113.219 55.22H114.259V53.4C114.259 52.56 114.679 52.14 115.519 52.14C116.346 52.14 116.759 52.56 116.759 53.4V55.22H118.879C119.546 55.22 119.879 55.5333 119.879 56.16C119.879 56.7867 119.546 57.1 118.879 57.1H116.759V61.22C116.759 61.86 116.899 62.34 117.179 62.66C117.459 62.98 117.913 63.14 118.539 63.14C118.766 63.14 118.966 63.12 119.139 63.08C119.313 63.04 119.466 63.0133 119.599 63C119.759 62.9867 119.893 63.04 119.999 63.16C120.106 63.2667 120.159 63.4933 120.159 63.84C120.159 64.1067 120.113 64.3467 120.019 64.56C119.939 64.76 119.786 64.9 119.559 64.98C119.386 65.0333 119.159 65.08 118.879 65.12C118.599 65.1733 118.353 65.2 118.139 65.2ZM131.245 65.2C128.658 65.2 127.365 63.92 127.365 61.36V57.1H126.325C125.658 57.1 125.325 56.7867 125.325 56.16C125.325 55.5333 125.658 55.22 126.325 55.22H127.365V53.4C127.365 52.56 127.785 52.14 128.625 52.14C129.452 52.14 129.865 52.56 129.865 53.4V55.22H131.985C132.652 55.22 132.985 55.5333 132.985 56.16C132.985 56.7867 132.652 57.1 131.985 57.1H129.865V61.22C129.865 61.86 130.005 62.34 130.285 62.66C130.565 62.98 131.018 63.14 131.645 63.14C131.872 63.14 132.072 63.12 132.245 63.08C132.418 63.04 132.572 63.0133 132.705 63C132.865 62.9867 132.998 63.04 133.105 63.16C133.212 63.2667 133.265 63.4933 133.265 63.84C133.265 64.1067 133.218 64.3467 133.125 64.56C133.045 64.76 132.892 64.9 132.665 64.98C132.492 65.0333 132.265 65.08 131.985 65.12C131.705 65.1733 131.458 65.2 131.245 65.2ZM138.803 65.2C137.79 65.2 136.91 64.9933 136.163 64.58C135.416 64.1667 134.836 63.58 134.423 62.82C134.01 62.0467 133.803 61.14 133.803 60.1C133.803 59.06 134.01 58.16 134.423 57.4C134.836 56.64 135.416 56.0533 136.163 55.64C136.91 55.2267 137.79 55.02 138.803 55.02C139.816 55.02 140.696 55.2267 141.443 55.64C142.19 56.0533 142.77 56.64 143.183 57.4C143.596 58.16 143.803 59.06 143.803 60.1C143.803 61.14 143.596 62.0467 143.183 62.82C142.77 63.58 142.19 64.1667 141.443 64.58C140.696 64.9933 139.816 65.2 138.803 65.2ZM138.803 63.3C139.55 63.3 140.15 63.0333 140.603 62.5C141.056 61.9533 141.283 61.1533 141.283 60.1C141.283 59.0333 141.056 58.24 140.603 57.72C140.15 57.1867 139.55 56.92 138.803 56.92C138.056 56.92 137.456 57.1867 137.003 57.72C136.55 58.24 136.323 59.0333 136.323 60.1C136.323 61.1533 136.55 61.9533 137.003 62.5C137.456 63.0333 138.056 63.3 138.803 63.3ZM154.836 65.2C152.436 65.2 151.236 63.8533 151.236 61.16V56.32C151.236 55.48 151.649 55.06 152.476 55.06C153.316 55.06 153.736 55.48 153.736 56.32V61.2C153.736 61.8933 153.876 62.4067 154.156 62.74C154.436 63.0733 154.883 63.24 155.496 63.24C156.163 63.24 156.709 63.0133 157.136 62.56C157.563 62.0933 157.776 61.48 157.776 60.72V56.32C157.776 55.48 158.189 55.06 159.016 55.06C159.856 55.06 160.276 55.48 160.276 56.32V63.88C160.276 64.7333 159.869 65.16 159.056 65.16C158.243 65.16 157.836 64.7333 157.836 63.88V63.54C157.183 64.6467 156.183 65.2 154.836 65.2ZM166.458 65.2C165.885 65.2 165.278 65.14 164.638 65.02C163.998 64.9 163.425 64.6933 162.918 64.4C162.638 64.24 162.465 64.0467 162.398 63.82C162.331 63.58 162.338 63.36 162.418 63.16C162.511 62.9467 162.658 62.7933 162.858 62.7C163.071 62.6067 163.318 62.6267 163.598 62.76C164.131 63.0133 164.631 63.1933 165.098 63.3C165.565 63.3933 166.025 63.44 166.478 63.44C167.118 63.44 167.591 63.3333 167.898 63.12C168.218 62.8933 168.378 62.6 168.378 62.24C168.378 61.68 167.965 61.32 167.138 61.16L165.138 60.78C163.445 60.46 162.598 59.58 162.598 58.14C162.598 57.5 162.771 56.9467 163.118 56.48C163.478 56.0133 163.971 55.6533 164.598 55.4C165.225 55.1467 165.945 55.02 166.758 55.02C167.931 55.02 168.978 55.28 169.898 55.8C170.151 55.9333 170.298 56.12 170.338 56.36C170.391 56.5867 170.365 56.8067 170.258 57.02C170.165 57.22 170.011 57.3667 169.798 57.46C169.585 57.54 169.338 57.5133 169.058 57.38C168.645 57.1667 168.245 57.0133 167.858 56.92C167.485 56.8267 167.125 56.78 166.778 56.78C166.125 56.78 165.638 56.8933 165.318 57.12C165.011 57.3467 164.858 57.6467 164.858 58.02C164.858 58.6067 165.238 58.9667 165.998 59.1L167.998 59.48C168.865 59.64 169.518 59.9333 169.958 60.36C170.411 60.7867 170.638 61.36 170.638 62.08C170.638 63.0533 170.258 63.82 169.498 64.38C168.738 64.9267 167.725 65.2 166.458 65.2ZM177.464 65.2C176.357 65.2 175.404 64.9933 174.604 64.58C173.804 64.1667 173.184 63.58 172.744 62.82C172.317 62.06 172.104 61.16 172.104 60.12C172.104 59.1067 172.31 58.22 172.724 57.46C173.15 56.7 173.73 56.1067 174.464 55.68C175.21 55.24 176.057 55.02 177.004 55.02C178.39 55.02 179.484 55.46 180.284 56.34C181.097 57.22 181.504 58.42 181.504 59.94C181.504 60.4333 181.184 60.68 180.544 60.68H174.504C174.69 62.4267 175.69 63.3 177.504 63.3C177.85 63.3 178.237 63.26 178.664 63.18C179.104 63.0867 179.517 62.9333 179.904 62.72C180.25 62.52 180.544 62.46 180.784 62.54C181.024 62.6067 181.19 62.7467 181.284 62.96C181.39 63.1733 181.404 63.4133 181.324 63.68C181.257 63.9333 181.07 64.1533 180.764 64.34C180.297 64.6333 179.757 64.8533 179.144 65C178.544 65.1333 177.984 65.2 177.464 65.2ZM177.104 56.72C176.37 56.72 175.777 56.9467 175.324 57.4C174.87 57.8533 174.597 58.4667 174.504 59.24H179.424C179.37 58.4267 179.144 57.8067 178.744 57.38C178.357 56.94 177.81 56.72 177.104 56.72ZM190.833 65.16C189.993 65.16 189.573 64.7333 189.573 63.88V57.1H188.653C187.987 57.1 187.653 56.7867 187.653 56.16C187.653 55.5333 187.987 55.22 188.653 55.22H189.573V55.2C189.573 53.8267 189.92 52.8 190.613 52.12C191.307 51.4267 192.307 51.02 193.613 50.9L194.293 50.84C194.64 50.8133 194.893 50.8867 195.053 51.06C195.213 51.2333 195.293 51.4467 195.293 51.7C195.307 51.94 195.247 52.16 195.113 52.36C194.98 52.5467 194.787 52.6533 194.533 52.68L194.253 52.7C193.493 52.7533 192.94 52.9467 192.593 53.28C192.247 53.6133 192.073 54.12 192.073 54.8V55.22H193.773C194.44 55.22 194.773 55.5333 194.773 56.16C194.773 56.7867 194.44 57.1 193.773 57.1H192.073V63.88C192.073 64.7333 191.66 65.16 190.833 65.16ZM200.405 65.2C199.391 65.2 198.511 64.9933 197.765 64.58C197.018 64.1667 196.438 63.58 196.025 62.82C195.611 62.0467 195.405 61.14 195.405 60.1C195.405 59.06 195.611 58.16 196.025 57.4C196.438 56.64 197.018 56.0533 197.765 55.64C198.511 55.2267 199.391 55.02 200.405 55.02C201.418 55.02 202.298 55.2267 203.045 55.64C203.791 56.0533 204.371 56.64 204.785 57.4C205.198 58.16 205.405 59.06 205.405 60.1C205.405 61.14 205.198 62.0467 204.785 62.82C204.371 63.58 203.791 64.1667 203.045 64.58C202.298 64.9933 201.418 65.2 200.405 65.2ZM200.405 63.3C201.151 63.3 201.751 63.0333 202.205 62.5C202.658 61.9533 202.885 61.1533 202.885 60.1C202.885 59.0333 202.658 58.24 202.205 57.72C201.751 57.1867 201.151 56.92 200.405 56.92C199.658 56.92 199.058 57.1867 198.605 57.72C198.151 58.24 197.925 59.0333 197.925 60.1C197.925 61.1533 198.151 61.9533 198.605 62.5C199.058 63.0333 199.658 63.3 200.405 63.3ZM208.748 65.16C207.895 65.16 207.468 64.7333 207.468 63.88V56.32C207.468 55.48 207.875 55.06 208.688 55.06C209.501 55.06 209.908 55.48 209.908 56.32V56.94C210.388 55.7933 211.415 55.1533 212.988 55.02C213.561 54.9533 213.881 55.28 213.948 56C214.015 56.7067 213.668 57.1 212.908 57.18L212.468 57.22C210.828 57.38 210.008 58.22 210.008 59.74V63.88C210.008 64.7333 209.588 65.16 208.748 65.16ZM36.9 97C35.9933 97 35.54 96.5467 35.54 95.64V84.26C35.54 83.3533 35.9933 82.9 36.9 82.9H44.04C44.7333 82.9 45.08 83.2333 45.08 83.9C45.08 84.5933 44.7333 84.94 44.04 84.94H38V88.82H43.6C44.2933 88.82 44.64 89.16 44.64 89.84C44.64 90.52 44.2933 90.86 43.6 90.86H38V94.96H44.04C44.7333 94.96 45.08 95.3 45.08 95.98C45.08 96.66 44.7333 97 44.04 97H36.9ZM50.5736 97.2C48.3469 97.2 47.2336 95.9533 47.2336 93.46V84C47.2336 83.16 47.6469 82.74 48.4736 82.74C49.3136 82.74 49.7336 83.16 49.7336 84V93.34C49.7336 94.54 50.2336 95.14 51.2336 95.14C51.3403 95.14 51.4403 95.14 51.5336 95.14C51.6269 95.1267 51.7203 95.1133 51.8136 95.1C52.0003 95.0733 52.1269 95.1267 52.1936 95.26C52.2603 95.38 52.2936 95.6333 52.2936 96.02C52.2936 96.3533 52.2269 96.6133 52.0936 96.8C51.9603 96.9867 51.7403 97.1 51.4336 97.14C51.1536 97.18 50.8669 97.2 50.5736 97.2ZM54.8603 85.22C54.3936 85.22 54.027 85.1067 53.7603 84.88C53.507 84.64 53.3803 84.3133 53.3803 83.9C53.3803 83.4733 53.507 83.1467 53.7603 82.92C54.027 82.6933 54.3936 82.58 54.8603 82.58C55.847 82.58 56.3403 83.02 56.3403 83.9C56.3403 84.78 55.847 85.22 54.8603 85.22ZM54.8603 97.14C54.4603 97.14 54.1536 97.02 53.9403 96.78C53.727 96.54 53.6203 96.2067 53.6203 95.78V88.44C53.6203 87.5333 54.0336 87.08 54.8603 87.08C55.7003 87.08 56.1203 87.5333 56.1203 88.44V95.78C56.1203 96.2067 56.0136 96.54 55.8003 96.78C55.587 97.02 55.2736 97.14 54.8603 97.14ZM59.958 97.16C59.1313 97.16 58.718 96.7333 58.718 95.88V88.32C58.718 87.48 59.1246 87.06 59.938 87.06C60.7513 87.06 61.158 87.48 61.158 88.32V88.74C61.4913 88.18 61.938 87.7533 62.498 87.46C63.0713 87.1667 63.7113 87.02 64.418 87.02C66.7246 87.02 67.878 88.36 67.878 91.04V95.88C67.878 96.7333 67.4646 97.16 66.638 97.16C65.798 97.16 65.378 96.7333 65.378 95.88V91.16C65.378 90.4 65.2313 89.8467 64.938 89.5C64.658 89.1533 64.218 88.98 63.618 88.98C62.8846 88.98 62.298 89.2133 61.858 89.68C61.4313 90.1333 61.218 90.74 61.218 91.5V95.88C61.218 96.7333 60.798 97.16 59.958 97.16ZM74.9772 100.8C74.2572 100.8 73.5572 100.733 72.8772 100.6C72.2105 100.467 71.6039 100.26 71.0572 99.98C70.7372 99.82 70.5439 99.6133 70.4772 99.36C70.4239 99.12 70.4505 98.8867 70.5572 98.66C70.6639 98.4333 70.8239 98.2667 71.0372 98.16C71.2639 98.0667 71.5039 98.08 71.7572 98.2C72.3439 98.4933 72.8972 98.68 73.4172 98.76C73.9505 98.8533 74.4039 98.9 74.7772 98.9C76.5639 98.9 77.4572 98.04 77.4572 96.32V94.98C77.1772 95.5267 76.7439 95.96 76.1572 96.28C75.5839 96.6 74.9439 96.76 74.2372 96.76C73.3572 96.76 72.5905 96.56 71.9372 96.16C71.2839 95.7467 70.7772 95.1733 70.4172 94.44C70.0572 93.7067 69.8772 92.8533 69.8772 91.88C69.8772 90.9067 70.0572 90.06 70.4172 89.34C70.7772 88.6067 71.2839 88.04 71.9372 87.64C72.5905 87.2267 73.3572 87.02 74.2372 87.02C74.9439 87.02 75.5839 87.1733 76.1572 87.48C76.7305 87.7867 77.1505 88.2067 77.4172 88.74V88.32C77.4172 87.9067 77.5239 87.5933 77.7372 87.38C77.9639 87.1667 78.2705 87.06 78.6572 87.06C79.4839 87.06 79.8972 87.48 79.8972 88.32V96.02C79.8972 97.6067 79.4772 98.8 78.6372 99.6C77.7972 100.4 76.5772 100.8 74.9772 100.8ZM74.9172 94.86C75.6905 94.86 76.3039 94.5933 76.7572 94.06C77.2105 93.5267 77.4372 92.8 77.4372 91.88C77.4372 90.96 77.2105 90.24 76.7572 89.72C76.3039 89.1867 75.6905 88.92 74.9172 88.92C74.1439 88.92 73.5305 89.1867 73.0772 89.72C72.6239 90.24 72.3972 90.96 72.3972 91.88C72.3972 92.8 72.6239 93.5267 73.0772 94.06C73.5305 94.5933 74.1439 94.86 74.9172 94.86ZM86.9475 97.2C85.9342 97.2 85.0542 96.9933 84.3075 96.58C83.5608 96.1667 82.9808 95.58 82.5675 94.82C82.1542 94.0467 81.9475 93.14 81.9475 92.1C81.9475 91.06 82.1542 90.16 82.5675 89.4C82.9808 88.64 83.5608 88.0533 84.3075 87.64C85.0542 87.2267 85.9342 87.02 86.9475 87.02C87.9608 87.02 88.8408 87.2267 89.5875 87.64C90.3342 88.0533 90.9142 88.64 91.3275 89.4C91.7408 90.16 91.9475 91.06 91.9475 92.1C91.9475 93.14 91.7408 94.0467 91.3275 94.82C90.9142 95.58 90.3342 96.1667 89.5875 96.58C88.8408 96.9933 87.9608 97.2 86.9475 97.2ZM86.9475 95.3C87.6942 95.3 88.2942 95.0333 88.7475 94.5C89.2008 93.9533 89.4275 93.1533 89.4275 92.1C89.4275 91.0333 89.2008 90.24 88.7475 89.72C88.2942 89.1867 87.6942 88.92 86.9475 88.92C86.2008 88.92 85.6008 89.1867 85.1475 89.72C84.6942 90.24 84.4675 91.0333 84.4675 92.1C84.4675 93.1533 84.6942 93.9533 85.1475 94.5C85.6008 95.0333 86.2008 95.3 86.9475 95.3ZM96.7022 92.92C96.4489 92.92 96.2489 92.84 96.1022 92.68C95.9689 92.5067 95.9022 92.28 95.9022 92C95.9022 91.3867 96.0155 90.8133 96.2422 90.28C96.4822 89.7467 96.8822 89.1667 97.4422 88.54C97.8689 88.0733 98.1622 87.6733 98.3222 87.34C98.4955 87.0067 98.5822 86.6533 98.5822 86.28C98.5822 85.84 98.4222 85.4933 98.1022 85.24C97.7822 84.9867 97.3289 84.86 96.7422 84.86C96.2089 84.86 95.7222 84.9333 95.2822 85.08C94.8555 85.2133 94.4222 85.4067 93.9822 85.66C93.6222 85.8733 93.3022 85.9467 93.0222 85.88C92.7555 85.8 92.5622 85.64 92.4422 85.4C92.3222 85.16 92.3022 84.8933 92.3822 84.6C92.4622 84.3067 92.6755 84.0467 93.0222 83.82C93.5689 83.46 94.1955 83.1867 94.9022 83C95.6089 82.8 96.2755 82.7 96.9022 82.7C97.7422 82.7 98.4755 82.84 99.1022 83.12C99.7422 83.4 100.236 83.7867 100.582 84.28C100.942 84.7733 101.122 85.3533 101.122 86.02C101.122 86.6333 100.982 87.2067 100.702 87.74C100.436 88.2733 99.9555 88.8533 99.2622 89.48C98.6355 90.0533 98.2022 90.5467 97.9622 90.96C97.7222 91.3733 97.5689 91.8133 97.5022 92.28C97.4889 92.4667 97.4089 92.62 97.2622 92.74C97.1289 92.86 96.9422 92.92 96.7022 92.92ZM96.6622 97.1C96.2089 97.1 95.8422 96.96 95.5622 96.68C95.2955 96.4 95.1622 96.04 95.1622 95.6C95.1622 95.1733 95.2955 94.8267 95.5622 94.56C95.8422 94.28 96.2089 94.14 96.6622 94.14C97.1289 94.14 97.4889 94.28 97.7422 94.56C98.0089 94.8267 98.1422 95.1733 98.1422 95.6C98.1422 96.04 98.0089 96.4 97.7422 96.68C97.4889 96.96 97.1289 97.1 96.6622 97.1Z" fill="#212121"/>
</svg>
