<svg width="120" height="139" viewBox="0 0 120 139" fill="none" xmlns="http://www.w3.org/2000/svg">
<path d="M101.694 108.166H101.65C98.0965 108.14 94.9935 105.045 92.4217 98.9637C92.1043 98.2147 92.4548 97.3476 93.2039 97.0303C93.9566 96.713 94.82 97.0635 95.141 97.8125C96.5653 101.178 98.853 105.196 101.668 105.214H101.694C105.609 105.214 109.742 97.8384 110.882 95.2481C111.21 94.5028 112.081 94.1633 112.826 94.4917C113.572 94.8201 113.911 95.6946 113.583 96.4399C113.051 97.6428 108.225 108.166 101.694 108.166" fill="#133441"/>
<path d="M118.203 94.3257C117.458 94.4807 116.83 94.4807 116.299 94.3922C117.332 93.8202 118.273 92.8646 118.812 91.3333C119.085 90.5622 118.675 89.7098 117.904 89.4294C117.133 89.149 116.284 89.5475 116.015 90.3186C115.288 92.3886 113.251 92.2041 112.86 92.1488H112.834L112.816 92.1414C112.403 92.0897 111.86 91.9532 111.624 91.6285C111.392 91.3075 111.462 90.8278 111.469 90.7872C111.639 90.0013 111.141 89.2117 110.351 89.0198C109.554 88.828 108.761 89.315 108.576 90.112C108.536 90.2891 108.207 91.8831 109.189 93.2926C109.55 93.8129 110.185 94.4364 111.274 94.8128C111.93 98.9749 114.901 100.514 116.498 100.739C116.565 100.75 116.635 100.753 116.701 100.753C117.428 100.761 118.063 100.222 118.162 99.4804C118.266 98.6686 117.694 97.9159 116.882 97.8015C116.871 97.7978 116.384 97.7203 115.819 97.3182C116.185 97.3809 116.572 97.4215 116.985 97.4252C117.553 97.4288 118.17 97.3735 118.834 97.2333C119.635 97.0673 120.14 96.2813 119.967 95.4806C119.79 94.6763 119 94.1634 118.203 94.3257" fill="#133441"/>
<path d="M73.4266 138.651C73.3934 138.651 73.3602 138.647 73.327 138.647C70.8253 138.481 69.545 137.526 69.4085 137.419C68.9768 137.079 68.7664 136.526 68.8697 135.987L72.5485 116.239C72.6997 115.435 73.4672 114.907 74.2716 115.059C75.0722 115.206 75.5999 115.977 75.4523 116.778L71.9765 135.423C72.3455 135.541 72.8584 135.659 73.5226 135.703C74.338 135.755 74.9505 136.459 74.8988 137.271C74.8472 138.053 74.1977 138.651 73.4266 138.651" fill="#133441"/>
<path d="M37.861 138.651C37.0899 138.651 36.4404 138.053 36.3888 137.271C36.3371 136.459 36.9496 135.755 37.765 135.703C38.7539 135.637 39.407 135.411 39.7613 135.249L45.8125 118.398C46.0892 117.63 46.9342 117.228 47.7017 117.505C48.4691 117.782 48.8676 118.627 48.5909 119.394L42.3588 136.755C42.2629 137.017 42.0968 137.245 41.8791 137.419C41.7426 137.526 40.4623 138.481 37.9606 138.647C37.9274 138.651 37.8942 138.651 37.861 138.651" fill="#133441"/>
<path d="M7.5712 108.782C6.81111 108.782 6.16168 108.196 6.10264 107.424C6.03622 106.609 6.64139 105.9 7.45683 105.834C10.2574 105.609 19.932 99.0818 25.3707 95.0156C26.0238 94.5286 26.95 94.6614 27.437 95.3145C27.9241 95.9676 27.7912 96.8937 27.1381 97.3808C24.6733 99.222 12.1576 108.421 7.68925 108.779C7.64866 108.779 7.61179 108.782 7.5712 108.782" fill="#133441"/>
<path d="M5.12869 110.878C4.55677 110.878 4.0144 110.546 3.77456 109.989C3.56794 109.52 3.62697 109 3.88526 108.602C1.74518 108.185 0.678864 107.336 0.520203 107.199C-0.099681 106.672 -0.177224 105.742 0.350415 105.118C0.874365 104.506 1.78945 104.425 2.41302 104.934C2.51264 105.011 4.02181 106.111 7.47545 105.834C8.03999 105.786 8.58236 106.07 8.86647 106.561C9.15427 107.048 9.13579 107.657 8.81847 108.129C8.69671 108.314 7.55658 109.952 5.71538 110.753C5.52351 110.838 5.32425 110.878 5.12869 110.878" fill="#133441"/>
<path d="M100.281 80.8136C100.281 102.827 82.4372 120.671 60.4276 120.671C38.418 120.671 20.5742 102.827 20.5742 80.8136C20.5742 46.0153 60.4276 -3.17542e-05 60.4276 -3.17542e-05C60.4276 -3.17542e-05 100.281 46.0153 100.281 80.8136Z" fill="#6949FF"/>
<path d="M60.0847 117.852C44.3699 117.852 31.6328 108.074 31.6328 96.0119C31.6328 83.95 44.3699 74.1721 60.0847 74.1721C75.7995 74.1721 88.5367 83.95 88.5367 96.0119C88.5367 108.074 75.7995 117.852 60.0847 117.852" fill="#673AB3"/>
<path d="M57.2834 13.5195C57.2428 13.18 56.8111 12.966 56.5086 13.0472C54.6674 13.5343 53.4387 16.0138 52.4019 17.486C51.0108 19.4564 49.6972 21.4599 48.4427 23.5225C47.1956 25.574 45.9669 27.644 44.823 29.7583C43.8526 31.5515 41.8823 34.0679 42.0668 36.16C42.1517 37.16 43.1627 38.0898 44.1884 37.4625C46.0591 36.315 46.8598 33.555 47.8745 31.6659C49.0109 29.5442 50.1437 27.4226 51.3282 25.3268C52.5126 23.231 53.7007 21.1352 54.8925 19.0468C55.8186 17.4233 57.5196 15.4603 57.2834 13.5195Z" fill="white"/>
<path d="M40.9163 40.2629C39.8979 39.9493 39.0345 40.5581 38.6507 41.4621C38.433 41.975 38.2154 42.4842 37.9977 42.9934C37.6324 43.6354 37.3335 44.318 37.1269 45.0449C36.8612 45.9636 37.3704 46.971 38.2929 47.2551C39.3039 47.565 40.1046 46.9599 40.5031 46.0891C41.0418 44.901 41.5767 43.7166 42.1155 42.5321C42.5213 41.6392 41.7686 40.5249 40.9163 40.2629Z" fill="white"/>
<path d="M27.0162 87.2894C27.2708 93.2004 32.2779 97.7831 38.1926 97.5248C44.111 97.2702 48.7011 92.2742 48.4428 86.3632C48.1882 80.4559 43.1812 75.8732 37.2664 76.1277C31.348 76.386 26.758 81.382 27.0162 87.2894Z" fill="white"/>
<path d="M42.5033 90.9755C41.8428 91.7282 40.8023 91.8905 40.1787 91.3444C39.5552 90.7947 39.5847 89.7431 40.2452 88.994C40.9056 88.2413 41.9498 88.079 42.5734 88.6251C43.197 89.1748 43.1638 90.2264 42.5033 90.9755V90.9755ZM36.821 86.0717C35.6772 87.3668 33.8766 87.651 32.7992 86.7027C31.7217 85.7581 31.7734 83.939 32.9173 82.6402C34.0574 81.3451 35.858 81.061 36.9354 82.0056C38.0128 82.9539 37.9612 84.7729 36.821 86.0717V86.0717ZM45.1046 86.5071C44.9275 82.4373 41.4776 79.2825 37.404 79.4596C33.3268 79.6331 30.1684 83.0756 30.3418 87.1455C30.5189 91.2153 33.9651 94.3737 38.0423 94.1966C42.1195 94.0195 45.278 90.577 45.1046 86.5071" fill="#133441"/>
<path d="M73.1461 87.2894C73.4007 93.2004 78.4078 97.7831 84.3225 97.5248C90.2409 97.2702 94.831 92.2742 94.5728 86.3632C94.3182 80.4559 89.3111 75.8732 83.3964 76.1277C77.478 76.386 72.8878 81.382 73.1461 87.2894Z" fill="white"/>
<path d="M89.1307 90.7098C88.4665 91.4588 87.4259 91.6249 86.8024 91.0788C86.1788 90.529 86.2083 89.4774 86.8688 88.7247C87.533 87.9757 88.5735 87.8096 89.197 88.3594C89.8206 88.9055 89.7911 89.9608 89.1307 90.7098V90.7098ZM83.0499 85.64C81.7511 86.7802 79.932 86.8392 78.98 85.7618C78.028 84.6881 78.3122 82.8911 79.6073 81.7473C80.9024 80.6035 82.7252 80.5481 83.6771 81.6218C84.6254 82.6956 84.345 84.4962 83.0499 85.64ZM91.2301 86.5071C91.0567 82.4373 87.6067 79.2825 83.5332 79.4596C79.456 79.6331 76.2938 83.0756 76.471 87.1455C76.6481 91.2153 80.0981 94.3737 84.1716 94.1966C88.2488 94.0195 91.4072 90.577 91.2301 86.5071" fill="#133441"/>
<path d="M76.0609 66.656C75.8137 68.5378 79.116 69.6374 82.8169 70.0469C86.134 70.4159 89.3294 71.069 90.0932 68.6633C91.6577 63.7189 76.8136 60.9959 76.0609 66.656Z" fill="#133441"/>
<path d="M31.4846 68.619C32.23 71.0248 35.4327 70.3938 38.7498 70.0507C42.4544 69.6669 45.7641 68.5858 45.5279 66.704C44.8158 61.0402 29.9534 63.6636 31.4846 68.619" fill="#133441"/>
<path d="M95.3919 100.362C95.3919 101.739 93.3035 102.853 90.7317 102.853C88.1599 102.853 86.0752 101.739 86.0752 100.362C86.0752 98.986 88.1599 97.8716 90.7317 97.8716C93.3035 97.8716 95.3919 98.986 95.3919 100.362Z" fill="#A592FF"/>
<path d="M34.6028 100.362C34.6028 101.739 32.5144 102.853 29.9426 102.853C27.3708 102.853 25.2861 101.739 25.2861 100.362C25.2861 98.986 27.3708 97.8716 29.9426 97.8716C32.5144 97.8716 34.6028 98.986 34.6028 100.362Z" fill="#A592FF"/>
<path d="M55.4908 93.8903C56.1513 96.499 59.1068 97.6908 61.579 97.8237C63.601 97.9344 68.6596 96.82 68.298 93.9531C68.2353 93.4697 67.8036 92.931 67.2391 93.145C66.2687 93.5103 65.8924 94.4438 65.0179 94.9899C64.0548 95.5876 62.8962 95.8017 61.7782 95.7906C59.7562 95.7648 57.6051 95.0342 56.31 93.4107C55.989 93.0085 55.3801 93.4513 55.4908 93.8903" fill="#133441"/>
</svg>
