<svg width="140" height="140" viewBox="0 0 140 140" fill="none" xmlns="http://www.w3.org/2000/svg">
<path d="M111.694 109.166H111.65C108.097 109.14 104.993 106.044 102.422 99.9637C102.104 99.2147 102.455 98.3476 103.204 98.0302C103.957 97.7129 104.82 98.0634 105.141 98.8125C106.565 102.178 108.853 106.196 111.668 106.214H111.694C115.609 106.214 119.742 98.8383 120.882 96.2481C121.21 95.5027 122.081 95.1633 122.826 95.4917C123.572 95.8201 123.911 96.6945 123.583 97.4399C123.051 98.6427 118.225 109.166 111.694 109.166" fill="#133441"/>
<path d="M128.203 95.3257C127.458 95.4807 126.83 95.4807 126.299 95.3922C127.332 94.8202 128.273 93.8646 128.812 92.3333C129.085 91.5622 128.675 90.7098 127.904 90.4294C127.133 90.149 126.284 90.5475 126.015 91.3186C125.288 93.3886 123.251 93.2041 122.86 93.1488H122.834L122.816 93.1414C122.403 93.0897 121.86 92.9532 121.624 92.6285C121.392 92.3075 121.462 91.8278 121.469 91.7872C121.639 91.0013 121.141 90.2117 120.351 90.0198C119.554 89.828 118.761 90.315 118.576 91.112C118.536 91.2891 118.207 92.8831 119.189 94.2926C119.55 94.8129 120.185 95.4364 121.274 95.8128C121.93 99.9749 124.901 101.514 126.498 101.739C126.565 101.75 126.635 101.753 126.701 101.753C127.428 101.761 128.063 101.222 128.162 100.48C128.266 99.6686 127.694 98.9159 126.882 98.8015C126.871 98.7978 126.384 98.7203 125.819 98.3182C126.185 98.3809 126.572 98.4215 126.985 98.4252C127.553 98.4288 128.17 98.3735 128.834 98.2333C129.635 98.0673 130.14 97.2813 129.967 96.4806C129.79 95.6763 129 95.1634 128.203 95.3257" fill="#133441"/>
<path d="M83.4266 139.651C83.3934 139.651 83.3602 139.648 83.327 139.648C80.8253 139.482 79.545 138.526 79.4085 138.419C78.9768 138.08 78.7664 137.526 78.8697 136.987L82.5485 117.24C82.6997 116.435 83.4672 115.908 84.2716 116.059C85.0722 116.206 85.5999 116.978 85.4523 117.778L81.9765 136.423C82.3455 136.541 82.8584 136.659 83.5226 136.703C84.338 136.755 84.9505 137.46 84.8988 138.271C84.8472 139.054 84.1977 139.651 83.4266 139.651" fill="#133441"/>
<path d="M47.861 139.651C47.0899 139.651 46.4404 139.054 46.3888 138.271C46.3371 137.46 46.9496 136.755 47.765 136.703C48.7539 136.637 49.407 136.412 49.7613 136.249L55.8125 119.398C56.0892 118.631 56.9342 118.228 57.7017 118.505C58.4691 118.782 58.8676 119.627 58.5909 120.394L52.3588 137.755C52.2629 138.017 52.0968 138.246 51.8791 138.419C51.7426 138.526 50.4623 139.482 47.9606 139.648C47.9274 139.651 47.8942 139.651 47.861 139.651" fill="#133441"/>
<path d="M17.5712 109.782C16.8111 109.782 16.1617 109.196 16.1026 108.424C16.0362 107.609 16.6414 106.9 17.4568 106.834C20.2574 106.609 29.932 100.082 35.3707 96.0156C36.0238 95.5286 36.95 95.6614 37.437 96.3145C37.9241 96.9676 37.7912 97.8937 37.1381 98.3808C34.6733 100.222 22.1576 109.421 17.6892 109.779C17.6487 109.779 17.6118 109.782 17.5712 109.782" fill="#133441"/>
<path d="M15.1287 111.878C14.5568 111.878 14.0144 111.546 13.7746 110.989C13.5679 110.52 13.627 110 13.8853 109.601C11.7452 109.184 10.6789 108.336 10.5202 108.199C9.90032 107.672 9.82278 106.742 10.3504 106.118C10.8744 105.506 11.7894 105.424 12.413 105.934C12.5126 106.011 14.0218 107.111 17.4754 106.834C18.04 106.786 18.5824 107.07 18.8665 107.561C19.1543 108.048 19.1358 108.657 18.8185 109.129C18.6967 109.314 17.5566 110.952 15.7154 111.752C15.5235 111.837 15.3242 111.878 15.1287 111.878" fill="#133441"/>
<path d="M110.281 81.8138C110.281 103.827 92.4372 121.671 70.4276 121.671C48.418 121.671 30.5742 103.827 30.5742 81.8138C30.5742 47.0155 70.4276 1.00015 70.4276 1.00015C70.4276 1.00015 110.281 47.0155 110.281 81.8138Z" fill="#6949FF"/>
<path d="M70.0847 118.852C54.3699 118.852 41.6328 109.074 41.6328 97.0117C41.6328 84.9498 54.3699 75.1719 70.0847 75.1719C85.7995 75.1719 98.5367 84.9498 98.5367 97.0117C98.5367 109.074 85.7995 118.852 70.0847 118.852" fill="#673AB3"/>
<path d="M67.2834 14.5196C67.2428 14.1802 66.8111 13.9662 66.5086 14.0473C64.6674 14.5344 63.4387 17.0139 62.4019 18.4861C61.0108 20.4565 59.6972 22.4601 58.4427 24.5226C57.1956 26.5742 55.9669 28.6441 54.823 30.7584C53.8526 32.5516 51.8823 35.068 52.0668 37.1602C52.1517 38.1601 53.1627 39.0899 54.1884 38.4626C56.0591 37.3151 56.8598 34.5552 57.8745 32.666C59.0109 30.5444 60.1437 28.4227 61.3282 26.3269C62.5126 24.2311 63.7007 22.1353 64.8925 20.0469C65.8186 18.4234 67.5196 16.4605 67.2834 14.5196Z" fill="white"/>
<path d="M50.9163 41.263C49.8979 40.9494 49.0345 41.5582 48.6507 42.4622C48.433 42.9751 48.2154 43.4843 47.9977 43.9935C47.6324 44.6355 47.3335 45.3181 47.1269 46.045C46.8612 46.9638 47.3704 47.9711 48.2929 48.2552C49.3039 48.5651 50.1046 47.96 50.5031 47.0892C51.0418 45.9011 51.5767 44.7167 52.1155 43.5323C52.5213 42.6393 51.7686 41.525 50.9163 41.263Z" fill="white"/>
<path d="M37.0162 88.2893C37.2708 94.2003 42.2779 98.783 48.1926 98.5248C54.111 98.2702 58.7011 93.2742 58.4428 87.3632C58.1882 81.4558 53.1812 76.8731 47.2664 77.1277C41.348 77.386 36.758 82.3819 37.0162 88.2893Z" fill="white"/>
<path d="M52.5033 91.9753C51.8428 92.728 50.8023 92.8904 50.1787 92.3443C49.5552 91.7945 49.5847 90.7429 50.2452 89.9939C50.9056 89.2412 51.9498 89.0789 52.5734 89.6249C53.197 90.1747 53.1638 91.2263 52.5033 91.9753V91.9753ZM46.821 87.0716C45.6772 88.3667 43.8766 88.6508 42.7992 87.7026C41.7217 86.758 41.7734 84.9389 42.9173 83.6401C44.0574 82.345 45.858 82.0609 46.9354 83.0055C48.0128 83.9537 47.9612 85.7728 46.821 87.0716V87.0716ZM55.1046 87.507C54.9275 83.4372 51.4776 80.2824 47.404 80.4595C43.3268 80.6329 40.1684 84.0755 40.3418 88.1453C40.5189 92.2152 43.9651 95.3736 48.0423 95.1965C52.1195 95.0194 55.278 91.5768 55.1046 87.507" fill="#133441"/>
<path d="M83.1461 88.2893C83.4007 94.2003 88.4078 98.783 94.3225 98.5248C100.241 98.2702 104.831 93.2742 104.573 87.3632C104.318 81.4558 99.3111 76.8731 93.3964 77.1277C87.478 77.386 82.8878 82.3819 83.1461 88.2893Z" fill="white"/>
<path d="M99.1307 91.7097C98.4665 92.4587 97.4259 92.6247 96.8024 92.0786C96.1788 91.5289 96.2083 90.4773 96.8688 89.7246C97.533 88.9755 98.5735 88.8095 99.197 89.3593C99.8206 89.9054 99.7911 90.9606 99.1307 91.7097V91.7097ZM93.0499 86.6399C91.7511 87.78 89.932 87.8391 88.98 86.7617C88.028 85.6879 88.3122 83.891 89.6073 82.7472C90.9024 81.6033 92.7252 81.548 93.6771 82.6217C94.6254 83.6955 94.345 85.4961 93.0499 86.6399ZM101.23 87.507C101.057 83.4372 97.6067 80.2824 93.5332 80.4595C89.456 80.6329 86.2938 84.0755 86.471 88.1453C86.6481 92.2152 90.0981 95.3736 94.1716 95.1965C98.2488 95.0194 101.407 91.5768 101.23 87.507" fill="#133441"/>
<path d="M86.0609 67.6558C85.8137 69.5376 89.116 70.6372 92.8169 71.0467C96.134 71.4157 99.3294 72.0688 100.093 69.6631C101.658 64.7188 86.8136 61.9957 86.0609 67.6558Z" fill="#133441"/>
<path d="M41.4846 69.6191C42.23 72.0249 45.4327 71.3939 48.7498 71.0508C52.4544 70.6671 55.7641 69.5859 55.5279 67.7042C54.8158 62.0403 39.9534 64.6638 41.4846 69.6191" fill="#133441"/>
<path d="M105.392 101.362C105.392 102.739 103.303 103.853 100.732 103.853C98.1599 103.853 96.0752 102.739 96.0752 101.362C96.0752 99.9861 98.1599 98.8718 100.732 98.8718C103.303 98.8718 105.392 99.9861 105.392 101.362Z" fill="#A592FF"/>
<path d="M44.6028 101.362C44.6028 102.739 42.5144 103.853 39.9426 103.853C37.3708 103.853 35.2861 102.739 35.2861 101.362C35.2861 99.9861 37.3708 98.8718 39.9426 98.8718C42.5144 98.8718 44.6028 99.9861 44.6028 101.362Z" fill="#A592FF"/>
<path d="M65.4908 94.8903C66.1513 97.499 69.1068 98.6908 71.579 98.8236C73.601 98.9343 78.6596 97.82 78.298 94.953C78.2353 94.4696 77.8036 93.9309 77.2391 94.145C76.2687 94.5102 75.8924 95.4438 75.0179 95.9898C74.0548 96.5876 72.8962 96.8016 71.7782 96.7905C69.7562 96.7647 67.6051 96.0341 66.31 94.4106C65.989 94.0084 65.3801 94.4512 65.4908 94.8903" fill="#133441"/>
</svg>
