<svg width="382" height="140" viewBox="0 0 382 140" fill="none" xmlns="http://www.w3.org/2000/svg">
<path d="M111.694 109.166H111.65C108.097 109.14 104.993 106.044 102.422 99.9637C102.104 99.2147 102.455 98.3476 103.204 98.0302C103.957 97.7129 104.82 98.0634 105.141 98.8125C106.565 102.178 108.853 106.196 111.668 106.214H111.694C115.609 106.214 119.742 98.8383 120.882 96.2481C121.21 95.5027 122.081 95.1633 122.826 95.4917C123.572 95.8201 123.911 96.6945 123.583 97.4399C123.051 98.6427 118.225 109.166 111.694 109.166" fill="#133441"/>
<path d="M128.203 95.3257C127.458 95.4807 126.83 95.4807 126.299 95.3922C127.332 94.8202 128.273 93.8646 128.812 92.3333C129.085 91.5622 128.675 90.7098 127.904 90.4294C127.133 90.149 126.284 90.5475 126.015 91.3186C125.288 93.3886 123.251 93.2041 122.86 93.1488H122.834L122.816 93.1414C122.403 93.0897 121.86 92.9532 121.624 92.6285C121.392 92.3075 121.462 91.8278 121.469 91.7872C121.639 91.0013 121.141 90.2117 120.351 90.0198C119.554 89.828 118.761 90.315 118.576 91.112C118.536 91.2891 118.207 92.8831 119.189 94.2926C119.55 94.8129 120.185 95.4364 121.274 95.8128C121.93 99.9749 124.901 101.514 126.498 101.739C126.565 101.75 126.635 101.753 126.701 101.753C127.428 101.761 128.063 101.222 128.162 100.48C128.266 99.6686 127.694 98.9159 126.882 98.8015C126.871 98.7978 126.384 98.7203 125.819 98.3182C126.185 98.3809 126.572 98.4215 126.985 98.4252C127.553 98.4288 128.17 98.3735 128.834 98.2333C129.635 98.0673 130.14 97.2813 129.967 96.4806C129.79 95.6763 129 95.1634 128.203 95.3257" fill="#133441"/>
<path d="M83.4266 139.651C83.3934 139.651 83.3602 139.648 83.327 139.648C80.8253 139.482 79.545 138.526 79.4085 138.419C78.9768 138.08 78.7664 137.526 78.8697 136.987L82.5485 117.24C82.6997 116.435 83.4672 115.908 84.2716 116.059C85.0722 116.206 85.5999 116.978 85.4523 117.778L81.9765 136.423C82.3455 136.541 82.8584 136.659 83.5226 136.703C84.338 136.755 84.9505 137.46 84.8988 138.271C84.8472 139.054 84.1977 139.651 83.4266 139.651" fill="#133441"/>
<path d="M47.861 139.651C47.0899 139.651 46.4404 139.054 46.3888 138.271C46.3371 137.46 46.9496 136.755 47.765 136.703C48.7539 136.637 49.407 136.412 49.7613 136.249L55.8125 119.398C56.0892 118.631 56.9342 118.228 57.7017 118.505C58.4691 118.782 58.8676 119.627 58.5909 120.394L52.3588 137.755C52.2629 138.017 52.0968 138.246 51.8791 138.419C51.7426 138.526 50.4623 139.482 47.9606 139.648C47.9274 139.651 47.8942 139.651 47.861 139.651" fill="#133441"/>
<path d="M17.5712 109.782C16.8111 109.782 16.1617 109.196 16.1026 108.424C16.0362 107.609 16.6414 106.9 17.4568 106.834C20.2574 106.609 29.932 100.082 35.3707 96.0156C36.0238 95.5286 36.95 95.6614 37.437 96.3145C37.9241 96.9676 37.7912 97.8937 37.1381 98.3808C34.6733 100.222 22.1576 109.421 17.6892 109.779C17.6487 109.779 17.6118 109.782 17.5712 109.782" fill="#133441"/>
<path d="M15.1287 111.878C14.5568 111.878 14.0144 111.546 13.7746 110.989C13.5679 110.52 13.627 110 13.8853 109.601C11.7452 109.184 10.6789 108.336 10.5202 108.199C9.90032 107.672 9.82278 106.742 10.3504 106.118C10.8744 105.506 11.7894 105.424 12.413 105.934C12.5126 106.011 14.0218 107.111 17.4754 106.834C18.04 106.786 18.5824 107.07 18.8665 107.561C19.1543 108.048 19.1358 108.657 18.8185 109.129C18.6967 109.314 17.5566 110.952 15.7154 111.752C15.5235 111.837 15.3242 111.878 15.1287 111.878" fill="#133441"/>
<path d="M110.281 81.8138C110.281 103.827 92.4372 121.671 70.4276 121.671C48.418 121.671 30.5742 103.827 30.5742 81.8138C30.5742 47.0155 70.4276 1.00015 70.4276 1.00015C70.4276 1.00015 110.281 47.0155 110.281 81.8138Z" fill="#6949FF"/>
<path d="M70.0847 118.852C54.3699 118.852 41.6328 109.074 41.6328 97.0117C41.6328 84.9498 54.3699 75.1719 70.0847 75.1719C85.7995 75.1719 98.5367 84.9498 98.5367 97.0117C98.5367 109.074 85.7995 118.852 70.0847 118.852" fill="#673AB3"/>
<path d="M67.2834 14.5196C67.2428 14.1802 66.8111 13.9662 66.5086 14.0473C64.6674 14.5344 63.4387 17.0139 62.4019 18.4861C61.0108 20.4565 59.6972 22.4601 58.4427 24.5226C57.1956 26.5742 55.9669 28.6441 54.823 30.7584C53.8526 32.5516 51.8823 35.068 52.0668 37.1602C52.1517 38.1601 53.1627 39.0899 54.1884 38.4626C56.0591 37.3151 56.8598 34.5552 57.8745 32.666C59.0109 30.5444 60.1437 28.4227 61.3282 26.3269C62.5126 24.2311 63.7007 22.1353 64.8925 20.0469C65.8186 18.4234 67.5196 16.4605 67.2834 14.5196Z" fill="white"/>
<path d="M50.9163 41.263C49.8979 40.9494 49.0345 41.5582 48.6507 42.4622C48.433 42.9751 48.2154 43.4843 47.9977 43.9935C47.6324 44.6355 47.3335 45.3181 47.1269 46.045C46.8612 46.9638 47.3704 47.9711 48.2929 48.2552C49.3039 48.5651 50.1046 47.96 50.5031 47.0892C51.0418 45.9011 51.5767 44.7167 52.1155 43.5323C52.5213 42.6393 51.7686 41.525 50.9163 41.263Z" fill="white"/>
<path d="M37.0162 88.2893C37.2708 94.2003 42.2779 98.783 48.1926 98.5248C54.111 98.2702 58.7011 93.2742 58.4428 87.3632C58.1882 81.4558 53.1812 76.8731 47.2664 77.1277C41.348 77.386 36.758 82.3819 37.0162 88.2893Z" fill="white"/>
<path d="M52.5033 91.9753C51.8428 92.728 50.8023 92.8904 50.1787 92.3443C49.5552 91.7945 49.5847 90.7429 50.2452 89.9939C50.9056 89.2412 51.9498 89.0789 52.5734 89.6249C53.197 90.1747 53.1638 91.2263 52.5033 91.9753V91.9753ZM46.821 87.0716C45.6772 88.3667 43.8766 88.6508 42.7992 87.7026C41.7217 86.758 41.7734 84.9389 42.9173 83.6401C44.0574 82.345 45.858 82.0609 46.9354 83.0055C48.0128 83.9537 47.9612 85.7728 46.821 87.0716V87.0716ZM55.1046 87.507C54.9275 83.4372 51.4776 80.2824 47.404 80.4595C43.3268 80.6329 40.1684 84.0755 40.3418 88.1453C40.5189 92.2152 43.9651 95.3736 48.0423 95.1965C52.1195 95.0194 55.278 91.5768 55.1046 87.507" fill="#133441"/>
<path d="M83.1461 88.2893C83.4007 94.2003 88.4078 98.783 94.3225 98.5248C100.241 98.2702 104.831 93.2742 104.573 87.3632C104.318 81.4558 99.3111 76.8731 93.3964 77.1277C87.478 77.386 82.8878 82.3819 83.1461 88.2893Z" fill="white"/>
<path d="M99.1307 91.7097C98.4665 92.4587 97.4259 92.6247 96.8024 92.0786C96.1788 91.5289 96.2083 90.4773 96.8688 89.7246C97.533 88.9755 98.5735 88.8095 99.197 89.3593C99.8206 89.9054 99.7911 90.9606 99.1307 91.7097V91.7097ZM93.0499 86.6399C91.7511 87.78 89.932 87.8391 88.98 86.7617C88.028 85.6879 88.3122 83.891 89.6073 82.7472C90.9024 81.6033 92.7252 81.548 93.6771 82.6217C94.6254 83.6955 94.345 85.4961 93.0499 86.6399ZM101.23 87.507C101.057 83.4372 97.6067 80.2824 93.5332 80.4595C89.456 80.6329 86.2938 84.0755 86.471 88.1453C86.6481 92.2152 90.0981 95.3736 94.1716 95.1965C98.2488 95.0194 101.407 91.5768 101.23 87.507" fill="#133441"/>
<path d="M86.0609 67.6558C85.8137 69.5376 89.116 70.6372 92.8169 71.0467C96.134 71.4157 99.3294 72.0688 100.093 69.6631C101.658 64.7188 86.8136 61.9957 86.0609 67.6558Z" fill="#133441"/>
<path d="M41.4846 69.6191C42.23 72.0249 45.4327 71.3939 48.7498 71.0508C52.4544 70.6671 55.7641 69.5859 55.5279 67.7042C54.8158 62.0403 39.9534 64.6638 41.4846 69.6191" fill="#133441"/>
<path d="M105.392 101.362C105.392 102.739 103.303 103.853 100.732 103.853C98.1599 103.853 96.0752 102.739 96.0752 101.362C96.0752 99.9861 98.1599 98.8718 100.732 98.8718C103.303 98.8718 105.392 99.9861 105.392 101.362Z" fill="#A592FF"/>
<path d="M44.6028 101.362C44.6028 102.739 42.5144 103.853 39.9426 103.853C37.3708 103.853 35.2861 102.739 35.2861 101.362C35.2861 99.9861 37.3708 98.8718 39.9426 98.8718C42.5144 98.8718 44.6028 99.9861 44.6028 101.362Z" fill="#A592FF"/>
<path d="M65.4908 94.8903C66.1513 97.499 69.1068 98.6908 71.579 98.8236C73.601 98.9343 78.6596 97.82 78.298 94.953C78.2353 94.4696 77.8036 93.9309 77.2391 94.145C76.2687 94.5102 75.8924 95.4438 75.0179 95.9898C74.0548 96.5876 72.8962 96.8016 71.7782 96.7905C69.7562 96.7647 67.6051 96.0341 66.31 94.4106C65.989 94.0084 65.3801 94.4512 65.4908 94.8903" fill="#133441"/>
<mask id="path-20-inside-1_2031_26573" fill="white">
<path fill-rule="evenodd" clip-rule="evenodd" d="M161.686 16.6863C157 21.3726 157 28.9151 157 44V57.3019C155.147 57.7909 152.737 59.1822 149 61.3397C143.739 64.3771 141.109 65.8958 140.362 67.9479C139.879 69.2734 139.879 70.7266 140.362 72.0521C141.109 74.1042 143.739 75.6229 149 78.6603C152.737 80.8178 155.147 82.209 157 82.6981V96C157 111.085 157 118.627 161.686 123.314C166.373 128 173.915 128 189 128H348C363.085 128 370.627 128 375.314 123.314C380 118.627 380 111.085 380 96V44C380 28.9151 380 21.3726 375.314 16.6863C370.627 12 363.085 12 348 12H189C173.915 12 166.373 12 161.686 16.6863Z"/>
</mask>
<path fill-rule="evenodd" clip-rule="evenodd" d="M161.686 16.6863C157 21.3726 157 28.9151 157 44V57.3019C155.147 57.7909 152.737 59.1822 149 61.3397C143.739 64.3771 141.109 65.8958 140.362 67.9479C139.879 69.2734 139.879 70.7266 140.362 72.0521C141.109 74.1042 143.739 75.6229 149 78.6603C152.737 80.8178 155.147 82.209 157 82.6981V96C157 111.085 157 118.627 161.686 123.314C166.373 128 173.915 128 189 128H348C363.085 128 370.627 128 375.314 123.314C380 118.627 380 111.085 380 96V44C380 28.9151 380 21.3726 375.314 16.6863C370.627 12 363.085 12 348 12H189C173.915 12 166.373 12 161.686 16.6863Z" fill="#FAFAFA"/>
<path d="M161.686 16.6863L160.272 15.2721V15.2721L161.686 16.6863ZM157 57.3019L157.51 59.2357L159 58.8426V57.3019H157ZM149 61.3397L150 63.0718H150L149 61.3397ZM140.362 67.9479L142.241 68.6319L140.362 67.9479ZM140.362 72.0521L138.482 72.7362H138.482L140.362 72.0521ZM149 78.6603L148 80.3923L149 78.6603ZM157 82.6981H159V81.1574L157.51 80.7643L157 82.6981ZM161.686 123.314L163.101 121.899L161.686 123.314ZM375.314 123.314L373.899 121.899L375.314 123.314ZM159 44C159 36.401 159.004 30.9029 159.568 26.7101C160.124 22.5749 161.191 20.0101 163.101 18.1005L160.272 15.2721C157.495 18.0488 156.219 21.5984 155.604 26.1772C154.996 30.6984 155 36.5141 155 44H159ZM159 57.3019V44H155V57.3019H159ZM150 63.0718C151.882 61.9854 153.376 61.1229 154.631 60.4684C155.896 59.8091 156.803 59.4223 157.51 59.2357L156.49 55.3681C155.344 55.6705 154.12 56.2239 152.782 56.9218C151.434 57.6247 149.855 58.5365 148 59.6077L150 63.0718ZM142.241 68.6319C142.405 68.182 142.844 67.5829 144.158 66.6354C145.465 65.6931 147.331 64.6125 150 63.0718L148 59.6077C145.408 61.1044 143.329 62.3017 141.818 63.3911C140.315 64.4753 139.066 65.6616 138.482 67.2638L142.241 68.6319ZM142.241 71.3681C141.92 70.4844 141.92 69.5156 142.241 68.6319L138.482 67.2638C137.839 69.0312 137.839 70.9688 138.482 72.7362L142.241 71.3681ZM150 76.9282C147.331 75.3875 145.465 74.3069 144.158 73.3646C142.844 72.4171 142.405 71.818 142.241 71.3681L138.482 72.7362C139.066 74.3384 140.315 75.5247 141.818 76.6089C143.329 77.6983 145.408 78.8956 148 80.3923L150 76.9282ZM157.51 80.7643C156.803 80.5777 155.896 80.1909 154.631 79.5315C153.376 78.8771 151.882 78.0146 150 76.9282L148 80.3923C149.855 81.4635 151.434 82.3753 152.782 83.0782C154.12 83.776 155.344 84.3294 156.49 84.6319L157.51 80.7643ZM159 96V82.6981H155V96H159ZM163.101 121.899C161.191 119.99 160.124 117.425 159.568 113.29C159.004 109.097 159 103.599 159 96H155C155 103.486 154.996 109.302 155.604 113.823C156.219 118.402 157.495 121.951 160.272 124.728L163.101 121.899ZM189 126C181.401 126 175.903 125.996 171.71 125.432C167.575 124.876 165.01 123.809 163.101 121.899L160.272 124.728C163.049 127.505 166.598 128.781 171.177 129.396C175.698 130.004 181.514 130 189 130V126ZM348 126H189V130H348V126ZM373.899 121.899C371.99 123.809 369.425 124.876 365.29 125.432C361.097 125.996 355.599 126 348 126V130C355.486 130 361.302 130.004 365.823 129.396C370.402 128.781 373.951 127.505 376.728 124.728L373.899 121.899ZM378 96C378 103.599 377.996 109.097 377.432 113.29C376.876 117.425 375.809 119.99 373.899 121.899L376.728 124.728C379.505 121.951 380.781 118.402 381.396 113.823C382.004 109.302 382 103.486 382 96H378ZM378 44V96H382V44H378ZM373.899 18.1005C375.809 20.0101 376.876 22.5749 377.432 26.7101C377.996 30.9029 378 36.401 378 44H382C382 36.5141 382.004 30.6984 381.396 26.1772C380.781 21.5984 379.505 18.0488 376.728 15.2721L373.899 18.1005ZM348 14C355.599 14 361.097 14.0042 365.29 14.568C369.425 15.1239 371.99 16.1909 373.899 18.1005L376.728 15.2721C373.951 12.4954 370.402 11.2192 365.823 10.6036C361.302 9.99575 355.486 10 348 10V14ZM189 14H348V10H189V14ZM163.101 18.1005C165.01 16.1909 167.575 15.1239 171.71 14.568C175.903 14.0042 181.401 14 189 14V10C181.514 10 175.698 9.99575 171.177 10.6036C166.598 11.2192 163.049 12.4954 160.272 15.2721L163.101 18.1005Z" fill="#EEEEEE" mask="url(#path-20-inside-1_2031_26573)"/>
<path d="M180.5 45.16C179.82 45.16 179.353 44.8 179.1 44.08L174.92 32.26C174.773 31.8333 174.8 31.4733 175 31.18C175.213 30.8867 175.567 30.74 176.06 30.74C176.42 30.74 176.7 30.8267 176.9 31C177.1 31.16 177.26 31.42 177.38 31.78L180.58 41.3L183.94 31.8C184.193 31.0933 184.62 30.74 185.22 30.74C185.54 30.74 185.793 30.8267 185.98 31C186.167 31.1733 186.327 31.4467 186.46 31.82L189.76 41.44L193.06 31.78C193.18 31.4333 193.34 31.1733 193.54 31C193.74 30.8267 194.013 30.74 194.36 30.74C194.787 30.74 195.1 30.8867 195.3 31.18C195.5 31.4733 195.527 31.8333 195.38 32.26L191.16 44.1C191.027 44.46 190.853 44.7267 190.64 44.9C190.427 45.0733 190.14 45.16 189.78 45.16C189.42 45.16 189.133 45.0733 188.92 44.9C188.707 44.7267 188.533 44.4533 188.4 44.08L185.14 34.82L181.86 44.1C181.727 44.46 181.553 44.7267 181.34 44.9C181.14 45.0733 180.86 45.16 180.5 45.16ZM199.802 45.16C198.975 45.16 198.562 44.7333 198.562 43.88V32C198.562 31.16 198.975 30.74 199.802 30.74C200.642 30.74 201.062 31.16 201.062 32V36.64C201.395 36.1067 201.842 35.7067 202.402 35.44C202.962 35.16 203.582 35.02 204.262 35.02C206.568 35.02 207.722 36.36 207.722 39.04V43.88C207.722 44.7333 207.308 45.16 206.482 45.16C205.642 45.16 205.222 44.7333 205.222 43.88V39.16C205.222 38.4 205.075 37.8467 204.782 37.5C204.502 37.1533 204.062 36.98 203.462 36.98C202.728 36.98 202.142 37.2133 201.702 37.68C201.275 38.1333 201.062 38.74 201.062 39.5V43.88C201.062 44.7333 200.642 45.16 199.802 45.16ZM213.481 45.2C212.774 45.2 212.141 45.0667 211.581 44.8C211.034 44.52 210.601 44.1467 210.281 43.68C209.974 43.2133 209.821 42.6867 209.821 42.1C209.821 41.38 210.008 40.8133 210.381 40.4C210.754 39.9733 211.361 39.6667 212.201 39.48C213.041 39.2933 214.168 39.2 215.581 39.2H216.281V38.78C216.281 38.1133 216.134 37.6333 215.841 37.34C215.548 37.0467 215.054 36.9 214.361 36.9C213.974 36.9 213.554 36.9467 213.101 37.04C212.661 37.1333 212.194 37.2933 211.701 37.52C211.381 37.6667 211.114 37.6867 210.901 37.58C210.688 37.46 210.541 37.28 210.461 37.04C210.394 36.7867 210.408 36.5333 210.501 36.28C210.608 36.0267 210.814 35.84 211.121 35.72C211.734 35.4667 212.321 35.2867 212.881 35.18C213.454 35.0733 213.974 35.02 214.441 35.02C215.868 35.02 216.928 35.3533 217.621 36.02C218.314 36.6733 218.661 37.6933 218.661 39.08V43.88C218.661 44.7333 218.274 45.16 217.501 45.16C216.714 45.16 216.321 44.7333 216.321 43.88V43.44C216.094 43.9867 215.734 44.42 215.241 44.74C214.748 45.0467 214.161 45.2 213.481 45.2ZM214.001 43.48C214.654 43.48 215.194 43.2533 215.621 42.8C216.061 42.3467 216.281 41.7733 216.281 41.08V40.64H215.601C214.348 40.64 213.474 40.74 212.981 40.94C212.501 41.1267 212.261 41.4733 212.261 41.98C212.261 42.42 212.414 42.78 212.721 43.06C213.028 43.34 213.454 43.48 214.001 43.48ZM225.678 45.2C223.092 45.2 221.798 43.92 221.798 41.36V37.1H220.758C220.092 37.1 219.758 36.7867 219.758 36.16C219.758 35.5333 220.092 35.22 220.758 35.22H221.798V33.4C221.798 32.56 222.218 32.14 223.058 32.14C223.885 32.14 224.298 32.56 224.298 33.4V35.22H226.418C227.085 35.22 227.418 35.5333 227.418 36.16C227.418 36.7867 227.085 37.1 226.418 37.1H224.298V41.22C224.298 41.86 224.438 42.34 224.718 42.66C224.998 42.98 225.452 43.14 226.078 43.14C226.305 43.14 226.505 43.12 226.678 43.08C226.852 43.04 227.005 43.0133 227.138 43C227.298 42.9867 227.432 43.04 227.538 43.16C227.645 43.2667 227.698 43.4933 227.698 43.84C227.698 44.1067 227.652 44.3467 227.558 44.56C227.478 44.76 227.325 44.9 227.098 44.98C226.925 45.0333 226.698 45.08 226.418 45.12C226.138 45.1733 225.892 45.2 225.678 45.2ZM237.644 45.2C235.417 45.2 234.304 43.9533 234.304 41.46V32C234.304 31.16 234.717 30.74 235.544 30.74C236.384 30.74 236.804 31.16 236.804 32V41.34C236.804 42.54 237.304 43.14 238.304 43.14C238.411 43.14 238.511 43.14 238.604 43.14C238.697 43.1267 238.791 43.1133 238.884 43.1C239.071 43.0733 239.197 43.1267 239.264 43.26C239.331 43.38 239.364 43.6333 239.364 44.02C239.364 44.3533 239.297 44.6133 239.164 44.8C239.031 44.9867 238.811 45.1 238.504 45.14C238.224 45.18 237.937 45.2 237.644 45.2ZM243.911 45.2C243.204 45.2 242.571 45.0667 242.011 44.8C241.464 44.52 241.031 44.1467 240.711 43.68C240.404 43.2133 240.251 42.6867 240.251 42.1C240.251 41.38 240.437 40.8133 240.811 40.4C241.184 39.9733 241.791 39.6667 242.631 39.48C243.471 39.2933 244.597 39.2 246.011 39.2H246.711V38.78C246.711 38.1133 246.564 37.6333 246.271 37.34C245.977 37.0467 245.484 36.9 244.791 36.9C244.404 36.9 243.984 36.9467 243.531 37.04C243.091 37.1333 242.624 37.2933 242.131 37.52C241.811 37.6667 241.544 37.6867 241.331 37.58C241.117 37.46 240.971 37.28 240.891 37.04C240.824 36.7867 240.837 36.5333 240.931 36.28C241.037 36.0267 241.244 35.84 241.551 35.72C242.164 35.4667 242.751 35.2867 243.311 35.18C243.884 35.0733 244.404 35.02 244.871 35.02C246.297 35.02 247.357 35.3533 248.051 36.02C248.744 36.6733 249.091 37.6933 249.091 39.08V43.88C249.091 44.7333 248.704 45.16 247.931 45.16C247.144 45.16 246.751 44.7333 246.751 43.88V43.44C246.524 43.9867 246.164 44.42 245.671 44.74C245.177 45.0467 244.591 45.2 243.911 45.2ZM244.431 43.48C245.084 43.48 245.624 43.2533 246.051 42.8C246.491 42.3467 246.711 41.7733 246.711 41.08V40.64H246.031C244.777 40.64 243.904 40.74 243.411 40.94C242.931 41.1267 242.691 41.4733 242.691 41.98C242.691 42.42 242.844 42.78 243.151 43.06C243.457 43.34 243.884 43.48 244.431 43.48ZM252.868 45.16C252.041 45.16 251.628 44.7333 251.628 43.88V36.32C251.628 35.48 252.035 35.06 252.848 35.06C253.661 35.06 254.068 35.48 254.068 36.32V36.74C254.401 36.18 254.848 35.7533 255.408 35.46C255.981 35.1667 256.621 35.02 257.328 35.02C259.635 35.02 260.788 36.36 260.788 39.04V43.88C260.788 44.7333 260.375 45.16 259.548 45.16C258.708 45.16 258.288 44.7333 258.288 43.88V39.16C258.288 38.4 258.141 37.8467 257.848 37.5C257.568 37.1533 257.128 36.98 256.528 36.98C255.795 36.98 255.208 37.2133 254.768 37.68C254.341 38.1333 254.128 38.74 254.128 39.5V43.88C254.128 44.7333 253.708 45.16 252.868 45.16ZM267.887 48.8C267.167 48.8 266.467 48.7333 265.787 48.6C265.121 48.4667 264.514 48.26 263.967 47.98C263.647 47.82 263.454 47.6133 263.387 47.36C263.334 47.12 263.361 46.8867 263.467 46.66C263.574 46.4333 263.734 46.2667 263.947 46.16C264.174 46.0667 264.414 46.08 264.667 46.2C265.254 46.4933 265.807 46.68 266.327 46.76C266.861 46.8533 267.314 46.9 267.687 46.9C269.474 46.9 270.367 46.04 270.367 44.32V42.98C270.087 43.5267 269.654 43.96 269.067 44.28C268.494 44.6 267.854 44.76 267.147 44.76C266.267 44.76 265.501 44.56 264.847 44.16C264.194 43.7467 263.687 43.1733 263.327 42.44C262.967 41.7067 262.787 40.8533 262.787 39.88C262.787 38.9067 262.967 38.06 263.327 37.34C263.687 36.6067 264.194 36.04 264.847 35.64C265.501 35.2267 266.267 35.02 267.147 35.02C267.854 35.02 268.494 35.1733 269.067 35.48C269.641 35.7867 270.061 36.2067 270.327 36.74V36.32C270.327 35.9067 270.434 35.5933 270.647 35.38C270.874 35.1667 271.181 35.06 271.567 35.06C272.394 35.06 272.807 35.48 272.807 36.32V44.02C272.807 45.6067 272.387 46.8 271.547 47.6C270.707 48.4 269.487 48.8 267.887 48.8ZM267.827 42.86C268.601 42.86 269.214 42.5933 269.667 42.06C270.121 41.5267 270.347 40.8 270.347 39.88C270.347 38.96 270.121 38.24 269.667 37.72C269.214 37.1867 268.601 36.92 267.827 36.92C267.054 36.92 266.441 37.1867 265.987 37.72C265.534 38.24 265.307 38.96 265.307 39.88C265.307 40.8 265.534 41.5267 265.987 42.06C266.441 42.5933 267.054 42.86 267.827 42.86ZM278.938 45.2C276.538 45.2 275.338 43.8533 275.338 41.16V36.32C275.338 35.48 275.751 35.06 276.578 35.06C277.418 35.06 277.838 35.48 277.838 36.32V41.2C277.838 41.8933 277.978 42.4067 278.258 42.74C278.538 43.0733 278.984 43.24 279.598 43.24C280.264 43.24 280.811 43.0133 281.238 42.56C281.664 42.0933 281.878 41.48 281.878 40.72V36.32C281.878 35.48 282.291 35.06 283.118 35.06C283.958 35.06 284.378 35.48 284.378 36.32V43.88C284.378 44.7333 283.971 45.16 283.158 45.16C282.344 45.16 281.938 44.7333 281.938 43.88V43.54C281.284 44.6467 280.284 45.2 278.938 45.2ZM290.2 45.2C289.493 45.2 288.86 45.0667 288.3 44.8C287.753 44.52 287.32 44.1467 287 43.68C286.693 43.2133 286.54 42.6867 286.54 42.1C286.54 41.38 286.726 40.8133 287.1 40.4C287.473 39.9733 288.08 39.6667 288.92 39.48C289.76 39.2933 290.886 39.2 292.3 39.2H293V38.78C293 38.1133 292.853 37.6333 292.56 37.34C292.266 37.0467 291.773 36.9 291.08 36.9C290.693 36.9 290.273 36.9467 289.82 37.04C289.38 37.1333 288.913 37.2933 288.42 37.52C288.1 37.6667 287.833 37.6867 287.62 37.58C287.406 37.46 287.26 37.28 287.18 37.04C287.113 36.7867 287.126 36.5333 287.22 36.28C287.326 36.0267 287.533 35.84 287.84 35.72C288.453 35.4667 289.04 35.2867 289.6 35.18C290.173 35.0733 290.693 35.02 291.16 35.02C292.586 35.02 293.646 35.3533 294.34 36.02C295.033 36.6733 295.38 37.6933 295.38 39.08V43.88C295.38 44.7333 294.993 45.16 294.22 45.16C293.433 45.16 293.04 44.7333 293.04 43.88V43.44C292.813 43.9867 292.453 44.42 291.96 44.74C291.466 45.0467 290.88 45.2 290.2 45.2ZM290.72 43.48C291.373 43.48 291.913 43.2533 292.34 42.8C292.78 42.3467 293 41.7733 293 41.08V40.64H292.32C291.066 40.64 290.193 40.74 289.7 40.94C289.22 41.1267 288.98 41.4733 288.98 41.98C288.98 42.42 289.133 42.78 289.44 43.06C289.746 43.34 290.173 43.48 290.72 43.48ZM302.477 48.8C301.757 48.8 301.057 48.7333 300.377 48.6C299.711 48.4667 299.104 48.26 298.557 47.98C298.237 47.82 298.044 47.6133 297.977 47.36C297.924 47.12 297.951 46.8867 298.057 46.66C298.164 46.4333 298.324 46.2667 298.537 46.16C298.764 46.0667 299.004 46.08 299.257 46.2C299.844 46.4933 300.397 46.68 300.917 46.76C301.451 46.8533 301.904 46.9 302.277 46.9C304.064 46.9 304.957 46.04 304.957 44.32V42.98C304.677 43.5267 304.244 43.96 303.657 44.28C303.084 44.6 302.444 44.76 301.737 44.76C300.857 44.76 300.091 44.56 299.437 44.16C298.784 43.7467 298.277 43.1733 297.917 42.44C297.557 41.7067 297.377 40.8533 297.377 39.88C297.377 38.9067 297.557 38.06 297.917 37.34C298.277 36.6067 298.784 36.04 299.437 35.64C300.091 35.2267 300.857 35.02 301.737 35.02C302.444 35.02 303.084 35.1733 303.657 35.48C304.231 35.7867 304.651 36.2067 304.917 36.74V36.32C304.917 35.9067 305.024 35.5933 305.237 35.38C305.464 35.1667 305.771 35.06 306.157 35.06C306.984 35.06 307.397 35.48 307.397 36.32V44.02C307.397 45.6067 306.977 46.8 306.137 47.6C305.297 48.4 304.077 48.8 302.477 48.8ZM302.417 42.86C303.191 42.86 303.804 42.5933 304.257 42.06C304.711 41.5267 304.937 40.8 304.937 39.88C304.937 38.96 304.711 38.24 304.257 37.72C303.804 37.1867 303.191 36.92 302.417 36.92C301.644 36.92 301.031 37.1867 300.577 37.72C300.124 38.24 299.897 38.96 299.897 39.88C299.897 40.8 300.124 41.5267 300.577 42.06C301.031 42.5933 301.644 42.86 302.417 42.86ZM314.808 45.2C313.701 45.2 312.748 44.9933 311.948 44.58C311.148 44.1667 310.528 43.58 310.088 42.82C309.661 42.06 309.448 41.16 309.448 40.12C309.448 39.1067 309.654 38.22 310.068 37.46C310.494 36.7 311.074 36.1067 311.808 35.68C312.554 35.24 313.401 35.02 314.348 35.02C315.734 35.02 316.828 35.46 317.628 36.34C318.441 37.22 318.848 38.42 318.848 39.94C318.848 40.4333 318.528 40.68 317.888 40.68H311.848C312.034 42.4267 313.034 43.3 314.848 43.3C315.194 43.3 315.581 43.26 316.008 43.18C316.448 43.0867 316.861 42.9333 317.248 42.72C317.594 42.52 317.888 42.46 318.128 42.54C318.368 42.6067 318.534 42.7467 318.628 42.96C318.734 43.1733 318.748 43.4133 318.668 43.68C318.601 43.9333 318.414 44.1533 318.108 44.34C317.641 44.6333 317.101 44.8533 316.488 45C315.888 45.1333 315.328 45.2 314.808 45.2ZM314.448 36.72C313.714 36.72 313.121 36.9467 312.668 37.4C312.214 37.8533 311.941 38.4667 311.848 39.24H316.768C316.714 38.4267 316.488 37.8067 316.088 37.38C315.701 36.94 315.154 36.72 314.448 36.72ZM330.017 45.2C329.164 45.2 328.41 44.9933 327.757 44.58C327.117 44.1667 326.617 43.58 326.257 42.82C325.897 42.0467 325.717 41.14 325.717 40.1C325.717 39.0467 325.897 38.1467 326.257 37.4C326.617 36.64 327.117 36.0533 327.757 35.64C328.41 35.2267 329.164 35.02 330.017 35.02C330.71 35.02 331.337 35.1733 331.897 35.48C332.457 35.7867 332.877 36.1933 333.157 36.7V32C333.157 31.16 333.57 30.74 334.397 30.74C335.237 30.74 335.657 31.16 335.657 32V43.88C335.657 44.7333 335.244 45.16 334.417 45.16C333.59 45.16 333.177 44.7333 333.177 43.88V43.46C332.897 43.9933 332.477 44.42 331.917 44.74C331.357 45.0467 330.724 45.2 330.017 45.2ZM330.717 43.3C331.464 43.3 332.064 43.0333 332.517 42.5C332.97 41.9533 333.197 41.1533 333.197 40.1C333.197 39.0333 332.97 38.24 332.517 37.72C332.064 37.1867 331.464 36.92 330.717 36.92C329.97 36.92 329.37 37.1867 328.917 37.72C328.464 38.24 328.237 39.0333 328.237 40.1C328.237 41.1533 328.464 41.9533 328.917 42.5C329.37 43.0333 329.97 43.3 330.717 43.3ZM342.709 45.2C341.696 45.2 340.816 44.9933 340.069 44.58C339.323 44.1667 338.743 43.58 338.329 42.82C337.916 42.0467 337.709 41.14 337.709 40.1C337.709 39.06 337.916 38.16 338.329 37.4C338.743 36.64 339.323 36.0533 340.069 35.64C340.816 35.2267 341.696 35.02 342.709 35.02C343.723 35.02 344.603 35.2267 345.349 35.64C346.096 36.0533 346.676 36.64 347.089 37.4C347.503 38.16 347.709 39.06 347.709 40.1C347.709 41.14 347.503 42.0467 347.089 42.82C346.676 43.58 346.096 44.1667 345.349 44.58C344.603 44.9933 343.723 45.2 342.709 45.2ZM342.709 43.3C343.456 43.3 344.056 43.0333 344.509 42.5C344.963 41.9533 345.189 41.1533 345.189 40.1C345.189 39.0333 344.963 38.24 344.509 37.72C344.056 37.1867 343.456 36.92 342.709 36.92C341.963 36.92 341.363 37.1867 340.909 37.72C340.456 38.24 340.229 39.0333 340.229 40.1C340.229 41.1533 340.456 41.9533 340.909 42.5C341.363 43.0333 341.963 43.3 342.709 43.3ZM177.78 80.76C177.327 80.76 177.013 80.5933 176.84 80.26C176.667 79.9267 176.673 79.5467 176.86 79.12L178 76.6L174.58 68.72C174.393 68.28 174.393 67.8933 174.58 67.56C174.767 67.2267 175.133 67.06 175.68 67.06C175.987 67.06 176.233 67.1333 176.42 67.28C176.607 67.4133 176.773 67.6733 176.92 68.06L179.32 74.06L181.78 68.04C181.927 67.6667 182.1 67.4133 182.3 67.28C182.5 67.1333 182.767 67.06 183.1 67.06C183.527 67.06 183.827 67.2267 184 67.56C184.173 67.8933 184.167 68.2733 183.98 68.7L179.12 79.8C178.947 80.1733 178.76 80.4267 178.56 80.56C178.36 80.6933 178.1 80.76 177.78 80.76ZM190.092 77.2C189.079 77.2 188.199 76.9933 187.452 76.58C186.705 76.1667 186.125 75.58 185.712 74.82C185.299 74.0467 185.092 73.14 185.092 72.1C185.092 71.06 185.299 70.16 185.712 69.4C186.125 68.64 186.705 68.0533 187.452 67.64C188.199 67.2267 189.079 67.02 190.092 67.02C191.105 67.02 191.985 67.2267 192.732 67.64C193.479 68.0533 194.059 68.64 194.472 69.4C194.885 70.16 195.092 71.06 195.092 72.1C195.092 73.14 194.885 74.0467 194.472 74.82C194.059 75.58 193.479 76.1667 192.732 76.58C191.985 76.9933 191.105 77.2 190.092 77.2ZM190.092 75.3C190.839 75.3 191.439 75.0333 191.892 74.5C192.345 73.9533 192.572 73.1533 192.572 72.1C192.572 71.0333 192.345 70.24 191.892 69.72C191.439 69.1867 190.839 68.92 190.092 68.92C189.345 68.92 188.745 69.1867 188.292 69.72C187.839 70.24 187.612 71.0333 187.612 72.1C187.612 73.1533 187.839 73.9533 188.292 74.5C188.745 75.0333 189.345 75.3 190.092 75.3ZM200.695 77.2C198.295 77.2 197.095 75.8533 197.095 73.16V68.32C197.095 67.48 197.509 67.06 198.335 67.06C199.175 67.06 199.595 67.48 199.595 68.32V73.2C199.595 73.8933 199.735 74.4067 200.015 74.74C200.295 75.0733 200.742 75.24 201.355 75.24C202.022 75.24 202.569 75.0133 202.995 74.56C203.422 74.0933 203.635 73.48 203.635 72.72V68.32C203.635 67.48 204.049 67.06 204.875 67.06C205.715 67.06 206.135 67.48 206.135 68.32V75.88C206.135 76.7333 205.729 77.16 204.915 77.16C204.102 77.16 203.695 76.7333 203.695 75.88V75.54C203.042 76.6467 202.042 77.2 200.695 77.2ZM217.947 77.16C217.254 77.16 216.774 76.8133 216.507 76.12L213.607 68.72C213.434 68.2533 213.441 67.86 213.627 67.54C213.827 67.22 214.174 67.06 214.667 67.06C214.961 67.06 215.201 67.1333 215.387 67.28C215.574 67.4133 215.734 67.6733 215.867 68.06L218.067 74.08L220.327 67.9C220.541 67.34 220.921 67.06 221.467 67.06C222.027 67.06 222.407 67.34 222.607 67.9L224.867 74.14L227.087 68C227.221 67.64 227.387 67.3933 227.587 67.26C227.801 67.1267 228.034 67.06 228.287 67.06C228.767 67.06 229.081 67.2333 229.227 67.58C229.374 67.9133 229.361 68.2933 229.187 68.72L226.307 76.12C226.027 76.8133 225.547 77.16 224.867 77.16C224.161 77.16 223.681 76.8133 223.427 76.12L221.387 70.7L219.387 76.1C219.134 76.8067 218.654 77.16 217.947 77.16ZM234.243 77.2C233.536 77.2 232.903 77.0667 232.343 76.8C231.796 76.52 231.363 76.1467 231.043 75.68C230.736 75.2133 230.583 74.6867 230.583 74.1C230.583 73.38 230.769 72.8133 231.143 72.4C231.516 71.9733 232.123 71.6667 232.963 71.48C233.803 71.2933 234.929 71.2 236.343 71.2H237.043V70.78C237.043 70.1133 236.896 69.6333 236.603 69.34C236.309 69.0467 235.816 68.9 235.123 68.9C234.736 68.9 234.316 68.9467 233.863 69.04C233.423 69.1333 232.956 69.2933 232.463 69.52C232.143 69.6667 231.876 69.6867 231.663 69.58C231.449 69.46 231.303 69.28 231.223 69.04C231.156 68.7867 231.169 68.5333 231.263 68.28C231.369 68.0267 231.576 67.84 231.883 67.72C232.496 67.4667 233.083 67.2867 233.643 67.18C234.216 67.0733 234.736 67.02 235.203 67.02C236.629 67.02 237.689 67.3533 238.383 68.02C239.076 68.6733 239.423 69.6933 239.423 71.08V75.88C239.423 76.7333 239.036 77.16 238.263 77.16C237.476 77.16 237.083 76.7333 237.083 75.88V75.44C236.856 75.9867 236.496 76.42 236.003 76.74C235.509 77.0467 234.923 77.2 234.243 77.2ZM234.763 75.48C235.416 75.48 235.956 75.2533 236.383 74.8C236.823 74.3467 237.043 73.7733 237.043 73.08V72.64H236.363C235.109 72.64 234.236 72.74 233.743 72.94C233.263 73.1267 233.023 73.4733 233.023 73.98C233.023 74.42 233.176 74.78 233.483 75.06C233.789 75.34 234.216 75.48 234.763 75.48ZM243.2 77.16C242.373 77.16 241.96 76.7333 241.96 75.88V68.32C241.96 67.48 242.367 67.06 243.18 67.06C243.993 67.06 244.4 67.48 244.4 68.32V68.74C244.733 68.18 245.18 67.7533 245.74 67.46C246.313 67.1667 246.953 67.02 247.66 67.02C249.967 67.02 251.12 68.36 251.12 71.04V75.88C251.12 76.7333 250.707 77.16 249.88 77.16C249.04 77.16 248.62 76.7333 248.62 75.88V71.16C248.62 70.4 248.473 69.8467 248.18 69.5C247.9 69.1533 247.46 68.98 246.86 68.98C246.127 68.98 245.54 69.2133 245.1 69.68C244.673 70.1333 244.46 70.74 244.46 71.5V75.88C244.46 76.7333 244.04 77.16 243.2 77.16ZM258.139 77.2C255.553 77.2 254.259 75.92 254.259 73.36V69.1H253.219C252.553 69.1 252.219 68.7867 252.219 68.16C252.219 67.5333 252.553 67.22 253.219 67.22H254.259V65.4C254.259 64.56 254.679 64.14 255.519 64.14C256.346 64.14 256.759 64.56 256.759 65.4V67.22H258.879C259.546 67.22 259.879 67.5333 259.879 68.16C259.879 68.7867 259.546 69.1 258.879 69.1H256.759V73.22C256.759 73.86 256.899 74.34 257.179 74.66C257.459 74.98 257.913 75.14 258.539 75.14C258.766 75.14 258.966 75.12 259.139 75.08C259.313 75.04 259.466 75.0133 259.599 75C259.759 74.9867 259.893 75.04 259.999 75.16C260.106 75.2667 260.159 75.4933 260.159 75.84C260.159 76.1067 260.113 76.3467 260.019 76.56C259.939 76.76 259.786 76.9 259.559 76.98C259.386 77.0333 259.159 77.08 258.879 77.12C258.599 77.1733 258.353 77.2 258.139 77.2ZM271.245 77.2C268.658 77.2 267.365 75.92 267.365 73.36V69.1H266.325C265.658 69.1 265.325 68.7867 265.325 68.16C265.325 67.5333 265.658 67.22 266.325 67.22H267.365V65.4C267.365 64.56 267.785 64.14 268.625 64.14C269.452 64.14 269.865 64.56 269.865 65.4V67.22H271.985C272.652 67.22 272.985 67.5333 272.985 68.16C272.985 68.7867 272.652 69.1 271.985 69.1H269.865V73.22C269.865 73.86 270.005 74.34 270.285 74.66C270.565 74.98 271.018 75.14 271.645 75.14C271.872 75.14 272.072 75.12 272.245 75.08C272.418 75.04 272.572 75.0133 272.705 75C272.865 74.9867 272.998 75.04 273.105 75.16C273.212 75.2667 273.265 75.4933 273.265 75.84C273.265 76.1067 273.218 76.3467 273.125 76.56C273.045 76.76 272.892 76.9 272.665 76.98C272.492 77.0333 272.265 77.08 271.985 77.12C271.705 77.1733 271.458 77.2 271.245 77.2ZM278.803 77.2C277.79 77.2 276.91 76.9933 276.163 76.58C275.416 76.1667 274.836 75.58 274.423 74.82C274.01 74.0467 273.803 73.14 273.803 72.1C273.803 71.06 274.01 70.16 274.423 69.4C274.836 68.64 275.416 68.0533 276.163 67.64C276.91 67.2267 277.79 67.02 278.803 67.02C279.816 67.02 280.696 67.2267 281.443 67.64C282.19 68.0533 282.77 68.64 283.183 69.4C283.596 70.16 283.803 71.06 283.803 72.1C283.803 73.14 283.596 74.0467 283.183 74.82C282.77 75.58 282.19 76.1667 281.443 76.58C280.696 76.9933 279.816 77.2 278.803 77.2ZM278.803 75.3C279.55 75.3 280.15 75.0333 280.603 74.5C281.056 73.9533 281.283 73.1533 281.283 72.1C281.283 71.0333 281.056 70.24 280.603 69.72C280.15 69.1867 279.55 68.92 278.803 68.92C278.056 68.92 277.456 69.1867 277.003 69.72C276.55 70.24 276.323 71.0333 276.323 72.1C276.323 73.1533 276.55 73.9533 277.003 74.5C277.456 75.0333 278.056 75.3 278.803 75.3ZM294.836 77.2C292.436 77.2 291.236 75.8533 291.236 73.16V68.32C291.236 67.48 291.649 67.06 292.476 67.06C293.316 67.06 293.736 67.48 293.736 68.32V73.2C293.736 73.8933 293.876 74.4067 294.156 74.74C294.436 75.0733 294.883 75.24 295.496 75.24C296.163 75.24 296.709 75.0133 297.136 74.56C297.563 74.0933 297.776 73.48 297.776 72.72V68.32C297.776 67.48 298.189 67.06 299.016 67.06C299.856 67.06 300.276 67.48 300.276 68.32V75.88C300.276 76.7333 299.869 77.16 299.056 77.16C298.243 77.16 297.836 76.7333 297.836 75.88V75.54C297.183 76.6467 296.183 77.2 294.836 77.2ZM306.458 77.2C305.885 77.2 305.278 77.14 304.638 77.02C303.998 76.9 303.425 76.6933 302.918 76.4C302.638 76.24 302.465 76.0467 302.398 75.82C302.331 75.58 302.338 75.36 302.418 75.16C302.511 74.9467 302.658 74.7933 302.858 74.7C303.071 74.6067 303.318 74.6267 303.598 74.76C304.131 75.0133 304.631 75.1933 305.098 75.3C305.565 75.3933 306.025 75.44 306.478 75.44C307.118 75.44 307.591 75.3333 307.898 75.12C308.218 74.8933 308.378 74.6 308.378 74.24C308.378 73.68 307.965 73.32 307.138 73.16L305.138 72.78C303.445 72.46 302.598 71.58 302.598 70.14C302.598 69.5 302.771 68.9467 303.118 68.48C303.478 68.0133 303.971 67.6533 304.598 67.4C305.225 67.1467 305.945 67.02 306.758 67.02C307.931 67.02 308.978 67.28 309.898 67.8C310.151 67.9333 310.298 68.12 310.338 68.36C310.391 68.5867 310.365 68.8067 310.258 69.02C310.165 69.22 310.011 69.3667 309.798 69.46C309.585 69.54 309.338 69.5133 309.058 69.38C308.645 69.1667 308.245 69.0133 307.858 68.92C307.485 68.8267 307.125 68.78 306.778 68.78C306.125 68.78 305.638 68.8933 305.318 69.12C305.011 69.3467 304.858 69.6467 304.858 70.02C304.858 70.6067 305.238 70.9667 305.998 71.1L307.998 71.48C308.865 71.64 309.518 71.9333 309.958 72.36C310.411 72.7867 310.638 73.36 310.638 74.08C310.638 75.0533 310.258 75.82 309.498 76.38C308.738 76.9267 307.725 77.2 306.458 77.2ZM317.464 77.2C316.357 77.2 315.404 76.9933 314.604 76.58C313.804 76.1667 313.184 75.58 312.744 74.82C312.317 74.06 312.104 73.16 312.104 72.12C312.104 71.1067 312.31 70.22 312.724 69.46C313.15 68.7 313.73 68.1067 314.464 67.68C315.21 67.24 316.057 67.02 317.004 67.02C318.39 67.02 319.484 67.46 320.284 68.34C321.097 69.22 321.504 70.42 321.504 71.94C321.504 72.4333 321.184 72.68 320.544 72.68H314.504C314.69 74.4267 315.69 75.3 317.504 75.3C317.85 75.3 318.237 75.26 318.664 75.18C319.104 75.0867 319.517 74.9333 319.904 74.72C320.25 74.52 320.544 74.46 320.784 74.54C321.024 74.6067 321.19 74.7467 321.284 74.96C321.39 75.1733 321.404 75.4133 321.324 75.68C321.257 75.9333 321.07 76.1533 320.764 76.34C320.297 76.6333 319.757 76.8533 319.144 77C318.544 77.1333 317.984 77.2 317.464 77.2ZM317.104 68.72C316.37 68.72 315.777 68.9467 315.324 69.4C314.87 69.8533 314.597 70.4667 314.504 71.24H319.424C319.37 70.4267 319.144 69.8067 318.744 69.38C318.357 68.94 317.81 68.72 317.104 68.72ZM330.833 77.16C329.993 77.16 329.573 76.7333 329.573 75.88V69.1H328.653C327.987 69.1 327.653 68.7867 327.653 68.16C327.653 67.5333 327.987 67.22 328.653 67.22H329.573V67.2C329.573 65.8267 329.92 64.8 330.613 64.12C331.307 63.4267 332.307 63.02 333.613 62.9L334.293 62.84C334.64 62.8133 334.893 62.8867 335.053 63.06C335.213 63.2333 335.293 63.4467 335.293 63.7C335.307 63.94 335.247 64.16 335.113 64.36C334.98 64.5467 334.787 64.6533 334.533 64.68L334.253 64.7C333.493 64.7533 332.94 64.9467 332.593 65.28C332.247 65.6133 332.073 66.12 332.073 66.8V67.22H333.773C334.44 67.22 334.773 67.5333 334.773 68.16C334.773 68.7867 334.44 69.1 333.773 69.1H332.073V75.88C332.073 76.7333 331.66 77.16 330.833 77.16ZM340.405 77.2C339.391 77.2 338.511 76.9933 337.765 76.58C337.018 76.1667 336.438 75.58 336.025 74.82C335.611 74.0467 335.405 73.14 335.405 72.1C335.405 71.06 335.611 70.16 336.025 69.4C336.438 68.64 337.018 68.0533 337.765 67.64C338.511 67.2267 339.391 67.02 340.405 67.02C341.418 67.02 342.298 67.2267 343.045 67.64C343.791 68.0533 344.371 68.64 344.785 69.4C345.198 70.16 345.405 71.06 345.405 72.1C345.405 73.14 345.198 74.0467 344.785 74.82C344.371 75.58 343.791 76.1667 343.045 76.58C342.298 76.9933 341.418 77.2 340.405 77.2ZM340.405 75.3C341.151 75.3 341.751 75.0333 342.205 74.5C342.658 73.9533 342.885 73.1533 342.885 72.1C342.885 71.0333 342.658 70.24 342.205 69.72C341.751 69.1867 341.151 68.92 340.405 68.92C339.658 68.92 339.058 69.1867 338.605 69.72C338.151 70.24 337.925 71.0333 337.925 72.1C337.925 73.1533 338.151 73.9533 338.605 74.5C339.058 75.0333 339.658 75.3 340.405 75.3ZM348.748 77.16C347.895 77.16 347.468 76.7333 347.468 75.88V68.32C347.468 67.48 347.875 67.06 348.688 67.06C349.501 67.06 349.908 67.48 349.908 68.32V68.94C350.388 67.7933 351.415 67.1533 352.988 67.02C353.561 66.9533 353.881 67.28 353.948 68C354.015 68.7067 353.668 69.1 352.908 69.18L352.468 69.22C350.828 69.38 350.008 70.22 350.008 71.74V75.88C350.008 76.7333 349.588 77.16 348.748 77.16ZM176.9 109C175.993 109 175.54 108.547 175.54 107.64V96.26C175.54 95.3533 175.993 94.9 176.9 94.9H184.04C184.733 94.9 185.08 95.2333 185.08 95.9C185.08 96.5933 184.733 96.94 184.04 96.94H178V100.82H183.6C184.293 100.82 184.64 101.16 184.64 101.84C184.64 102.52 184.293 102.86 183.6 102.86H178V106.96H184.04C184.733 106.96 185.08 107.3 185.08 107.98C185.08 108.66 184.733 109 184.04 109H176.9ZM190.574 109.2C188.347 109.2 187.234 107.953 187.234 105.46V96C187.234 95.16 187.647 94.74 188.474 94.74C189.314 94.74 189.734 95.16 189.734 96V105.34C189.734 106.54 190.234 107.14 191.234 107.14C191.34 107.14 191.44 107.14 191.534 107.14C191.627 107.127 191.72 107.113 191.814 107.1C192 107.073 192.127 107.127 192.194 107.26C192.26 107.38 192.294 107.633 192.294 108.02C192.294 108.353 192.227 108.613 192.094 108.8C191.96 108.987 191.74 109.1 191.434 109.14C191.154 109.18 190.867 109.2 190.574 109.2ZM194.86 97.22C194.394 97.22 194.027 97.1067 193.76 96.88C193.507 96.64 193.38 96.3133 193.38 95.9C193.38 95.4733 193.507 95.1467 193.76 94.92C194.027 94.6933 194.394 94.58 194.86 94.58C195.847 94.58 196.34 95.02 196.34 95.9C196.34 96.78 195.847 97.22 194.86 97.22ZM194.86 109.14C194.46 109.14 194.154 109.02 193.94 108.78C193.727 108.54 193.62 108.207 193.62 107.78V100.44C193.62 99.5333 194.034 99.08 194.86 99.08C195.7 99.08 196.12 99.5333 196.12 100.44V107.78C196.12 108.207 196.014 108.54 195.8 108.78C195.587 109.02 195.274 109.14 194.86 109.14ZM199.958 109.16C199.131 109.16 198.718 108.733 198.718 107.88V100.32C198.718 99.48 199.125 99.06 199.938 99.06C200.751 99.06 201.158 99.48 201.158 100.32V100.74C201.491 100.18 201.938 99.7533 202.498 99.46C203.071 99.1667 203.711 99.02 204.418 99.02C206.725 99.02 207.878 100.36 207.878 103.04V107.88C207.878 108.733 207.465 109.16 206.638 109.16C205.798 109.16 205.378 108.733 205.378 107.88V103.16C205.378 102.4 205.231 101.847 204.938 101.5C204.658 101.153 204.218 100.98 203.618 100.98C202.885 100.98 202.298 101.213 201.858 101.68C201.431 102.133 201.218 102.74 201.218 103.5V107.88C201.218 108.733 200.798 109.16 199.958 109.16ZM214.977 112.8C214.257 112.8 213.557 112.733 212.877 112.6C212.211 112.467 211.604 112.26 211.057 111.98C210.737 111.82 210.544 111.613 210.477 111.36C210.424 111.12 210.451 110.887 210.557 110.66C210.664 110.433 210.824 110.267 211.037 110.16C211.264 110.067 211.504 110.08 211.757 110.2C212.344 110.493 212.897 110.68 213.417 110.76C213.951 110.853 214.404 110.9 214.777 110.9C216.564 110.9 217.457 110.04 217.457 108.32V106.98C217.177 107.527 216.744 107.96 216.157 108.28C215.584 108.6 214.944 108.76 214.237 108.76C213.357 108.76 212.591 108.56 211.937 108.16C211.284 107.747 210.777 107.173 210.417 106.44C210.057 105.707 209.877 104.853 209.877 103.88C209.877 102.907 210.057 102.06 210.417 101.34C210.777 100.607 211.284 100.04 211.937 99.64C212.591 99.2267 213.357 99.02 214.237 99.02C214.944 99.02 215.584 99.1733 216.157 99.48C216.731 99.7867 217.151 100.207 217.417 100.74V100.32C217.417 99.9067 217.524 99.5933 217.737 99.38C217.964 99.1667 218.271 99.06 218.657 99.06C219.484 99.06 219.897 99.48 219.897 100.32V108.02C219.897 109.607 219.477 110.8 218.637 111.6C217.797 112.4 216.577 112.8 214.977 112.8ZM214.917 106.86C215.691 106.86 216.304 106.593 216.757 106.06C217.211 105.527 217.437 104.8 217.437 103.88C217.437 102.96 217.211 102.24 216.757 101.72C216.304 101.187 215.691 100.92 214.917 100.92C214.144 100.92 213.531 101.187 213.077 101.72C212.624 102.24 212.397 102.96 212.397 103.88C212.397 104.8 212.624 105.527 213.077 106.06C213.531 106.593 214.144 106.86 214.917 106.86ZM226.948 109.2C225.934 109.2 225.054 108.993 224.308 108.58C223.561 108.167 222.981 107.58 222.568 106.82C222.154 106.047 221.948 105.14 221.948 104.1C221.948 103.06 222.154 102.16 222.568 101.4C222.981 100.64 223.561 100.053 224.308 99.64C225.054 99.2267 225.934 99.02 226.948 99.02C227.961 99.02 228.841 99.2267 229.588 99.64C230.334 100.053 230.914 100.64 231.328 101.4C231.741 102.16 231.948 103.06 231.948 104.1C231.948 105.14 231.741 106.047 231.328 106.82C230.914 107.58 230.334 108.167 229.588 108.58C228.841 108.993 227.961 109.2 226.948 109.2ZM226.948 107.3C227.694 107.3 228.294 107.033 228.748 106.5C229.201 105.953 229.428 105.153 229.428 104.1C229.428 103.033 229.201 102.24 228.748 101.72C228.294 101.187 227.694 100.92 226.948 100.92C226.201 100.92 225.601 101.187 225.148 101.72C224.694 102.24 224.468 103.033 224.468 104.1C224.468 105.153 224.694 105.953 225.148 106.5C225.601 107.033 226.201 107.3 226.948 107.3ZM236.702 104.92C236.449 104.92 236.249 104.84 236.102 104.68C235.969 104.507 235.902 104.28 235.902 104C235.902 103.387 236.016 102.813 236.242 102.28C236.482 101.747 236.882 101.167 237.442 100.54C237.869 100.073 238.162 99.6733 238.322 99.34C238.496 99.0067 238.582 98.6533 238.582 98.28C238.582 97.84 238.422 97.4933 238.102 97.24C237.782 96.9867 237.329 96.86 236.742 96.86C236.209 96.86 235.722 96.9333 235.282 97.08C234.856 97.2133 234.422 97.4067 233.982 97.66C233.622 97.8733 233.302 97.9467 233.022 97.88C232.756 97.8 232.562 97.64 232.442 97.4C232.322 97.16 232.302 96.8933 232.382 96.6C232.462 96.3067 232.676 96.0467 233.022 95.82C233.569 95.46 234.196 95.1867 234.902 95C235.609 94.8 236.276 94.7 236.902 94.7C237.742 94.7 238.476 94.84 239.102 95.12C239.742 95.4 240.236 95.7867 240.582 96.28C240.942 96.7733 241.122 97.3533 241.122 98.02C241.122 98.6333 240.982 99.2067 240.702 99.74C240.436 100.273 239.956 100.853 239.262 101.48C238.636 102.053 238.202 102.547 237.962 102.96C237.722 103.373 237.569 103.813 237.502 104.28C237.489 104.467 237.409 104.62 237.262 104.74C237.129 104.86 236.942 104.92 236.702 104.92ZM236.662 109.1C236.209 109.1 235.842 108.96 235.562 108.68C235.296 108.4 235.162 108.04 235.162 107.6C235.162 107.173 235.296 106.827 235.562 106.56C235.842 106.28 236.209 106.14 236.662 106.14C237.129 106.14 237.489 106.28 237.742 106.56C238.009 106.827 238.142 107.173 238.142 107.6C238.142 108.04 238.009 108.4 237.742 108.68C237.489 108.96 237.129 109.1 236.662 109.1Z" fill="#212121"/>
</svg>
