<svg width="49" height="51" viewBox="0 0 49 51" fill="none" xmlns="http://www.w3.org/2000/svg">
<path d="M48.1268 6.03077C48.1268 3.02954 45.6893 0.571873 42.6992 0.830682C36.5383 1.36396 30.555 2.80176 25.0907 5.07773C18.0327 8.0175 12.0691 12.2604 7.75338 17.4127C3.43767 22.5649 0.90966 28.4597 0.403927 34.5499C0.0419831 38.9085 0.724242 43.2661 2.39856 47.4157C3.58458 50.3552 6.99088 51.4903 9.97648 50.4259C14.0204 48.9841 15.5733 44.108 14.8967 39.8684C14.6522 38.3359 14.5919 36.7842 14.7208 35.2323C15.0748 30.9692 16.8444 26.8428 19.8654 23.2362C22.8864 19.6297 27.0609 16.6596 32.0015 14.6018C35.3454 13.209 38.9668 12.2647 42.7063 11.7997C45.6846 11.4294 48.1268 9.032 48.1268 6.03077Z" fill="currentColor"/>
</svg>
