<svg width="240" height="86" viewBox="0 0 240 86" fill="none" xmlns="http://www.w3.org/2000/svg">
<mask id="path-1-inside-1_2031_27315" fill="white">
<path fill-rule="evenodd" clip-rule="evenodd" d="M17.0003 55.6982C15.1469 55.2092 12.7372 53.8179 9.00004 51.6603L9 51.6603C3.73917 48.6229 1.10876 47.1042 0.361845 45.0521C-0.120615 43.7266 -0.120615 42.2734 0.361845 40.9479C1.10876 38.8958 3.73917 37.3771 9 34.3397C12.7372 32.1821 15.1469 30.7908 17.0003 30.3018C17.0069 16.3422 17.1793 9.19333 21.6863 4.68629C26.3726 0 33.9151 0 49 0H208C223.085 0 230.627 0 235.314 4.68629C240 9.37258 240 16.9151 240 32V54C240 69.0849 240 76.6274 235.314 81.3137C230.627 86 223.085 86 208 86H49C33.9151 86 26.3726 86 21.6863 81.3137C17.1793 76.8067 17.0069 69.6578 17.0003 55.6982Z"/>
</mask>
<path fill-rule="evenodd" clip-rule="evenodd" d="M17.0003 55.6982C15.1469 55.2092 12.7372 53.8179 9.00004 51.6603L9 51.6603C3.73917 48.6229 1.10876 47.1042 0.361845 45.0521C-0.120615 43.7266 -0.120615 42.2734 0.361845 40.9479C1.10876 38.8958 3.73917 37.3771 9 34.3397C12.7372 32.1821 15.1469 30.7908 17.0003 30.3018C17.0069 16.3422 17.1793 9.19333 21.6863 4.68629C26.3726 0 33.9151 0 49 0H208C223.085 0 230.627 0 235.314 4.68629C240 9.37258 240 16.9151 240 32V54C240 69.0849 240 76.6274 235.314 81.3137C230.627 86 223.085 86 208 86H49C33.9151 86 26.3726 86 21.6863 81.3137C17.1793 76.8067 17.0069 69.6578 17.0003 55.6982Z" fill="#FAFAFA"/>
<path d="M17.0003 55.6982L19.0003 55.6972L18.9995 54.1572L17.5105 53.7643L17.0003 55.6982ZM9.00004 51.6603L7.89064 53.3244L7.94424 53.3601L8.00004 53.3923L9.00004 51.6603ZM9 51.6603L10.1094 49.9962L10.0558 49.9604L10 49.9282L9 51.6603ZM0.361845 45.0521L-1.51754 45.7362H-1.51754L0.361845 45.0521ZM0.361845 40.9479L2.24123 41.6319L0.361845 40.9479ZM9 34.3397L10 36.0718H10L9 34.3397ZM17.0003 30.3018L17.5105 32.2357L18.9995 31.8428L19.0003 30.3028L17.0003 30.3018ZM21.6863 4.68629L20.2721 3.27208V3.27208L21.6863 4.68629ZM235.314 4.68629L233.899 6.1005V6.10051L235.314 4.68629ZM235.314 81.3137L233.899 79.8995V79.8995L235.314 81.3137ZM21.6863 81.3137L23.1005 79.8995L21.6863 81.3137ZM17.5105 53.7643C16.8034 53.5778 15.8958 53.191 14.6314 52.5316C13.3766 51.8772 11.8818 51.0146 10 49.9282L8.00004 53.3923C9.85546 54.4636 11.434 55.3754 12.7817 56.0783C14.1199 56.7762 15.3438 57.3296 16.4901 57.632L17.5105 53.7643ZM10.1094 49.9962L10.1094 49.9962L7.8906 53.3244L7.89064 53.3244L10.1094 49.9962ZM10 49.9282C7.3315 48.3875 5.4647 47.3069 4.15809 46.3646C2.84432 45.4171 2.40499 44.818 2.24123 44.3681L-1.51754 45.7362C-0.934388 47.3384 0.314942 48.5247 1.81832 49.6089C3.32885 50.6983 5.40768 51.8956 8 53.3923L10 49.9282ZM2.24123 44.3681C1.91959 43.4844 1.91959 42.5156 2.24123 41.6319L-1.51754 40.2638C-2.16082 42.0312 -2.16082 43.9688 -1.51754 45.7362L2.24123 44.3681ZM2.24123 41.6319C2.40499 41.182 2.84432 40.5829 4.15809 39.6354C5.4647 38.6931 7.3315 37.6125 10 36.0718L8 32.6077C5.40768 34.1044 3.32885 35.3017 1.81832 36.3911C0.314941 37.4753 -0.934389 38.6616 -1.51754 40.2638L2.24123 41.6319ZM10 36.0718C11.8817 34.9854 13.3766 34.1228 14.6314 33.4684C15.8958 32.809 16.8034 32.4222 17.5105 32.2357L16.4901 28.368C15.3438 28.6704 14.1199 29.2238 12.7817 29.9217C11.434 30.6246 9.85543 31.5365 8 32.6077L10 36.0718ZM19.0003 30.3028C19.0036 23.2787 19.0527 18.1627 19.634 14.2427C20.2066 10.3811 21.263 7.93802 23.1005 6.1005L20.2721 3.27208C17.6026 5.9416 16.3192 9.32649 15.6772 13.656C15.0439 17.9271 15.0035 23.3654 15.0003 30.3009L19.0003 30.3028ZM23.1005 6.10051C25.0101 4.1909 27.5749 3.12392 31.7101 2.56795C35.9029 2.00425 41.401 2 49 2V-2C41.5141 -2 35.6984 -2.00425 31.1772 -1.39638C26.5984 -0.780775 23.0488 0.495394 20.2721 3.27208L23.1005 6.10051ZM49 2H208V-2H49V2ZM208 2C215.599 2 221.097 2.00425 225.29 2.56795C229.425 3.12392 231.99 4.1909 233.899 6.1005L236.728 3.27208C233.951 0.495394 230.402 -0.780776 225.823 -1.39638C221.302 -2.00425 215.486 -2 208 -2V2ZM233.899 6.10051C235.809 8.01011 236.876 10.5749 237.432 14.7101C237.996 18.9029 238 24.401 238 32H242C242 24.5141 242.004 18.6984 241.396 14.1772C240.781 9.59836 239.505 6.04876 236.728 3.27208L233.899 6.10051ZM238 32V54H242V32H238ZM238 54C238 61.599 237.996 67.0971 237.432 71.2899C236.876 75.4251 235.809 77.9899 233.899 79.8995L236.728 82.7279C239.505 79.9512 240.781 76.4016 241.396 71.8228C242.004 67.3016 242 61.4859 242 54H238ZM233.899 79.8995C231.99 81.8091 229.425 82.8761 225.29 83.432C221.097 83.9958 215.599 84 208 84V88C215.486 88 221.302 88.0042 225.823 87.3964C230.402 86.7808 233.951 85.5046 236.728 82.7279L233.899 79.8995ZM208 84H49V88H208V84ZM49 84C41.401 84 35.9029 83.9958 31.7101 83.432C27.5749 82.8761 25.0101 81.8091 23.1005 79.8995L20.2721 82.7279C23.0488 85.5046 26.5984 86.7808 31.1772 87.3964C35.6984 88.0042 41.5141 88 49 88V84ZM23.1005 79.8995C21.263 78.062 20.2066 75.6189 19.634 71.7573C19.0527 67.8373 19.0036 62.7213 19.0003 55.6972L15.0003 55.6991C15.0035 62.6346 15.0439 68.0729 15.6772 72.344C16.3192 76.6735 17.6026 80.0584 20.2721 82.7279L23.1005 79.8995Z" fill="#EEEEEE" mask="url(#path-1-inside-1_2031_27315)"/>
</svg>
