<svg width="22" height="27" viewBox="0 0 22 27" fill="none" xmlns="http://www.w3.org/2000/svg">
    <path d="M4.57333 8.20172C4.44864 9.53172 4.36114 11.8855 5.14645 12.8873C5.14645 12.8873 4.77676 10.3017 8.09083 7.05766C9.4252 5.75172 9.73364 3.97547 9.2677 2.64328C9.00301 1.88859 8.51958 1.26516 8.09958 0.829844C7.85458 0.573906 8.0427 0.151719 8.39926 0.167031C10.5561 0.263281 14.0518 0.862656 15.5371 4.59016C16.1889 6.22641 16.2371 7.91734 15.9264 9.63672C15.7296 10.7348 15.0296 13.1761 16.6264 13.4758C17.7661 13.6902 18.3174 12.7845 18.5646 12.1327C18.6674 11.8614 19.024 11.7936 19.2164 12.0102C21.1414 14.1998 21.3055 16.7789 20.9074 18.9992C20.1374 23.2911 15.7908 26.4148 11.4727 26.4148C6.07833 26.4148 1.78426 23.3283 0.670825 17.7414C0.222388 15.4861 0.449888 11.0236 3.92801 7.87359C4.18614 7.63734 4.60833 7.84734 4.57333 8.20172Z" fill="url(#paint0_radial_298_3798)"/>
    <path d="M13.4441 16.2281C11.4557 13.6687 12.346 10.7484 12.8338 9.58466C12.8994 9.43154 12.7244 9.28716 12.5866 9.38122C11.7313 9.9631 9.97913 11.3325 9.1632 13.2597C8.05851 15.865 8.13726 17.1403 8.79132 18.6978C9.18507 19.6362 8.72788 19.8353 8.4982 19.8703C8.27507 19.9053 8.06945 19.7565 7.90538 19.6012C7.4334 19.1481 7.09707 18.5724 6.93413 17.9387C6.89913 17.8031 6.72195 17.7659 6.64101 17.8775C6.02851 18.724 5.71132 20.0825 5.69601 21.0428C5.64788 24.0112 8.10007 26.4175 11.0663 26.4175C14.8048 26.4175 17.5282 22.2831 15.3801 18.8269C14.7566 17.8206 14.1704 17.1622 13.4441 16.2281Z" fill="url(#paint1_radial_298_3798)"/>
    <defs>
    <radialGradient id="paint0_radial_298_3798" cx="0" cy="0" r="1" gradientUnits="userSpaceOnUse" gradientTransform="translate(10.4043 26.4829) rotate(-179.751) scale(15.4411 25.3357)">
    <stop offset="0.314" stop-color="#FF9800"/>
    <stop offset="0.662" stop-color="#FF6D00"/>
    <stop offset="0.972" stop-color="#F44336"/>
    </radialGradient>
    <radialGradient id="paint1_radial_298_3798" cx="0" cy="0" r="1" gradientUnits="userSpaceOnUse" gradientTransform="translate(11.2719 11.1177) rotate(90.5787) scale(16.1561 12.1587)">
    <stop offset="0.214" stop-color="#FFF176"/>
    <stop offset="0.328" stop-color="#FFF27D"/>
    <stop offset="0.487" stop-color="#FFF48F"/>
    <stop offset="0.672" stop-color="#FFF7AD"/>
    <stop offset="0.793" stop-color="#FFF9C4"/>
    <stop offset="0.822" stop-color="#FFF8BD" stop-opacity="0.804"/>
    <stop offset="0.863" stop-color="#FFF6AB" stop-opacity="0.529"/>
    <stop offset="0.91" stop-color="#FFF38D" stop-opacity="0.209"/>
    <stop offset="0.941" stop-color="#FFF176" stop-opacity="0"/>
    </radialGradient>
    </defs>
    </svg>
    