<svg width="200" height="64" viewBox="0 0 200 64" fill="none" xmlns="http://www.w3.org/2000/svg">
<mask id="path-1-inside-1_2031_26655" fill="white">
<path fill-rule="evenodd" clip-rule="evenodd" d="M1.21793 9.87706C0 12.8174 0 16.5449 0 24C0 31.4551 0 35.1826 1.21793 38.1229C2.84183 42.0434 5.95662 45.1582 9.87706 46.7821C12.8174 48 16.5449 48 24 48H87.6299C88.2875 49.7133 89.5499 51.9 91.3397 55C94.3771 60.2608 95.8958 62.8912 97.9479 63.6382C99.2734 64.1206 100.727 64.1206 102.052 63.6382C104.104 62.8912 105.623 60.2608 108.66 55C110.45 51.9 111.713 49.7133 112.37 48H176C183.455 48 187.183 48 190.123 46.7821C194.043 45.1582 197.158 42.0434 198.782 38.1229C200 35.1826 200 31.4551 200 24C200 16.5449 200 12.8174 198.782 9.87706C197.158 5.95662 194.043 2.84183 190.123 1.21793C187.183 0 183.455 0 176 0H24C16.5449 0 12.8174 0 9.87706 1.21793C5.95662 2.84183 2.84183 5.95662 1.21793 9.87706Z"/>
</mask>
<path fill-rule="evenodd" clip-rule="evenodd" d="M1.21793 9.87706C0 12.8174 0 16.5449 0 24C0 31.4551 0 35.1826 1.21793 38.1229C2.84183 42.0434 5.95662 45.1582 9.87706 46.7821C12.8174 48 16.5449 48 24 48H87.6299C88.2875 49.7133 89.5499 51.9 91.3397 55C94.3771 60.2608 95.8958 62.8912 97.9479 63.6382C99.2734 64.1206 100.727 64.1206 102.052 63.6382C104.104 62.8912 105.623 60.2608 108.66 55C110.45 51.9 111.713 49.7133 112.37 48H176C183.455 48 187.183 48 190.123 46.7821C194.043 45.1582 197.158 42.0434 198.782 38.1229C200 35.1826 200 31.4551 200 24C200 16.5449 200 12.8174 198.782 9.87706C197.158 5.95662 194.043 2.84183 190.123 1.21793C187.183 0 183.455 0 176 0H24C16.5449 0 12.8174 0 9.87706 1.21793C5.95662 2.84183 2.84183 5.95662 1.21793 9.87706Z" fill="#FAFAFA"/>
<path d="M1.21793 9.87706L-0.629832 9.1117H-0.629832L1.21793 9.87706ZM1.21793 38.1229L-0.629832 38.8883H-0.629832L1.21793 38.1229ZM9.87706 46.7821L9.1117 48.6298H9.1117L9.87706 46.7821ZM87.6299 48L89.4972 47.2834L89.0046 46H87.6299V48ZM91.3397 55L93.0718 54L91.3397 55ZM97.9479 63.6382L98.6319 61.7588V61.7588L97.9479 63.6382ZM102.052 63.6382L101.368 61.7588V61.7588L102.052 63.6382ZM108.66 55L110.392 56L108.66 55ZM112.37 48V46H110.995L110.503 47.2834L112.37 48ZM190.123 46.7821L190.888 48.6298L190.123 46.7821ZM198.782 38.1229L200.63 38.8883L198.782 38.1229ZM198.782 9.87706L200.63 9.1117V9.1117L198.782 9.87706ZM190.123 1.21793L190.888 -0.629831V-0.629832L190.123 1.21793ZM9.87706 1.21793L9.1117 -0.629832V-0.629832L9.87706 1.21793ZM2 24C2 20.2451 2.00108 17.5291 2.1476 15.3817C2.29289 13.2522 2.57449 11.8283 3.06569 10.6424L-0.629832 9.1117C-1.35656 10.8662 -1.68393 12.7762 -1.84312 15.1094C-2.00108 17.4245 -2 20.2998 -2 24H2ZM3.06569 37.3576C2.57449 36.1717 2.29289 34.7478 2.1476 32.6183C2.00108 30.4709 2 27.7549 2 24H-2C-2 27.7002 -2.00108 30.5755 -1.84312 32.8906C-1.68393 35.2238 -1.35656 37.1338 -0.629832 38.8883L3.06569 37.3576ZM10.6424 44.9343C7.21204 43.5134 4.4866 40.788 3.06569 37.3576L-0.629832 38.8883C1.19706 43.2988 4.70119 46.8029 9.1117 48.6298L10.6424 44.9343ZM24 46C20.2451 46 17.5291 45.9989 15.3817 45.8524C13.2522 45.7071 11.8283 45.4255 10.6424 44.9343L9.1117 48.6298C10.8662 49.3566 12.7762 49.6839 15.1094 49.8431C17.4245 50.0011 20.2998 50 24 50V46ZM87.6299 46H24V50H87.6299V46ZM93.0718 54C91.244 50.8341 90.0841 48.8127 89.4972 47.2834L85.7627 48.7166C86.4909 50.6139 87.8559 52.9659 89.6077 56L93.0718 54ZM98.6319 61.7588C98.182 61.595 97.5829 61.1557 96.6354 59.8419C95.6931 58.5353 94.6125 56.6685 93.0718 54L89.6077 56C91.1044 58.5923 92.3017 60.6712 93.3911 62.1817C94.4753 63.6851 95.6616 64.9344 97.2638 65.5175L98.6319 61.7588ZM101.368 61.7588C100.484 62.0804 99.5156 62.0804 98.6319 61.7588L97.2638 65.5175C99.0312 66.1608 100.969 66.1608 102.736 65.5175L101.368 61.7588ZM106.928 54C105.388 56.6685 104.307 58.5353 103.365 59.8419C102.417 61.1557 101.818 61.595 101.368 61.7588L102.736 65.5175C104.338 64.9344 105.525 63.6851 106.609 62.1817C107.698 60.6712 108.896 58.5923 110.392 56L106.928 54ZM110.503 47.2834C109.916 48.8127 108.756 50.8341 106.928 54L110.392 56C112.144 52.9659 113.509 50.6139 114.237 48.7166L110.503 47.2834ZM176 46H112.37V50H176V46ZM189.358 44.9343C188.172 45.4255 186.748 45.7071 184.618 45.8524C182.471 45.9989 179.755 46 176 46V50C179.7 50 182.575 50.0011 184.891 49.8431C187.224 49.6839 189.134 49.3566 190.888 48.6298L189.358 44.9343ZM196.934 37.3576C195.513 40.788 192.788 43.5134 189.358 44.9343L190.888 48.6298C195.299 46.8029 198.803 43.2988 200.63 38.8883L196.934 37.3576ZM198 24C198 27.7549 197.999 30.4709 197.852 32.6183C197.707 34.7478 197.426 36.1717 196.934 37.3576L200.63 38.8883C201.357 37.1338 201.684 35.2238 201.843 32.8906C202.001 30.5755 202 27.7002 202 24H198ZM196.934 10.6424C197.426 11.8283 197.707 13.2522 197.852 15.3817C197.999 17.5291 198 20.2451 198 24H202C202 20.2998 202.001 17.4245 201.843 15.1094C201.684 12.7762 201.357 10.8662 200.63 9.1117L196.934 10.6424ZM189.358 3.06569C192.788 4.4866 195.513 7.21204 196.934 10.6424L200.63 9.1117C198.803 4.70119 195.299 1.19706 190.888 -0.629831L189.358 3.06569ZM176 2C179.755 2 182.471 2.00108 184.618 2.1476C186.748 2.2929 188.172 2.57449 189.358 3.06569L190.888 -0.629832C189.134 -1.35656 187.224 -1.68393 184.891 -1.84312C182.575 -2.00108 179.7 -2 176 -2V2ZM24 2H176V-2H24V2ZM10.6424 3.06569C11.8283 2.57449 13.2522 2.29289 15.3817 2.1476C17.5291 2.00108 20.2451 2 24 2V-2C20.2998 -2 17.4245 -2.00108 15.1094 -1.84312C12.7762 -1.68393 10.8662 -1.35656 9.1117 -0.629832L10.6424 3.06569ZM3.06569 10.6424C4.4866 7.21204 7.21204 4.4866 10.6424 3.06569L9.1117 -0.629832C4.70119 1.19706 1.19706 4.70119 -0.629832 9.1117L3.06569 10.6424Z" fill="#EEEEEE" mask="url(#path-1-inside-1_2031_26655)"/>
<path d="M30.82 31.16C29.9667 31.16 29.54 30.72 29.54 29.84V18.06C29.54 17.18 29.9667 16.74 30.82 16.74C31.6733 16.74 32.1 17.18 32.1 18.06V22.78H39.36V18.06C39.36 17.18 39.7867 16.74 40.64 16.74C41.4933 16.74 41.92 17.18 41.92 18.06V29.84C41.92 30.72 41.4933 31.16 40.64 31.16C39.7867 31.16 39.36 30.72 39.36 29.84V24.92H32.1V29.84C32.1 30.72 31.6733 31.16 30.82 31.16ZM46.0088 19.22C45.5421 19.22 45.1754 19.1067 44.9088 18.88C44.6554 18.64 44.5288 18.3133 44.5288 17.9C44.5288 17.4733 44.6554 17.1467 44.9088 16.92C45.1754 16.6933 45.5421 16.58 46.0088 16.58C46.9954 16.58 47.4888 17.02 47.4888 17.9C47.4888 18.78 46.9954 19.22 46.0088 19.22ZM46.0088 31.14C45.6088 31.14 45.3021 31.02 45.0888 30.78C44.8754 30.54 44.7688 30.2067 44.7688 29.78V22.44C44.7688 21.5333 45.1821 21.08 46.0088 21.08C46.8488 21.08 47.2688 21.5333 47.2688 22.44V29.78C47.2688 30.2067 47.1621 30.54 46.9488 30.78C46.7354 31.02 46.4221 31.14 46.0088 31.14ZM59.7761 31.2C57.1894 31.2 55.8961 29.92 55.8961 27.36V23.1H54.8561C54.1894 23.1 53.8561 22.7867 53.8561 22.16C53.8561 21.5333 54.1894 21.22 54.8561 21.22H55.8961V19.4C55.8961 18.56 56.3161 18.14 57.1561 18.14C57.9828 18.14 58.3961 18.56 58.3961 19.4V21.22H60.5161C61.1828 21.22 61.5161 21.5333 61.5161 22.16C61.5161 22.7867 61.1828 23.1 60.5161 23.1H58.3961V27.22C58.3961 27.86 58.5361 28.34 58.8161 28.66C59.0961 28.98 59.5494 29.14 60.1761 29.14C60.4028 29.14 60.6028 29.12 60.7761 29.08C60.9494 29.04 61.1028 29.0133 61.2361 29C61.3961 28.9867 61.5294 29.04 61.6361 29.16C61.7428 29.2667 61.7961 29.4933 61.7961 29.84C61.7961 30.1067 61.7494 30.3467 61.6561 30.56C61.5761 30.76 61.4228 30.9 61.1961 30.98C61.0228 31.0333 60.7961 31.08 60.5161 31.12C60.2361 31.1733 59.9894 31.2 59.7761 31.2ZM64.4658 31.16C63.6391 31.16 63.2258 30.7333 63.2258 29.88V18C63.2258 17.16 63.6391 16.74 64.4658 16.74C65.3058 16.74 65.7258 17.16 65.7258 18V22.64C66.0591 22.1067 66.5058 21.7067 67.0658 21.44C67.6258 21.16 68.2458 21.02 68.9258 21.02C71.2324 21.02 72.3858 22.36 72.3858 25.04V29.88C72.3858 30.7333 71.9724 31.16 71.1458 31.16C70.3058 31.16 69.8858 30.7333 69.8858 29.88V25.16C69.8858 24.4 69.7391 23.8467 69.4458 23.5C69.1658 23.1533 68.7258 22.98 68.1258 22.98C67.3924 22.98 66.8058 23.2133 66.3658 23.68C65.9391 24.1333 65.7258 24.74 65.7258 25.5V29.88C65.7258 30.7333 65.3058 31.16 64.4658 31.16ZM79.745 31.2C78.6383 31.2 77.685 30.9933 76.885 30.58C76.085 30.1667 75.465 29.58 75.025 28.82C74.5983 28.06 74.385 27.16 74.385 26.12C74.385 25.1067 74.5917 24.22 75.005 23.46C75.4317 22.7 76.0117 22.1067 76.745 21.68C77.4917 21.24 78.3383 21.02 79.285 21.02C80.6717 21.02 81.765 21.46 82.565 22.34C83.3783 23.22 83.785 24.42 83.785 25.94C83.785 26.4333 83.465 26.68 82.825 26.68H76.785C76.9717 28.4267 77.9717 29.3 79.785 29.3C80.1317 29.3 80.5183 29.26 80.945 29.18C81.385 29.0867 81.7983 28.9333 82.185 28.72C82.5317 28.52 82.825 28.46 83.065 28.54C83.305 28.6067 83.4717 28.7467 83.565 28.96C83.6717 29.1733 83.685 29.4133 83.605 29.68C83.5383 29.9333 83.3517 30.1533 83.045 30.34C82.5783 30.6333 82.0383 30.8533 81.425 31C80.825 31.1333 80.265 31.2 79.745 31.2ZM79.385 22.72C78.6517 22.72 78.0583 22.9467 77.605 23.4C77.1517 23.8533 76.8783 24.4667 76.785 25.24H81.705C81.6517 24.4267 81.425 23.8067 81.025 23.38C80.6383 22.94 80.0917 22.72 79.385 22.72ZM87.0448 31.16C86.1915 31.16 85.7648 30.7333 85.7648 29.88V22.32C85.7648 21.48 86.1715 21.06 86.9848 21.06C87.7982 21.06 88.2048 21.48 88.2048 22.32V22.94C88.6848 21.7933 89.7115 21.1533 91.2848 21.02C91.8582 20.9533 92.1782 21.28 92.2448 22C92.3115 22.7067 91.9648 23.1 91.2048 23.18L90.7648 23.22C89.1248 23.38 88.3048 24.22 88.3048 25.74V29.88C88.3048 30.7333 87.8848 31.16 87.0448 31.16ZM98.2606 31.2C97.154 31.2 96.2006 30.9933 95.4006 30.58C94.6006 30.1667 93.9806 29.58 93.5406 28.82C93.114 28.06 92.9006 27.16 92.9006 26.12C92.9006 25.1067 93.1073 24.22 93.5206 23.46C93.9473 22.7 94.5273 22.1067 95.2606 21.68C96.0073 21.24 96.854 21.02 97.8006 21.02C99.1873 21.02 100.281 21.46 101.081 22.34C101.894 23.22 102.301 24.42 102.301 25.94C102.301 26.4333 101.981 26.68 101.341 26.68H95.3006C95.4873 28.4267 96.4873 29.3 98.3006 29.3C98.6473 29.3 99.034 29.26 99.4606 29.18C99.9006 29.0867 100.314 28.9333 100.701 28.72C101.047 28.52 101.341 28.46 101.581 28.54C101.821 28.6067 101.987 28.7467 102.081 28.96C102.187 29.1733 102.201 29.4133 102.121 29.68C102.054 29.9333 101.867 30.1533 101.561 30.34C101.094 30.6333 100.554 30.8533 99.9406 31C99.3406 31.1333 98.7806 31.2 98.2606 31.2ZM97.9006 22.72C97.1673 22.72 96.574 22.9467 96.1206 23.4C95.6673 23.8533 95.394 24.4667 95.3006 25.24H100.221C100.167 24.4267 99.9406 23.8067 99.5406 23.38C99.154 22.94 98.6073 22.72 97.9006 22.72ZM105.48 26.94C104.96 26.94 104.68 26.6333 104.64 26.02L104.04 18.38C104 17.8867 104.107 17.4933 104.36 17.2C104.614 16.8933 104.987 16.74 105.48 16.74C105.96 16.74 106.32 16.8933 106.56 17.2C106.814 17.4933 106.92 17.8867 106.88 18.38L106.28 26.02C106.24 26.6333 105.974 26.94 105.48 26.94ZM105.48 31.1C105.027 31.1 104.66 30.96 104.38 30.68C104.114 30.4 103.98 30.04 103.98 29.6C103.98 29.1733 104.114 28.8267 104.38 28.56C104.66 28.28 105.027 28.14 105.48 28.14C105.947 28.14 106.307 28.28 106.56 28.56C106.827 28.8267 106.96 29.1733 106.96 29.6C106.96 30.04 106.827 30.4 106.56 30.68C106.307 30.96 105.947 31.1 105.48 31.1ZM116.191 31.16C115.338 31.16 114.911 30.72 114.911 29.84V18.06C114.911 17.18 115.338 16.74 116.191 16.74C117.044 16.74 117.471 17.18 117.471 18.06V29.84C117.471 30.72 117.044 31.16 116.191 31.16ZM121.836 21.8C121.662 22.0133 121.476 22.1333 121.276 22.16C121.089 22.1867 120.922 22.1533 120.776 22.06C120.629 21.9533 120.549 21.8067 120.536 21.62C120.522 21.42 120.609 21.2067 120.796 20.98C120.956 20.78 121.082 20.5733 121.176 20.36C121.282 20.1467 121.356 19.9467 121.396 19.76C120.982 19.72 120.649 19.5733 120.396 19.32C120.142 19.0533 120.016 18.7067 120.016 18.28C120.016 17.84 120.149 17.4867 120.416 17.22C120.682 16.94 121.042 16.8 121.496 16.8C121.962 16.8 122.329 16.96 122.596 17.28C122.862 17.5867 122.996 18.0333 122.996 18.62C122.996 19.1 122.916 19.6067 122.756 20.14C122.609 20.66 122.302 21.2133 121.836 21.8ZM126.557 31.16C125.73 31.16 125.317 30.7333 125.317 29.88V22.32C125.317 21.48 125.723 21.06 126.537 21.06C127.35 21.06 127.757 21.48 127.757 22.32V22.72C128.05 22.1867 128.457 21.7733 128.977 21.48C129.497 21.1733 130.097 21.02 130.777 21.02C132.243 21.02 133.203 21.66 133.657 22.94C133.963 22.34 134.403 21.8733 134.977 21.54C135.55 21.1933 136.203 21.02 136.937 21.02C139.137 21.02 140.237 22.36 140.237 25.04V29.88C140.237 30.7333 139.817 31.16 138.977 31.16C138.15 31.16 137.737 30.7333 137.737 29.88V25.14C137.737 24.3933 137.61 23.8467 137.357 23.5C137.117 23.1533 136.703 22.98 136.117 22.98C135.463 22.98 134.95 23.2133 134.577 23.68C134.203 24.1333 134.017 24.7667 134.017 25.58V29.88C134.017 30.7333 133.603 31.16 132.777 31.16C131.937 31.16 131.517 30.7333 131.517 29.88V25.14C131.517 24.3933 131.39 23.8467 131.137 23.5C130.897 23.1533 130.49 22.98 129.917 22.98C129.263 22.98 128.75 23.2133 128.377 23.68C128.003 24.1333 127.817 24.7667 127.817 25.58V29.88C127.817 30.7333 127.397 31.16 126.557 31.16ZM149.845 31C148.939 31 148.485 30.5467 148.485 29.64V18.26C148.485 17.3533 148.939 16.9 149.845 16.9H156.985C157.679 16.9 158.025 17.2333 158.025 17.9C158.025 18.5933 157.679 18.94 156.985 18.94H150.945V22.82H156.545C157.239 22.82 157.585 23.16 157.585 23.84C157.585 24.52 157.239 24.86 156.545 24.86H150.945V28.96H156.985C157.679 28.96 158.025 29.3 158.025 29.98C158.025 30.66 157.679 31 156.985 31H149.845ZM163.519 31.2C161.292 31.2 160.179 29.9533 160.179 27.46V18C160.179 17.16 160.592 16.74 161.419 16.74C162.259 16.74 162.679 17.16 162.679 18V27.34C162.679 28.54 163.179 29.14 164.179 29.14C164.286 29.14 164.386 29.14 164.479 29.14C164.572 29.1267 164.666 29.1133 164.759 29.1C164.946 29.0733 165.072 29.1267 165.139 29.26C165.206 29.38 165.239 29.6333 165.239 30.02C165.239 30.3533 165.172 30.6133 165.039 30.8C164.906 30.9867 164.686 31.1 164.379 31.14C164.099 31.18 163.812 31.2 163.519 31.2ZM167.766 26.94C167.246 26.94 166.966 26.6333 166.926 26.02L166.326 18.38C166.286 17.8867 166.392 17.4933 166.646 17.2C166.899 16.8933 167.272 16.74 167.766 16.74C168.246 16.74 168.606 16.8933 168.846 17.2C169.099 17.4933 169.206 17.8867 169.166 18.38L168.566 26.02C168.526 26.6333 168.259 26.94 167.766 26.94ZM167.766 31.1C167.312 31.1 166.946 30.96 166.666 30.68C166.399 30.4 166.266 30.04 166.266 29.6C166.266 29.1733 166.399 28.8267 166.666 28.56C166.946 28.28 167.312 28.14 167.766 28.14C168.232 28.14 168.592 28.28 168.846 28.56C169.112 28.8267 169.246 29.1733 169.246 29.6C169.246 30.04 169.112 30.4 168.846 30.68C168.592 30.96 168.232 31.1 167.766 31.1Z" fill="#212121"/>
</svg>
