<svg width="240" height="86" viewBox="0 0 240 86" fill="none" xmlns="http://www.w3.org/2000/svg">
<mask id="path-1-inside-1_2031_27314" fill="white">
<path fill-rule="evenodd" clip-rule="evenodd" d="M17.0003 55.6982C15.1469 55.2092 12.7372 53.8179 9.00004 51.6603L9 51.6603C3.73917 48.6229 1.10876 47.1042 0.361845 45.0521C-0.120615 43.7266 -0.120615 42.2734 0.361845 40.9479C1.10876 38.8958 3.73917 37.3771 9 34.3397C12.7372 32.1821 15.1469 30.7908 17.0003 30.3018C17.0069 16.3422 17.1793 9.19333 21.6863 4.68629C26.3726 0 33.9151 0 49 0H208C223.085 0 230.627 0 235.314 4.68629C240 9.37258 240 16.9151 240 32V54C240 69.0849 240 76.6274 235.314 81.3137C230.627 86 223.085 86 208 86H49C33.9151 86 26.3726 86 21.6863 81.3137C17.1793 76.8067 17.0069 69.6578 17.0003 55.6982Z"/>
</mask>
<path fill-rule="evenodd" clip-rule="evenodd" d="M17.0003 55.6982C15.1469 55.2092 12.7372 53.8179 9.00004 51.6603L9 51.6603C3.73917 48.6229 1.10876 47.1042 0.361845 45.0521C-0.120615 43.7266 -0.120615 42.2734 0.361845 40.9479C1.10876 38.8958 3.73917 37.3771 9 34.3397C12.7372 32.1821 15.1469 30.7908 17.0003 30.3018C17.0069 16.3422 17.1793 9.19333 21.6863 4.68629C26.3726 0 33.9151 0 49 0H208C223.085 0 230.627 0 235.314 4.68629C240 9.37258 240 16.9151 240 32V54C240 69.0849 240 76.6274 235.314 81.3137C230.627 86 223.085 86 208 86H49C33.9151 86 26.3726 86 21.6863 81.3137C17.1793 76.8067 17.0069 69.6578 17.0003 55.6982Z" fill="#FAFAFA"/>
<path d="M17.0003 55.6982L19.0003 55.6972L18.9995 54.1572L17.5105 53.7643L17.0003 55.6982ZM9.00004 51.6603L7.89064 53.3244L7.94424 53.3601L8.00004 53.3923L9.00004 51.6603ZM9 51.6603L10.1094 49.9962L10.0558 49.9604L10 49.9282L9 51.6603ZM0.361845 45.0521L-1.51754 45.7362H-1.51754L0.361845 45.0521ZM0.361845 40.9479L2.24123 41.6319L0.361845 40.9479ZM9 34.3397L10 36.0718H10L9 34.3397ZM17.0003 30.3018L17.5105 32.2357L18.9995 31.8428L19.0003 30.3028L17.0003 30.3018ZM21.6863 4.68629L20.2721 3.27208V3.27208L21.6863 4.68629ZM235.314 4.68629L233.899 6.1005V6.10051L235.314 4.68629ZM235.314 81.3137L233.899 79.8995V79.8995L235.314 81.3137ZM21.6863 81.3137L23.1005 79.8995L21.6863 81.3137ZM17.5105 53.7643C16.8034 53.5778 15.8958 53.191 14.6314 52.5316C13.3766 51.8772 11.8818 51.0146 10 49.9282L8.00004 53.3923C9.85546 54.4636 11.434 55.3754 12.7817 56.0783C14.1199 56.7762 15.3438 57.3296 16.4901 57.632L17.5105 53.7643ZM10.1094 49.9962L10.1094 49.9962L7.8906 53.3244L7.89064 53.3244L10.1094 49.9962ZM10 49.9282C7.3315 48.3875 5.4647 47.3069 4.15809 46.3646C2.84432 45.4171 2.40499 44.818 2.24123 44.3681L-1.51754 45.7362C-0.934388 47.3384 0.314942 48.5247 1.81832 49.6089C3.32885 50.6983 5.40768 51.8956 8 53.3923L10 49.9282ZM2.24123 44.3681C1.91959 43.4844 1.91959 42.5156 2.24123 41.6319L-1.51754 40.2638C-2.16082 42.0312 -2.16082 43.9688 -1.51754 45.7362L2.24123 44.3681ZM2.24123 41.6319C2.40499 41.182 2.84432 40.5829 4.15809 39.6354C5.4647 38.6931 7.3315 37.6125 10 36.0718L8 32.6077C5.40768 34.1044 3.32885 35.3017 1.81832 36.3911C0.314941 37.4753 -0.934389 38.6616 -1.51754 40.2638L2.24123 41.6319ZM10 36.0718C11.8817 34.9854 13.3766 34.1228 14.6314 33.4684C15.8958 32.809 16.8034 32.4222 17.5105 32.2357L16.4901 28.368C15.3438 28.6704 14.1199 29.2238 12.7817 29.9217C11.434 30.6246 9.85543 31.5365 8 32.6077L10 36.0718ZM19.0003 30.3028C19.0036 23.2787 19.0527 18.1627 19.634 14.2427C20.2066 10.3811 21.263 7.93802 23.1005 6.1005L20.2721 3.27208C17.6026 5.9416 16.3192 9.32649 15.6772 13.656C15.0439 17.9271 15.0035 23.3654 15.0003 30.3009L19.0003 30.3028ZM23.1005 6.10051C25.0101 4.1909 27.5749 3.12392 31.7101 2.56795C35.9029 2.00425 41.401 2 49 2V-2C41.5141 -2 35.6984 -2.00425 31.1772 -1.39638C26.5984 -0.780775 23.0488 0.495394 20.2721 3.27208L23.1005 6.10051ZM49 2H208V-2H49V2ZM208 2C215.599 2 221.097 2.00425 225.29 2.56795C229.425 3.12392 231.99 4.1909 233.899 6.1005L236.728 3.27208C233.951 0.495394 230.402 -0.780776 225.823 -1.39638C221.302 -2.00425 215.486 -2 208 -2V2ZM233.899 6.10051C235.809 8.01011 236.876 10.5749 237.432 14.7101C237.996 18.9029 238 24.401 238 32H242C242 24.5141 242.004 18.6984 241.396 14.1772C240.781 9.59836 239.505 6.04876 236.728 3.27208L233.899 6.10051ZM238 32V54H242V32H238ZM238 54C238 61.599 237.996 67.0971 237.432 71.2899C236.876 75.4251 235.809 77.9899 233.899 79.8995L236.728 82.7279C239.505 79.9512 240.781 76.4016 241.396 71.8228C242.004 67.3016 242 61.4859 242 54H238ZM233.899 79.8995C231.99 81.8091 229.425 82.8761 225.29 83.432C221.097 83.9958 215.599 84 208 84V88C215.486 88 221.302 88.0042 225.823 87.3964C230.402 86.7808 233.951 85.5046 236.728 82.7279L233.899 79.8995ZM208 84H49V88H208V84ZM49 84C41.401 84 35.9029 83.9958 31.7101 83.432C27.5749 82.8761 25.0101 81.8091 23.1005 79.8995L20.2721 82.7279C23.0488 85.5046 26.5984 86.7808 31.1772 87.3964C35.6984 88.0042 41.5141 88 49 88V84ZM23.1005 79.8995C21.263 78.062 20.2066 75.6189 19.634 71.7573C19.0527 67.8373 19.0036 62.7213 19.0003 55.6972L15.0003 55.6991C15.0035 62.6346 15.0439 68.0729 15.6772 72.344C16.3192 76.6735 17.6026 80.0584 20.2721 82.7279L23.1005 79.8995Z" fill="#EEEEEE" mask="url(#path-1-inside-1_2031_27314)"/>
<path d="M35.82 34.16C34.9667 34.16 34.54 33.72 34.54 32.84V21.06C34.54 20.18 34.9667 19.74 35.82 19.74C36.6733 19.74 37.1 20.18 37.1 21.06V25.78H44.36V21.06C44.36 20.18 44.7867 19.74 45.64 19.74C46.4933 19.74 46.92 20.18 46.92 21.06V32.84C46.92 33.72 46.4933 34.16 45.64 34.16C44.7867 34.16 44.36 33.72 44.36 32.84V27.92H37.1V32.84C37.1 33.72 36.6733 34.16 35.82 34.16ZM54.2288 34.2C53.2154 34.2 52.3354 33.9933 51.5888 33.58C50.8421 33.1667 50.2621 32.58 49.8488 31.82C49.4354 31.0467 49.2288 30.14 49.2288 29.1C49.2288 28.06 49.4354 27.16 49.8488 26.4C50.2621 25.64 50.8421 25.0533 51.5888 24.64C52.3354 24.2267 53.2154 24.02 54.2288 24.02C55.2421 24.02 56.1221 24.2267 56.8688 24.64C57.6154 25.0533 58.1954 25.64 58.6088 26.4C59.0221 27.16 59.2288 28.06 59.2288 29.1C59.2288 30.14 59.0221 31.0467 58.6088 31.82C58.1954 32.58 57.6154 33.1667 56.8688 33.58C56.1221 33.9933 55.2421 34.2 54.2288 34.2ZM54.2288 32.3C54.9754 32.3 55.5754 32.0333 56.0288 31.5C56.4821 30.9533 56.7088 30.1533 56.7088 29.1C56.7088 28.0333 56.4821 27.24 56.0288 26.72C55.5754 26.1867 54.9754 25.92 54.2288 25.92C53.4821 25.92 52.8821 26.1867 52.4288 26.72C51.9754 27.24 51.7488 28.0333 51.7488 29.1C51.7488 30.1533 51.9754 30.9533 52.4288 31.5C52.8821 32.0333 53.4821 32.3 54.2288 32.3ZM64.8769 34.16C64.1835 34.16 63.7035 33.8133 63.4369 33.12L60.5369 25.72C60.3635 25.2533 60.3702 24.86 60.5569 24.54C60.7569 24.22 61.1035 24.06 61.5969 24.06C61.8902 24.06 62.1302 24.1333 62.3169 24.28C62.5035 24.4133 62.6635 24.6733 62.7969 25.06L64.9969 31.08L67.2569 24.9C67.4702 24.34 67.8502 24.06 68.3969 24.06C68.9569 24.06 69.3369 24.34 69.5369 24.9L71.7969 31.14L74.0169 25C74.1502 24.64 74.3169 24.3933 74.5169 24.26C74.7302 24.1267 74.9635 24.06 75.2169 24.06C75.6969 24.06 76.0102 24.2333 76.1569 24.58C76.3035 24.9133 76.2902 25.2933 76.1169 25.72L73.2369 33.12C72.9569 33.8133 72.4769 34.16 71.7969 34.16C71.0902 34.16 70.6102 33.8133 70.3569 33.12L68.3169 27.7L66.3169 33.1C66.0635 33.8067 65.5835 34.16 64.8769 34.16ZM84.8573 34.16C84.0307 34.16 83.6173 33.7333 83.6173 32.88V25.32C83.6173 24.48 84.024 24.06 84.8373 24.06C85.6507 24.06 86.0573 24.48 86.0573 25.32V25.72C86.3507 25.1867 86.7573 24.7733 87.2773 24.48C87.7973 24.1733 88.3973 24.02 89.0773 24.02C90.544 24.02 91.504 24.66 91.9573 25.94C92.264 25.34 92.704 24.8733 93.2773 24.54C93.8507 24.1933 94.504 24.02 95.2373 24.02C97.4373 24.02 98.5373 25.36 98.5373 28.04V32.88C98.5373 33.7333 98.1173 34.16 97.2773 34.16C96.4507 34.16 96.0373 33.7333 96.0373 32.88V28.14C96.0373 27.3933 95.9107 26.8467 95.6573 26.5C95.4173 26.1533 95.004 25.98 94.4173 25.98C93.764 25.98 93.2507 26.2133 92.8773 26.68C92.504 27.1333 92.3173 27.7667 92.3173 28.58V32.88C92.3173 33.7333 91.904 34.16 91.0773 34.16C90.2373 34.16 89.8173 33.7333 89.8173 32.88V28.14C89.8173 27.3933 89.6907 26.8467 89.4373 26.5C89.1973 26.1533 88.7907 25.98 88.2173 25.98C87.564 25.98 87.0507 26.2133 86.6773 26.68C86.304 27.1333 86.1173 27.7667 86.1173 28.58V32.88C86.1173 33.7333 85.6973 34.16 84.8573 34.16ZM104.656 34.2C102.256 34.2 101.056 32.8533 101.056 30.16V25.32C101.056 24.48 101.47 24.06 102.296 24.06C103.136 24.06 103.556 24.48 103.556 25.32V30.2C103.556 30.8933 103.696 31.4067 103.976 31.74C104.256 32.0733 104.703 32.24 105.316 32.24C105.983 32.24 106.53 32.0133 106.956 31.56C107.383 31.0933 107.596 30.48 107.596 29.72V25.32C107.596 24.48 108.01 24.06 108.836 24.06C109.676 24.06 110.096 24.48 110.096 25.32V32.88C110.096 33.7333 109.69 34.16 108.876 34.16C108.063 34.16 107.656 33.7333 107.656 32.88V32.54C107.003 33.6467 106.003 34.2 104.656 34.2ZM117.218 34.2C116.192 34.2 115.298 33.9933 114.538 33.58C113.778 33.1533 113.192 32.5533 112.778 31.78C112.365 31.0067 112.158 30.1 112.158 29.06C112.158 28.02 112.365 27.1267 112.778 26.38C113.192 25.62 113.778 25.04 114.538 24.64C115.298 24.2267 116.192 24.02 117.218 24.02C117.658 24.02 118.132 24.08 118.638 24.2C119.158 24.32 119.645 24.52 120.098 24.8C120.365 24.96 120.518 25.1667 120.558 25.42C120.612 25.6733 120.578 25.9067 120.458 26.12C120.352 26.3333 120.185 26.4867 119.958 26.58C119.745 26.6733 119.498 26.64 119.218 26.48C118.605 26.1333 118.012 25.96 117.438 25.96C116.572 25.96 115.898 26.2333 115.418 26.78C114.952 27.3133 114.718 28.08 114.718 29.08C114.718 30.0667 114.952 30.8467 115.418 31.42C115.898 31.98 116.572 32.26 117.438 32.26C118.012 32.26 118.605 32.0933 119.218 31.76C119.498 31.6 119.745 31.5667 119.958 31.66C120.172 31.7533 120.325 31.9133 120.418 32.14C120.512 32.3533 120.532 32.5867 120.478 32.84C120.425 33.08 120.272 33.28 120.018 33.44C119.578 33.7067 119.112 33.9 118.618 34.02C118.125 34.14 117.658 34.2 117.218 34.2ZM123.372 34.16C122.545 34.16 122.132 33.7333 122.132 32.88V21C122.132 20.16 122.545 19.74 123.372 19.74C124.212 19.74 124.632 20.16 124.632 21V25.64C124.965 25.1067 125.412 24.7067 125.972 24.44C126.532 24.16 127.152 24.02 127.832 24.02C130.139 24.02 131.292 25.36 131.292 28.04V32.88C131.292 33.7333 130.879 34.16 130.052 34.16C129.212 34.16 128.792 33.7333 128.792 32.88V28.16C128.792 27.4 128.645 26.8467 128.352 26.5C128.072 26.1533 127.632 25.98 127.032 25.98C126.299 25.98 125.712 26.2133 125.272 26.68C124.845 27.1333 124.632 27.74 124.632 28.5V32.88C124.632 33.7333 124.212 34.16 123.372 34.16ZM140.861 34C139.954 34 139.501 33.5467 139.501 32.64V21.26C139.501 20.3533 139.954 19.9 140.861 19.9H148.001C148.694 19.9 149.041 20.2333 149.041 20.9C149.041 21.5933 148.694 21.94 148.001 21.94H141.961V25.82H147.561C148.254 25.82 148.601 26.16 148.601 26.84C148.601 27.52 148.254 27.86 147.561 27.86H141.961V31.96H148.001C148.694 31.96 149.041 32.3 149.041 32.98C149.041 33.66 148.694 34 148.001 34H140.861ZM152.435 34.16C151.608 34.16 151.195 33.7333 151.195 32.88V25.32C151.195 24.48 151.601 24.06 152.415 24.06C153.228 24.06 153.635 24.48 153.635 25.32V25.74C153.968 25.18 154.415 24.7533 154.975 24.46C155.548 24.1667 156.188 24.02 156.895 24.02C159.201 24.02 160.355 25.36 160.355 28.04V32.88C160.355 33.7333 159.941 34.16 159.115 34.16C158.275 34.16 157.855 33.7333 157.855 32.88V28.16C157.855 27.4 157.708 26.8467 157.415 26.5C157.135 26.1533 156.695 25.98 156.095 25.98C155.361 25.98 154.775 26.2133 154.335 26.68C153.908 27.1333 153.695 27.74 153.695 28.5V32.88C153.695 33.7333 153.275 34.16 152.435 34.16ZM167.454 37.8C166.734 37.8 166.034 37.7333 165.354 37.6C164.687 37.4667 164.08 37.26 163.534 36.98C163.214 36.82 163.02 36.6133 162.954 36.36C162.9 36.12 162.927 35.8867 163.034 35.66C163.14 35.4333 163.3 35.2667 163.514 35.16C163.74 35.0667 163.98 35.08 164.234 35.2C164.82 35.4933 165.374 35.68 165.894 35.76C166.427 35.8533 166.88 35.9 167.254 35.9C169.04 35.9 169.934 35.04 169.934 33.32V31.98C169.654 32.5267 169.22 32.96 168.634 33.28C168.06 33.6 167.42 33.76 166.714 33.76C165.834 33.76 165.067 33.56 164.414 33.16C163.76 32.7467 163.254 32.1733 162.894 31.44C162.534 30.7067 162.354 29.8533 162.354 28.88C162.354 27.9067 162.534 27.06 162.894 26.34C163.254 25.6067 163.76 25.04 164.414 24.64C165.067 24.2267 165.834 24.02 166.714 24.02C167.42 24.02 168.06 24.1733 168.634 24.48C169.207 24.7867 169.627 25.2067 169.894 25.74V25.32C169.894 24.9067 170 24.5933 170.214 24.38C170.44 24.1667 170.747 24.06 171.134 24.06C171.96 24.06 172.374 24.48 172.374 25.32V33.02C172.374 34.6067 171.954 35.8 171.114 36.6C170.274 37.4 169.054 37.8 167.454 37.8ZM167.394 31.86C168.167 31.86 168.78 31.5933 169.234 31.06C169.687 30.5267 169.914 29.8 169.914 28.88C169.914 27.96 169.687 27.24 169.234 26.72C168.78 26.1867 168.167 25.92 167.394 25.92C166.62 25.92 166.007 26.1867 165.554 26.72C165.1 27.24 164.874 27.96 164.874 28.88C164.874 29.8 165.1 30.5267 165.554 31.06C166.007 31.5933 166.62 31.86 167.394 31.86ZM178.304 34.2C176.077 34.2 174.964 32.9533 174.964 30.46V21C174.964 20.16 175.377 19.74 176.204 19.74C177.044 19.74 177.464 20.16 177.464 21V30.34C177.464 31.54 177.964 32.14 178.964 32.14C179.071 32.14 179.171 32.14 179.264 32.14C179.357 32.1267 179.451 32.1133 179.544 32.1C179.731 32.0733 179.857 32.1267 179.924 32.26C179.991 32.38 180.024 32.6333 180.024 33.02C180.024 33.3533 179.957 33.6133 179.824 33.8C179.691 33.9867 179.471 34.1 179.164 34.14C178.884 34.18 178.597 34.2 178.304 34.2ZM182.591 22.22C182.124 22.22 181.757 22.1067 181.491 21.88C181.237 21.64 181.111 21.3133 181.111 20.9C181.111 20.4733 181.237 20.1467 181.491 19.92C181.757 19.6933 182.124 19.58 182.591 19.58C183.577 19.58 184.071 20.02 184.071 20.9C184.071 21.78 183.577 22.22 182.591 22.22ZM182.591 34.14C182.191 34.14 181.884 34.02 181.671 33.78C181.457 33.54 181.351 33.2067 181.351 32.78V25.44C181.351 24.5333 181.764 24.08 182.591 24.08C183.431 24.08 183.851 24.5333 183.851 25.44V32.78C183.851 33.2067 183.744 33.54 183.531 33.78C183.317 34.02 183.004 34.14 182.591 34.14ZM190.028 34.2C189.455 34.2 188.848 34.14 188.208 34.02C187.568 33.9 186.995 33.6933 186.488 33.4C186.208 33.24 186.035 33.0467 185.968 32.82C185.902 32.58 185.908 32.36 185.988 32.16C186.082 31.9467 186.228 31.7933 186.428 31.7C186.642 31.6067 186.888 31.6267 187.168 31.76C187.702 32.0133 188.202 32.1933 188.668 32.3C189.135 32.3933 189.595 32.44 190.048 32.44C190.688 32.44 191.162 32.3333 191.468 32.12C191.788 31.8933 191.948 31.6 191.948 31.24C191.948 30.68 191.535 30.32 190.708 30.16L188.708 29.78C187.015 29.46 186.168 28.58 186.168 27.14C186.168 26.5 186.342 25.9467 186.688 25.48C187.048 25.0133 187.542 24.6533 188.168 24.4C188.795 24.1467 189.515 24.02 190.328 24.02C191.502 24.02 192.548 24.28 193.468 24.8C193.722 24.9333 193.868 25.12 193.908 25.36C193.962 25.5867 193.935 25.8067 193.828 26.02C193.735 26.22 193.582 26.3667 193.368 26.46C193.155 26.54 192.908 26.5133 192.628 26.38C192.215 26.1667 191.815 26.0133 191.428 25.92C191.055 25.8267 190.695 25.78 190.348 25.78C189.695 25.78 189.208 25.8933 188.888 26.12C188.582 26.3467 188.428 26.6467 188.428 27.02C188.428 27.6067 188.808 27.9667 189.568 28.1L191.568 28.48C192.435 28.64 193.088 28.9333 193.528 29.36C193.982 29.7867 194.208 30.36 194.208 31.08C194.208 32.0533 193.828 32.82 193.068 33.38C192.308 33.9267 191.295 34.2 190.028 34.2ZM197.454 34.16C196.627 34.16 196.214 33.7333 196.214 32.88V21C196.214 20.16 196.627 19.74 197.454 19.74C198.294 19.74 198.714 20.16 198.714 21V25.64C199.047 25.1067 199.494 24.7067 200.054 24.44C200.614 24.16 201.234 24.02 201.914 24.02C204.221 24.02 205.374 25.36 205.374 28.04V32.88C205.374 33.7333 204.961 34.16 204.134 34.16C203.294 34.16 202.874 33.7333 202.874 32.88V28.16C202.874 27.4 202.727 26.8467 202.434 26.5C202.154 26.1533 201.714 25.98 201.114 25.98C200.381 25.98 199.794 26.2133 199.354 26.68C198.927 27.1333 198.714 27.74 198.714 28.5V32.88C198.714 33.7333 198.294 34.16 197.454 34.16ZM38.06 66.2C37.2067 66.2 36.4533 65.9933 35.8 65.58C35.16 65.1667 34.66 64.58 34.3 63.82C33.94 63.0467 33.76 62.14 33.76 61.1C33.76 60.0467 33.94 59.1467 34.3 58.4C34.66 57.64 35.16 57.0533 35.8 56.64C36.4533 56.2267 37.2067 56.02 38.06 56.02C38.7533 56.02 39.38 56.1733 39.94 56.48C40.5 56.7867 40.92 57.1933 41.2 57.7V53C41.2 52.16 41.6133 51.74 42.44 51.74C43.28 51.74 43.7 52.16 43.7 53V64.88C43.7 65.7333 43.2867 66.16 42.46 66.16C41.6333 66.16 41.22 65.7333 41.22 64.88V64.46C40.94 64.9933 40.52 65.42 39.96 65.74C39.4 66.0467 38.7667 66.2 38.06 66.2ZM38.76 64.3C39.5067 64.3 40.1067 64.0333 40.56 63.5C41.0133 62.9533 41.24 62.1533 41.24 61.1C41.24 60.0333 41.0133 59.24 40.56 58.72C40.1067 58.1867 39.5067 57.92 38.76 57.92C38.0133 57.92 37.4133 58.1867 36.96 58.72C36.5067 59.24 36.28 60.0333 36.28 61.1C36.28 62.1533 36.5067 62.9533 36.96 63.5C37.4133 64.0333 38.0133 64.3 38.76 64.3ZM50.7522 66.2C49.7389 66.2 48.8589 65.9933 48.1122 65.58C47.3655 65.1667 46.7855 64.58 46.3722 63.82C45.9589 63.0467 45.7522 62.14 45.7522 61.1C45.7522 60.06 45.9589 59.16 46.3722 58.4C46.7855 57.64 47.3655 57.0533 48.1122 56.64C48.8589 56.2267 49.7389 56.02 50.7522 56.02C51.7655 56.02 52.6455 56.2267 53.3922 56.64C54.1389 57.0533 54.7189 57.64 55.1322 58.4C55.5455 59.16 55.7522 60.06 55.7522 61.1C55.7522 62.14 55.5455 63.0467 55.1322 63.82C54.7189 64.58 54.1389 65.1667 53.3922 65.58C52.6455 65.9933 51.7655 66.2 50.7522 66.2ZM50.7522 64.3C51.4989 64.3 52.0989 64.0333 52.5522 63.5C53.0055 62.9533 53.2322 62.1533 53.2322 61.1C53.2322 60.0333 53.0055 59.24 52.5522 58.72C52.0989 58.1867 51.4989 57.92 50.7522 57.92C50.0055 57.92 49.4055 58.1867 48.9522 58.72C48.4989 59.24 48.2722 60.0333 48.2722 61.1C48.2722 62.1533 48.4989 62.9533 48.9522 63.5C49.4055 64.0333 50.0055 64.3 50.7522 64.3ZM65.7253 69.76C65.272 69.76 64.9586 69.5933 64.7853 69.26C64.612 68.9267 64.6186 68.5467 64.8053 68.12L65.9453 65.6L62.5253 57.72C62.3386 57.28 62.3386 56.8933 62.5253 56.56C62.712 56.2267 63.0786 56.06 63.6253 56.06C63.932 56.06 64.1786 56.1333 64.3653 56.28C64.552 56.4133 64.7186 56.6733 64.8653 57.06L67.2653 63.06L69.7253 57.04C69.872 56.6667 70.0453 56.4133 70.2453 56.28C70.4453 56.1333 70.712 56.06 71.0453 56.06C71.472 56.06 71.772 56.2267 71.9453 56.56C72.1186 56.8933 72.112 57.2733 71.9253 57.7L67.0653 68.8C66.892 69.1733 66.7053 69.4267 66.5053 69.56C66.3053 69.6933 66.0453 69.76 65.7253 69.76ZM78.0373 66.2C77.024 66.2 76.144 65.9933 75.3973 65.58C74.6507 65.1667 74.0707 64.58 73.6573 63.82C73.244 63.0467 73.0373 62.14 73.0373 61.1C73.0373 60.06 73.244 59.16 73.6573 58.4C74.0707 57.64 74.6507 57.0533 75.3973 56.64C76.144 56.2267 77.024 56.02 78.0373 56.02C79.0507 56.02 79.9307 56.2267 80.6773 56.64C81.424 57.0533 82.004 57.64 82.4173 58.4C82.8307 59.16 83.0373 60.06 83.0373 61.1C83.0373 62.14 82.8307 63.0467 82.4173 63.82C82.004 64.58 81.424 65.1667 80.6773 65.58C79.9307 65.9933 79.0507 66.2 78.0373 66.2ZM78.0373 64.3C78.784 64.3 79.384 64.0333 79.8373 63.5C80.2907 62.9533 80.5173 62.1533 80.5173 61.1C80.5173 60.0333 80.2907 59.24 79.8373 58.72C79.384 58.1867 78.784 57.92 78.0373 57.92C77.2907 57.92 76.6907 58.1867 76.2373 58.72C75.784 59.24 75.5573 60.0333 75.5573 61.1C75.5573 62.1533 75.784 62.9533 76.2373 63.5C76.6907 64.0333 77.2907 64.3 78.0373 64.3ZM88.6408 66.2C86.2408 66.2 85.0408 64.8533 85.0408 62.16V57.32C85.0408 56.48 85.4541 56.06 86.2808 56.06C87.1208 56.06 87.5408 56.48 87.5408 57.32V62.2C87.5408 62.8933 87.6808 63.4067 87.9608 63.74C88.2408 64.0733 88.6874 64.24 89.3008 64.24C89.9674 64.24 90.5141 64.0133 90.9408 63.56C91.3674 63.0933 91.5808 62.48 91.5808 61.72V57.32C91.5808 56.48 91.9941 56.06 92.8208 56.06C93.6608 56.06 94.0808 56.48 94.0808 57.32V64.88C94.0808 65.7333 93.6741 66.16 92.8608 66.16C92.0474 66.16 91.6408 65.7333 91.6408 64.88V64.54C90.9874 65.6467 89.9874 66.2 88.6408 66.2ZM103.353 66.16C102.526 66.16 102.113 65.7333 102.113 64.88V53C102.113 52.16 102.526 51.74 103.353 51.74C104.193 51.74 104.613 52.16 104.613 53V60.38H104.653L107.953 56.9C108.219 56.6333 108.453 56.4267 108.653 56.28C108.853 56.1333 109.126 56.06 109.473 56.06C109.819 56.06 110.079 56.1533 110.253 56.34C110.439 56.5133 110.533 56.7267 110.533 56.98C110.533 57.2333 110.413 57.4867 110.173 57.74L107.173 60.9L110.513 64.5C110.753 64.7533 110.859 65.0133 110.833 65.28C110.819 65.5333 110.713 65.7467 110.513 65.92C110.313 66.08 110.059 66.16 109.753 66.16C109.379 66.16 109.079 66.0867 108.853 65.94C108.639 65.7933 108.399 65.5733 108.133 65.28L104.653 61.64H104.613V64.88C104.613 65.7333 104.193 66.16 103.353 66.16ZM114.075 66.16C113.248 66.16 112.835 65.7333 112.835 64.88V57.32C112.835 56.48 113.242 56.06 114.055 56.06C114.868 56.06 115.275 56.48 115.275 57.32V57.74C115.608 57.18 116.055 56.7533 116.615 56.46C117.188 56.1667 117.828 56.02 118.535 56.02C120.842 56.02 121.995 57.36 121.995 60.04V64.88C121.995 65.7333 121.582 66.16 120.755 66.16C119.915 66.16 119.495 65.7333 119.495 64.88V60.16C119.495 59.4 119.348 58.8467 119.055 58.5C118.775 58.1533 118.335 57.98 117.735 57.98C117.002 57.98 116.415 58.2133 115.975 58.68C115.548 59.1333 115.335 59.74 115.335 60.5V64.88C115.335 65.7333 114.915 66.16 114.075 66.16ZM128.994 66.2C127.981 66.2 127.101 65.9933 126.354 65.58C125.608 65.1667 125.028 64.58 124.614 63.82C124.201 63.0467 123.994 62.14 123.994 61.1C123.994 60.06 124.201 59.16 124.614 58.4C125.028 57.64 125.608 57.0533 126.354 56.64C127.101 56.2267 127.981 56.02 128.994 56.02C130.008 56.02 130.888 56.2267 131.634 56.64C132.381 57.0533 132.961 57.64 133.374 58.4C133.788 59.16 133.994 60.06 133.994 61.1C133.994 62.14 133.788 63.0467 133.374 63.82C132.961 64.58 132.381 65.1667 131.634 65.58C130.888 65.9933 130.008 66.2 128.994 66.2ZM128.994 64.3C129.741 64.3 130.341 64.0333 130.794 63.5C131.248 62.9533 131.474 62.1533 131.474 61.1C131.474 60.0333 131.248 59.24 130.794 58.72C130.341 58.1867 129.741 57.92 128.994 57.92C128.248 57.92 127.648 58.1867 127.194 58.72C126.741 59.24 126.514 60.0333 126.514 61.1C126.514 62.1533 126.741 62.9533 127.194 63.5C127.648 64.0333 128.248 64.3 128.994 64.3ZM139.643 66.16C138.949 66.16 138.469 65.8133 138.203 65.12L135.303 57.72C135.129 57.2533 135.136 56.86 135.323 56.54C135.523 56.22 135.869 56.06 136.363 56.06C136.656 56.06 136.896 56.1333 137.083 56.28C137.269 56.4133 137.429 56.6733 137.563 57.06L139.763 63.08L142.023 56.9C142.236 56.34 142.616 56.06 143.163 56.06C143.723 56.06 144.103 56.34 144.303 56.9L146.563 63.14L148.783 57C148.916 56.64 149.083 56.3933 149.283 56.26C149.496 56.1267 149.729 56.06 149.983 56.06C150.463 56.06 150.776 56.2333 150.923 56.58C151.069 56.9133 151.056 57.2933 150.883 57.72L148.003 65.12C147.723 65.8133 147.243 66.16 146.563 66.16C145.856 66.16 145.376 65.8133 145.122 65.12L143.083 59.7L141.083 65.1C140.829 65.8067 140.349 66.16 139.643 66.16ZM155.722 61.92C155.468 61.92 155.268 61.84 155.122 61.68C154.988 61.5067 154.922 61.28 154.922 61C154.922 60.3867 155.035 59.8133 155.262 59.28C155.502 58.7467 155.902 58.1667 156.462 57.54C156.888 57.0733 157.182 56.6733 157.342 56.34C157.515 56.0067 157.602 55.6533 157.602 55.28C157.602 54.84 157.442 54.4933 157.122 54.24C156.802 53.9867 156.348 53.86 155.762 53.86C155.228 53.86 154.742 53.9333 154.302 54.08C153.875 54.2133 153.442 54.4067 153.002 54.66C152.642 54.8733 152.322 54.9467 152.042 54.88C151.775 54.8 151.582 54.64 151.462 54.4C151.342 54.16 151.322 53.8933 151.402 53.6C151.482 53.3067 151.695 53.0467 152.042 52.82C152.588 52.46 153.215 52.1867 153.922 52C154.628 51.8 155.295 51.7 155.922 51.7C156.762 51.7 157.495 51.84 158.122 52.12C158.762 52.4 159.255 52.7867 159.602 53.28C159.962 53.7733 160.142 54.3533 160.142 55.02C160.142 55.6333 160.002 56.2067 159.722 56.74C159.455 57.2733 158.975 57.8533 158.282 58.48C157.655 59.0533 157.222 59.5467 156.982 59.96C156.742 60.3733 156.588 60.8133 156.522 61.28C156.508 61.4667 156.428 61.62 156.282 61.74C156.148 61.86 155.962 61.92 155.722 61.92ZM155.682 66.1C155.228 66.1 154.862 65.96 154.582 65.68C154.315 65.4 154.182 65.04 154.182 64.6C154.182 64.1733 154.315 63.8267 154.582 63.56C154.862 63.28 155.228 63.14 155.682 63.14C156.148 63.14 156.508 63.28 156.762 63.56C157.028 63.8267 157.162 64.1733 157.162 64.6C157.162 65.04 157.028 65.4 156.762 65.68C156.508 65.96 156.148 66.1 155.682 66.1Z" fill="#212121"/>
</svg>
