<svg width="230" height="274" viewBox="0 0 230 274" fill="none" xmlns="http://www.w3.org/2000/svg">
<path d="M135.283 273.069C134.39 273.069 133.511 272.658 132.932 271.889C130.734 268.967 130.969 262.52 131.174 259.891C131.233 259.107 131.606 258.382 132.199 257.876C132.793 257.371 133.576 257.122 134.346 257.195C140.755 257.744 159.515 257.59 161.632 249.899C164.196 240.567 149.128 232.736 148.974 232.656C147.538 231.923 146.967 230.158 147.7 228.715C148.432 227.279 150.197 226.707 151.633 227.433C152.432 227.843 171.111 237.519 167.28 251.459C164.108 262.996 144.821 263.502 136.924 263.209C136.946 265.619 137.217 267.765 137.627 268.388C138.594 269.677 138.331 271.508 137.034 272.483C136.507 272.878 135.891 273.069 135.283 273.069Z" fill="#133441"/>
<path d="M99.1186 273.061C98.5033 273.061 97.888 272.871 97.3605 272.475C96.0713 271.508 95.8076 269.67 96.7745 268.373C97.1847 267.765 97.4484 265.612 97.4704 263.209C89.5739 263.502 70.2868 263.004 67.1149 251.459C63.2839 237.519 81.9631 227.843 82.7615 227.433C84.2046 226.7 85.9625 227.271 86.7024 228.722C87.4349 230.158 86.8562 231.923 85.4205 232.655C85.252 232.743 70.1988 240.574 72.7626 249.899C74.8869 257.605 93.6394 257.752 100.049 257.195C100.833 257.129 101.602 257.371 102.195 257.876C102.789 258.382 103.162 259.107 103.221 259.891C103.426 262.52 103.66 268.966 101.463 271.889C100.891 272.658 100.012 273.061 99.1186 273.061Z" fill="#133441"/>
<path d="M195.731 230.172C187.981 230.172 180.341 222.32 174.561 208.263C173.946 206.768 174.657 205.054 176.151 204.439C177.653 203.824 179.359 204.542 179.975 206.036C185.886 220.371 192.413 224.854 196.537 224.254C201.936 223.477 206.309 214.599 207.678 201.641C207.847 200.029 209.297 198.85 210.902 199.033C212.513 199.202 213.678 200.645 213.509 202.256C211.795 218.459 205.759 228.847 197.365 230.055C196.823 230.136 196.273 230.172 195.731 230.172Z" fill="#133441"/>
<path d="M211.868 203.787C211.413 203.787 210.952 203.765 210.498 203.728C202.989 203.076 201.415 199.48 201.143 197.392C200.645 193.576 203.898 190.023 207.326 188.785C208.842 188.243 210.527 189.027 211.076 190.55C211.618 192.074 210.835 193.751 209.311 194.301C207.714 194.872 206.886 196.279 206.952 196.638C207.04 196.828 207.978 197.626 211.01 197.89C214.636 198.213 217.816 196.44 218.687 195.348C218.292 195.136 217.508 194.828 216.014 194.601C214.417 194.367 213.311 192.88 213.545 191.276C213.78 189.679 215.281 188.565 216.871 188.807C224.753 189.972 224.862 194.396 224.701 195.729C224.189 200.11 218.153 203.787 211.868 203.787Z" fill="#133441"/>
<path d="M224.387 210.292H224.255C216.93 209.947 208.799 204.893 207.906 202.556C207.495 201.465 207.766 200.168 208.594 199.355C208.931 199.033 210.147 198.029 211.986 198.769C215.07 200.022 222.439 198.916 226.358 197.927C227.925 197.531 229.515 198.483 229.91 200.051C230.306 201.619 229.361 203.216 227.794 203.611C227.391 203.714 225.962 204.058 224.021 204.402C224.19 204.417 224.351 204.424 224.519 204.432C226.138 204.512 227.391 205.882 227.317 207.493C227.244 209.068 225.948 210.292 224.387 210.292Z" fill="#133441"/>
<path d="M34.2688 230.172C33.7268 230.172 33.1773 230.136 32.6352 230.055C24.2406 228.847 18.2047 218.459 16.4979 202.256C16.3221 200.645 17.4942 199.202 19.0984 199.033C20.7026 198.85 22.153 200.029 22.3215 201.641C23.6913 214.599 28.0644 223.477 33.463 224.254C37.5945 224.847 44.1212 220.371 50.0253 206.036C50.6406 204.542 52.3473 203.824 53.849 204.439C55.3433 205.054 56.0613 206.768 55.4386 208.263C49.659 222.313 42.0189 230.172 34.2688 230.172Z" fill="#133441"/>
<path d="M18.1308 203.787C11.8458 203.787 5.80986 200.11 5.2971 195.729C5.14327 194.396 5.24585 189.972 13.1278 188.807C14.7246 188.573 16.2189 189.679 16.4533 191.276C16.6877 192.88 15.5816 194.367 13.9847 194.601C12.4977 194.828 11.7066 195.136 11.3183 195.348C12.1827 196.447 15.3619 198.22 18.9879 197.89C22.0205 197.626 22.958 196.828 23.046 196.63C23.1119 196.279 22.2842 194.872 20.6873 194.301C19.171 193.751 18.3799 192.074 18.9293 190.55C19.4713 189.027 21.1561 188.243 22.6724 188.785C26.1006 190.023 29.353 193.576 28.8549 197.392C28.5839 199.48 27.009 203.076 19.5007 203.728C19.0465 203.765 18.5849 203.787 18.1308 203.787Z" fill="#133441"/>
<path d="M5.61261 210.292C4.05235 210.292 2.76323 209.068 2.68997 207.493C2.6094 205.882 3.86198 204.512 5.48084 204.432C5.64932 204.424 5.81039 204.417 5.97887 204.402C4.03769 204.058 2.6094 203.714 2.21384 203.611C0.646246 203.216 -0.306029 201.619 0.0895314 200.051C0.485092 198.484 2.07466 197.539 3.64225 197.927C7.56855 198.916 14.9449 200.014 18.0215 198.769C19.8528 198.029 21.0762 199.033 21.4058 199.355C22.2336 200.168 22.5118 201.465 22.0943 202.556C21.2006 204.893 13.0697 209.947 5.75182 210.292H5.61261Z" fill="#133441"/>
<path d="M194.902 160.436C194.902 204.131 159.478 239.556 115.776 239.556C72.0808 239.556 36.6562 204.131 36.6562 160.436C36.6562 91.3452 115.776 -1.52588e-05 115.776 -1.52588e-05C115.776 -1.52588e-05 194.902 91.3452 194.902 160.436Z" fill="#6949FF"/>
<path d="M59.6211 186.485C59.6211 212.579 80.7745 233.732 106.869 233.732H125.548C151.642 233.732 172.795 212.579 172.795 186.485C172.795 160.391 151.642 139.237 125.548 139.237H106.869C80.7745 139.237 59.6211 160.391 59.6211 186.485Z" fill="#673AB3"/>
<path d="M109.535 26.8325C109.454 26.1586 108.605 25.7411 108.004 25.9023C104.349 26.8692 101.909 31.7917 99.8436 34.7144C97.0893 38.6261 94.4743 42.6036 91.991 46.6911C89.5078 50.7712 87.0685 54.8806 84.805 59.078C82.8785 62.638 78.9595 67.6338 79.3258 71.7799C79.5016 73.765 81.5087 75.6183 83.5377 74.373C87.2589 72.0949 88.8412 66.6157 90.8556 62.8652C93.1191 58.6532 95.3606 54.4338 97.712 50.2804C100.063 46.1124 102.422 41.9591 104.795 37.8057C106.634 34.5826 110.011 30.6929 109.535 26.8325Z" fill="white"/>
<path d="M77.048 79.9326C75.0262 79.3099 73.3048 80.5186 72.543 82.3133C72.1108 83.3241 71.6787 84.3423 71.2538 85.3532C70.5213 86.6278 69.9352 87.9829 69.5176 89.426C68.9975 91.2427 70.0012 93.2498 71.8398 93.8138C73.8396 94.4291 75.4364 93.2277 76.2202 91.4917C77.2897 89.1403 78.3592 86.789 79.4287 84.4376C80.2345 82.6649 78.7401 80.4527 77.048 79.9326Z" fill="white"/>
<path d="M127.24 206.065C120.632 200.564 107.952 200.542 101.345 206.065C99.1696 207.882 102.29 210.98 104.451 209.178C109.073 205.311 119.512 205.325 124.134 209.178C126.295 210.973 129.415 207.882 127.24 206.065Z" fill="#133441"/>
<path d="M140.323 180.456C140.462 186.316 146.461 189.613 151.706 190.375C158.269 191.327 164.437 189.056 168.422 183.731C171.726 179.321 164.1 174.713 160.929 179.358C157.244 184.756 147.919 182.5 143.648 179.086C142.418 178.098 140.286 178.625 140.323 180.456Z" fill="#133441"/>
<path d="M84.9373 179.087C80.6667 182.5 71.3344 184.749 67.6572 179.358C64.4853 174.713 56.8599 179.314 60.1636 183.731C64.1558 189.063 70.3162 191.312 76.8796 190.375C82.1244 189.62 88.1238 186.302 88.2557 180.456C88.2996 178.618 86.1679 178.098 84.9373 179.087Z" fill="#133441"/>
<path d="M144.688 161.066C144.784 164.832 151.603 165.967 158.994 165.623C165.609 165.308 172.077 165.601 172.824 160.649C174.363 150.467 144.41 149.734 144.688 161.066Z" fill="#133441"/>
<path d="M55.7468 160.539C56.4574 165.498 62.9329 165.256 69.5402 165.623C76.9313 166.026 83.7583 164.941 83.8829 161.184C84.2564 149.852 54.2891 150.35 55.7468 160.539Z" fill="#133441"/>
</svg>
