<svg width="106" height="155" viewBox="0 0 106 155" fill="none" xmlns="http://www.w3.org/2000/svg">
<ellipse cx="50" cy="143" rx="50" ry="12" fill="#EEEEEE"/>
<path d="M15.6184 115.259C8.85233 115.259 3.12333 112.22 1.47835 107.661C0.448806 104.812 0.205698 98.9081 10.1516 91.405C10.8202 90.8997 11.7738 91.0327 12.279 91.7051C12.7843 92.3738 12.6513 93.3273 11.9827 93.8326C5.76366 98.5206 3.04739 103.068 4.33527 106.628C5.60035 110.13 10.7404 112.471 16.553 112.197C17.3926 112.152 18.103 112.805 18.141 113.641C18.1828 114.48 17.5331 115.191 16.6974 115.233C16.3327 115.248 15.9717 115.259 15.6184 115.259Z" fill="#133441"/>
<path d="M18.6998 118.45C18.2326 118.45 17.7729 118.386 17.336 118.245C15.3833 117.622 14.3006 115.802 14.4373 113.371C14.6121 110.225 16.4052 109.177 17.902 109.241C18.7834 109.276 19.6306 109.69 20.2954 110.32C21.5871 110.617 22.628 111.297 23.2435 112.292C23.9577 113.447 23.9767 114.841 23.2929 115.932C22.3127 117.489 20.4702 118.45 18.6998 118.45Z" fill="#133441"/>
<path d="M64.3523 142.377C64.3182 142.377 64.284 142.377 64.2498 142.373C61.674 142.202 60.3558 141.218 60.2152 141.108C59.8315 140.804 59.615 140.333 59.634 139.843L60.4355 121.968C60.4735 121.129 61.1954 120.483 62.0198 120.517C62.8594 120.555 63.509 121.265 63.471 122.105L62.715 139.003C63.1025 139.144 63.6762 139.288 64.4512 139.341C65.2908 139.394 65.9214 140.12 65.8682 140.956C65.815 141.761 65.1463 142.377 64.3523 142.377Z" fill="#133441"/>
<path d="M34.1918 142.377C33.3978 142.377 32.7292 141.761 32.676 140.956C32.6228 140.12 33.2534 139.394 34.093 139.341C34.8642 139.288 35.4379 139.144 35.8292 139.003L35.0732 122.105C35.0352 121.265 35.6848 120.555 36.5244 120.517C37.3526 120.471 38.0744 121.129 38.1086 121.968L38.9102 139.843C38.933 140.333 38.7164 140.804 38.3289 141.108C38.1883 141.218 36.8701 142.202 34.2944 142.373C34.2602 142.377 34.226 142.377 34.1918 142.377Z" fill="#133441"/>
<path d="M92.659 100.109C90.8507 100.109 88.879 99.7781 86.7629 99.0107C85.9727 98.7258 85.5624 97.8558 85.8473 97.0656C86.1323 96.2792 87.006 95.8689 87.7924 96.1538C94.5927 98.608 99.4403 95.5954 101.526 92.275C103.836 88.5975 103.353 84.2856 100.295 81.2882C99.6949 80.7031 99.6872 79.742 100.272 79.1417C100.861 78.5415 101.822 78.5301 102.423 79.1189C106.48 83.0927 107.152 89.0306 104.098 93.8934C102.081 97.1036 98.1107 100.109 92.659 100.109Z" fill="#133441"/>
<path d="M98.696 83.6283C97.826 83.6283 96.9751 83.332 96.504 82.348C96.1469 81.6034 96.1355 80.5473 96.4014 79.4988C96.0139 78.9517 95.691 78.7123 95.5656 78.6895C95.5694 78.6933 95.5086 78.7123 95.4175 78.7731C94.4981 79.362 93.2748 79.096 92.6859 78.1767C92.0933 77.2573 92.3592 76.034 93.2786 75.4452C94.3461 74.7613 95.5124 74.5676 96.6445 74.8867C97.4347 75.1108 98.1148 75.5591 98.6884 76.11C99.737 75.4604 100.994 75.3426 102.279 75.7947C103.471 76.2164 104.281 77.1699 104.486 78.416C104.717 79.7951 104.132 81.44 103.126 82.2416C102.628 82.6367 102.005 82.8913 101.352 82.9901L101.268 83.0243C100.77 83.218 99.7179 83.6283 98.696 83.6283Z" fill="#133441"/>
<path d="M91.4584 83.2067C91.4584 105.872 73.0901 124.244 50.425 124.244C27.7637 124.244 9.3916 105.872 9.3916 83.2067C9.3916 47.3779 50.425 0.000114441 50.425 0.000114441C50.425 0.000114441 91.4584 47.3779 91.4584 83.2067Z" fill="#6949FF"/>
<path d="M49.7456 120.962C33.5654 120.962 20.4512 110.894 20.4512 98.475C20.4512 86.0559 33.5654 75.9885 49.7456 75.9885C65.9219 75.9885 79.04 86.0559 79.04 98.475C79.04 110.894 65.9219 120.962 49.7456 120.962Z" fill="#673AB3"/>
<path d="M47.1885 13.9198C47.1467 13.5702 46.706 13.3499 46.3945 13.4335C44.4988 13.935 43.2337 16.4879 42.1623 18.0037C40.7339 20.0324 39.3777 22.0953 38.0898 24.219C36.8019 26.3312 35.5368 28.4625 34.3629 30.6393C33.3638 32.4857 31.3313 35.0766 31.5212 37.2307C31.6124 38.2602 32.6533 39.2176 33.7057 38.5717C35.6356 37.3902 36.4562 34.5485 37.5009 32.6034C38.6748 30.419 39.8373 28.2345 41.0568 26.0767C42.2763 23.9188 43.4996 21.761 44.7305 19.6107C45.684 17.9391 47.4354 15.918 47.1885 13.9198Z" fill="white"/>
<path d="M30.3397 41.4552C29.2911 41.1323 28.3984 41.7592 28.0033 42.6899C27.7791 43.218 27.555 43.7423 27.3346 44.2665C26.9547 44.9276 26.6508 45.6304 26.4342 46.3788C26.1645 47.3248 26.685 48.3619 27.6386 48.6544C28.6757 48.9735 29.5038 48.3505 29.9103 47.4539C30.465 46.2307 31.0197 45.0111 31.5743 43.7917C31.9922 42.8723 31.2172 41.725 30.3397 41.4552Z" fill="white"/>
<path d="M15.1816 89.4941C15.4437 95.5802 20.599 100.299 26.6889 100.033C32.7826 99.7705 37.5085 94.6266 37.2426 88.5406C36.9805 82.4583 31.8251 77.7399 25.7353 78.002C19.6416 78.2679 14.9157 83.4119 15.1816 89.4941Z" fill="white"/>
<path d="M31.1263 93.2894C30.4463 94.0644 29.3749 94.2315 28.7329 93.6693C28.0909 93.1032 28.1213 92.0205 28.8013 91.2493C29.4813 90.4743 30.5564 90.3071 31.1985 90.8694C31.8405 91.4354 31.8063 92.5182 31.1263 93.2894ZM25.2758 88.2405C24.0981 89.5739 22.2441 89.8664 21.1348 88.8901C20.0255 87.9175 20.0787 86.0446 21.2564 84.7074C22.4303 83.3739 24.2842 83.0814 25.3935 84.0539C26.5028 85.0303 26.4497 86.9032 25.2758 88.2405ZM33.8046 88.6887C33.6223 84.4984 30.0702 81.2502 25.876 81.4326C21.6781 81.6111 18.4261 85.1556 18.6047 89.346C18.787 93.5363 22.3353 96.7883 26.5332 96.6059C30.7312 96.4236 33.9832 92.8791 33.8046 88.6887Z" fill="#133441"/>
<path d="M62.6777 89.4941C62.9398 95.5802 68.0951 100.299 74.185 100.033C80.2787 99.7705 85.0047 94.6266 84.7388 88.5406C84.4766 82.4583 79.3213 77.7399 73.2315 78.002C67.1378 78.2679 62.4118 83.4119 62.6777 89.4941Z" fill="white"/>
<path d="M79.1346 93.0158C78.4508 93.7871 77.3794 93.958 76.7374 93.3958C76.0953 92.8297 76.1258 91.747 76.8058 90.972C77.4896 90.2008 78.5609 90.0298 79.203 90.5959C79.845 91.1581 79.8147 92.2446 79.1346 93.0158ZM72.8738 87.796C71.5365 88.9699 69.6636 89.0307 68.6834 87.9213C67.7033 86.8158 67.9958 84.9657 69.3293 83.788C70.6627 82.6103 72.5395 82.5533 73.5196 83.6588C74.496 84.7643 74.2073 86.6183 72.8738 87.796ZM81.2962 88.6887C81.1177 84.4984 77.5656 81.2502 73.3715 81.4326C69.1735 81.6111 65.9177 85.1556 66.1001 89.346C66.2824 93.5363 69.8346 96.7883 74.0287 96.6059C78.2267 96.4236 81.4786 92.8791 81.2962 88.6887Z" fill="#133441"/>
<path d="M65.6785 68.2499C65.4239 70.1874 68.8241 71.3195 72.6345 71.7412C76.0498 72.1211 79.3399 72.7935 80.1263 70.3165C81.7371 65.2258 66.4535 62.4221 65.6785 68.2499Z" fill="#133441"/>
<path d="M19.7818 70.271C20.5493 72.748 23.8468 72.0984 27.2622 71.745C31.0764 71.3499 34.4841 70.2368 34.241 68.2993C33.5078 62.4678 18.2052 65.1689 19.7818 70.271Z" fill="#133441"/>
<path d="M85.5818 102.954C85.5818 104.371 83.4315 105.518 80.7836 105.518C78.1357 105.518 75.9893 104.371 75.9893 102.954C75.9893 101.537 78.1357 100.39 80.7836 100.39C83.4315 100.39 85.5818 101.537 85.5818 102.954Z" fill="#A592FF"/>
<path d="M22.992 102.954C22.992 104.371 20.8417 105.518 18.1938 105.518C15.5458 105.518 13.3994 104.371 13.3994 102.954C13.3994 101.537 15.5458 100.39 18.1938 100.39C20.8417 100.39 22.992 101.537 22.992 102.954Z" fill="#A592FF"/>
<path d="M56.0023 98.9955C55.3223 96.3058 52.2754 95.0787 49.7339 94.9419C47.652 94.828 42.4435 95.9753 42.8158 98.9309C42.8766 99.4286 43.3249 99.9795 43.9061 99.7591C44.9053 99.383 45.2928 98.4257 46.1931 97.8634C47.1847 97.248 48.3776 97.0238 49.5287 97.039C51.6106 97.0618 53.8216 97.814 55.1589 99.4856C55.4894 99.8997 56.1163 99.4476 56.0023 98.9955Z" fill="#133441"/>
</svg>
