<svg width="28" height="28" viewBox="0 0 28 28" fill="none" xmlns="http://www.w3.org/2000/svg">
    <path d="M1.86621 13.5147C1.86621 8.02378 1.86621 5.27832 3.57202 3.57251C5.27783 1.8667 8.02329 1.8667 13.5142 1.8667H14.4849C19.9758 1.8667 22.7213 1.8667 24.4271 3.57251C26.1329 5.27832 26.1329 8.02378 26.1329 13.5147V14.4854C26.1329 19.9763 26.1329 22.7217 24.4271 24.4276C22.7213 26.1334 19.9758 26.1334 14.4849 26.1334H13.5142C8.02329 26.1334 5.27783 26.1334 3.57202 24.4276C1.86621 22.7217 1.86621 19.9763 1.86621 14.4854V13.5147Z" fill="#6949FF"/>
    <path d="M6.52539 15.4825C6.52539 18.8226 9.23307 21.5303 12.5732 21.5303H15.3922C18.7323 21.5303 21.44 18.8226 21.44 15.4825C21.44 12.1424 18.7323 9.43474 15.3922 9.43474H12.5732C9.23307 9.43474 6.52539 12.1424 6.52539 15.4825Z" fill="#673AB3"/>
    <path d="M12.3514 14.8941C12.5332 15.6175 13.3527 15.9475 14.0372 15.9843C14.5961 16.0149 15.997 15.7063 15.8968 14.9124C15.8805 14.7776 15.7609 14.6294 15.6036 14.6887C15.3349 14.7898 15.2317 15.0483 14.9885 15.1985C14.7228 15.3641 14.401 15.4243 14.0914 15.4213C13.5315 15.4141 12.9368 15.2118 12.5772 14.7622C12.4883 14.6509 12.3207 14.7735 12.3514 14.8941Z" fill="#133441"/>
    <path d="M4.77135 13.0671C4.84288 14.7039 6.22838 15.9729 7.86727 15.9014C9.50515 15.8309 10.7762 14.4475 10.7047 12.8106C10.6342 11.1748 9.24869 9.90576 7.6098 9.97626C5.9709 10.0478 4.70085 11.4312 4.77135 13.0671Z" fill="white"/>
    <path d="M9.06107 14.0875C8.87716 14.2959 8.58903 14.3409 8.41635 14.1897C8.24367 14.0374 8.25183 13.7462 8.43473 13.5388C8.61864 13.3304 8.90678 13.2854 9.07945 13.4366C9.25213 13.5889 9.24397 13.8801 9.06107 14.0875ZM7.48655 12.7296C7.16981 13.0882 6.67119 13.1669 6.37284 12.9043C6.07449 12.6427 6.08878 12.139 6.40553 11.7793C6.72125 11.4207 7.21987 11.342 7.51924 11.6036C7.81759 11.8662 7.8033 12.3699 7.48655 12.7296ZM9.78039 12.8501C9.73135 11.7231 8.77702 10.8495 7.64798 10.8986C6.51894 10.9466 5.64433 11.8999 5.69337 13.0269C5.74242 14.1539 6.69673 15.0285 7.82577 14.9795C8.95378 14.9304 9.82944 13.9771 9.78039 12.8501Z" fill="#133441"/>
    <path d="M17.5458 13.0671C17.6173 14.7039 19.0028 15.9729 20.6417 15.9014C22.2796 15.8309 23.5506 14.4475 23.4791 12.8106C23.4086 11.1748 22.0231 9.90576 20.3842 9.97626C18.7453 10.0478 17.4753 11.4312 17.5458 13.0671Z" fill="white"/>
    <path d="M21.9714 14.0139C21.7885 14.2213 21.4994 14.2673 21.3267 14.1161C21.154 13.9639 21.1632 13.6727 21.3461 13.4642C21.529 13.2568 21.8172 13.2108 21.9898 13.3631C22.1625 13.5143 22.1543 13.8065 21.9714 14.0139ZM20.2876 12.61C19.9289 12.9258 19.4242 12.9421 19.1606 12.6437C18.898 12.3464 18.9756 11.8488 19.3343 11.5321C19.6939 11.2153 20.1977 11.2 20.4613 11.4973C20.7249 11.7947 20.6472 12.2933 20.2876 12.61ZM22.5538 12.8501C22.5048 11.7231 21.5505 10.8495 20.4214 10.8986C19.2934 10.9466 18.4178 11.8999 18.4668 13.0269C18.5148 14.1539 19.4702 15.0285 20.5992 14.9795C21.7272 14.9304 22.6029 13.9771 22.5538 12.8501Z" fill="#133441"/>
    <path d="M18.3522 7.3532C18.2838 7.87429 19.1983 8.17878 20.2231 8.29219C21.1416 8.39437 22.0275 8.57522 22.238 7.90903C22.6722 6.53988 18.5607 5.78583 18.3522 7.3532Z" fill="#133441"/>
    <path d="M6.00914 7.89706C6.21553 8.56325 7.10242 8.38853 8.02098 8.29351C9.04784 8.18725 9.96436 7.88787 9.89897 7.36677C9.70177 5.79838 5.58511 6.52485 6.00914 7.89706Z" fill="#133441"/>
    <path d="M23.7049 16.6873C23.7049 17.0684 23.1277 17.377 22.4145 17.377C21.7023 17.377 21.125 17.0684 21.125 16.6873C21.125 16.3062 21.7023 15.9976 22.4145 15.9976C23.1277 15.9976 23.7049 16.3062 23.7049 16.6873Z" fill="#A592FF"/>
    <path d="M6.87192 16.6873C6.87192 17.0684 6.29464 17.377 5.58146 17.377C4.8693 17.377 4.29199 17.0684 4.29199 16.6873C4.29199 16.3062 4.8693 15.9976 5.58146 15.9976C6.29464 15.9976 6.87192 16.3062 6.87192 16.6873Z" fill="#A592FF"/>
    </svg>
    