<svg width="24" height="28" viewBox="0 0 24 28" fill="none" xmlns="http://www.w3.org/2000/svg">
<path fill-rule="evenodd" clip-rule="evenodd" d="M12.2333 18.2899H11.7671C8.56255 18.2899 5.9651 15.7236 5.9651 12.5605V6.39611C5.9651 3.23166 8.56255 0.666687 11.7671 0.666687H12.2333C15.4378 0.666687 18.0366 3.23166 18.0366 6.39611V12.5605C18.0366 15.7236 15.4378 18.2899 12.2333 18.2899ZM20.7504 12.3772C20.7504 11.6718 21.3291 11.1017 22.042 11.1017C22.755 11.1017 23.3337 11.6718 23.3337 12.3772C23.3337 18.1155 18.9344 22.8539 13.2926 23.4904V26.0579C13.2926 26.7619 12.7139 27.3334 12.001 27.3334C11.2867 27.3334 10.7094 26.7619 10.7094 26.0579V23.4904C5.06626 22.8539 0.666992 18.1155 0.666992 12.3772C0.666992 11.6718 1.24564 11.1017 1.95861 11.1017C2.67159 11.1017 3.25024 11.6718 3.25024 12.3772C3.25024 17.1411 7.17547 21.0172 12.001 21.0172C16.8252 21.0172 20.7504 17.1411 20.7504 12.3772Z" fill="currentColor"/>
</svg>
