<svg width="16" height="18" viewBox="0 0 16 18" fill="none" xmlns="http://www.w3.org/2000/svg">
    <path fill-rule="evenodd" clip-rule="evenodd"
        d="M11.3885 2.91534C12.3746 3.49053 13.1458 4.43466 13.1458 5.74991V9.78275L14.6674 11.5579C15.7214 12.7877 14.8476 14.6875 13.2279 14.6875H2.77206C1.15235 14.6875 0.278536 12.7877 1.33263 11.5579L2.85416 9.78275V5.74986C2.85416 4.43463 3.62537 3.49051 4.61144 2.91533C5.57976 2.3505 6.81437 2.09375 7.99999 2.09375C9.18561 2.09375 10.4202 2.3505 11.3885 2.91534ZM5.4302 4.31898C4.79128 4.69167 4.47916 5.16936 4.47916 5.74986V9.88361C4.47916 10.2079 4.36283 10.5196 4.15315 10.7642L2.56642 12.6154C2.41584 12.7911 2.54067 13.0625 2.77206 13.0625H13.2279C13.4593 13.0625 13.5841 12.7911 13.4336 12.6154L11.8468 10.7642C11.6371 10.5196 11.5208 10.2079 11.5208 9.88361V5.74991C11.5208 5.16938 11.2087 4.69168 10.5698 4.31899C9.91309 3.93594 8.98104 3.71875 7.99999 3.71875C7.01894 3.71875 6.08689 3.93594 5.4302 4.31898Z"
        fill="currentColor" />
    <path
        d="M9.625 1.95825C9.625 2.85571 8.89746 3.58325 8 3.58325C7.10254 3.58325 6.375 2.85571 6.375 1.95825C6.375 1.06079 7.10254 0.333252 8 0.333252C8.89746 0.333252 9.625 1.06079 9.625 1.95825Z"
        fill="currentColor" />
    <path fill-rule="evenodd" clip-rule="evenodd"
        d="M6.28694 14.6875C6.37906 14.8817 6.50438 15.0607 6.65928 15.2156C7.01482 15.5711 7.49703 15.7708 7.99984 15.7708C8.50264 15.7708 8.98486 15.5711 9.34039 15.2156C9.49529 15.0607 9.62062 14.8817 9.71274 14.6875L6.28694 14.6875ZM11.5207 13.0625V13.875C11.5207 14.8088 11.1497 15.7043 10.4894 16.3646C9.82916 17.0249 8.93362 17.3958 7.99984 17.3958C7.06605 17.3958 6.17052 17.0249 5.51023 16.3646C4.84995 15.7043 4.479 14.8088 4.479 13.875L4.479 13.0625L11.5207 13.0625Z"
        fill="currentColor" />
</svg>
    