<svg width="240" height="240" viewBox="0 0 240 240" fill="none" xmlns="http://www.w3.org/2000/svg">
<path d="M145.766 239.755C144.6 239.755 143.534 238.989 143.201 237.809C142.181 234.178 142.275 231.2 142.275 231.074C142.328 229.648 143.494 228.509 144.926 228.502C147.858 228.482 155.959 227.469 158.165 223.172C160.07 219.461 157.105 213.898 154.281 209.88C153.434 208.675 153.721 207.016 154.927 206.169C156.126 205.317 157.792 205.61 158.638 206.809C163.981 214.411 165.42 220.734 162.902 225.617C159.877 231.487 152.022 233.159 147.771 233.639C147.878 234.432 148.051 235.371 148.331 236.37C148.731 237.783 147.905 239.255 146.485 239.655C146.246 239.722 146.006 239.755 145.766 239.755Z" fill="#133441"/>
<path d="M61.8786 233.152C61.4522 233.152 61.0324 233.052 60.646 232.853C60.5328 232.793 57.8945 231.4 55.2428 228.715C54.2035 227.669 54.2167 225.984 55.2627 224.951C56.3087 223.911 57.9943 223.925 59.0336 224.971C59.44 225.384 59.8465 225.757 60.2329 226.083C63.3776 215.63 71.7857 201.166 87.3625 202.971C88.8215 203.145 89.8675 204.464 89.701 205.93C89.5277 207.389 88.2085 208.435 86.7428 208.268C69.567 206.276 64.5435 230.754 64.4902 231C64.3303 231.826 63.7906 232.526 63.0311 232.886C62.6647 233.066 62.2717 233.152 61.8786 233.152Z" fill="#133441"/>
<path d="M188.959 150.145C188.226 150.145 187.499 149.839 186.973 149.252C185.994 148.153 186.087 146.467 187.186 145.488C213.47 122.063 223.77 114.481 224.196 114.168C225.382 113.302 227.048 113.562 227.92 114.747C228.787 115.933 228.527 117.599 227.341 118.472C227.241 118.545 216.768 126.267 190.731 149.465C190.224 149.918 189.591 150.145 188.959 150.145Z" fill="#133441"/>
<path d="M237.341 123.229C237.275 123.229 237.208 123.229 237.148 123.222C236.808 123.196 228.753 122.563 224.23 117.499C219.033 111.69 219.573 105.36 219.599 105.094C219.739 103.628 221.045 102.555 222.511 102.695C223.97 102.835 225.036 104.128 224.909 105.58C224.896 105.8 224.636 109.957 228.201 113.948C231.279 117.386 237.475 117.899 237.535 117.906C239 118.019 240.1 119.298 239.993 120.764C239.886 122.163 238.72 123.229 237.341 123.229Z" fill="#133441"/>
<path d="M227.54 118.945C226.154 118.945 224.955 118.472 224.089 117.332C221.311 113.661 225.941 108.465 230.325 104.747C231.444 103.794 233.123 103.934 234.076 105.054C235.029 106.173 234.896 107.858 233.77 108.811C232.244 110.11 230.752 111.663 229.759 112.915C231.284 112.202 233.277 111.03 235.009 109.757C236.201 108.891 237.867 109.151 238.733 110.337C239.599 111.53 239.346 113.195 238.153 114.061C234.789 116.526 230.685 118.945 227.54 118.945Z" fill="#133441"/>
<path d="M55.9693 160.239C55.503 160.239 55.0233 160.112 54.5969 159.852C24.7691 141.79 13.0566 136.107 12.9433 136.054C11.6175 135.414 11.0644 133.822 11.6973 132.496C12.3369 131.17 13.9293 130.611 15.2551 131.25C15.7348 131.477 27.2409 137.06 57.3552 155.289C58.6144 156.055 59.0141 157.694 58.2546 158.953C57.7549 159.779 56.8754 160.239 55.9693 160.239Z" fill="#133441"/>
<path d="M3.49526 142.597C2.31601 142.597 1.23672 141.804 0.923581 140.605C0.550484 139.185 1.40328 137.726 2.82238 137.353C2.88234 137.34 8.87858 135.708 11.2771 131.763C14.062 127.166 13.0293 123.102 12.9826 122.936C12.6095 121.523 13.4357 120.058 14.8481 119.665C16.2605 119.278 17.713 120.084 18.1127 121.49C18.186 121.75 19.8715 127.866 15.8274 134.528C12.303 140.331 4.50137 142.43 4.17491 142.51C3.94839 142.57 3.72179 142.597 3.49526 142.597Z" fill="#133441"/>
<path d="M11.0645 132.742H11.0713H11.0645ZM11.471 136.673C8.51289 136.673 4.7486 135.248 1.51065 133.689C0.184822 133.056 -0.374903 131.463 0.264693 130.137C0.897626 128.812 2.49 128.252 3.81583 128.885C5.75461 129.818 7.91988 130.61 9.55218 131.03C8.35294 129.978 6.60069 128.725 4.86179 127.726C3.58259 126.993 3.14295 125.367 3.87582 124.088C4.60869 122.815 6.2343 122.376 7.51349 123.102C12.497 125.96 18.0002 130.224 15.9349 134.341C15.0887 136.027 13.4631 136.673 11.471 136.673Z" fill="#133441"/>
<path d="M193.469 145.928C193.469 185.67 161.25 217.889 121.508 217.889C81.7665 217.889 49.5469 185.67 49.5469 145.928C49.5469 83.0878 121.508 0.000366211 121.508 0.000366211C121.508 0.000366211 193.469 83.0878 193.469 145.928Z" fill="#6949FF"/>
<path d="M122.007 211.933C93.6382 211.933 70.6328 194.277 70.6328 172.498C70.6328 150.718 93.6382 133.062 122.007 133.062C150.382 133.062 173.388 150.718 173.388 172.498C173.388 194.277 150.382 211.933 122.007 211.933Z" fill="#673AB3"/>
<path d="M115.832 24.4048C115.758 23.7985 114.986 23.4121 114.433 23.5586C111.115 24.4381 108.896 28.9152 107.017 31.5736C104.506 35.1313 102.134 38.7491 99.8685 42.4734C97.6166 46.1777 95.398 49.9153 93.3326 53.7329C91.5804 56.9709 88.0227 61.5147 88.3558 65.2923C88.5157 67.0978 90.3346 68.7767 92.1868 67.6441C95.5646 65.5721 97.0103 60.5952 98.8424 57.1774C100.901 53.3464 102.94 49.5155 105.079 45.7313C107.217 41.947 109.363 38.1627 111.515 34.3918C113.193 31.4603 116.258 27.9159 115.832 24.4048Z" fill="white"/>
<path d="M86.2834 72.7008C84.4446 72.1345 82.8789 73.2338 82.186 74.8661C81.7929 75.7922 81.3999 76.7116 81.0068 77.631C80.3472 78.7903 79.8076 80.0229 79.4345 81.3354C78.9548 82.9943 79.8742 84.8131 81.5398 85.3262C83.3653 85.8858 84.8111 84.7932 85.5306 83.2208C86.5033 81.0822 87.476 78.9369 88.4487 76.7982C89.1816 75.1859 87.8158 73.1738 86.2834 72.7008Z" fill="white"/>
<path d="M134.019 172.578C137.69 177.028 134.113 185.31 122.02 185.31C109.921 185.31 106.95 176.355 110.034 172.578C111.8 170.406 115.871 171.492 122.02 171.492C128.163 171.492 132.187 170.372 134.019 172.578Z" fill="#AB1700"/>
<path d="M132.294 173.377C132.294 174.396 127.843 175.216 122.36 175.216C116.87 175.216 112.42 174.396 112.42 173.377C112.42 172.364 116.87 172.617 122.36 172.617C127.843 172.617 132.294 172.364 132.294 173.377Z" fill="white"/>
<path d="M113.812 181.952C115.691 183.117 118.403 183.917 122.067 183.917C126.178 183.917 129.156 182.984 131.102 181.652C124.093 174.889 117.497 178.614 113.812 181.952Z" fill="#FD6C6C"/>
<path d="M94.7841 157.26C94.6842 151.091 88.2216 147.58 82.7117 146.834C75.8427 145.894 69.2869 148.253 65.1895 153.922C61.7849 158.639 69.8199 163.47 73.0712 158.526C76.8621 152.757 86.8092 155.075 91.293 158.713C92.5922 159.759 94.8175 159.179 94.7841 157.26Z" fill="#133441"/>
<path d="M153.001 158.713C157.492 155.075 167.432 152.757 171.23 158.526C174.474 163.463 182.516 158.646 179.105 153.923C175.007 148.253 168.458 145.894 161.583 146.834C156.073 147.58 149.617 151.084 149.51 157.261C149.477 159.186 151.702 159.766 153.001 158.713Z" fill="#133441"/>
<path d="M185.441 171.751C185.441 174.236 181.677 176.249 177.033 176.249C172.383 176.249 168.618 174.236 168.618 171.751C168.618 169.273 172.383 167.254 177.033 167.254C181.677 167.254 185.441 169.273 185.441 171.751Z" fill="#A592FF"/>
<path d="M75.6772 171.751C75.6772 174.236 71.913 176.249 67.2692 176.249C62.6188 176.249 58.8545 174.236 58.8545 171.751C58.8545 169.273 62.6188 167.254 67.2692 167.254C71.913 167.254 75.6772 169.273 75.6772 171.751Z" fill="#A592FF"/>
<path d="M156.466 125.401C155.7 128.739 161.456 131.271 168.046 132.63C173.942 133.849 179.585 135.555 181.357 131.364C185.001 122.736 158.765 115.347 156.466 125.401Z" fill="#133441"/>
<path d="M62.9182 131.364C64.6904 135.555 70.3268 133.849 76.2231 132.63C82.8123 131.271 88.5687 128.739 87.8025 125.401C85.5039 115.347 59.2672 122.736 62.9182 131.364Z" fill="#133441"/>
</svg>
