<svg width="26" height="22" viewBox="0 0 26 22" fill="none" xmlns="http://www.w3.org/2000/svg">
<path fill-rule="evenodd" clip-rule="evenodd" d="M14.5836 4.52565C14.5249 3.95826 14.4637 3.36957 14.3132 2.78213C13.9034 1.37678 12.7681 0.500011 11.5509 0.500011C10.8719 0.497506 10.0131 0.915852 9.52622 1.33921L5.49034 4.7198H3.37759C1.8227 4.7198 0.572421 5.91847 0.336312 7.64822C0.13568 9.30908 0.0867459 12.4442 0.336312 14.2716C0.552847 16.0991 1.74685 17.2802 3.37759 17.2802H5.49034L9.60452 20.7109C10.0266 21.0779 10.7716 21.4987 11.4567 21.4987C11.5007 21.5 11.5399 21.5 11.579 21.5C12.8195 21.5 13.912 20.5906 14.3218 19.1891C14.4762 18.5965 14.5303 18.0411 14.5826 17.5044L14.5836 17.4944L14.6387 16.9596C14.8491 15.2248 14.8491 6.76393 14.6387 5.0417L14.5836 4.52565ZM19.308 4.57701C18.9716 4.08101 18.3048 3.95701 17.8167 4.30145C17.3335 4.6484 17.2136 5.33229 17.55 5.82704C18.4859 7.20608 19.0009 9.04229 19.0009 11C19.0009 12.9565 18.4859 14.7939 17.55 16.173C17.2136 16.6677 17.3335 17.3516 17.8179 17.6985C17.999 17.8263 18.2106 17.8939 18.4284 17.8939C18.7795 17.8939 19.1074 17.7173 19.308 17.423C20.4898 15.682 21.1418 13.4011 21.1418 11C21.1418 8.59889 20.4898 6.31803 19.308 4.57701ZM21.5054 0.757909C21.9923 0.41221 22.6615 0.538716 22.9955 1.03347C24.8256 3.72767 25.8337 7.26858 25.8337 10.9999C25.8337 14.7337 24.8256 18.2733 22.9955 20.9675C22.796 21.2619 22.467 21.4385 22.1159 21.4385C21.8981 21.4385 21.6877 21.3709 21.5066 21.2431C21.0222 20.8961 20.9023 20.2135 21.2375 19.7175C22.8205 17.3853 23.6928 14.289 23.6928 10.9999C23.6928 7.71198 22.8205 4.61571 21.2375 2.2835C20.9023 1.78874 21.0222 1.10486 21.5054 0.757909Z" fill="white"/>
</svg>
