<svg width="19" height="18" viewBox="0 0 19 18" fill="none" xmlns="http://www.w3.org/2000/svg">
<path d="M18.4267 8.095L1.42674 0.0949991C1.25556 0.0144495 1.06503 -0.0158879 0.877299 0.00751001C0.689563 0.0309079 0.512316 0.107081 0.36614 0.227184C0.219964 0.347287 0.110857 0.506392 0.0514882 0.686023C-0.00788074 0.865655 -0.0150756 1.05844 0.0307394 1.242L1.24274 6.091L9.00074 9L1.24274 11.909L0.0307394 16.758C-0.0159376 16.9417 -0.00934325 17.1349 0.0497511 17.315C0.108845 17.495 0.217996 17.6546 0.364436 17.7749C0.510875 17.8952 0.688549 17.9713 0.876672 17.9944C1.0648 18.0174 1.25559 17.9864 1.42674 17.905L18.4267 9.905C18.5985 9.82424 18.7438 9.69626 18.8455 9.536C18.9473 9.37574 19.0013 9.18983 19.0013 9C19.0013 8.81017 18.9473 8.62426 18.8455 8.464C18.7438 8.30374 18.5985 8.17576 18.4267 8.095Z" fill="#858C94"/>
</svg>
