<svg width="28" height="28" viewBox="0 0 28 28" fill="none" xmlns="http://www.w3.org/2000/svg">
    <mask id="mask0_270_7041" style="mask-type:luminance" maskUnits="userSpaceOnUse" x="2" y="2"
        width="23" height="25">
        <path fill-rule="evenodd" clip-rule="evenodd"
            d="M2.33301 2.3335H24.832V26.508H2.33301V2.3335Z" fill="white" />
    </mask>
    <g mask="url(#mask0_270_7041)">
        <path fill-rule="evenodd" clip-rule="evenodd"
            d="M8.40238 20.3468C8.66955 20.3468 8.93671 20.3807 9.19805 20.4507C9.98671 20.663 10.6715 21.1903 11.0775 21.8985C11.3412 22.343 11.487 22.8622 11.4917 23.3918C11.4917 24.1502 12.1007 24.758 12.8497 24.758H14.3115C15.057 24.758 15.666 24.1537 15.6695 23.4082C15.6649 22.5845 15.9869 21.8017 16.576 21.2125C17.157 20.6315 17.969 20.2827 18.781 20.306C19.313 20.3188 19.8252 20.4623 20.2767 20.719C20.9265 21.0912 21.756 20.8695 22.1317 20.2278L22.9064 18.9363C23.079 18.6388 23.1292 18.2655 23.037 17.9213C22.946 17.5772 22.7174 17.2785 22.4094 17.1023C21.6884 16.687 21.1739 16.0173 20.9604 15.2147C20.7492 14.4272 20.8647 13.5673 21.2765 12.8592C21.5449 12.3925 21.938 11.9993 22.4094 11.7287C23.0417 11.3588 23.2634 10.5317 22.8959 9.88766C22.8807 9.862 22.8667 9.83516 22.855 9.80716L22.1714 8.62183C21.7992 7.97433 20.9709 7.7515 20.321 8.12133C19.6187 8.53666 18.7834 8.65566 17.9807 8.4445C17.1792 8.23683 16.5072 7.72933 16.0884 7.013C15.82 6.565 15.6742 6.0435 15.6695 5.51266C15.68 5.11366 15.54 4.7555 15.2857 4.493C15.0325 4.23166 14.6767 4.0835 14.3115 4.0835H12.8497C12.488 4.0835 12.1497 4.22466 11.8942 4.479C11.6399 4.7345 11.501 5.074 11.5034 5.43566C11.4789 7.14133 10.0847 8.5145 8.39655 8.5145C7.85521 8.50866 7.33371 8.36283 6.88105 8.09216C6.24521 7.7305 5.41455 7.95333 5.04238 8.60083L4.25255 9.89933C3.89088 10.527 4.11255 11.3565 4.75655 11.731C5.71205 12.284 6.30821 13.3153 6.30821 14.4213C6.30821 15.5273 5.71205 16.5575 4.75421 17.1117C4.11371 17.4827 3.89205 18.3075 4.26305 18.9492L4.99921 20.2185C5.18121 20.5463 5.47871 20.7832 5.82288 20.88C6.16588 20.9757 6.54388 20.9348 6.85888 20.7598C7.32205 20.488 7.86105 20.3468 8.40238 20.3468M14.3115 26.508H12.8497C11.1359 26.508 9.74171 25.115 9.74171 23.4012C9.73938 23.19 9.67871 22.9707 9.56555 22.7805C9.38238 22.4608 9.08605 22.2322 8.74421 22.1412C8.40471 22.0502 8.03255 22.1003 7.72688 22.2777C6.99421 22.686 6.13205 22.7852 5.34338 22.5635C4.55588 22.3407 3.87571 21.7993 3.47671 21.0818L2.74755 19.8253C1.89471 18.346 2.40221 16.4502 3.87921 15.5962C4.29805 15.3547 4.55821 14.9043 4.55821 14.4213C4.55821 13.9383 4.29805 13.4868 3.87921 13.2453C2.40105 12.3867 1.89471 10.4862 2.74638 9.00683L3.53738 7.70833C4.37855 6.24533 6.28021 5.72966 7.76305 6.58133C7.96488 6.7015 8.18421 6.76216 8.40705 6.7645C9.13388 6.7645 9.74171 6.16483 9.75338 5.4275C9.74871 4.61433 10.0695 3.83383 10.654 3.24466C11.2409 2.65666 12.0202 2.3335 12.8497 2.3335H14.3115C15.1469 2.3335 15.9589 2.6765 16.541 3.27266C17.122 3.87233 17.4429 4.69483 17.4184 5.529C17.4207 5.71683 17.4825 5.93383 17.5945 6.124C17.78 6.439 18.0729 6.66066 18.4205 6.75166C18.7682 6.838 19.1322 6.79133 19.4414 6.60816C20.9347 5.75533 22.8352 6.26633 23.688 7.748L24.4149 9.00683C24.4335 9.04066 24.4499 9.07333 24.4639 9.10716C25.2362 10.5667 24.7205 12.4042 23.2855 13.243C23.0767 13.3632 22.9075 13.5312 22.7909 13.7342C22.61 14.048 22.5599 14.4213 22.6509 14.7643C22.7442 15.1143 22.967 15.4048 23.2809 15.5845C23.989 15.9917 24.5175 16.6777 24.7287 17.4698C24.9399 18.2608 24.8244 19.1195 24.4125 19.8277L23.6379 21.118C22.785 22.5833 20.8845 23.0908 19.4064 22.2368C19.2092 22.1237 18.9817 22.0618 18.7554 22.056H18.7484C18.4112 22.056 18.0647 22.1995 17.8127 22.4503C17.5572 22.7058 17.4172 23.0465 17.4195 23.4082C17.4114 25.122 16.0172 26.508 14.3115 26.508"
            fill="#212121" />
    </g>
    <path fill-rule="evenodd" clip-rule="evenodd"
        d="M13.5861 12.2197C12.3727 12.2197 11.3857 13.2079 11.3857 14.4212C11.3857 15.6346 12.3727 16.6204 13.5861 16.6204C14.7994 16.6204 15.7864 15.6346 15.7864 14.4212C15.7864 13.2079 14.7994 12.2197 13.5861 12.2197M13.5861 18.3704C11.4079 18.3704 9.63574 16.5994 9.63574 14.4212C9.63574 12.2431 11.4079 10.4697 13.5861 10.4697C15.7642 10.4697 17.5364 12.2431 17.5364 14.4212C17.5364 16.5994 15.7642 18.3704 13.5861 18.3704"
        fill="#212121" />
</svg>
    