<svg width="125" height="59" viewBox="0 0 125 59" fill="none" xmlns="http://www.w3.org/2000/svg">
<mask id="path-1-inside-1_2034_30958" fill="white">
<path fill-rule="evenodd" clip-rule="evenodd" d="M1.21793 9.87706C0 12.8174 0 16.5449 0 24C0 31.4551 0 35.1826 1.21793 38.1229C2.84183 42.0434 5.95662 45.1582 9.87706 46.7821C12.8174 48 16.5449 48 24 48H52.2717C53.6495 48 54.8814 48.8866 55.349 50.1827C56.5778 53.5879 57.1922 55.2905 57.8094 56.0643C60.2114 59.0758 64.7886 59.0758 67.1906 56.0643C67.8078 55.2905 68.4222 53.5879 69.6509 50.1828L69.651 50.1827L69.651 50.1825C70.1187 48.8866 71.3504 48 72.7282 48H101C108.455 48 112.183 48 115.123 46.7821C119.043 45.1582 122.158 42.0434 123.782 38.1229C125 35.1826 125 31.4551 125 24C125 16.5449 125 12.8174 123.782 9.87706C122.158 5.95662 119.043 2.84183 115.123 1.21793C112.183 0 108.455 0 101 0H24C16.5449 0 12.8174 0 9.87706 1.21793C5.95662 2.84183 2.84183 5.95662 1.21793 9.87706Z"/>
</mask>
<path fill-rule="evenodd" clip-rule="evenodd" d="M1.21793 9.87706C0 12.8174 0 16.5449 0 24C0 31.4551 0 35.1826 1.21793 38.1229C2.84183 42.0434 5.95662 45.1582 9.87706 46.7821C12.8174 48 16.5449 48 24 48H52.2717C53.6495 48 54.8814 48.8866 55.349 50.1827C56.5778 53.5879 57.1922 55.2905 57.8094 56.0643C60.2114 59.0758 64.7886 59.0758 67.1906 56.0643C67.8078 55.2905 68.4222 53.5879 69.6509 50.1828L69.651 50.1827L69.651 50.1825C70.1187 48.8866 71.3504 48 72.7282 48H101C108.455 48 112.183 48 115.123 46.7821C119.043 45.1582 122.158 42.0434 123.782 38.1229C125 35.1826 125 31.4551 125 24C125 16.5449 125 12.8174 123.782 9.87706C122.158 5.95662 119.043 2.84183 115.123 1.21793C112.183 0 108.455 0 101 0H24C16.5449 0 12.8174 0 9.87706 1.21793C5.95662 2.84183 2.84183 5.95662 1.21793 9.87706Z" fill="#F9F8FF"/>
<path d="M1.21793 9.87706L-2.47759 8.34633H-2.47759L1.21793 9.87706ZM1.21793 38.1229L-2.47759 39.6537H-2.47759L1.21793 38.1229ZM9.87706 46.7821L8.34633 50.4776H8.34633L9.87706 46.7821ZM57.8094 56.0643L60.9365 53.57L57.8094 56.0643ZM67.1906 56.0643L64.0636 53.57L64.0635 53.57L67.1906 56.0643ZM69.6509 50.1828L65.9056 48.7784L65.8968 48.8017L65.8884 48.8252L69.6509 50.1828ZM69.651 50.1827L73.3963 51.5872L73.4033 51.5684L73.4101 51.5496L69.651 50.1827ZM115.123 46.7821L116.654 50.4776H116.654L115.123 46.7821ZM123.782 38.1229L127.478 39.6537L123.782 38.1229ZM123.782 9.87706L127.478 8.34633L123.782 9.87706ZM115.123 1.21793L116.654 -2.47759V-2.47759L115.123 1.21793ZM9.87706 1.21793L8.34633 -2.47759V-2.47759L9.87706 1.21793ZM4 24C4 20.2177 4.00217 17.5814 4.14296 15.5178C4.28131 13.4901 4.54002 12.3093 4.91345 11.4078L-2.47759 8.34633C-3.32209 10.3851 -3.67234 12.5383 -3.83848 14.9732C-4.00217 17.3723 -4 20.3272 -4 24H4ZM4.91345 36.5922C4.54002 35.6907 4.28131 34.5099 4.14296 32.4822C4.00217 30.4186 4 27.7823 4 24H-4C-4 27.6728 -4.00217 30.6277 -3.83848 33.0268C-3.67234 35.4617 -3.32209 37.6149 -2.47759 39.6537L4.91345 36.5922ZM11.4078 43.0866C8.46746 41.8686 6.13137 39.5325 4.91345 36.5922L-2.47759 39.6537C-0.447711 44.5542 3.44577 48.4477 8.34633 50.4776L11.4078 43.0866ZM24 44C20.2177 44 17.5814 43.9978 15.5178 43.857C13.4901 43.7187 12.3093 43.46 11.4078 43.0866L8.34633 50.4776C10.3851 51.3221 12.5383 51.6723 14.9732 51.8385C17.3723 52.0022 20.3272 52 24 52V44ZM52.2717 44H24V52H52.2717V44ZM60.9365 53.57C61.0251 53.6812 60.8981 53.5512 60.5155 52.6074C60.1674 51.7489 59.7376 50.5598 59.1116 48.825L51.5865 51.5404C52.1892 53.2107 52.681 54.5756 53.1016 55.6131C53.4877 56.5654 53.9764 57.6736 54.6823 58.5586L60.9365 53.57ZM64.0635 53.57C63.2629 54.5739 61.7371 54.5738 60.9365 53.57L54.6823 58.5586C58.6857 63.5777 66.3143 63.5777 70.3177 58.5586L64.0635 53.57ZM65.8884 48.8252C65.2624 50.5599 64.8325 51.749 64.4845 52.6075C64.1019 53.5512 63.9749 53.6812 64.0636 53.57L70.3177 58.5586C71.0235 57.6737 71.5123 56.5654 71.8984 55.6132C72.319 54.5756 72.8107 53.2109 73.4134 51.5405L65.8884 48.8252ZM65.9056 48.7782L65.9056 48.7784L73.3962 51.5873L73.3963 51.5872L65.9056 48.7782ZM65.8918 48.8156L65.8918 48.8157L73.4101 51.5496L73.4102 51.5495L65.8918 48.8156ZM101 44H72.7282V52H101V44ZM113.592 43.0866C112.691 43.46 111.51 43.7187 109.482 43.857C107.419 43.9978 104.782 44 101 44V52C104.673 52 107.628 52.0022 110.027 51.8385C112.462 51.6723 114.615 51.3221 116.654 50.4776L113.592 43.0866ZM120.087 36.5922C118.869 39.5325 116.533 41.8686 113.592 43.0866L116.654 50.4776C121.554 48.4477 125.448 44.5542 127.478 39.6537L120.087 36.5922ZM121 24C121 27.7823 120.998 30.4186 120.857 32.4822C120.719 34.5099 120.46 35.6907 120.087 36.5922L127.478 39.6537C128.322 37.6149 128.672 35.4617 128.838 33.0268C129.002 30.6277 129 27.6728 129 24H121ZM120.087 11.4078C120.46 12.3093 120.719 13.4901 120.857 15.5178C120.998 17.5814 121 20.2177 121 24H129C129 20.3272 129.002 17.3723 128.838 14.9732C128.672 12.5383 128.322 10.3851 127.478 8.34633L120.087 11.4078ZM113.592 4.91345C116.533 6.13137 118.869 8.46746 120.087 11.4078L127.478 8.34633C125.448 3.44577 121.554 -0.447713 116.654 -2.47759L113.592 4.91345ZM101 4C104.782 4 107.419 4.00217 109.482 4.14296C111.51 4.28131 112.691 4.54002 113.592 4.91345L116.654 -2.47759C114.615 -3.32209 112.462 -3.67234 110.027 -3.83848C107.628 -4.00217 104.673 -4 101 -4V4ZM24 4H101V-4H24V4ZM11.4078 4.91345C12.3093 4.54002 13.4901 4.28131 15.5178 4.14296C17.5814 4.00217 20.2177 4 24 4V-4C20.3272 -4 17.3723 -4.00217 14.9732 -3.83848C12.5383 -3.67234 10.3851 -3.32209 8.34633 -2.47759L11.4078 4.91345ZM4.91345 11.4078C6.13137 8.46746 8.46746 6.13137 11.4078 4.91345L8.34633 -2.47759C3.44577 -0.447711 -0.447711 3.44577 -2.47759 8.34633L4.91345 11.4078ZM73.4135 51.5402C73.3239 51.7888 73.0793 52 72.7282 52V44C69.6216 44 66.9135 45.9844 65.8885 48.8248L73.4135 51.5402ZM52.2717 52C51.9207 52 51.6762 51.7888 51.5865 51.5404L59.1116 48.825C58.0866 45.9844 55.3784 44 52.2717 44V52Z" fill="url(#paint0_linear_2034_30958)" mask="url(#path-1-inside-1_2034_30958)"/>
<path d="M34.4664 31.2C33.5731 31.2 32.6997 31.1 31.8464 30.9C31.0064 30.7 30.2731 30.4 29.6464 30C29.3397 29.8 29.1531 29.5533 29.0864 29.26C29.0197 28.9667 29.0397 28.6933 29.1464 28.44C29.2664 28.1733 29.4464 27.9933 29.6864 27.9C29.9397 27.7933 30.2264 27.84 30.5464 28.04C31.1331 28.3867 31.7531 28.64 32.4064 28.8C33.0597 28.96 33.7464 29.04 34.4664 29.04C35.5197 29.04 36.2864 28.8667 36.7664 28.52C37.2464 28.16 37.4864 27.7 37.4864 27.14C37.4864 26.6733 37.3131 26.3067 36.9664 26.04C36.6331 25.7733 36.0531 25.5533 35.2264 25.38L33.0264 24.92C30.5197 24.3867 29.2664 23.1 29.2664 21.06C29.2664 20.18 29.4997 19.4133 29.9664 18.76C30.4331 18.1067 31.0797 17.6 31.9064 17.24C32.7331 16.88 33.6864 16.7 34.7664 16.7C35.5664 16.7 36.3264 16.8 37.0464 17C37.7664 17.2 38.4131 17.4933 38.9864 17.88C39.2531 18.0667 39.4131 18.3 39.4664 18.58C39.5197 18.8467 39.4864 19.1 39.3664 19.34C39.2464 19.5667 39.0531 19.7267 38.7864 19.82C38.5331 19.9 38.2331 19.84 37.8864 19.64C37.3931 19.36 36.8931 19.16 36.3864 19.04C35.8797 18.92 35.3331 18.86 34.7464 18.86C33.8264 18.86 33.1064 19.0533 32.5864 19.44C32.0664 19.8267 31.8064 20.3333 31.8064 20.96C31.8064 21.44 31.9664 21.8267 32.2864 22.12C32.6064 22.4 33.1531 22.62 33.9264 22.78L36.1064 23.24C37.4264 23.52 38.4064 23.96 39.0464 24.56C39.6997 25.16 40.0264 25.96 40.0264 26.96C40.0264 27.8 39.7997 28.54 39.3464 29.18C38.8931 29.82 38.2464 30.32 37.4064 30.68C36.5797 31.0267 35.5997 31.2 34.4664 31.2ZM46.6106 31.16C45.7573 31.16 45.3306 30.72 45.3306 29.84V19.04H41.4306C40.6973 19.04 40.3306 18.68 40.3306 17.96C40.3306 17.2533 40.6973 16.9 41.4306 16.9H51.7906C52.524 16.9 52.8906 17.2533 52.8906 17.96C52.8906 18.68 52.524 19.04 51.7906 19.04H47.8906V29.84C47.8906 30.72 47.464 31.16 46.6106 31.16ZM52.93 31.16C52.4633 31.16 52.13 31 51.93 30.68C51.73 30.36 51.7367 29.9733 51.95 29.52L57.23 17.82C57.4033 17.4333 57.61 17.16 57.85 17C58.1033 16.8267 58.39 16.74 58.71 16.74C59.0167 16.74 59.29 16.8267 59.53 17C59.7833 17.16 59.9967 17.4333 60.17 17.82L65.47 29.52C65.6833 29.9867 65.6967 30.38 65.51 30.7C65.3233 31.0067 65.0033 31.16 64.55 31.16C64.1767 31.16 63.8833 31.0733 63.67 30.9C63.47 30.7133 63.29 30.4333 63.13 30.06L62.13 27.74H55.25L54.27 30.06C54.0967 30.4467 53.9167 30.7267 53.73 30.9C53.5433 31.0733 53.2767 31.16 52.93 31.16ZM58.67 19.68L56.13 25.7H61.25L58.71 19.68H58.67ZM68.9528 31.16C68.0995 31.16 67.6728 30.72 67.6728 29.84V18.2C67.6728 17.3333 68.1061 16.9 68.9728 16.9H73.7928C75.3395 16.9 76.5328 17.2733 77.3728 18.02C78.2128 18.7533 78.6328 19.7867 78.6328 21.12C78.6328 22.1733 78.3595 23.0467 77.8128 23.74C77.2661 24.42 76.4795 24.88 75.4528 25.12C76.1328 25.3333 76.6928 25.8467 77.1328 26.66L78.6328 29.44C78.8595 29.8667 78.8995 30.26 78.7528 30.62C78.6195 30.98 78.2795 31.16 77.7328 31.16C77.3728 31.16 77.0795 31.0867 76.8528 30.94C76.6261 30.78 76.4261 30.54 76.2528 30.22L74.2328 26.5C73.9928 26.0467 73.7061 25.7467 73.3728 25.6C73.0528 25.44 72.6395 25.36 72.1328 25.36H70.2328V29.84C70.2328 30.72 69.8061 31.16 68.9528 31.16ZM70.2328 23.46H73.3528C75.2195 23.46 76.1528 22.7 76.1528 21.18C76.1528 19.6733 75.2195 18.92 73.3528 18.92H70.2328V23.46ZM85.6731 31.16C84.8198 31.16 84.3931 30.72 84.3931 29.84V19.04H80.4931C79.7598 19.04 79.3931 18.68 79.3931 17.96C79.3931 17.2533 79.7598 16.9 80.4931 16.9H90.8531C91.5865 16.9 91.9531 17.2533 91.9531 17.96C91.9531 18.68 91.5865 19.04 90.8531 19.04H86.9531V29.84C86.9531 30.72 86.5265 31.16 85.6731 31.16ZM94.4727 26.94C93.9527 26.94 93.6727 26.6333 93.6327 26.02L93.0327 18.38C92.9927 17.8867 93.0993 17.4933 93.3527 17.2C93.606 16.8933 93.9793 16.74 94.4727 16.74C94.9527 16.74 95.3127 16.8933 95.5527 17.2C95.806 17.4933 95.9127 17.8867 95.8727 18.38L95.2727 26.02C95.2327 26.6333 94.966 26.94 94.4727 26.94ZM94.4727 31.1C94.0193 31.1 93.6527 30.96 93.3727 30.68C93.106 30.4 92.9727 30.04 92.9727 29.6C92.9727 29.1733 93.106 28.8267 93.3727 28.56C93.6527 28.28 94.0193 28.14 94.4727 28.14C94.9393 28.14 95.2993 28.28 95.5527 28.56C95.8193 28.8267 95.9527 29.1733 95.9527 29.6C95.9527 30.04 95.8193 30.4 95.5527 30.68C95.2993 30.96 94.9393 31.1 94.4727 31.1Z" fill="#212121"/>
<defs>
<linearGradient id="paint0_linear_2034_30958" x1="125" y1="58.3229" x2="8.67627" y2="-13.9622" gradientUnits="userSpaceOnUse">
<stop stop-color="#6949FF"/>
<stop offset="1" stop-color="#876DFF"/>
</linearGradient>
</defs>
</svg>
