<svg width="240" height="86" viewBox="0 0 240 86" fill="none" xmlns="http://www.w3.org/2000/svg">
<mask id="path-1-inside-1_2032_27651" fill="white">
<path fill-rule="evenodd" clip-rule="evenodd" d="M17.0003 55.6982C15.1469 55.2092 12.7372 53.8179 9.00004 51.6603L9 51.6603C3.73917 48.6229 1.10876 47.1042 0.361845 45.0521C-0.120615 43.7266 -0.120615 42.2734 0.361845 40.9479C1.10876 38.8958 3.73917 37.3771 9 34.3397C12.7372 32.1821 15.1469 30.7908 17.0003 30.3018C17.0069 16.3422 17.1793 9.19333 21.6863 4.68629C26.3726 0 33.9151 0 49 0H208C223.085 0 230.627 0 235.314 4.68629C240 9.37258 240 16.9151 240 32V54C240 69.0849 240 76.6274 235.314 81.3137C230.627 86 223.085 86 208 86H49C33.9151 86 26.3726 86 21.6863 81.3137C17.1793 76.8067 17.0069 69.6578 17.0003 55.6982Z"/>
</mask>
<path fill-rule="evenodd" clip-rule="evenodd" d="M17.0003 55.6982C15.1469 55.2092 12.7372 53.8179 9.00004 51.6603L9 51.6603C3.73917 48.6229 1.10876 47.1042 0.361845 45.0521C-0.120615 43.7266 -0.120615 42.2734 0.361845 40.9479C1.10876 38.8958 3.73917 37.3771 9 34.3397C12.7372 32.1821 15.1469 30.7908 17.0003 30.3018C17.0069 16.3422 17.1793 9.19333 21.6863 4.68629C26.3726 0 33.9151 0 49 0H208C223.085 0 230.627 0 235.314 4.68629C240 9.37258 240 16.9151 240 32V54C240 69.0849 240 76.6274 235.314 81.3137C230.627 86 223.085 86 208 86H49C33.9151 86 26.3726 86 21.6863 81.3137C17.1793 76.8067 17.0069 69.6578 17.0003 55.6982Z" fill="#FAFAFA"/>
<path d="M17.0003 55.6982L19.0003 55.6972L18.9995 54.1572L17.5105 53.7643L17.0003 55.6982ZM9.00004 51.6603L7.89064 53.3244L7.94424 53.3601L8.00004 53.3923L9.00004 51.6603ZM9 51.6603L10.1094 49.9962L10.0558 49.9604L10 49.9282L9 51.6603ZM0.361845 45.0521L-1.51754 45.7362H-1.51754L0.361845 45.0521ZM0.361845 40.9479L2.24123 41.6319L0.361845 40.9479ZM9 34.3397L10 36.0718H10L9 34.3397ZM17.0003 30.3018L17.5105 32.2357L18.9995 31.8428L19.0003 30.3028L17.0003 30.3018ZM21.6863 4.68629L20.2721 3.27208V3.27208L21.6863 4.68629ZM235.314 4.68629L233.899 6.1005V6.10051L235.314 4.68629ZM235.314 81.3137L233.899 79.8995V79.8995L235.314 81.3137ZM21.6863 81.3137L23.1005 79.8995L21.6863 81.3137ZM17.5105 53.7643C16.8034 53.5778 15.8958 53.191 14.6314 52.5316C13.3766 51.8772 11.8818 51.0146 10 49.9282L8.00004 53.3923C9.85546 54.4636 11.434 55.3754 12.7817 56.0783C14.1199 56.7762 15.3438 57.3296 16.4901 57.632L17.5105 53.7643ZM10.1094 49.9962L10.1094 49.9962L7.8906 53.3244L7.89064 53.3244L10.1094 49.9962ZM10 49.9282C7.3315 48.3875 5.4647 47.3069 4.15809 46.3646C2.84432 45.4171 2.40499 44.818 2.24123 44.3681L-1.51754 45.7362C-0.934388 47.3384 0.314942 48.5247 1.81832 49.6089C3.32885 50.6983 5.40768 51.8956 8 53.3923L10 49.9282ZM2.24123 44.3681C1.91959 43.4844 1.91959 42.5156 2.24123 41.6319L-1.51754 40.2638C-2.16082 42.0312 -2.16082 43.9688 -1.51754 45.7362L2.24123 44.3681ZM2.24123 41.6319C2.40499 41.182 2.84432 40.5829 4.15809 39.6354C5.4647 38.6931 7.3315 37.6125 10 36.0718L8 32.6077C5.40768 34.1044 3.32885 35.3017 1.81832 36.3911C0.314941 37.4753 -0.934389 38.6616 -1.51754 40.2638L2.24123 41.6319ZM10 36.0718C11.8817 34.9854 13.3766 34.1228 14.6314 33.4684C15.8958 32.809 16.8034 32.4222 17.5105 32.2357L16.4901 28.368C15.3438 28.6704 14.1199 29.2238 12.7817 29.9217C11.434 30.6246 9.85543 31.5365 8 32.6077L10 36.0718ZM19.0003 30.3028C19.0036 23.2787 19.0527 18.1627 19.634 14.2427C20.2066 10.3811 21.263 7.93802 23.1005 6.1005L20.2721 3.27208C17.6026 5.9416 16.3192 9.32649 15.6772 13.656C15.0439 17.9271 15.0035 23.3654 15.0003 30.3009L19.0003 30.3028ZM23.1005 6.10051C25.0101 4.1909 27.5749 3.12392 31.7101 2.56795C35.9029 2.00425 41.401 2 49 2V-2C41.5141 -2 35.6984 -2.00425 31.1772 -1.39638C26.5984 -0.780775 23.0488 0.495394 20.2721 3.27208L23.1005 6.10051ZM49 2H208V-2H49V2ZM208 2C215.599 2 221.097 2.00425 225.29 2.56795C229.425 3.12392 231.99 4.1909 233.899 6.1005L236.728 3.27208C233.951 0.495394 230.402 -0.780776 225.823 -1.39638C221.302 -2.00425 215.486 -2 208 -2V2ZM233.899 6.10051C235.809 8.01011 236.876 10.5749 237.432 14.7101C237.996 18.9029 238 24.401 238 32H242C242 24.5141 242.004 18.6984 241.396 14.1772C240.781 9.59836 239.505 6.04876 236.728 3.27208L233.899 6.10051ZM238 32V54H242V32H238ZM238 54C238 61.599 237.996 67.0971 237.432 71.2899C236.876 75.4251 235.809 77.9899 233.899 79.8995L236.728 82.7279C239.505 79.9512 240.781 76.4016 241.396 71.8228C242.004 67.3016 242 61.4859 242 54H238ZM233.899 79.8995C231.99 81.8091 229.425 82.8761 225.29 83.432C221.097 83.9958 215.599 84 208 84V88C215.486 88 221.302 88.0042 225.823 87.3964C230.402 86.7808 233.951 85.5046 236.728 82.7279L233.899 79.8995ZM208 84H49V88H208V84ZM49 84C41.401 84 35.9029 83.9958 31.7101 83.432C27.5749 82.8761 25.0101 81.8091 23.1005 79.8995L20.2721 82.7279C23.0488 85.5046 26.5984 86.7808 31.1772 87.3964C35.6984 88.0042 41.5141 88 49 88V84ZM23.1005 79.8995C21.263 78.062 20.2066 75.6189 19.634 71.7573C19.0527 67.8373 19.0036 62.7213 19.0003 55.6972L15.0003 55.6991C15.0035 62.6346 15.0439 68.0729 15.6772 72.344C16.3192 76.6735 17.6026 80.0584 20.2721 82.7279L23.1005 79.8995Z" fill="#EEEEEE" mask="url(#path-1-inside-1_2032_27651)"/>
<path d="M39.22 34.16C38.3667 34.16 37.94 33.72 37.94 32.84V22.04H34.04C33.3067 22.04 32.94 21.68 32.94 20.96C32.94 20.2533 33.3067 19.9 34.04 19.9H44.4C45.1333 19.9 45.5 20.2533 45.5 20.96C45.5 21.68 45.1333 22.04 44.4 22.04H40.5V32.84C40.5 33.72 40.0733 34.16 39.22 34.16ZM49.0556 34.16C48.229 34.16 47.8156 33.7333 47.8156 32.88V21C47.8156 20.16 48.229 19.74 49.0556 19.74C49.8956 19.74 50.3156 20.16 50.3156 21V25.64C50.649 25.1067 51.0956 24.7067 51.6556 24.44C52.2156 24.16 52.8356 24.02 53.5156 24.02C55.8223 24.02 56.9756 25.36 56.9756 28.04V32.88C56.9756 33.7333 56.5623 34.16 55.7356 34.16C54.8956 34.16 54.4756 33.7333 54.4756 32.88V28.16C54.4756 27.4 54.329 26.8467 54.0356 26.5C53.7556 26.1533 53.3156 25.98 52.7156 25.98C51.9823 25.98 51.3956 26.2133 50.9556 26.68C50.529 27.1333 50.3156 27.74 50.3156 28.5V32.88C50.3156 33.7333 49.8956 34.16 49.0556 34.16ZM60.7548 22.22C60.2882 22.22 59.9215 22.1067 59.6548 21.88C59.4015 21.64 59.2748 21.3133 59.2748 20.9C59.2748 20.4733 59.4015 20.1467 59.6548 19.92C59.9215 19.6933 60.2882 19.58 60.7548 19.58C61.7415 19.58 62.2348 20.02 62.2348 20.9C62.2348 21.78 61.7415 22.22 60.7548 22.22ZM60.7548 34.14C60.3548 34.14 60.0482 34.02 59.8348 33.78C59.6215 33.54 59.5148 33.2067 59.5148 32.78V25.44C59.5148 24.5333 59.9282 24.08 60.7548 24.08C61.5948 24.08 62.0148 24.5333 62.0148 25.44V32.78C62.0148 33.2067 61.9082 33.54 61.6948 33.78C61.4815 34.02 61.1682 34.14 60.7548 34.14ZM68.1925 34.2C67.6192 34.2 67.0125 34.14 66.3725 34.02C65.7325 33.9 65.1592 33.6933 64.6525 33.4C64.3725 33.24 64.1992 33.0467 64.1325 32.82C64.0658 32.58 64.0725 32.36 64.1525 32.16C64.2458 31.9467 64.3925 31.7933 64.5925 31.7C64.8058 31.6067 65.0525 31.6267 65.3325 31.76C65.8658 32.0133 66.3658 32.1933 66.8325 32.3C67.2992 32.3933 67.7592 32.44 68.2125 32.44C68.8525 32.44 69.3258 32.3333 69.6325 32.12C69.9525 31.8933 70.1125 31.6 70.1125 31.24C70.1125 30.68 69.6992 30.32 68.8725 30.16L66.8725 29.78C65.1792 29.46 64.3325 28.58 64.3325 27.14C64.3325 26.5 64.5058 25.9467 64.8525 25.48C65.2125 25.0133 65.7058 24.6533 66.3325 24.4C66.9592 24.1467 67.6792 24.02 68.4925 24.02C69.6658 24.02 70.7125 24.28 71.6325 24.8C71.8858 24.9333 72.0325 25.12 72.0725 25.36C72.1258 25.5867 72.0992 25.8067 71.9925 26.02C71.8992 26.22 71.7458 26.3667 71.5325 26.46C71.3192 26.54 71.0725 26.5133 70.7925 26.38C70.3792 26.1667 69.9792 26.0133 69.5925 25.92C69.2192 25.8267 68.8592 25.78 68.5125 25.78C67.8592 25.78 67.3725 25.8933 67.0525 26.12C66.7458 26.3467 66.5925 26.6467 66.5925 27.02C66.5925 27.6067 66.9725 27.9667 67.7325 28.1L69.7325 28.48C70.5992 28.64 71.2525 28.9333 71.6925 29.36C72.1458 29.7867 72.3725 30.36 72.3725 31.08C72.3725 32.0533 71.9925 32.82 71.2325 33.38C70.4725 33.9267 69.4592 34.2 68.1925 34.2ZM81.0478 22.22C80.5811 22.22 80.2145 22.1067 79.9478 21.88C79.6945 21.64 79.5678 21.3133 79.5678 20.9C79.5678 20.4733 79.6945 20.1467 79.9478 19.92C80.2145 19.6933 80.5811 19.58 81.0478 19.58C82.0345 19.58 82.5278 20.02 82.5278 20.9C82.5278 21.78 82.0345 22.22 81.0478 22.22ZM81.0478 34.14C80.6478 34.14 80.3411 34.02 80.1278 33.78C79.9145 33.54 79.8078 33.2067 79.8078 32.78V25.44C79.8078 24.5333 80.2211 24.08 81.0478 24.08C81.8878 24.08 82.3078 24.5333 82.3078 25.44V32.78C82.3078 33.2067 82.2011 33.54 81.9878 33.78C81.7745 34.02 81.4611 34.14 81.0478 34.14ZM88.4855 34.2C87.9121 34.2 87.3055 34.14 86.6655 34.02C86.0255 33.9 85.4521 33.6933 84.9455 33.4C84.6655 33.24 84.4921 33.0467 84.4255 32.82C84.3588 32.58 84.3655 32.36 84.4455 32.16C84.5388 31.9467 84.6855 31.7933 84.8855 31.7C85.0988 31.6067 85.3455 31.6267 85.6255 31.76C86.1588 32.0133 86.6588 32.1933 87.1255 32.3C87.5921 32.3933 88.0521 32.44 88.5055 32.44C89.1455 32.44 89.6188 32.3333 89.9255 32.12C90.2455 31.8933 90.4055 31.6 90.4055 31.24C90.4055 30.68 89.9921 30.32 89.1655 30.16L87.1655 29.78C85.4721 29.46 84.6255 28.58 84.6255 27.14C84.6255 26.5 84.7988 25.9467 85.1455 25.48C85.5055 25.0133 85.9988 24.6533 86.6255 24.4C87.2521 24.1467 87.9721 24.02 88.7855 24.02C89.9588 24.02 91.0055 24.28 91.9255 24.8C92.1788 24.9333 92.3255 25.12 92.3655 25.36C92.4188 25.5867 92.3921 25.8067 92.2855 26.02C92.1921 26.22 92.0388 26.3667 91.8255 26.46C91.6121 26.54 91.3655 26.5133 91.0855 26.38C90.6721 26.1667 90.2721 26.0133 89.8855 25.92C89.5121 25.8267 89.1521 25.78 88.8055 25.78C88.1521 25.78 87.6655 25.8933 87.3455 26.12C87.0388 26.3467 86.8855 26.6467 86.8855 27.02C86.8855 27.6067 87.2655 27.9667 88.0255 28.1L90.0255 28.48C90.8921 28.64 91.5455 28.9333 91.9855 29.36C92.4388 29.7867 92.6655 30.36 92.6655 31.08C92.6655 32.0533 92.2855 32.82 91.5255 33.38C90.7655 33.9267 89.7521 34.2 88.4855 34.2ZM103.881 34.16C103.187 34.16 102.707 33.8133 102.441 33.12L99.5408 25.72C99.3674 25.2533 99.3741 24.86 99.5608 24.54C99.7608 24.22 100.107 24.06 100.601 24.06C100.894 24.06 101.134 24.1333 101.321 24.28C101.507 24.4133 101.667 24.6733 101.801 25.06L104.001 31.08L106.261 24.9C106.474 24.34 106.854 24.06 107.401 24.06C107.961 24.06 108.341 24.34 108.541 24.9L110.801 31.14L113.021 25C113.154 24.64 113.321 24.3933 113.521 24.26C113.734 24.1267 113.967 24.06 114.221 24.06C114.701 24.06 115.014 24.2333 115.161 24.58C115.307 24.9133 115.294 25.2933 115.121 25.72L112.241 33.12C111.961 33.8133 111.481 34.16 110.801 34.16C110.094 34.16 109.614 33.8133 109.361 33.12L107.321 27.7L105.321 33.1C105.067 33.8067 104.587 34.16 103.881 34.16ZM118.392 34.16C117.565 34.16 117.152 33.7333 117.152 32.88V21C117.152 20.16 117.565 19.74 118.392 19.74C119.232 19.74 119.652 20.16 119.652 21V25.64C119.985 25.1067 120.432 24.7067 120.992 24.44C121.552 24.16 122.172 24.02 122.852 24.02C125.158 24.02 126.312 25.36 126.312 28.04V32.88C126.312 33.7333 125.898 34.16 125.072 34.16C124.232 34.16 123.812 33.7333 123.812 32.88V28.16C123.812 27.4 123.665 26.8467 123.372 26.5C123.092 26.1533 122.652 25.98 122.052 25.98C121.318 25.98 120.732 26.2133 120.292 26.68C119.865 27.1333 119.652 27.74 119.652 28.5V32.88C119.652 33.7333 119.232 34.16 118.392 34.16ZM132.071 34.2C131.364 34.2 130.731 34.0667 130.171 33.8C129.624 33.52 129.191 33.1467 128.871 32.68C128.564 32.2133 128.411 31.6867 128.411 31.1C128.411 30.38 128.597 29.8133 128.971 29.4C129.344 28.9733 129.951 28.6667 130.791 28.48C131.631 28.2933 132.757 28.2 134.171 28.2H134.871V27.78C134.871 27.1133 134.724 26.6333 134.431 26.34C134.137 26.0467 133.644 25.9 132.951 25.9C132.564 25.9 132.144 25.9467 131.691 26.04C131.251 26.1333 130.784 26.2933 130.291 26.52C129.971 26.6667 129.704 26.6867 129.491 26.58C129.277 26.46 129.131 26.28 129.051 26.04C128.984 25.7867 128.997 25.5333 129.091 25.28C129.197 25.0267 129.404 24.84 129.711 24.72C130.324 24.4667 130.911 24.2867 131.471 24.18C132.044 24.0733 132.564 24.02 133.031 24.02C134.457 24.02 135.517 24.3533 136.211 25.02C136.904 25.6733 137.251 26.6933 137.251 28.08V32.88C137.251 33.7333 136.864 34.16 136.091 34.16C135.304 34.16 134.911 33.7333 134.911 32.88V32.44C134.684 32.9867 134.324 33.42 133.831 33.74C133.337 34.0467 132.751 34.2 132.071 34.2ZM132.591 32.48C133.244 32.48 133.784 32.2533 134.211 31.8C134.651 31.3467 134.871 30.7733 134.871 30.08V29.64H134.191C132.937 29.64 132.064 29.74 131.571 29.94C131.091 30.1267 130.851 30.4733 130.851 30.98C130.851 31.42 131.004 31.78 131.311 32.06C131.617 32.34 132.044 32.48 132.591 32.48ZM144.268 34.2C141.682 34.2 140.388 32.92 140.388 30.36V26.1H139.348C138.682 26.1 138.348 25.7867 138.348 25.16C138.348 24.5333 138.682 24.22 139.348 24.22H140.388V22.4C140.388 21.56 140.808 21.14 141.648 21.14C142.475 21.14 142.888 21.56 142.888 22.4V24.22H145.008C145.675 24.22 146.008 24.5333 146.008 25.16C146.008 25.7867 145.675 26.1 145.008 26.1H142.888V30.22C142.888 30.86 143.028 31.34 143.308 31.66C143.588 31.98 144.042 32.14 144.668 32.14C144.895 32.14 145.095 32.12 145.268 32.08C145.442 32.04 145.595 32.0133 145.728 32C145.888 31.9867 146.022 32.04 146.128 32.16C146.235 32.2667 146.288 32.4933 146.288 32.84C146.288 33.1067 146.242 33.3467 146.148 33.56C146.068 33.76 145.915 33.9 145.688 33.98C145.515 34.0333 145.288 34.08 145.008 34.12C144.728 34.1733 144.482 34.2 144.268 34.2ZM155.374 37.76C154.92 37.76 154.607 37.5933 154.434 37.26C154.26 36.9267 154.267 36.5467 154.454 36.12L155.594 33.6L152.174 25.72C151.987 25.28 151.987 24.8933 152.174 24.56C152.36 24.2267 152.727 24.06 153.274 24.06C153.58 24.06 153.827 24.1333 154.014 24.28C154.2 24.4133 154.367 24.6733 154.514 25.06L156.914 31.06L159.374 25.04C159.52 24.6667 159.694 24.4133 159.894 24.28C160.094 24.1333 160.36 24.06 160.694 24.06C161.12 24.06 161.42 24.2267 161.594 24.56C161.767 24.8933 161.76 25.2733 161.574 25.7L156.714 36.8C156.54 37.1733 156.354 37.4267 156.154 37.56C155.954 37.6933 155.694 37.76 155.374 37.76ZM167.686 34.2C166.672 34.2 165.792 33.9933 165.046 33.58C164.299 33.1667 163.719 32.58 163.306 31.82C162.892 31.0467 162.686 30.14 162.686 29.1C162.686 28.06 162.892 27.16 163.306 26.4C163.719 25.64 164.299 25.0533 165.046 24.64C165.792 24.2267 166.672 24.02 167.686 24.02C168.699 24.02 169.579 24.2267 170.326 24.64C171.072 25.0533 171.652 25.64 172.066 26.4C172.479 27.16 172.686 28.06 172.686 29.1C172.686 30.14 172.479 31.0467 172.066 31.82C171.652 32.58 171.072 33.1667 170.326 33.58C169.579 33.9933 168.699 34.2 167.686 34.2ZM167.686 32.3C168.432 32.3 169.032 32.0333 169.486 31.5C169.939 30.9533 170.166 30.1533 170.166 29.1C170.166 28.0333 169.939 27.24 169.486 26.72C169.032 26.1867 168.432 25.92 167.686 25.92C166.939 25.92 166.339 26.1867 165.886 26.72C165.432 27.24 165.206 28.0333 165.206 29.1C165.206 30.1533 165.432 30.9533 165.886 31.5C166.339 32.0333 166.939 32.3 167.686 32.3ZM178.289 34.2C175.889 34.2 174.689 32.8533 174.689 30.16V25.32C174.689 24.48 175.103 24.06 175.929 24.06C176.769 24.06 177.189 24.48 177.189 25.32V30.2C177.189 30.8933 177.329 31.4067 177.609 31.74C177.889 32.0733 178.336 32.24 178.949 32.24C179.616 32.24 180.163 32.0133 180.589 31.56C181.016 31.0933 181.229 30.48 181.229 29.72V25.32C181.229 24.48 181.643 24.06 182.469 24.06C183.309 24.06 183.729 24.48 183.729 25.32V32.88C183.729 33.7333 183.323 34.16 182.509 34.16C181.696 34.16 181.289 33.7333 181.289 32.88V32.54C180.636 33.6467 179.636 34.2 178.289 34.2ZM38.82 66.2C37.7933 66.2 36.9 65.9933 36.14 65.58C35.38 65.1533 34.7933 64.5533 34.38 63.78C33.9667 63.0067 33.76 62.1 33.76 61.06C33.76 60.02 33.9667 59.1267 34.38 58.38C34.7933 57.62 35.38 57.04 36.14 56.64C36.9 56.2267 37.7933 56.02 38.82 56.02C39.26 56.02 39.7333 56.08 40.24 56.2C40.76 56.32 41.2467 56.52 41.7 56.8C41.9667 56.96 42.12 57.1667 42.16 57.42C42.2133 57.6733 42.18 57.9067 42.06 58.12C41.9533 58.3333 41.7867 58.4867 41.56 58.58C41.3467 58.6733 41.1 58.64 40.82 58.48C40.2067 58.1333 39.6133 57.96 39.04 57.96C38.1733 57.96 37.5 58.2333 37.02 58.78C36.5533 59.3133 36.32 60.08 36.32 61.08C36.32 62.0667 36.5533 62.8467 37.02 63.42C37.5 63.98 38.1733 64.26 39.04 64.26C39.6133 64.26 40.2067 64.0933 40.82 63.76C41.1 63.6 41.3467 63.5667 41.56 63.66C41.7733 63.7533 41.9267 63.9133 42.02 64.14C42.1133 64.3533 42.1333 64.5867 42.08 64.84C42.0267 65.08 41.8733 65.28 41.62 65.44C41.18 65.7067 40.7133 65.9 40.22 66.02C39.7267 66.14 39.26 66.2 38.82 66.2ZM46.895 66.2C46.1883 66.2 45.555 66.0667 44.995 65.8C44.4483 65.52 44.015 65.1467 43.695 64.68C43.3883 64.2133 43.235 63.6867 43.235 63.1C43.235 62.38 43.4217 61.8133 43.795 61.4C44.1683 60.9733 44.775 60.6667 45.615 60.48C46.455 60.2933 47.5817 60.2 48.995 60.2H49.695V59.78C49.695 59.1133 49.5483 58.6333 49.255 58.34C48.9617 58.0467 48.4683 57.9 47.775 57.9C47.3883 57.9 46.9683 57.9467 46.515 58.04C46.075 58.1333 45.6083 58.2933 45.115 58.52C44.795 58.6667 44.5283 58.6867 44.315 58.58C44.1017 58.46 43.955 58.28 43.875 58.04C43.8083 57.7867 43.8217 57.5333 43.915 57.28C44.0217 57.0267 44.2283 56.84 44.535 56.72C45.1483 56.4667 45.735 56.2867 46.295 56.18C46.8683 56.0733 47.3883 56.02 47.855 56.02C49.2817 56.02 50.3417 56.3533 51.035 57.02C51.7283 57.6733 52.075 58.6933 52.075 60.08V64.88C52.075 65.7333 51.6883 66.16 50.915 66.16C50.1283 66.16 49.735 65.7333 49.735 64.88V64.44C49.5083 64.9867 49.1483 65.42 48.655 65.74C48.1617 66.0467 47.575 66.2 46.895 66.2ZM47.415 64.48C48.0683 64.48 48.6083 64.2533 49.035 63.8C49.475 63.3467 49.695 62.7733 49.695 62.08V61.64H49.015C47.7617 61.64 46.8883 61.74 46.395 61.94C45.915 62.1267 45.675 62.4733 45.675 62.98C45.675 63.42 45.8283 63.78 46.135 64.06C46.4417 64.34 46.8683 64.48 47.415 64.48ZM55.8525 66.16C55.0258 66.16 54.6125 65.7333 54.6125 64.88V57.32C54.6125 56.48 55.0192 56.06 55.8325 56.06C56.6458 56.06 57.0525 56.48 57.0525 57.32V57.74C57.3858 57.18 57.8325 56.7533 58.3925 56.46C58.9658 56.1667 59.6058 56.02 60.3125 56.02C62.6192 56.02 63.7725 57.36 63.7725 60.04V64.88C63.7725 65.7333 63.3592 66.16 62.5325 66.16C61.6925 66.16 61.2725 65.7333 61.2725 64.88V60.16C61.2725 59.4 61.1258 58.8467 60.8325 58.5C60.5525 58.1533 60.1125 57.98 59.5125 57.98C58.7792 57.98 58.1925 58.2133 57.7525 58.68C57.3258 59.1333 57.1125 59.74 57.1125 60.5V64.88C57.1125 65.7333 56.6925 66.16 55.8525 66.16ZM74.9614 66.2C74.2547 66.2 73.6214 66.0667 73.0614 65.8C72.5147 65.52 72.0814 65.1467 71.7614 64.68C71.4547 64.2133 71.3014 63.6867 71.3014 63.1C71.3014 62.38 71.4881 61.8133 71.8614 61.4C72.2347 60.9733 72.8414 60.6667 73.6814 60.48C74.5214 60.2933 75.6481 60.2 77.0614 60.2H77.7614V59.78C77.7614 59.1133 77.6147 58.6333 77.3214 58.34C77.0281 58.0467 76.5347 57.9 75.8414 57.9C75.4547 57.9 75.0347 57.9467 74.5814 58.04C74.1414 58.1333 73.6747 58.2933 73.1814 58.52C72.8614 58.6667 72.5947 58.6867 72.3814 58.58C72.1681 58.46 72.0214 58.28 71.9414 58.04C71.8747 57.7867 71.8881 57.5333 71.9814 57.28C72.0881 57.0267 72.2947 56.84 72.6014 56.72C73.2147 56.4667 73.8014 56.2867 74.3614 56.18C74.9347 56.0733 75.4547 56.02 75.9214 56.02C77.3481 56.02 78.4081 56.3533 79.1014 57.02C79.7947 57.6733 80.1414 58.6933 80.1414 60.08V64.88C80.1414 65.7333 79.7547 66.16 78.9814 66.16C78.1947 66.16 77.8014 65.7333 77.8014 64.88V64.44C77.5747 64.9867 77.2147 65.42 76.7214 65.74C76.2281 66.0467 75.6414 66.2 74.9614 66.2ZM75.4814 64.48C76.1347 64.48 76.6747 64.2533 77.1014 63.8C77.5414 63.3467 77.7614 62.7733 77.7614 62.08V61.64H77.0814C75.8281 61.64 74.9547 61.74 74.4614 61.94C73.9814 62.1267 73.7414 62.4733 73.7414 62.98C73.7414 63.42 73.8947 63.78 74.2014 64.06C74.5081 64.34 74.9347 64.48 75.4814 64.48ZM87.1989 66.2C86.1722 66.2 85.2789 65.9933 84.5189 65.58C83.7589 65.1533 83.1722 64.5533 82.7589 63.78C82.3456 63.0067 82.1389 62.1 82.1389 61.06C82.1389 60.02 82.3456 59.1267 82.7589 58.38C83.1722 57.62 83.7589 57.04 84.5189 56.64C85.2789 56.2267 86.1722 56.02 87.1989 56.02C87.6389 56.02 88.1122 56.08 88.6189 56.2C89.1389 56.32 89.6256 56.52 90.0789 56.8C90.3456 56.96 90.4989 57.1667 90.5389 57.42C90.5922 57.6733 90.5589 57.9067 90.4389 58.12C90.3322 58.3333 90.1656 58.4867 89.9389 58.58C89.7256 58.6733 89.4789 58.64 89.1989 58.48C88.5856 58.1333 87.9922 57.96 87.4189 57.96C86.5522 57.96 85.8789 58.2333 85.3989 58.78C84.9322 59.3133 84.6989 60.08 84.6989 61.08C84.6989 62.0667 84.9322 62.8467 85.3989 63.42C85.8789 63.98 86.5522 64.26 87.4189 64.26C87.9922 64.26 88.5856 64.0933 89.1989 63.76C89.4789 63.6 89.7256 63.5667 89.9389 63.66C90.1522 63.7533 90.3056 63.9133 90.3989 64.14C90.4922 64.3533 90.5122 64.5867 90.4589 64.84C90.4056 65.08 90.2522 65.28 89.9989 65.44C89.5589 65.7067 89.0922 65.9 88.5989 66.02C88.1056 66.14 87.6389 66.2 87.1989 66.2ZM93.3525 66.16C92.5258 66.16 92.1125 65.7333 92.1125 64.88V53C92.1125 52.16 92.5258 51.74 93.3525 51.74C94.1925 51.74 94.6125 52.16 94.6125 53V57.64C94.9458 57.1067 95.3925 56.7067 95.9525 56.44C96.5125 56.16 97.1325 56.02 97.8125 56.02C100.119 56.02 101.273 57.36 101.273 60.04V64.88C101.273 65.7333 100.859 66.16 100.033 66.16C99.1925 66.16 98.7725 65.7333 98.7725 64.88V60.16C98.7725 59.4 98.6258 58.8467 98.3325 58.5C98.0525 58.1533 97.6125 57.98 97.0125 57.98C96.2792 57.98 95.6925 58.2133 95.2525 58.68C94.8258 59.1333 94.6125 59.74 94.6125 60.5V64.88C94.6125 65.7333 94.1925 66.16 93.3525 66.16ZM105.052 54.22C104.585 54.22 104.218 54.1067 103.952 53.88C103.698 53.64 103.572 53.3133 103.572 52.9C103.572 52.4733 103.698 52.1467 103.952 51.92C104.218 51.6933 104.585 51.58 105.052 51.58C106.038 51.58 106.532 52.02 106.532 52.9C106.532 53.78 106.038 54.22 105.052 54.22ZM105.052 66.14C104.652 66.14 104.345 66.02 104.132 65.78C103.918 65.54 103.812 65.2067 103.812 64.78V57.44C103.812 56.5333 104.225 56.08 105.052 56.08C105.892 56.08 106.312 56.5333 106.312 57.44V64.78C106.312 65.2067 106.205 65.54 105.992 65.78C105.778 66.02 105.465 66.14 105.052 66.14ZM113.729 66.2C112.623 66.2 111.669 65.9933 110.869 65.58C110.069 65.1667 109.449 64.58 109.009 63.82C108.583 63.06 108.369 62.16 108.369 61.12C108.369 60.1067 108.576 59.22 108.989 58.46C109.416 57.7 109.996 57.1067 110.729 56.68C111.476 56.24 112.323 56.02 113.269 56.02C114.656 56.02 115.749 56.46 116.549 57.34C117.363 58.22 117.769 59.42 117.769 60.94C117.769 61.4333 117.449 61.68 116.809 61.68H110.769C110.956 63.4267 111.956 64.3 113.769 64.3C114.116 64.3 114.503 64.26 114.929 64.18C115.369 64.0867 115.783 63.9333 116.169 63.72C116.516 63.52 116.809 63.46 117.049 63.54C117.289 63.6067 117.456 63.7467 117.549 63.96C117.656 64.1733 117.669 64.4133 117.589 64.68C117.523 64.9333 117.336 65.1533 117.029 65.34C116.563 65.6333 116.023 65.8533 115.409 66C114.809 66.1333 114.249 66.2 113.729 66.2ZM113.369 57.72C112.636 57.72 112.043 57.9467 111.589 58.4C111.136 58.8533 110.863 59.4667 110.769 60.24H115.689C115.636 59.4267 115.409 58.8067 115.009 58.38C114.623 57.94 114.076 57.72 113.369 57.72ZM123.553 66.16C122.886 66.16 122.393 65.8067 122.073 65.1L118.893 57.72C118.706 57.28 118.7 56.8933 118.873 56.56C119.06 56.2267 119.426 56.06 119.973 56.06C120.28 56.06 120.526 56.1333 120.713 56.28C120.9 56.4133 121.066 56.6733 121.213 57.06L123.613 63.06L126.093 57.04C126.24 56.6667 126.406 56.4133 126.593 56.28C126.793 56.1333 127.06 56.06 127.393 56.06C127.82 56.06 128.12 56.2267 128.293 56.56C128.466 56.8933 128.46 57.2733 128.273 57.7L125.033 65.1C124.74 65.8067 124.246 66.16 123.553 66.16ZM134.765 66.2C133.658 66.2 132.705 65.9933 131.905 65.58C131.105 65.1667 130.485 64.58 130.045 63.82C129.618 63.06 129.405 62.16 129.405 61.12C129.405 60.1067 129.611 59.22 130.025 58.46C130.451 57.7 131.031 57.1067 131.765 56.68C132.511 56.24 133.358 56.02 134.305 56.02C135.691 56.02 136.785 56.46 137.585 57.34C138.398 58.22 138.805 59.42 138.805 60.94C138.805 61.4333 138.485 61.68 137.845 61.68H131.805C131.991 63.4267 132.991 64.3 134.805 64.3C135.151 64.3 135.538 64.26 135.965 64.18C136.405 64.0867 136.818 63.9333 137.205 63.72C137.551 63.52 137.845 63.46 138.085 63.54C138.325 63.6067 138.491 63.7467 138.585 63.96C138.691 64.1733 138.705 64.4133 138.625 64.68C138.558 64.9333 138.371 65.1533 138.065 65.34C137.598 65.6333 137.058 65.8533 136.445 66C135.845 66.1333 135.285 66.2 134.765 66.2ZM134.405 57.72C133.671 57.72 133.078 57.9467 132.625 58.4C132.171 58.8533 131.898 59.4667 131.805 60.24H136.725C136.671 59.4267 136.445 58.8067 136.045 58.38C135.658 57.94 135.111 57.72 134.405 57.72ZM141.984 61.94C141.464 61.94 141.184 61.6333 141.144 61.02L140.544 53.38C140.504 52.8867 140.611 52.4933 140.864 52.2C141.118 51.8933 141.491 51.74 141.984 51.74C142.464 51.74 142.824 51.8933 143.064 52.2C143.318 52.4933 143.424 52.8867 143.384 53.38L142.784 61.02C142.744 61.6333 142.478 61.94 141.984 61.94ZM141.984 66.1C141.531 66.1 141.164 65.96 140.884 65.68C140.618 65.4 140.484 65.04 140.484 64.6C140.484 64.1733 140.618 63.8267 140.884 63.56C141.164 63.28 141.531 63.14 141.984 63.14C142.451 63.14 142.811 63.28 143.064 63.56C143.331 63.8267 143.464 64.1733 143.464 64.6C143.464 65.04 143.331 65.4 143.064 65.68C142.811 65.96 142.451 66.1 141.984 66.1Z" fill="#212121"/>
</svg>
