<svg width="32" height="38" viewBox="0 0 32 38" fill="none" xmlns="http://www.w3.org/2000/svg">
<path fill-rule="evenodd" clip-rule="evenodd" d="M16.3207 24.8985H15.6796C11.2734 24.8985 7.70188 21.37 7.70188 17.0206V8.54461C7.70188 4.1935 11.2734 0.666656 15.6796 0.666656H16.3207C20.7269 0.666656 24.3002 4.1935 24.3002 8.54461V17.0206C24.3002 21.37 20.7269 24.8985 16.3207 24.8985ZM28.0317 16.7686C28.0317 15.7987 28.8273 15.0148 29.8077 15.0148C30.788 15.0148 31.5837 15.7987 31.5837 16.7686C31.5837 24.6588 25.5347 31.1741 17.7772 32.0492V35.5795C17.7772 36.5476 16.9816 37.3333 16.0012 37.3333C15.0191 37.3333 14.2252 36.5476 14.2252 35.5795V32.0492C6.46598 31.1741 0.416992 24.6588 0.416992 16.7686C0.416992 15.7987 1.21263 15.0148 2.19297 15.0148C3.17331 15.0148 3.96895 15.7987 3.96895 16.7686C3.96895 23.3189 9.36615 28.6486 16.0012 28.6486C22.6345 28.6486 28.0317 23.3189 28.0317 16.7686Z" fill="currentColor"/>
</svg>
