<svg width="240" height="86" viewBox="0 0 240 86" fill="none" xmlns="http://www.w3.org/2000/svg">
<mask id="path-1-inside-1_2032_27829" fill="white">
<path fill-rule="evenodd" clip-rule="evenodd" d="M17.0003 55.6982C15.1469 55.2092 12.7372 53.8179 9.00004 51.6603L9 51.6603C3.73917 48.6229 1.10876 47.1042 0.361845 45.0521C-0.120615 43.7266 -0.120615 42.2734 0.361845 40.9479C1.10876 38.8958 3.73917 37.3771 9 34.3397C12.7372 32.1821 15.1469 30.7908 17.0003 30.3018C17.0069 16.3422 17.1793 9.19333 21.6863 4.68629C26.3726 0 33.9151 0 49 0H208C223.085 0 230.627 0 235.314 4.68629C240 9.37258 240 16.9151 240 32V54C240 69.0849 240 76.6274 235.314 81.3137C230.627 86 223.085 86 208 86H49C33.9151 86 26.3726 86 21.6863 81.3137C17.1793 76.8067 17.0069 69.6578 17.0003 55.6982Z"/>
</mask>
<path fill-rule="evenodd" clip-rule="evenodd" d="M17.0003 55.6982C15.1469 55.2092 12.7372 53.8179 9.00004 51.6603L9 51.6603C3.73917 48.6229 1.10876 47.1042 0.361845 45.0521C-0.120615 43.7266 -0.120615 42.2734 0.361845 40.9479C1.10876 38.8958 3.73917 37.3771 9 34.3397C12.7372 32.1821 15.1469 30.7908 17.0003 30.3018C17.0069 16.3422 17.1793 9.19333 21.6863 4.68629C26.3726 0 33.9151 0 49 0H208C223.085 0 230.627 0 235.314 4.68629C240 9.37258 240 16.9151 240 32V54C240 69.0849 240 76.6274 235.314 81.3137C230.627 86 223.085 86 208 86H49C33.9151 86 26.3726 86 21.6863 81.3137C17.1793 76.8067 17.0069 69.6578 17.0003 55.6982Z" fill="#FAFAFA"/>
<path d="M17.0003 55.6982L19.0003 55.6972L18.9995 54.1572L17.5105 53.7643L17.0003 55.6982ZM9.00004 51.6603L7.89064 53.3244L7.94424 53.3601L8.00004 53.3923L9.00004 51.6603ZM9 51.6603L10.1094 49.9962L10.0558 49.9604L10 49.9282L9 51.6603ZM0.361845 45.0521L-1.51754 45.7362H-1.51754L0.361845 45.0521ZM0.361845 40.9479L2.24123 41.6319L0.361845 40.9479ZM9 34.3397L10 36.0718H10L9 34.3397ZM17.0003 30.3018L17.5105 32.2357L18.9995 31.8428L19.0003 30.3028L17.0003 30.3018ZM21.6863 4.68629L20.2721 3.27208V3.27208L21.6863 4.68629ZM235.314 4.68629L233.899 6.1005V6.10051L235.314 4.68629ZM235.314 81.3137L233.899 79.8995V79.8995L235.314 81.3137ZM21.6863 81.3137L23.1005 79.8995L21.6863 81.3137ZM17.5105 53.7643C16.8034 53.5778 15.8958 53.191 14.6314 52.5316C13.3766 51.8772 11.8818 51.0146 10 49.9282L8.00004 53.3923C9.85546 54.4636 11.434 55.3754 12.7817 56.0783C14.1199 56.7762 15.3438 57.3296 16.4901 57.632L17.5105 53.7643ZM10.1094 49.9962L10.1094 49.9962L7.8906 53.3244L7.89064 53.3244L10.1094 49.9962ZM10 49.9282C7.3315 48.3875 5.4647 47.3069 4.15809 46.3646C2.84432 45.4171 2.40499 44.818 2.24123 44.3681L-1.51754 45.7362C-0.934388 47.3384 0.314942 48.5247 1.81832 49.6089C3.32885 50.6983 5.40768 51.8956 8 53.3923L10 49.9282ZM2.24123 44.3681C1.91959 43.4844 1.91959 42.5156 2.24123 41.6319L-1.51754 40.2638C-2.16082 42.0312 -2.16082 43.9688 -1.51754 45.7362L2.24123 44.3681ZM2.24123 41.6319C2.40499 41.182 2.84432 40.5829 4.15809 39.6354C5.4647 38.6931 7.3315 37.6125 10 36.0718L8 32.6077C5.40768 34.1044 3.32885 35.3017 1.81832 36.3911C0.314941 37.4753 -0.934389 38.6616 -1.51754 40.2638L2.24123 41.6319ZM10 36.0718C11.8817 34.9854 13.3766 34.1228 14.6314 33.4684C15.8958 32.809 16.8034 32.4222 17.5105 32.2357L16.4901 28.368C15.3438 28.6704 14.1199 29.2238 12.7817 29.9217C11.434 30.6246 9.85543 31.5365 8 32.6077L10 36.0718ZM19.0003 30.3028C19.0036 23.2787 19.0527 18.1627 19.634 14.2427C20.2066 10.3811 21.263 7.93802 23.1005 6.1005L20.2721 3.27208C17.6026 5.9416 16.3192 9.32649 15.6772 13.656C15.0439 17.9271 15.0035 23.3654 15.0003 30.3009L19.0003 30.3028ZM23.1005 6.10051C25.0101 4.1909 27.5749 3.12392 31.7101 2.56795C35.9029 2.00425 41.401 2 49 2V-2C41.5141 -2 35.6984 -2.00425 31.1772 -1.39638C26.5984 -0.780775 23.0488 0.495394 20.2721 3.27208L23.1005 6.10051ZM49 2H208V-2H49V2ZM208 2C215.599 2 221.097 2.00425 225.29 2.56795C229.425 3.12392 231.99 4.1909 233.899 6.1005L236.728 3.27208C233.951 0.495394 230.402 -0.780776 225.823 -1.39638C221.302 -2.00425 215.486 -2 208 -2V2ZM233.899 6.10051C235.809 8.01011 236.876 10.5749 237.432 14.7101C237.996 18.9029 238 24.401 238 32H242C242 24.5141 242.004 18.6984 241.396 14.1772C240.781 9.59836 239.505 6.04876 236.728 3.27208L233.899 6.10051ZM238 32V54H242V32H238ZM238 54C238 61.599 237.996 67.0971 237.432 71.2899C236.876 75.4251 235.809 77.9899 233.899 79.8995L236.728 82.7279C239.505 79.9512 240.781 76.4016 241.396 71.8228C242.004 67.3016 242 61.4859 242 54H238ZM233.899 79.8995C231.99 81.8091 229.425 82.8761 225.29 83.432C221.097 83.9958 215.599 84 208 84V88C215.486 88 221.302 88.0042 225.823 87.3964C230.402 86.7808 233.951 85.5046 236.728 82.7279L233.899 79.8995ZM208 84H49V88H208V84ZM49 84C41.401 84 35.9029 83.9958 31.7101 83.432C27.5749 82.8761 25.0101 81.8091 23.1005 79.8995L20.2721 82.7279C23.0488 85.5046 26.5984 86.7808 31.1772 87.3964C35.6984 88.0042 41.5141 88 49 88V84ZM23.1005 79.8995C21.263 78.062 20.2066 75.6189 19.634 71.7573C19.0527 67.8373 19.0036 62.7213 19.0003 55.6972L15.0003 55.6991C15.0035 62.6346 15.0439 68.0729 15.6772 72.344C16.3192 76.6735 17.6026 80.0584 20.2721 82.7279L23.1005 79.8995Z" fill="#EEEEEE" mask="url(#path-1-inside-1_2032_27829)"/>
<path d="M39.5 34.16C38.82 34.16 38.3533 33.8 38.1 33.08L33.92 21.26C33.7733 20.8333 33.8 20.4733 34 20.18C34.2133 19.8867 34.5667 19.74 35.06 19.74C35.42 19.74 35.7 19.8267 35.9 20C36.1 20.16 36.26 20.42 36.38 20.78L39.58 30.3L42.94 20.8C43.1933 20.0933 43.62 19.74 44.22 19.74C44.54 19.74 44.7933 19.8267 44.98 20C45.1667 20.1733 45.3267 20.4467 45.46 20.82L48.76 30.44L52.06 20.78C52.18 20.4333 52.34 20.1733 52.54 20C52.74 19.8267 53.0133 19.74 53.36 19.74C53.7867 19.74 54.1 19.8867 54.3 20.18C54.5 20.4733 54.5267 20.8333 54.38 21.26L50.16 33.1C50.0267 33.46 49.8533 33.7267 49.64 33.9C49.4267 34.0733 49.14 34.16 48.78 34.16C48.42 34.16 48.1333 34.0733 47.92 33.9C47.7067 33.7267 47.5333 33.4533 47.4 33.08L44.14 23.82L40.86 33.1C40.7267 33.46 40.5533 33.7267 40.34 33.9C40.14 34.0733 39.86 34.16 39.5 34.16ZM58.8017 34.16C57.9751 34.16 57.5617 33.7333 57.5617 32.88V21C57.5617 20.16 57.9751 19.74 58.8017 19.74C59.6417 19.74 60.0617 20.16 60.0617 21V25.64C60.3951 25.1067 60.8417 24.7067 61.4017 24.44C61.9617 24.16 62.5817 24.02 63.2617 24.02C65.5684 24.02 66.7217 25.36 66.7217 28.04V32.88C66.7217 33.7333 66.3084 34.16 65.4817 34.16C64.6417 34.16 64.2217 33.7333 64.2217 32.88V28.16C64.2217 27.4 64.0751 26.8467 63.7817 26.5C63.5017 26.1533 63.0617 25.98 62.4617 25.98C61.7284 25.98 61.1417 26.2133 60.7017 26.68C60.2751 27.1333 60.0617 27.74 60.0617 28.5V32.88C60.0617 33.7333 59.6417 34.16 58.8017 34.16ZM72.4809 34.2C71.7743 34.2 71.1409 34.0667 70.5809 33.8C70.0343 33.52 69.6009 33.1467 69.2809 32.68C68.9743 32.2133 68.8209 31.6867 68.8209 31.1C68.8209 30.38 69.0076 29.8133 69.3809 29.4C69.7543 28.9733 70.3609 28.6667 71.2009 28.48C72.0409 28.2933 73.1676 28.2 74.5809 28.2H75.2809V27.78C75.2809 27.1133 75.1343 26.6333 74.8409 26.34C74.5476 26.0467 74.0543 25.9 73.3609 25.9C72.9743 25.9 72.5543 25.9467 72.1009 26.04C71.6609 26.1333 71.1943 26.2933 70.7009 26.52C70.3809 26.6667 70.1143 26.6867 69.9009 26.58C69.6876 26.46 69.5409 26.28 69.4609 26.04C69.3943 25.7867 69.4076 25.5333 69.5009 25.28C69.6076 25.0267 69.8143 24.84 70.1209 24.72C70.7343 24.4667 71.3209 24.2867 71.8809 24.18C72.4543 24.0733 72.9743 24.02 73.4409 24.02C74.8676 24.02 75.9276 24.3533 76.6209 25.02C77.3143 25.6733 77.6609 26.6933 77.6609 28.08V32.88C77.6609 33.7333 77.2743 34.16 76.5009 34.16C75.7143 34.16 75.3209 33.7333 75.3209 32.88V32.44C75.0943 32.9867 74.7343 33.42 74.2409 33.74C73.7476 34.0467 73.1609 34.2 72.4809 34.2ZM73.0009 32.48C73.6543 32.48 74.1943 32.2533 74.6209 31.8C75.0609 31.3467 75.2809 30.7733 75.2809 30.08V29.64H74.6009C73.3476 29.64 72.4743 29.74 71.9809 29.94C71.5009 30.1267 71.2609 30.4733 71.2609 30.98C71.2609 31.42 71.4143 31.78 71.7209 32.06C72.0276 32.34 72.4543 32.48 73.0009 32.48ZM84.6784 34.2C82.0918 34.2 80.7984 32.92 80.7984 30.36V26.1H79.7584C79.0918 26.1 78.7584 25.7867 78.7584 25.16C78.7584 24.5333 79.0918 24.22 79.7584 24.22H80.7984V22.4C80.7984 21.56 81.2184 21.14 82.0584 21.14C82.8851 21.14 83.2984 21.56 83.2984 22.4V24.22H85.4184C86.0851 24.22 86.4184 24.5333 86.4184 25.16C86.4184 25.7867 86.0851 26.1 85.4184 26.1H83.2984V30.22C83.2984 30.86 83.4384 31.34 83.7184 31.66C83.9984 31.98 84.4518 32.14 85.0784 32.14C85.3051 32.14 85.5051 32.12 85.6784 32.08C85.8518 32.04 86.0051 32.0133 86.1384 32C86.2984 31.9867 86.4318 32.04 86.5384 32.16C86.6451 32.2667 86.6984 32.4933 86.6984 32.84C86.6984 33.1067 86.6518 33.3467 86.5584 33.56C86.4784 33.76 86.3251 33.9 86.0984 33.98C85.9251 34.0333 85.6984 34.08 85.4184 34.12C85.1384 34.1733 84.8918 34.2 84.6784 34.2ZM94.5439 22.22C94.0772 22.22 93.7106 22.1067 93.4439 21.88C93.1906 21.64 93.0639 21.3133 93.0639 20.9C93.0639 20.4733 93.1906 20.1467 93.4439 19.92C93.7106 19.6933 94.0772 19.58 94.5439 19.58C95.5306 19.58 96.0239 20.02 96.0239 20.9C96.0239 21.78 95.5306 22.22 94.5439 22.22ZM94.5439 34.14C94.1439 34.14 93.8372 34.02 93.6239 33.78C93.4106 33.54 93.3039 33.2067 93.3039 32.78V25.44C93.3039 24.5333 93.7172 24.08 94.5439 24.08C95.3839 24.08 95.8039 24.5333 95.8039 25.44V32.78C95.8039 33.2067 95.6972 33.54 95.4839 33.78C95.2706 34.02 94.9572 34.14 94.5439 34.14ZM101.982 34.2C101.408 34.2 100.802 34.14 100.162 34.02C99.5216 33.9 98.9482 33.6933 98.4416 33.4C98.1616 33.24 97.9882 33.0467 97.9216 32.82C97.8549 32.58 97.8616 32.36 97.9416 32.16C98.0349 31.9467 98.1816 31.7933 98.3816 31.7C98.5949 31.6067 98.8416 31.6267 99.1216 31.76C99.6549 32.0133 100.155 32.1933 100.622 32.3C101.088 32.3933 101.548 32.44 102.002 32.44C102.642 32.44 103.115 32.3333 103.422 32.12C103.742 31.8933 103.902 31.6 103.902 31.24C103.902 30.68 103.488 30.32 102.662 30.16L100.662 29.78C98.9682 29.46 98.1216 28.58 98.1216 27.14C98.1216 26.5 98.2949 25.9467 98.6416 25.48C99.0016 25.0133 99.4949 24.6533 100.122 24.4C100.748 24.1467 101.468 24.02 102.282 24.02C103.455 24.02 104.502 24.28 105.422 24.8C105.675 24.9333 105.822 25.12 105.862 25.36C105.915 25.5867 105.888 25.8067 105.782 26.02C105.688 26.22 105.535 26.3667 105.322 26.46C105.108 26.54 104.862 26.5133 104.582 26.38C104.168 26.1667 103.768 26.0133 103.382 25.92C103.008 25.8267 102.648 25.78 102.302 25.78C101.648 25.78 101.162 25.8933 100.842 26.12C100.535 26.3467 100.382 26.6467 100.382 27.02C100.382 27.6067 100.762 27.9667 101.522 28.1L103.522 28.48C104.388 28.64 105.042 28.9333 105.482 29.36C105.935 29.7867 106.162 30.36 106.162 31.08C106.162 32.0533 105.782 32.82 105.022 33.38C104.262 33.9267 103.248 34.2 101.982 34.2ZM116.077 37.76C115.624 37.76 115.31 37.5933 115.137 37.26C114.964 36.9267 114.97 36.5467 115.157 36.12L116.297 33.6L112.877 25.72C112.69 25.28 112.69 24.8933 112.877 24.56C113.064 24.2267 113.43 24.06 113.977 24.06C114.284 24.06 114.53 24.1333 114.717 24.28C114.904 24.4133 115.07 24.6733 115.217 25.06L117.617 31.06L120.077 25.04C120.224 24.6667 120.397 24.4133 120.597 24.28C120.797 24.1333 121.064 24.06 121.397 24.06C121.824 24.06 122.124 24.2267 122.297 24.56C122.47 24.8933 122.464 25.2733 122.277 25.7L117.417 36.8C117.244 37.1733 117.057 37.4267 116.857 37.56C116.657 37.6933 116.397 37.76 116.077 37.76ZM128.389 34.2C127.376 34.2 126.496 33.9933 125.749 33.58C125.002 33.1667 124.422 32.58 124.009 31.82C123.596 31.0467 123.389 30.14 123.389 29.1C123.389 28.06 123.596 27.16 124.009 26.4C124.422 25.64 125.002 25.0533 125.749 24.64C126.496 24.2267 127.376 24.02 128.389 24.02C129.402 24.02 130.282 24.2267 131.029 24.64C131.776 25.0533 132.356 25.64 132.769 26.4C133.182 27.16 133.389 28.06 133.389 29.1C133.389 30.14 133.182 31.0467 132.769 31.82C132.356 32.58 131.776 33.1667 131.029 33.58C130.282 33.9933 129.402 34.2 128.389 34.2ZM128.389 32.3C129.136 32.3 129.736 32.0333 130.189 31.5C130.642 30.9533 130.869 30.1533 130.869 29.1C130.869 28.0333 130.642 27.24 130.189 26.72C129.736 26.1867 129.136 25.92 128.389 25.92C127.642 25.92 127.042 26.1867 126.589 26.72C126.136 27.24 125.909 28.0333 125.909 29.1C125.909 30.1533 126.136 30.9533 126.589 31.5C127.042 32.0333 127.642 32.3 128.389 32.3ZM138.992 34.2C136.592 34.2 135.392 32.8533 135.392 30.16V25.32C135.392 24.48 135.806 24.06 136.632 24.06C137.472 24.06 137.892 24.48 137.892 25.32V30.2C137.892 30.8933 138.032 31.4067 138.312 31.74C138.592 32.0733 139.039 32.24 139.652 32.24C140.319 32.24 140.866 32.0133 141.292 31.56C141.719 31.0933 141.932 30.48 141.932 29.72V25.32C141.932 24.48 142.346 24.06 143.172 24.06C144.012 24.06 144.432 24.48 144.432 25.32V32.88C144.432 33.7333 144.026 34.16 143.212 34.16C142.399 34.16 141.992 33.7333 141.992 32.88V32.54C141.339 33.6467 140.339 34.2 138.992 34.2ZM148.314 34.16C147.461 34.16 147.034 33.7333 147.034 32.88V25.32C147.034 24.48 147.441 24.06 148.254 24.06C149.068 24.06 149.474 24.48 149.474 25.32V25.94C149.954 24.7933 150.981 24.1533 152.554 24.02C153.128 23.9533 153.448 24.28 153.514 25C153.581 25.7067 153.234 26.1 152.474 26.18L152.034 26.22C150.394 26.38 149.574 27.22 149.574 28.74V32.88C149.574 33.7333 149.154 34.16 148.314 34.16ZM164.056 34.2C163.203 34.2 162.449 33.9933 161.796 33.58C161.156 33.1667 160.656 32.58 160.296 31.82C159.936 31.0467 159.756 30.14 159.756 29.1C159.756 28.0467 159.936 27.1467 160.296 26.4C160.656 25.64 161.156 25.0533 161.796 24.64C162.449 24.2267 163.203 24.02 164.056 24.02C164.749 24.02 165.376 24.1733 165.936 24.48C166.496 24.7867 166.916 25.1933 167.196 25.7V21C167.196 20.16 167.609 19.74 168.436 19.74C169.276 19.74 169.696 20.16 169.696 21V32.88C169.696 33.7333 169.283 34.16 168.456 34.16C167.629 34.16 167.216 33.7333 167.216 32.88V32.46C166.936 32.9933 166.516 33.42 165.956 33.74C165.396 34.0467 164.763 34.2 164.056 34.2ZM164.756 32.3C165.503 32.3 166.103 32.0333 166.556 31.5C167.009 30.9533 167.236 30.1533 167.236 29.1C167.236 28.0333 167.009 27.24 166.556 26.72C166.103 26.1867 165.503 25.92 164.756 25.92C164.009 25.92 163.409 26.1867 162.956 26.72C162.503 27.24 162.276 28.0333 162.276 29.1C162.276 30.1533 162.503 30.9533 162.956 31.5C163.409 32.0333 164.009 32.3 164.756 32.3ZM175.508 34.2C174.802 34.2 174.168 34.0667 173.608 33.8C173.062 33.52 172.628 33.1467 172.308 32.68C172.002 32.2133 171.848 31.6867 171.848 31.1C171.848 30.38 172.035 29.8133 172.408 29.4C172.782 28.9733 173.388 28.6667 174.228 28.48C175.068 28.2933 176.195 28.2 177.608 28.2H178.308V27.78C178.308 27.1133 178.162 26.6333 177.868 26.34C177.575 26.0467 177.082 25.9 176.388 25.9C176.002 25.9 175.582 25.9467 175.128 26.04C174.688 26.1333 174.222 26.2933 173.728 26.52C173.408 26.6667 173.142 26.6867 172.928 26.58C172.715 26.46 172.568 26.28 172.488 26.04C172.422 25.7867 172.435 25.5333 172.528 25.28C172.635 25.0267 172.842 24.84 173.148 24.72C173.762 24.4667 174.348 24.2867 174.908 24.18C175.482 24.0733 176.002 24.02 176.468 24.02C177.895 24.02 178.955 24.3533 179.648 25.02C180.342 25.6733 180.688 26.6933 180.688 28.08V32.88C180.688 33.7333 180.302 34.16 179.528 34.16C178.742 34.16 178.348 33.7333 178.348 32.88V32.44C178.122 32.9867 177.762 33.42 177.268 33.74C176.775 34.0467 176.188 34.2 175.508 34.2ZM176.028 32.48C176.682 32.48 177.222 32.2533 177.648 31.8C178.088 31.3467 178.308 30.7733 178.308 30.08V29.64H177.628C176.375 29.64 175.502 29.74 175.008 29.94C174.528 30.1267 174.288 30.4733 174.288 30.98C174.288 31.42 174.442 31.78 174.748 32.06C175.055 32.34 175.482 32.48 176.028 32.48ZM184.466 22.22C183.999 22.22 183.632 22.1067 183.366 21.88C183.112 21.64 182.986 21.3133 182.986 20.9C182.986 20.4733 183.112 20.1467 183.366 19.92C183.632 19.6933 183.999 19.58 184.466 19.58C185.452 19.58 185.946 20.02 185.946 20.9C185.946 21.78 185.452 22.22 184.466 22.22ZM184.466 34.14C184.066 34.14 183.759 34.02 183.546 33.78C183.332 33.54 183.226 33.2067 183.226 32.78V25.44C183.226 24.5333 183.639 24.08 184.466 24.08C185.306 24.08 185.726 24.5333 185.726 25.44V32.78C185.726 33.2067 185.619 33.54 185.406 33.78C185.192 34.02 184.879 34.14 184.466 34.14ZM191.663 34.2C189.437 34.2 188.323 32.9533 188.323 30.46V21C188.323 20.16 188.737 19.74 189.563 19.74C190.403 19.74 190.823 20.16 190.823 21V30.34C190.823 31.54 191.323 32.14 192.323 32.14C192.43 32.14 192.53 32.14 192.623 32.14C192.717 32.1267 192.81 32.1133 192.903 32.1C193.09 32.0733 193.217 32.1267 193.283 32.26C193.35 32.38 193.383 32.6333 193.383 33.02C193.383 33.3533 193.317 33.6133 193.183 33.8C193.05 33.9867 192.83 34.1 192.523 34.14C192.243 34.18 191.957 34.2 191.663 34.2ZM196.936 37.76C196.483 37.76 196.17 37.5933 195.996 37.26C195.823 36.9267 195.83 36.5467 196.016 36.12L197.156 33.6L193.736 25.72C193.55 25.28 193.55 24.8933 193.736 24.56C193.923 24.2267 194.29 24.06 194.836 24.06C195.143 24.06 195.39 24.1333 195.576 24.28C195.763 24.4133 195.93 24.6733 196.076 25.06L198.476 31.06L200.936 25.04C201.083 24.6667 201.256 24.4133 201.456 24.28C201.656 24.1333 201.923 24.06 202.256 24.06C202.683 24.06 202.983 24.2267 203.156 24.56C203.33 24.8933 203.323 25.2733 203.136 25.7L198.276 36.8C198.103 37.1733 197.916 37.4267 197.716 37.56C197.516 37.6933 197.256 37.76 196.936 37.76ZM37.88 66.2C37.3067 66.2 36.7 66.14 36.06 66.02C35.42 65.9 34.8467 65.6933 34.34 65.4C34.06 65.24 33.8867 65.0467 33.82 64.82C33.7533 64.58 33.76 64.36 33.84 64.16C33.9333 63.9467 34.08 63.7933 34.28 63.7C34.4933 63.6067 34.74 63.6267 35.02 63.76C35.5533 64.0133 36.0533 64.1933 36.52 64.3C36.9867 64.3933 37.4467 64.44 37.9 64.44C38.54 64.44 39.0133 64.3333 39.32 64.12C39.64 63.8933 39.8 63.6 39.8 63.24C39.8 62.68 39.3867 62.32 38.56 62.16L36.56 61.78C34.8667 61.46 34.02 60.58 34.02 59.14C34.02 58.5 34.1933 57.9467 34.54 57.48C34.9 57.0133 35.3933 56.6533 36.02 56.4C36.6467 56.1467 37.3667 56.02 38.18 56.02C39.3533 56.02 40.4 56.28 41.32 56.8C41.5733 56.9333 41.72 57.12 41.76 57.36C41.8133 57.5867 41.7867 57.8067 41.68 58.02C41.5867 58.22 41.4333 58.3667 41.22 58.46C41.0067 58.54 40.76 58.5133 40.48 58.38C40.0667 58.1667 39.6667 58.0133 39.28 57.92C38.9067 57.8267 38.5467 57.78 38.2 57.78C37.5467 57.78 37.06 57.8933 36.74 58.12C36.4333 58.3467 36.28 58.6467 36.28 59.02C36.28 59.6067 36.66 59.9667 37.42 60.1L39.42 60.48C40.2867 60.64 40.94 60.9333 41.38 61.36C41.8333 61.7867 42.06 62.36 42.06 63.08C42.06 64.0533 41.68 64.82 40.92 65.38C40.16 65.9267 39.1467 66.2 37.88 66.2ZM48.448 66.2C45.8613 66.2 44.568 64.92 44.568 62.36V58.1H43.528C42.8613 58.1 42.528 57.7867 42.528 57.16C42.528 56.5333 42.8613 56.22 43.528 56.22H44.568V54.4C44.568 53.56 44.988 53.14 45.828 53.14C46.6546 53.14 47.068 53.56 47.068 54.4V56.22H49.188C49.8546 56.22 50.188 56.5333 50.188 57.16C50.188 57.7867 49.8546 58.1 49.188 58.1H47.068V62.22C47.068 62.86 47.208 63.34 47.488 63.66C47.768 63.98 48.2213 64.14 48.848 64.14C49.0746 64.14 49.2746 64.12 49.448 64.08C49.6213 64.04 49.7746 64.0133 49.908 64C50.068 63.9867 50.2013 64.04 50.308 64.16C50.4146 64.2667 50.468 64.4933 50.468 64.84C50.468 65.1067 50.4213 65.3467 50.328 65.56C50.248 65.76 50.0946 65.9 49.868 65.98C49.6946 66.0333 49.468 66.08 49.188 66.12C48.908 66.1733 48.6613 66.2 48.448 66.2ZM55.1838 66.2C52.7838 66.2 51.5838 64.8533 51.5838 62.16V57.32C51.5838 56.48 51.9971 56.06 52.8238 56.06C53.6638 56.06 54.0838 56.48 54.0838 57.32V62.2C54.0838 62.8933 54.2238 63.4067 54.5038 63.74C54.7838 64.0733 55.2304 64.24 55.8438 64.24C56.5104 64.24 57.0571 64.0133 57.4838 63.56C57.9104 63.0933 58.1238 62.48 58.1238 61.72V57.32C58.1238 56.48 58.5371 56.06 59.3638 56.06C60.2038 56.06 60.6237 56.48 60.6237 57.32V64.88C60.6237 65.7333 60.2171 66.16 59.4038 66.16C58.5904 66.16 58.1838 65.7333 58.1838 64.88V64.54C57.5304 65.6467 56.5304 66.2 55.1838 66.2ZM66.9858 66.2C66.1324 66.2 65.3791 65.9933 64.7258 65.58C64.0858 65.1667 63.5858 64.58 63.2258 63.82C62.8658 63.0467 62.6858 62.14 62.6858 61.1C62.6858 60.0467 62.8658 59.1467 63.2258 58.4C63.5858 57.64 64.0858 57.0533 64.7258 56.64C65.3791 56.2267 66.1324 56.02 66.9858 56.02C67.6791 56.02 68.3058 56.1733 68.8658 56.48C69.4258 56.7867 69.8458 57.1933 70.1258 57.7V53C70.1258 52.16 70.5391 51.74 71.3658 51.74C72.2058 51.74 72.6258 52.16 72.6258 53V64.88C72.6258 65.7333 72.2124 66.16 71.3858 66.16C70.5591 66.16 70.1458 65.7333 70.1458 64.88V64.46C69.8658 64.9933 69.4458 65.42 68.8858 65.74C68.3258 66.0467 67.6924 66.2 66.9858 66.2ZM67.6858 64.3C68.4324 64.3 69.0324 64.0333 69.4858 63.5C69.9391 62.9533 70.1658 62.1533 70.1658 61.1C70.1658 60.0333 69.9391 59.24 69.4858 58.72C69.0324 58.1867 68.4324 57.92 67.6858 57.92C66.9391 57.92 66.3391 58.1867 65.8858 58.72C65.4324 59.24 65.2058 60.0333 65.2058 61.1C65.2058 62.1533 65.4324 62.9533 65.8858 63.5C66.3391 64.0333 66.9391 64.3 67.6858 64.3ZM77.698 69.76C77.2446 69.76 76.9313 69.5933 76.758 69.26C76.5846 68.9267 76.5913 68.5467 76.778 68.12L77.918 65.6L74.498 57.72C74.3113 57.28 74.3113 56.8933 74.498 56.56C74.6846 56.2267 75.0513 56.06 75.598 56.06C75.9046 56.06 76.1513 56.1333 76.338 56.28C76.5246 56.4133 76.6913 56.6733 76.838 57.06L79.238 63.06L81.698 57.04C81.8446 56.6667 82.018 56.4133 82.218 56.28C82.418 56.1333 82.6846 56.06 83.018 56.06C83.4446 56.06 83.7446 56.2267 83.918 56.56C84.0913 56.8933 84.0846 57.2733 83.898 57.7L79.038 68.8C78.8646 69.1733 78.678 69.4267 78.478 69.56C78.278 69.6933 78.018 69.76 77.698 69.76ZM95.655 66.2C93.0683 66.2 91.775 64.92 91.775 62.36V58.1H90.735C90.0683 58.1 89.735 57.7867 89.735 57.16C89.735 56.5333 90.0683 56.22 90.735 56.22H91.775V54.4C91.775 53.56 92.195 53.14 93.035 53.14C93.8617 53.14 94.275 53.56 94.275 54.4V56.22H96.395C97.0617 56.22 97.395 56.5333 97.395 57.16C97.395 57.7867 97.0617 58.1 96.395 58.1H94.275V62.22C94.275 62.86 94.415 63.34 94.695 63.66C94.975 63.98 95.4283 64.14 96.055 64.14C96.2817 64.14 96.4817 64.12 96.655 64.08C96.8283 64.04 96.9817 64.0133 97.115 64C97.275 63.9867 97.4083 64.04 97.515 64.16C97.6217 64.2667 97.675 64.4933 97.675 64.84C97.675 65.1067 97.6283 65.3467 97.535 65.56C97.455 65.76 97.3017 65.9 97.075 65.98C96.9017 66.0333 96.675 66.08 96.395 66.12C96.115 66.1733 95.8683 66.2 95.655 66.2ZM102.071 66.2C101.364 66.2 100.731 66.0667 100.171 65.8C99.6241 65.52 99.1908 65.1467 98.8708 64.68C98.5641 64.2133 98.4108 63.6867 98.4108 63.1C98.4108 62.38 98.5974 61.8133 98.9708 61.4C99.3441 60.9733 99.9508 60.6667 100.791 60.48C101.631 60.2933 102.757 60.2 104.171 60.2H104.871V59.78C104.871 59.1133 104.724 58.6333 104.431 58.34C104.137 58.0467 103.644 57.9 102.951 57.9C102.564 57.9 102.144 57.9467 101.691 58.04C101.251 58.1333 100.784 58.2933 100.291 58.52C99.9708 58.6667 99.7041 58.6867 99.4908 58.58C99.2774 58.46 99.1308 58.28 99.0508 58.04C98.9841 57.7867 98.9974 57.5333 99.0908 57.28C99.1974 57.0267 99.4041 56.84 99.7108 56.72C100.324 56.4667 100.911 56.2867 101.471 56.18C102.044 56.0733 102.564 56.02 103.031 56.02C104.457 56.02 105.517 56.3533 106.211 57.02C106.904 57.6733 107.251 58.6933 107.251 60.08V64.88C107.251 65.7333 106.864 66.16 106.091 66.16C105.304 66.16 104.911 65.7333 104.911 64.88V64.44C104.684 64.9867 104.324 65.42 103.831 65.74C103.337 66.0467 102.751 66.2 102.071 66.2ZM102.591 64.48C103.244 64.48 103.784 64.2533 104.211 63.8C104.651 63.3467 104.871 62.7733 104.871 62.08V61.64H104.191C102.937 61.64 102.064 61.74 101.571 61.94C101.091 62.1267 100.851 62.4733 100.851 62.98C100.851 63.42 101.004 63.78 101.311 64.06C101.617 64.34 102.044 64.48 102.591 64.48ZM111.068 66.16C110.215 66.16 109.788 65.7333 109.788 64.88V57.32C109.788 56.48 110.195 56.06 111.008 56.06C111.822 56.06 112.228 56.48 112.228 57.32V57.94C112.708 56.7933 113.735 56.1533 115.308 56.02C115.882 55.9533 116.202 56.28 116.268 57C116.335 57.7067 115.988 58.1 115.228 58.18L114.788 58.22C113.148 58.38 112.328 59.22 112.328 60.74V64.88C112.328 65.7333 111.908 66.16 111.068 66.16ZM122.024 69.8C121.304 69.8 120.604 69.7333 119.924 69.6C119.257 69.4667 118.651 69.26 118.104 68.98C117.784 68.82 117.591 68.6133 117.524 68.36C117.471 68.12 117.497 67.8867 117.604 67.66C117.711 67.4333 117.871 67.2667 118.084 67.16C118.311 67.0667 118.551 67.08 118.804 67.2C119.391 67.4933 119.944 67.68 120.464 67.76C120.997 67.8533 121.451 67.9 121.824 67.9C123.611 67.9 124.504 67.04 124.504 65.32V63.98C124.224 64.5267 123.791 64.96 123.204 65.28C122.631 65.6 121.991 65.76 121.284 65.76C120.404 65.76 119.637 65.56 118.984 65.16C118.331 64.7467 117.824 64.1733 117.464 63.44C117.104 62.7067 116.924 61.8533 116.924 60.88C116.924 59.9067 117.104 59.06 117.464 58.34C117.824 57.6067 118.331 57.04 118.984 56.64C119.637 56.2267 120.404 56.02 121.284 56.02C121.991 56.02 122.631 56.1733 123.204 56.48C123.777 56.7867 124.197 57.2067 124.464 57.74V57.32C124.464 56.9067 124.571 56.5933 124.784 56.38C125.011 56.1667 125.317 56.06 125.704 56.06C126.531 56.06 126.944 56.48 126.944 57.32V65.02C126.944 66.6067 126.524 67.8 125.684 68.6C124.844 69.4 123.624 69.8 122.024 69.8ZM121.964 63.86C122.737 63.86 123.351 63.5933 123.804 63.06C124.257 62.5267 124.484 61.8 124.484 60.88C124.484 59.96 124.257 59.24 123.804 58.72C123.351 58.1867 122.737 57.92 121.964 57.92C121.191 57.92 120.577 58.1867 120.124 58.72C119.671 59.24 119.444 59.96 119.444 60.88C119.444 61.8 119.671 62.5267 120.124 63.06C120.577 63.5933 121.191 63.86 121.964 63.86ZM134.354 66.2C133.248 66.2 132.294 65.9933 131.494 65.58C130.694 65.1667 130.074 64.58 129.634 63.82C129.208 63.06 128.994 62.16 128.994 61.12C128.994 60.1067 129.201 59.22 129.614 58.46C130.041 57.7 130.621 57.1067 131.354 56.68C132.101 56.24 132.948 56.02 133.894 56.02C135.281 56.02 136.374 56.46 137.174 57.34C137.988 58.22 138.394 59.42 138.394 60.94C138.394 61.4333 138.074 61.68 137.434 61.68H131.394C131.581 63.4267 132.581 64.3 134.394 64.3C134.741 64.3 135.128 64.26 135.554 64.18C135.994 64.0867 136.408 63.9333 136.794 63.72C137.141 63.52 137.434 63.46 137.674 63.54C137.914 63.6067 138.081 63.7467 138.174 63.96C138.281 64.1733 138.294 64.4133 138.214 64.68C138.148 64.9333 137.961 65.1533 137.654 65.34C137.188 65.6333 136.648 65.8533 136.034 66C135.434 66.1333 134.874 66.2 134.354 66.2ZM133.994 57.72C133.261 57.72 132.668 57.9467 132.214 58.4C131.761 58.8533 131.488 59.4667 131.394 60.24H136.314C136.261 59.4267 136.034 58.8067 135.634 58.38C135.248 57.94 134.701 57.72 133.994 57.72ZM144.815 66.2C142.228 66.2 140.935 64.92 140.935 62.36V58.1H139.895C139.228 58.1 138.895 57.7867 138.895 57.16C138.895 56.5333 139.228 56.22 139.895 56.22H140.935V54.4C140.935 53.56 141.355 53.14 142.195 53.14C143.022 53.14 143.435 53.56 143.435 54.4V56.22H145.555C146.222 56.22 146.555 56.5333 146.555 57.16C146.555 57.7867 146.222 58.1 145.555 58.1H143.435V62.22C143.435 62.86 143.575 63.34 143.855 63.66C144.135 63.98 144.588 64.14 145.215 64.14C145.442 64.14 145.642 64.12 145.815 64.08C145.988 64.04 146.142 64.0133 146.275 64C146.435 63.9867 146.568 64.04 146.675 64.16C146.782 64.2667 146.835 64.4933 146.835 64.84C146.835 65.1067 146.788 65.3467 146.695 65.56C146.615 65.76 146.462 65.9 146.235 65.98C146.062 66.0333 145.835 66.08 145.555 66.12C145.275 66.1733 145.028 66.2 144.815 66.2ZM151.269 61.92C151.015 61.92 150.815 61.84 150.669 61.68C150.535 61.5067 150.469 61.28 150.469 61C150.469 60.3867 150.582 59.8133 150.809 59.28C151.049 58.7467 151.449 58.1667 152.009 57.54C152.435 57.0733 152.729 56.6733 152.889 56.34C153.062 56.0067 153.149 55.6533 153.149 55.28C153.149 54.84 152.989 54.4933 152.669 54.24C152.349 53.9867 151.895 53.86 151.309 53.86C150.775 53.86 150.289 53.9333 149.849 54.08C149.422 54.2133 148.989 54.4067 148.549 54.66C148.189 54.8733 147.869 54.9467 147.589 54.88C147.322 54.8 147.129 54.64 147.009 54.4C146.889 54.16 146.869 53.8933 146.949 53.6C147.029 53.3067 147.242 53.0467 147.589 52.82C148.135 52.46 148.762 52.1867 149.469 52C150.175 51.8 150.842 51.7 151.469 51.7C152.309 51.7 153.042 51.84 153.669 52.12C154.309 52.4 154.802 52.7867 155.149 53.28C155.509 53.7733 155.689 54.3533 155.689 55.02C155.689 55.6333 155.549 56.2067 155.269 56.74C155.002 57.2733 154.522 57.8533 153.829 58.48C153.202 59.0533 152.769 59.5467 152.529 59.96C152.289 60.3733 152.135 60.8133 152.069 61.28C152.055 61.4667 151.975 61.62 151.829 61.74C151.695 61.86 151.509 61.92 151.269 61.92ZM151.229 66.1C150.775 66.1 150.409 65.96 150.129 65.68C149.862 65.4 149.729 65.04 149.729 64.6C149.729 64.1733 149.862 63.8267 150.129 63.56C150.409 63.28 150.775 63.14 151.229 63.14C151.695 63.14 152.055 63.28 152.309 63.56C152.575 63.8267 152.709 64.1733 152.709 64.6C152.709 65.04 152.575 65.4 152.309 65.68C152.055 65.96 151.695 66.1 151.229 66.1Z" fill="#212121"/>
</svg>
