<svg width="240" height="86" viewBox="0 0 240 86" fill="none" xmlns="http://www.w3.org/2000/svg">
<mask id="path-1-inside-1_2031_26691" fill="white">
<path fill-rule="evenodd" clip-rule="evenodd" d="M17.0003 55.6982C15.1469 55.2092 12.7372 53.8179 9.00004 51.6603L9 51.6603C3.73917 48.6229 1.10876 47.1042 0.361845 45.0521C-0.120615 43.7266 -0.120615 42.2734 0.361845 40.9479C1.10876 38.8958 3.73917 37.3771 9 34.3397C12.7372 32.1821 15.1469 30.7908 17.0003 30.3018C17.0069 16.3422 17.1793 9.19333 21.6863 4.68629C26.3726 0 33.9151 0 49 0H208C223.085 0 230.627 0 235.314 4.68629C240 9.37258 240 16.9151 240 32V54C240 69.0849 240 76.6274 235.314 81.3137C230.627 86 223.085 86 208 86H49C33.9151 86 26.3726 86 21.6863 81.3137C17.1793 76.8067 17.0069 69.6578 17.0003 55.6982Z"/>
</mask>
<path fill-rule="evenodd" clip-rule="evenodd" d="M17.0003 55.6982C15.1469 55.2092 12.7372 53.8179 9.00004 51.6603L9 51.6603C3.73917 48.6229 1.10876 47.1042 0.361845 45.0521C-0.120615 43.7266 -0.120615 42.2734 0.361845 40.9479C1.10876 38.8958 3.73917 37.3771 9 34.3397C12.7372 32.1821 15.1469 30.7908 17.0003 30.3018C17.0069 16.3422 17.1793 9.19333 21.6863 4.68629C26.3726 0 33.9151 0 49 0H208C223.085 0 230.627 0 235.314 4.68629C240 9.37258 240 16.9151 240 32V54C240 69.0849 240 76.6274 235.314 81.3137C230.627 86 223.085 86 208 86H49C33.9151 86 26.3726 86 21.6863 81.3137C17.1793 76.8067 17.0069 69.6578 17.0003 55.6982Z" fill="#FAFAFA"/>
<path d="M17.0003 55.6982L19.0003 55.6972L18.9995 54.1572L17.5105 53.7643L17.0003 55.6982ZM9.00004 51.6603L7.89064 53.3244L7.94424 53.3601L8.00004 53.3923L9.00004 51.6603ZM9 51.6603L10.1094 49.9962L10.0558 49.9604L10 49.9282L9 51.6603ZM0.361845 45.0521L-1.51754 45.7362H-1.51754L0.361845 45.0521ZM0.361845 40.9479L2.24123 41.6319L0.361845 40.9479ZM9 34.3397L10 36.0718H10L9 34.3397ZM17.0003 30.3018L17.5105 32.2357L18.9995 31.8428L19.0003 30.3028L17.0003 30.3018ZM21.6863 4.68629L20.2721 3.27208V3.27208L21.6863 4.68629ZM235.314 4.68629L233.899 6.1005V6.10051L235.314 4.68629ZM235.314 81.3137L233.899 79.8995V79.8995L235.314 81.3137ZM21.6863 81.3137L23.1005 79.8995L21.6863 81.3137ZM17.5105 53.7643C16.8034 53.5778 15.8958 53.191 14.6314 52.5316C13.3766 51.8772 11.8818 51.0146 10 49.9282L8.00004 53.3923C9.85546 54.4636 11.434 55.3754 12.7817 56.0783C14.1199 56.7762 15.3438 57.3296 16.4901 57.632L17.5105 53.7643ZM10.1094 49.9962L10.1094 49.9962L7.8906 53.3244L7.89064 53.3244L10.1094 49.9962ZM10 49.9282C7.3315 48.3875 5.4647 47.3069 4.15809 46.3646C2.84432 45.4171 2.40499 44.818 2.24123 44.3681L-1.51754 45.7362C-0.934388 47.3384 0.314942 48.5247 1.81832 49.6089C3.32885 50.6983 5.40768 51.8956 8 53.3923L10 49.9282ZM2.24123 44.3681C1.91959 43.4844 1.91959 42.5156 2.24123 41.6319L-1.51754 40.2638C-2.16082 42.0312 -2.16082 43.9688 -1.51754 45.7362L2.24123 44.3681ZM2.24123 41.6319C2.40499 41.182 2.84432 40.5829 4.15809 39.6354C5.4647 38.6931 7.3315 37.6125 10 36.0718L8 32.6077C5.40768 34.1044 3.32885 35.3017 1.81832 36.3911C0.314941 37.4753 -0.934389 38.6616 -1.51754 40.2638L2.24123 41.6319ZM10 36.0718C11.8817 34.9854 13.3766 34.1228 14.6314 33.4684C15.8958 32.809 16.8034 32.4222 17.5105 32.2357L16.4901 28.368C15.3438 28.6704 14.1199 29.2238 12.7817 29.9217C11.434 30.6246 9.85543 31.5365 8 32.6077L10 36.0718ZM19.0003 30.3028C19.0036 23.2787 19.0527 18.1627 19.634 14.2427C20.2066 10.3811 21.263 7.93802 23.1005 6.1005L20.2721 3.27208C17.6026 5.9416 16.3192 9.32649 15.6772 13.656C15.0439 17.9271 15.0035 23.3654 15.0003 30.3009L19.0003 30.3028ZM23.1005 6.10051C25.0101 4.1909 27.5749 3.12392 31.7101 2.56795C35.9029 2.00425 41.401 2 49 2V-2C41.5141 -2 35.6984 -2.00425 31.1772 -1.39638C26.5984 -0.780775 23.0488 0.495394 20.2721 3.27208L23.1005 6.10051ZM49 2H208V-2H49V2ZM208 2C215.599 2 221.097 2.00425 225.29 2.56795C229.425 3.12392 231.99 4.1909 233.899 6.1005L236.728 3.27208C233.951 0.495394 230.402 -0.780776 225.823 -1.39638C221.302 -2.00425 215.486 -2 208 -2V2ZM233.899 6.10051C235.809 8.01011 236.876 10.5749 237.432 14.7101C237.996 18.9029 238 24.401 238 32H242C242 24.5141 242.004 18.6984 241.396 14.1772C240.781 9.59836 239.505 6.04876 236.728 3.27208L233.899 6.10051ZM238 32V54H242V32H238ZM238 54C238 61.599 237.996 67.0971 237.432 71.2899C236.876 75.4251 235.809 77.9899 233.899 79.8995L236.728 82.7279C239.505 79.9512 240.781 76.4016 241.396 71.8228C242.004 67.3016 242 61.4859 242 54H238ZM233.899 79.8995C231.99 81.8091 229.425 82.8761 225.29 83.432C221.097 83.9958 215.599 84 208 84V88C215.486 88 221.302 88.0042 225.823 87.3964C230.402 86.7808 233.951 85.5046 236.728 82.7279L233.899 79.8995ZM208 84H49V88H208V84ZM49 84C41.401 84 35.9029 83.9958 31.7101 83.432C27.5749 82.8761 25.0101 81.8091 23.1005 79.8995L20.2721 82.7279C23.0488 85.5046 26.5984 86.7808 31.1772 87.3964C35.6984 88.0042 41.5141 88 49 88V84ZM23.1005 79.8995C21.263 78.062 20.2066 75.6189 19.634 71.7573C19.0527 67.8373 19.0036 62.7213 19.0003 55.6972L15.0003 55.6991C15.0035 62.6346 15.0439 68.0729 15.6772 72.344C16.3192 76.6735 17.6026 80.0584 20.2721 82.7279L23.1005 79.8995Z" fill="#EEEEEE" mask="url(#path-1-inside-1_2031_26691)"/>
<path d="M39.5 34.16C38.82 34.16 38.3533 33.8 38.1 33.08L33.92 21.26C33.7733 20.8333 33.8 20.4733 34 20.18C34.2133 19.8867 34.5667 19.74 35.06 19.74C35.42 19.74 35.7 19.8267 35.9 20C36.1 20.16 36.26 20.42 36.38 20.78L39.58 30.3L42.94 20.8C43.1933 20.0933 43.62 19.74 44.22 19.74C44.54 19.74 44.7933 19.8267 44.98 20C45.1667 20.1733 45.3267 20.4467 45.46 20.82L48.76 30.44L52.06 20.78C52.18 20.4333 52.34 20.1733 52.54 20C52.74 19.8267 53.0133 19.74 53.36 19.74C53.7867 19.74 54.1 19.8867 54.3 20.18C54.5 20.4733 54.5267 20.8333 54.38 21.26L50.16 33.1C50.0267 33.46 49.8533 33.7267 49.64 33.9C49.4267 34.0733 49.14 34.16 48.78 34.16C48.42 34.16 48.1333 34.0733 47.92 33.9C47.7067 33.7267 47.5333 33.4533 47.4 33.08L44.14 23.82L40.86 33.1C40.7267 33.46 40.5533 33.7267 40.34 33.9C40.14 34.0733 39.86 34.16 39.5 34.16ZM58.8017 34.16C57.9751 34.16 57.5617 33.7333 57.5617 32.88V21C57.5617 20.16 57.9751 19.74 58.8017 19.74C59.6417 19.74 60.0617 20.16 60.0617 21V25.64C60.3951 25.1067 60.8417 24.7067 61.4017 24.44C61.9617 24.16 62.5817 24.02 63.2617 24.02C65.5684 24.02 66.7217 25.36 66.7217 28.04V32.88C66.7217 33.7333 66.3084 34.16 65.4817 34.16C64.6417 34.16 64.2217 33.7333 64.2217 32.88V28.16C64.2217 27.4 64.0751 26.8467 63.7817 26.5C63.5017 26.1533 63.0617 25.98 62.4617 25.98C61.7284 25.98 61.1417 26.2133 60.7017 26.68C60.2751 27.1333 60.0617 27.74 60.0617 28.5V32.88C60.0617 33.7333 59.6417 34.16 58.8017 34.16ZM72.4809 34.2C71.7743 34.2 71.1409 34.0667 70.5809 33.8C70.0343 33.52 69.6009 33.1467 69.2809 32.68C68.9743 32.2133 68.8209 31.6867 68.8209 31.1C68.8209 30.38 69.0076 29.8133 69.3809 29.4C69.7543 28.9733 70.3609 28.6667 71.2009 28.48C72.0409 28.2933 73.1676 28.2 74.5809 28.2H75.2809V27.78C75.2809 27.1133 75.1343 26.6333 74.8409 26.34C74.5476 26.0467 74.0543 25.9 73.3609 25.9C72.9743 25.9 72.5543 25.9467 72.1009 26.04C71.6609 26.1333 71.1943 26.2933 70.7009 26.52C70.3809 26.6667 70.1143 26.6867 69.9009 26.58C69.6876 26.46 69.5409 26.28 69.4609 26.04C69.3943 25.7867 69.4076 25.5333 69.5009 25.28C69.6076 25.0267 69.8143 24.84 70.1209 24.72C70.7343 24.4667 71.3209 24.2867 71.8809 24.18C72.4543 24.0733 72.9743 24.02 73.4409 24.02C74.8676 24.02 75.9276 24.3533 76.6209 25.02C77.3143 25.6733 77.6609 26.6933 77.6609 28.08V32.88C77.6609 33.7333 77.2743 34.16 76.5009 34.16C75.7143 34.16 75.3209 33.7333 75.3209 32.88V32.44C75.0943 32.9867 74.7343 33.42 74.2409 33.74C73.7476 34.0467 73.1609 34.2 72.4809 34.2ZM73.0009 32.48C73.6543 32.48 74.1943 32.2533 74.6209 31.8C75.0609 31.3467 75.2809 30.7733 75.2809 30.08V29.64H74.6009C73.3476 29.64 72.4743 29.74 71.9809 29.94C71.5009 30.1267 71.2609 30.4733 71.2609 30.98C71.2609 31.42 71.4143 31.78 71.7209 32.06C72.0276 32.34 72.4543 32.48 73.0009 32.48ZM84.6784 34.2C82.0918 34.2 80.7984 32.92 80.7984 30.36V26.1H79.7584C79.0918 26.1 78.7584 25.7867 78.7584 25.16C78.7584 24.5333 79.0918 24.22 79.7584 24.22H80.7984V22.4C80.7984 21.56 81.2184 21.14 82.0584 21.14C82.8851 21.14 83.2984 21.56 83.2984 22.4V24.22H85.4184C86.0851 24.22 86.4184 24.5333 86.4184 25.16C86.4184 25.7867 86.0851 26.1 85.4184 26.1H83.2984V30.22C83.2984 30.86 83.4384 31.34 83.7184 31.66C83.9984 31.98 84.4518 32.14 85.0784 32.14C85.3051 32.14 85.5051 32.12 85.6784 32.08C85.8518 32.04 86.0051 32.0133 86.1384 32C86.2984 31.9867 86.4318 32.04 86.5384 32.16C86.6451 32.2667 86.6984 32.4933 86.6984 32.84C86.6984 33.1067 86.6518 33.3467 86.5584 33.56C86.4784 33.76 86.3251 33.9 86.0984 33.98C85.9251 34.0333 85.6984 34.08 85.4184 34.12C85.1384 34.1733 84.8918 34.2 84.6784 34.2ZM97.0839 34.16C96.3906 34.16 95.9106 33.8133 95.6439 33.12L92.7439 25.72C92.5706 25.2533 92.5772 24.86 92.7639 24.54C92.9639 24.22 93.3106 24.06 93.8039 24.06C94.0972 24.06 94.3372 24.1333 94.5239 24.28C94.7106 24.4133 94.8706 24.6733 95.0039 25.06L97.2039 31.08L99.4639 24.9C99.6772 24.34 100.057 24.06 100.604 24.06C101.164 24.06 101.544 24.34 101.744 24.9L104.004 31.14L106.224 25C106.357 24.64 106.524 24.3933 106.724 24.26C106.937 24.1267 107.171 24.06 107.424 24.06C107.904 24.06 108.217 24.2333 108.364 24.58C108.511 24.9133 108.497 25.2933 108.324 25.72L105.444 33.12C105.164 33.8133 104.684 34.16 104.004 34.16C103.297 34.16 102.817 33.8133 102.564 33.12L100.524 27.7L98.5239 33.1C98.2706 33.8067 97.7906 34.16 97.0839 34.16ZM114.619 34.2C113.606 34.2 112.726 33.9933 111.979 33.58C111.233 33.1667 110.653 32.58 110.239 31.82C109.826 31.0467 109.619 30.14 109.619 29.1C109.619 28.06 109.826 27.16 110.239 26.4C110.653 25.64 111.233 25.0533 111.979 24.64C112.726 24.2267 113.606 24.02 114.619 24.02C115.633 24.02 116.513 24.2267 117.259 24.64C118.006 25.0533 118.586 25.64 118.999 26.4C119.413 27.16 119.619 28.06 119.619 29.1C119.619 30.14 119.413 31.0467 118.999 31.82C118.586 32.58 118.006 33.1667 117.259 33.58C116.513 33.9933 115.633 34.2 114.619 34.2ZM114.619 32.3C115.366 32.3 115.966 32.0333 116.419 31.5C116.873 30.9533 117.099 30.1533 117.099 29.1C117.099 28.0333 116.873 27.24 116.419 26.72C115.966 26.1867 115.366 25.92 114.619 25.92C113.873 25.92 113.273 26.1867 112.819 26.72C112.366 27.24 112.139 28.0333 112.139 29.1C112.139 30.1533 112.366 30.9533 112.819 31.5C113.273 32.0333 113.873 32.3 114.619 32.3ZM125.223 34.2C122.823 34.2 121.623 32.8533 121.623 30.16V25.32C121.623 24.48 122.036 24.06 122.863 24.06C123.703 24.06 124.123 24.48 124.123 25.32V30.2C124.123 30.8933 124.263 31.4067 124.543 31.74C124.823 32.0733 125.269 32.24 125.883 32.24C126.549 32.24 127.096 32.0133 127.523 31.56C127.949 31.0933 128.163 30.48 128.163 29.72V25.32C128.163 24.48 128.576 24.06 129.403 24.06C130.243 24.06 130.663 24.48 130.663 25.32V32.88C130.663 33.7333 130.256 34.16 129.443 34.16C128.629 34.16 128.223 33.7333 128.223 32.88V32.54C127.569 33.6467 126.569 34.2 125.223 34.2ZM136.605 34.2C134.378 34.2 133.265 32.9533 133.265 30.46V21C133.265 20.16 133.678 19.74 134.505 19.74C135.345 19.74 135.765 20.16 135.765 21V30.34C135.765 31.54 136.265 32.14 137.265 32.14C137.372 32.14 137.472 32.14 137.565 32.14C137.658 32.1267 137.752 32.1133 137.845 32.1C138.032 32.0733 138.158 32.1267 138.225 32.26C138.292 32.38 138.325 32.6333 138.325 33.02C138.325 33.3533 138.258 33.6133 138.125 33.8C137.992 33.9867 137.772 34.1 137.465 34.14C137.185 34.18 136.898 34.2 136.605 34.2ZM143.314 34.2C142.461 34.2 141.707 33.9933 141.054 33.58C140.414 33.1667 139.914 32.58 139.554 31.82C139.194 31.0467 139.014 30.14 139.014 29.1C139.014 28.0467 139.194 27.1467 139.554 26.4C139.914 25.64 140.414 25.0533 141.054 24.64C141.707 24.2267 142.461 24.02 143.314 24.02C144.007 24.02 144.634 24.1733 145.194 24.48C145.754 24.7867 146.174 25.1933 146.454 25.7V21C146.454 20.16 146.867 19.74 147.694 19.74C148.534 19.74 148.954 20.16 148.954 21V32.88C148.954 33.7333 148.541 34.16 147.714 34.16C146.887 34.16 146.474 33.7333 146.474 32.88V32.46C146.194 32.9933 145.774 33.42 145.214 33.74C144.654 34.0467 144.021 34.2 143.314 34.2ZM144.014 32.3C144.761 32.3 145.361 32.0333 145.814 31.5C146.267 30.9533 146.494 30.1533 146.494 29.1C146.494 28.0333 146.267 27.24 145.814 26.72C145.361 26.1867 144.761 25.92 144.014 25.92C143.267 25.92 142.667 26.1867 142.214 26.72C141.761 27.24 141.534 28.0333 141.534 29.1C141.534 30.1533 141.761 30.9533 142.214 31.5C142.667 32.0333 143.267 32.3 144.014 32.3ZM159.456 37.76C159.002 37.76 158.689 37.5933 158.516 37.26C158.342 36.9267 158.349 36.5467 158.536 36.12L159.676 33.6L156.256 25.72C156.069 25.28 156.069 24.8933 156.256 24.56C156.442 24.2267 156.809 24.06 157.356 24.06C157.662 24.06 157.909 24.1333 158.096 24.28C158.282 24.4133 158.449 24.6733 158.596 25.06L160.996 31.06L163.456 25.04C163.602 24.6667 163.776 24.4133 163.976 24.28C164.176 24.1333 164.442 24.06 164.776 24.06C165.202 24.06 165.502 24.2267 165.676 24.56C165.849 24.8933 165.842 25.2733 165.656 25.7L160.796 36.8C160.622 37.1733 160.436 37.4267 160.236 37.56C160.036 37.6933 159.776 37.76 159.456 37.76ZM171.768 34.2C170.754 34.2 169.874 33.9933 169.128 33.58C168.381 33.1667 167.801 32.58 167.388 31.82C166.974 31.0467 166.768 30.14 166.768 29.1C166.768 28.06 166.974 27.16 167.388 26.4C167.801 25.64 168.381 25.0533 169.128 24.64C169.874 24.2267 170.754 24.02 171.768 24.02C172.781 24.02 173.661 24.2267 174.408 24.64C175.154 25.0533 175.734 25.64 176.148 26.4C176.561 27.16 176.768 28.06 176.768 29.1C176.768 30.14 176.561 31.0467 176.148 31.82C175.734 32.58 175.154 33.1667 174.408 33.58C173.661 33.9933 172.781 34.2 171.768 34.2ZM171.768 32.3C172.514 32.3 173.114 32.0333 173.568 31.5C174.021 30.9533 174.248 30.1533 174.248 29.1C174.248 28.0333 174.021 27.24 173.568 26.72C173.114 26.1867 172.514 25.92 171.768 25.92C171.021 25.92 170.421 26.1867 169.968 26.72C169.514 27.24 169.288 28.0333 169.288 29.1C169.288 30.1533 169.514 30.9533 169.968 31.5C170.421 32.0333 171.021 32.3 171.768 32.3ZM182.371 34.2C179.971 34.2 178.771 32.8533 178.771 30.16V25.32C178.771 24.48 179.185 24.06 180.011 24.06C180.851 24.06 181.271 24.48 181.271 25.32V30.2C181.271 30.8933 181.411 31.4067 181.691 31.74C181.971 32.0733 182.418 32.24 183.031 32.24C183.698 32.24 184.245 32.0133 184.671 31.56C185.098 31.0933 185.311 30.48 185.311 29.72V25.32C185.311 24.48 185.725 24.06 186.551 24.06C187.391 24.06 187.811 24.48 187.811 25.32V32.88C187.811 33.7333 187.405 34.16 186.591 34.16C185.778 34.16 185.371 33.7333 185.371 32.88V32.54C184.718 33.6467 183.718 34.2 182.371 34.2ZM37.64 66.2C35.4133 66.2 34.3 64.9533 34.3 62.46V53C34.3 52.16 34.7133 51.74 35.54 51.74C36.38 51.74 36.8 52.16 36.8 53V62.34C36.8 63.54 37.3 64.14 38.3 64.14C38.4067 64.14 38.5067 64.14 38.6 64.14C38.6933 64.1267 38.7867 64.1133 38.88 64.1C39.0667 64.0733 39.1933 64.1267 39.26 64.26C39.3267 64.38 39.36 64.6333 39.36 65.02C39.36 65.3533 39.2933 65.6133 39.16 65.8C39.0267 65.9867 38.8067 66.1 38.5 66.14C38.22 66.18 37.9333 66.2 37.64 66.2ZM41.9267 54.22C41.4601 54.22 41.0934 54.1067 40.8267 53.88C40.5734 53.64 40.4467 53.3133 40.4467 52.9C40.4467 52.4733 40.5734 52.1467 40.8267 51.92C41.0934 51.6933 41.4601 51.58 41.9267 51.58C42.9134 51.58 43.4067 52.02 43.4067 52.9C43.4067 53.78 42.9134 54.22 41.9267 54.22ZM41.9267 66.14C41.5267 66.14 41.2201 66.02 41.0067 65.78C40.7934 65.54 40.6867 65.2067 40.6867 64.78V57.44C40.6867 56.5333 41.1001 56.08 41.9267 56.08C42.7667 56.08 43.1867 56.5333 43.1867 57.44V64.78C43.1867 65.2067 43.0801 65.54 42.8667 65.78C42.6534 66.02 42.3401 66.14 41.9267 66.14ZM47.0244 66.16C46.1977 66.16 45.7844 65.7333 45.7844 64.88V53C45.7844 52.16 46.1977 51.74 47.0244 51.74C47.8644 51.74 48.2844 52.16 48.2844 53V60.38H48.3244L51.6244 56.9C51.891 56.6333 52.1244 56.4267 52.3244 56.28C52.5244 56.1333 52.7977 56.06 53.1444 56.06C53.491 56.06 53.751 56.1533 53.9244 56.34C54.111 56.5133 54.2044 56.7267 54.2044 56.98C54.2044 57.2333 54.0844 57.4867 53.8444 57.74L50.8444 60.9L54.1844 64.5C54.4244 64.7533 54.531 65.0133 54.5044 65.28C54.491 65.5333 54.3844 65.7467 54.1844 65.92C53.9844 66.08 53.731 66.16 53.4244 66.16C53.051 66.16 52.751 66.0867 52.5244 65.94C52.311 65.7933 52.071 65.5733 51.8044 65.28L48.3244 61.64H48.2844V64.88C48.2844 65.7333 47.8644 66.16 47.0244 66.16ZM61.1317 66.2C60.0251 66.2 59.0717 65.9933 58.2717 65.58C57.4717 65.1667 56.8517 64.58 56.4117 63.82C55.9851 63.06 55.7717 62.16 55.7717 61.12C55.7717 60.1067 55.9784 59.22 56.3917 58.46C56.8184 57.7 57.3984 57.1067 58.1317 56.68C58.8784 56.24 59.7251 56.02 60.6717 56.02C62.0584 56.02 63.1517 56.46 63.9517 57.34C64.7651 58.22 65.1717 59.42 65.1717 60.94C65.1717 61.4333 64.8517 61.68 64.2117 61.68H58.1717C58.3584 63.4267 59.3584 64.3 61.1717 64.3C61.5184 64.3 61.9051 64.26 62.3317 64.18C62.7717 64.0867 63.1851 63.9333 63.5717 63.72C63.9184 63.52 64.2117 63.46 64.4517 63.54C64.6917 63.6067 64.8584 63.7467 64.9517 63.96C65.0584 64.1733 65.0717 64.4133 64.9917 64.68C64.9251 64.9333 64.7384 65.1533 64.4317 65.34C63.9651 65.6333 63.4251 65.8533 62.8117 66C62.2117 66.1333 61.6517 66.2 61.1317 66.2ZM60.7717 57.72C60.0384 57.72 59.4451 57.9467 58.9917 58.4C58.5384 58.8533 58.2651 59.4667 58.1717 60.24H63.0917C63.0384 59.4267 62.8117 58.8067 62.4117 58.38C62.0251 57.94 61.4784 57.72 60.7717 57.72ZM77.0613 66.2C74.4746 66.2 73.1813 64.92 73.1813 62.36V58.1H72.1413C71.4746 58.1 71.1412 57.7867 71.1412 57.16C71.1412 56.5333 71.4746 56.22 72.1413 56.22H73.1813V54.4C73.1813 53.56 73.6013 53.14 74.4413 53.14C75.2679 53.14 75.6813 53.56 75.6813 54.4V56.22H77.8013C78.4679 56.22 78.8013 56.5333 78.8013 57.16C78.8013 57.7867 78.4679 58.1 77.8013 58.1H75.6813V62.22C75.6813 62.86 75.8213 63.34 76.1013 63.66C76.3813 63.98 76.8346 64.14 77.4613 64.14C77.6879 64.14 77.8879 64.12 78.0613 64.08C78.2346 64.04 78.3879 64.0133 78.5213 64C78.6813 63.9867 78.8146 64.04 78.9213 64.16C79.0279 64.2667 79.0813 64.4933 79.0813 64.84C79.0813 65.1067 79.0346 65.3467 78.9413 65.56C78.8613 65.76 78.7079 65.9 78.4813 65.98C78.3079 66.0333 78.0813 66.08 77.8013 66.12C77.5213 66.1733 77.2746 66.2 77.0613 66.2ZM84.6194 66.2C83.606 66.2 82.726 65.9933 81.9794 65.58C81.2327 65.1667 80.6527 64.58 80.2394 63.82C79.826 63.0467 79.6194 62.14 79.6194 61.1C79.6194 60.06 79.826 59.16 80.2394 58.4C80.6527 57.64 81.2327 57.0533 81.9794 56.64C82.726 56.2267 83.606 56.02 84.6194 56.02C85.6327 56.02 86.5127 56.2267 87.2594 56.64C88.006 57.0533 88.586 57.64 88.9994 58.4C89.4127 59.16 89.6194 60.06 89.6194 61.1C89.6194 62.14 89.4127 63.0467 88.9994 63.82C88.586 64.58 88.006 65.1667 87.2594 65.58C86.5127 65.9933 85.6327 66.2 84.6194 66.2ZM84.6194 64.3C85.366 64.3 85.966 64.0333 86.4194 63.5C86.8727 62.9533 87.0994 62.1533 87.0994 61.1C87.0994 60.0333 86.8727 59.24 86.4194 58.72C85.966 58.1867 85.366 57.92 84.6194 57.92C83.8727 57.92 83.2727 58.1867 82.8194 58.72C82.366 59.24 82.1394 60.0333 82.1394 61.1C82.1394 62.1533 82.366 62.9533 82.8194 63.5C83.2727 64.0333 83.8727 64.3 84.6194 64.3ZM100.453 66.2C98.2258 66.2 97.1125 64.9533 97.1125 62.46V53C97.1125 52.16 97.5258 51.74 98.3525 51.74C99.1925 51.74 99.6125 52.16 99.6125 53V62.34C99.6125 63.54 100.113 64.14 101.113 64.14C101.219 64.14 101.319 64.14 101.413 64.14C101.506 64.1267 101.599 64.1133 101.692 64.1C101.879 64.0733 102.006 64.1267 102.073 64.26C102.139 64.38 102.173 64.6333 102.173 65.02C102.173 65.3533 102.106 65.6133 101.973 65.8C101.839 65.9867 101.619 66.1 101.313 66.14C101.033 66.18 100.746 66.2 100.453 66.2ZM108.222 66.2C107.115 66.2 106.162 65.9933 105.362 65.58C104.562 65.1667 103.942 64.58 103.502 63.82C103.075 63.06 102.862 62.16 102.862 61.12C102.862 60.1067 103.068 59.22 103.482 58.46C103.908 57.7 104.488 57.1067 105.222 56.68C105.968 56.24 106.815 56.02 107.762 56.02C109.148 56.02 110.242 56.46 111.042 57.34C111.855 58.22 112.262 59.42 112.262 60.94C112.262 61.4333 111.942 61.68 111.302 61.68H105.262C105.448 63.4267 106.448 64.3 108.262 64.3C108.608 64.3 108.995 64.26 109.422 64.18C109.862 64.0867 110.275 63.9333 110.662 63.72C111.008 63.52 111.302 63.46 111.542 63.54C111.782 63.6067 111.948 63.7467 112.042 63.96C112.148 64.1733 112.162 64.4133 112.082 64.68C112.015 64.9333 111.828 65.1533 111.522 65.34C111.055 65.6333 110.515 65.8533 109.902 66C109.302 66.1333 108.742 66.2 108.222 66.2ZM107.862 57.72C107.128 57.72 106.535 57.9467 106.082 58.4C105.628 58.8533 105.355 59.4667 105.262 60.24H110.182C110.128 59.4267 109.902 58.8067 109.502 58.38C109.115 57.94 108.568 57.72 107.862 57.72ZM117.461 66.2C116.755 66.2 116.121 66.0667 115.561 65.8C115.015 65.52 114.581 65.1467 114.261 64.68C113.955 64.2133 113.801 63.6867 113.801 63.1C113.801 62.38 113.988 61.8133 114.361 61.4C114.735 60.9733 115.341 60.6667 116.181 60.48C117.021 60.2933 118.148 60.2 119.561 60.2H120.261V59.78C120.261 59.1133 120.115 58.6333 119.821 58.34C119.528 58.0467 119.035 57.9 118.341 57.9C117.955 57.9 117.535 57.9467 117.081 58.04C116.641 58.1333 116.175 58.2933 115.681 58.52C115.361 58.6667 115.095 58.6867 114.881 58.58C114.668 58.46 114.521 58.28 114.441 58.04C114.375 57.7867 114.388 57.5333 114.481 57.28C114.588 57.0267 114.795 56.84 115.101 56.72C115.715 56.4667 116.301 56.2867 116.861 56.18C117.435 56.0733 117.955 56.02 118.421 56.02C119.848 56.02 120.908 56.3533 121.601 57.02C122.295 57.6733 122.641 58.6933 122.641 60.08V64.88C122.641 65.7333 122.255 66.16 121.481 66.16C120.695 66.16 120.301 65.7333 120.301 64.88V64.44C120.075 64.9867 119.715 65.42 119.221 65.74C118.728 66.0467 118.141 66.2 117.461 66.2ZM117.981 64.48C118.635 64.48 119.175 64.2533 119.601 63.8C120.041 63.3467 120.261 62.7733 120.261 62.08V61.64H119.581C118.328 61.64 117.455 61.74 116.961 61.94C116.481 62.1267 116.241 62.4733 116.241 62.98C116.241 63.42 116.395 63.78 116.701 64.06C117.008 64.34 117.435 64.48 117.981 64.48ZM126.459 66.16C125.606 66.16 125.179 65.7333 125.179 64.88V57.32C125.179 56.48 125.586 56.06 126.399 56.06C127.212 56.06 127.619 56.48 127.619 57.32V57.94C128.099 56.7933 129.126 56.1533 130.699 56.02C131.272 55.9533 131.592 56.28 131.659 57C131.726 57.7067 131.379 58.1 130.619 58.18L130.179 58.22C128.539 58.38 127.719 59.22 127.719 60.74V64.88C127.719 65.7333 127.299 66.16 126.459 66.16ZM134.251 66.16C133.424 66.16 133.011 65.7333 133.011 64.88V57.32C133.011 56.48 133.418 56.06 134.231 56.06C135.044 56.06 135.451 56.48 135.451 57.32V57.74C135.784 57.18 136.231 56.7533 136.791 56.46C137.364 56.1667 138.004 56.02 138.711 56.02C141.018 56.02 142.171 57.36 142.171 60.04V64.88C142.171 65.7333 141.758 66.16 140.931 66.16C140.091 66.16 139.671 65.7333 139.671 64.88V60.16C139.671 59.4 139.524 58.8467 139.231 58.5C138.951 58.1533 138.511 57.98 137.911 57.98C137.178 57.98 136.591 58.2133 136.151 58.68C135.724 59.1333 135.511 59.74 135.511 60.5V64.88C135.511 65.7333 135.091 66.16 134.251 66.16ZM147.616 61.92C147.363 61.92 147.163 61.84 147.016 61.68C146.883 61.5067 146.816 61.28 146.816 61C146.816 60.3867 146.93 59.8133 147.156 59.28C147.396 58.7467 147.796 58.1667 148.356 57.54C148.783 57.0733 149.076 56.6733 149.236 56.34C149.41 56.0067 149.496 55.6533 149.496 55.28C149.496 54.84 149.336 54.4933 149.016 54.24C148.696 53.9867 148.243 53.86 147.656 53.86C147.123 53.86 146.636 53.9333 146.196 54.08C145.77 54.2133 145.336 54.4067 144.896 54.66C144.536 54.8733 144.216 54.9467 143.936 54.88C143.67 54.8 143.476 54.64 143.356 54.4C143.236 54.16 143.216 53.8933 143.296 53.6C143.376 53.3067 143.59 53.0467 143.936 52.82C144.483 52.46 145.11 52.1867 145.816 52C146.523 51.8 147.19 51.7 147.816 51.7C148.656 51.7 149.39 51.84 150.016 52.12C150.656 52.4 151.15 52.7867 151.496 53.28C151.856 53.7733 152.036 54.3533 152.036 55.02C152.036 55.6333 151.896 56.2067 151.616 56.74C151.35 57.2733 150.87 57.8533 150.176 58.48C149.55 59.0533 149.116 59.5467 148.876 59.96C148.636 60.3733 148.483 60.8133 148.416 61.28C148.403 61.4667 148.323 61.62 148.176 61.74C148.043 61.86 147.856 61.92 147.616 61.92ZM147.576 66.1C147.123 66.1 146.756 65.96 146.476 65.68C146.21 65.4 146.076 65.04 146.076 64.6C146.076 64.1733 146.21 63.8267 146.476 63.56C146.756 63.28 147.123 63.14 147.576 63.14C148.043 63.14 148.403 63.28 148.656 63.56C148.923 63.8267 149.056 64.1733 149.056 64.6C149.056 65.04 148.923 65.4 148.656 65.68C148.403 65.96 148.043 66.1 147.576 66.1Z" fill="#212121"/>
</svg>
