<svg width="240" height="86" viewBox="0 0 240 86" fill="none" xmlns="http://www.w3.org/2000/svg">
<mask id="path-1-inside-1_2031_27511" fill="white">
<path fill-rule="evenodd" clip-rule="evenodd" d="M17.0003 55.6982C15.1469 55.2092 12.7372 53.8179 9.00004 51.6603L9 51.6603C3.73917 48.6229 1.10876 47.1042 0.361845 45.0521C-0.120615 43.7266 -0.120615 42.2734 0.361845 40.9479C1.10876 38.8958 3.73917 37.3771 9 34.3397C12.7372 32.1821 15.1469 30.7908 17.0003 30.3018C17.0069 16.3422 17.1793 9.19333 21.6863 4.68629C26.3726 0 33.9151 0 49 0H208C223.085 0 230.627 0 235.314 4.68629C240 9.37258 240 16.9151 240 32V54C240 69.0849 240 76.6274 235.314 81.3137C230.627 86 223.085 86 208 86H49C33.9151 86 26.3726 86 21.6863 81.3137C17.1793 76.8067 17.0069 69.6578 17.0003 55.6982Z"/>
</mask>
<path fill-rule="evenodd" clip-rule="evenodd" d="M17.0003 55.6982C15.1469 55.2092 12.7372 53.8179 9.00004 51.6603L9 51.6603C3.73917 48.6229 1.10876 47.1042 0.361845 45.0521C-0.120615 43.7266 -0.120615 42.2734 0.361845 40.9479C1.10876 38.8958 3.73917 37.3771 9 34.3397C12.7372 32.1821 15.1469 30.7908 17.0003 30.3018C17.0069 16.3422 17.1793 9.19333 21.6863 4.68629C26.3726 0 33.9151 0 49 0H208C223.085 0 230.627 0 235.314 4.68629C240 9.37258 240 16.9151 240 32V54C240 69.0849 240 76.6274 235.314 81.3137C230.627 86 223.085 86 208 86H49C33.9151 86 26.3726 86 21.6863 81.3137C17.1793 76.8067 17.0069 69.6578 17.0003 55.6982Z" fill="#FAFAFA"/>
<path d="M17.0003 55.6982L19.0003 55.6972L18.9995 54.1572L17.5105 53.7643L17.0003 55.6982ZM9.00004 51.6603L7.89064 53.3244L7.94424 53.3601L8.00004 53.3923L9.00004 51.6603ZM9 51.6603L10.1094 49.9962L10.0558 49.9604L10 49.9282L9 51.6603ZM0.361845 45.0521L-1.51754 45.7362H-1.51754L0.361845 45.0521ZM0.361845 40.9479L2.24123 41.6319L0.361845 40.9479ZM9 34.3397L10 36.0718H10L9 34.3397ZM17.0003 30.3018L17.5105 32.2357L18.9995 31.8428L19.0003 30.3028L17.0003 30.3018ZM21.6863 4.68629L20.2721 3.27208V3.27208L21.6863 4.68629ZM235.314 4.68629L233.899 6.1005V6.10051L235.314 4.68629ZM235.314 81.3137L233.899 79.8995V79.8995L235.314 81.3137ZM21.6863 81.3137L23.1005 79.8995L21.6863 81.3137ZM17.5105 53.7643C16.8034 53.5778 15.8958 53.191 14.6314 52.5316C13.3766 51.8772 11.8818 51.0146 10 49.9282L8.00004 53.3923C9.85546 54.4636 11.434 55.3754 12.7817 56.0783C14.1199 56.7762 15.3438 57.3296 16.4901 57.632L17.5105 53.7643ZM10.1094 49.9962L10.1094 49.9962L7.8906 53.3244L7.89064 53.3244L10.1094 49.9962ZM10 49.9282C7.3315 48.3875 5.4647 47.3069 4.15809 46.3646C2.84432 45.4171 2.40499 44.818 2.24123 44.3681L-1.51754 45.7362C-0.934388 47.3384 0.314942 48.5247 1.81832 49.6089C3.32885 50.6983 5.40768 51.8956 8 53.3923L10 49.9282ZM2.24123 44.3681C1.91959 43.4844 1.91959 42.5156 2.24123 41.6319L-1.51754 40.2638C-2.16082 42.0312 -2.16082 43.9688 -1.51754 45.7362L2.24123 44.3681ZM2.24123 41.6319C2.40499 41.182 2.84432 40.5829 4.15809 39.6354C5.4647 38.6931 7.3315 37.6125 10 36.0718L8 32.6077C5.40768 34.1044 3.32885 35.3017 1.81832 36.3911C0.314941 37.4753 -0.934389 38.6616 -1.51754 40.2638L2.24123 41.6319ZM10 36.0718C11.8817 34.9854 13.3766 34.1228 14.6314 33.4684C15.8958 32.809 16.8034 32.4222 17.5105 32.2357L16.4901 28.368C15.3438 28.6704 14.1199 29.2238 12.7817 29.9217C11.434 30.6246 9.85543 31.5365 8 32.6077L10 36.0718ZM19.0003 30.3028C19.0036 23.2787 19.0527 18.1627 19.634 14.2427C20.2066 10.3811 21.263 7.93802 23.1005 6.1005L20.2721 3.27208C17.6026 5.9416 16.3192 9.32649 15.6772 13.656C15.0439 17.9271 15.0035 23.3654 15.0003 30.3009L19.0003 30.3028ZM23.1005 6.10051C25.0101 4.1909 27.5749 3.12392 31.7101 2.56795C35.9029 2.00425 41.401 2 49 2V-2C41.5141 -2 35.6984 -2.00425 31.1772 -1.39638C26.5984 -0.780775 23.0488 0.495394 20.2721 3.27208L23.1005 6.10051ZM49 2H208V-2H49V2ZM208 2C215.599 2 221.097 2.00425 225.29 2.56795C229.425 3.12392 231.99 4.1909 233.899 6.1005L236.728 3.27208C233.951 0.495394 230.402 -0.780776 225.823 -1.39638C221.302 -2.00425 215.486 -2 208 -2V2ZM233.899 6.10051C235.809 8.01011 236.876 10.5749 237.432 14.7101C237.996 18.9029 238 24.401 238 32H242C242 24.5141 242.004 18.6984 241.396 14.1772C240.781 9.59836 239.505 6.04876 236.728 3.27208L233.899 6.10051ZM238 32V54H242V32H238ZM238 54C238 61.599 237.996 67.0971 237.432 71.2899C236.876 75.4251 235.809 77.9899 233.899 79.8995L236.728 82.7279C239.505 79.9512 240.781 76.4016 241.396 71.8228C242.004 67.3016 242 61.4859 242 54H238ZM233.899 79.8995C231.99 81.8091 229.425 82.8761 225.29 83.432C221.097 83.9958 215.599 84 208 84V88C215.486 88 221.302 88.0042 225.823 87.3964C230.402 86.7808 233.951 85.5046 236.728 82.7279L233.899 79.8995ZM208 84H49V88H208V84ZM49 84C41.401 84 35.9029 83.9958 31.7101 83.432C27.5749 82.8761 25.0101 81.8091 23.1005 79.8995L20.2721 82.7279C23.0488 85.5046 26.5984 86.7808 31.1772 87.3964C35.6984 88.0042 41.5141 88 49 88V84ZM23.1005 79.8995C21.263 78.062 20.2066 75.6189 19.634 71.7573C19.0527 67.8373 19.0036 62.7213 19.0003 55.6972L15.0003 55.6991C15.0035 62.6346 15.0439 68.0729 15.6772 72.344C16.3192 76.6735 17.6026 80.0584 20.2721 82.7279L23.1005 79.8995Z" fill="#EEEEEE" mask="url(#path-1-inside-1_2031_27511)"/>
<path d="M39.5 34.16C38.82 34.16 38.3533 33.8 38.1 33.08L33.92 21.26C33.7733 20.8333 33.8 20.4733 34 20.18C34.2133 19.8867 34.5667 19.74 35.06 19.74C35.42 19.74 35.7 19.8267 35.9 20C36.1 20.16 36.26 20.42 36.38 20.78L39.58 30.3L42.94 20.8C43.1933 20.0933 43.62 19.74 44.22 19.74C44.54 19.74 44.7933 19.8267 44.98 20C45.1667 20.1733 45.3267 20.4467 45.46 20.82L48.76 30.44L52.06 20.78C52.18 20.4333 52.34 20.1733 52.54 20C52.74 19.8267 53.0133 19.74 53.36 19.74C53.7867 19.74 54.1 19.8867 54.3 20.18C54.5 20.4733 54.5267 20.8333 54.38 21.26L50.16 33.1C50.0267 33.46 49.8533 33.7267 49.64 33.9C49.4267 34.0733 49.14 34.16 48.78 34.16C48.42 34.16 48.1333 34.0733 47.92 33.9C47.7067 33.7267 47.5333 33.4533 47.4 33.08L44.14 23.82L40.86 33.1C40.7267 33.46 40.5533 33.7267 40.34 33.9C40.14 34.0733 39.86 34.16 39.5 34.16ZM58.8017 34.16C57.9751 34.16 57.5617 33.7333 57.5617 32.88V21C57.5617 20.16 57.9751 19.74 58.8017 19.74C59.6417 19.74 60.0617 20.16 60.0617 21V25.64C60.3951 25.1067 60.8417 24.7067 61.4017 24.44C61.9617 24.16 62.5817 24.02 63.2617 24.02C65.5684 24.02 66.7217 25.36 66.7217 28.04V32.88C66.7217 33.7333 66.3084 34.16 65.4817 34.16C64.6417 34.16 64.2217 33.7333 64.2217 32.88V28.16C64.2217 27.4 64.0751 26.8467 63.7817 26.5C63.5017 26.1533 63.0617 25.98 62.4617 25.98C61.7284 25.98 61.1417 26.2133 60.7017 26.68C60.2751 27.1333 60.0617 27.74 60.0617 28.5V32.88C60.0617 33.7333 59.6417 34.16 58.8017 34.16ZM71.6433 37.76C71.1899 37.76 70.8766 37.5933 70.7033 37.26C70.5299 36.9267 70.5366 36.5467 70.7233 36.12L71.8633 33.6L68.4433 25.72C68.2566 25.28 68.2566 24.8933 68.4433 24.56C68.6299 24.2267 68.9966 24.06 69.5433 24.06C69.8499 24.06 70.0966 24.1333 70.2833 24.28C70.4699 24.4133 70.6366 24.6733 70.7833 25.06L73.1833 31.06L75.6433 25.04C75.7899 24.6667 75.9633 24.4133 76.1633 24.28C76.3633 24.1333 76.6299 24.06 76.9633 24.06C77.3899 24.06 77.6899 24.2267 77.8633 24.56C78.0366 24.8933 78.0299 25.2733 77.8433 25.7L72.9833 36.8C72.8099 37.1733 72.6233 37.4267 72.4233 37.56C72.2233 37.6933 71.9633 37.76 71.6433 37.76ZM88.3403 34.2C87.6336 34.2 87.0003 34.0667 86.4403 33.8C85.8936 33.52 85.4603 33.1467 85.1403 32.68C84.8336 32.2133 84.6803 31.6867 84.6803 31.1C84.6803 30.38 84.867 29.8133 85.2403 29.4C85.6136 28.9733 86.2203 28.6667 87.0603 28.48C87.9003 28.2933 89.027 28.2 90.4403 28.2H91.1403V27.78C91.1403 27.1133 90.9936 26.6333 90.7003 26.34C90.407 26.0467 89.9136 25.9 89.2203 25.9C88.8336 25.9 88.4136 25.9467 87.9603 26.04C87.5203 26.1333 87.0536 26.2933 86.5603 26.52C86.2403 26.6667 85.9736 26.6867 85.7603 26.58C85.547 26.46 85.4003 26.28 85.3203 26.04C85.2536 25.7867 85.267 25.5333 85.3603 25.28C85.467 25.0267 85.6736 24.84 85.9803 24.72C86.5936 24.4667 87.1803 24.2867 87.7403 24.18C88.3136 24.0733 88.8336 24.02 89.3003 24.02C90.727 24.02 91.787 24.3533 92.4803 25.02C93.1736 25.6733 93.5203 26.6933 93.5203 28.08V32.88C93.5203 33.7333 93.1336 34.16 92.3603 34.16C91.5736 34.16 91.1803 33.7333 91.1803 32.88V32.44C90.9536 32.9867 90.5936 33.42 90.1003 33.74C89.607 34.0467 89.0203 34.2 88.3403 34.2ZM88.8603 32.48C89.5136 32.48 90.0536 32.2533 90.4803 31.8C90.9203 31.3467 91.1403 30.7733 91.1403 30.08V29.64H90.4603C89.207 29.64 88.3336 29.74 87.8403 29.94C87.3603 30.1267 87.1203 30.4733 87.1203 30.98C87.1203 31.42 87.2736 31.78 87.5803 32.06C87.887 32.34 88.3136 32.48 88.8603 32.48ZM97.3378 34.16C96.4845 34.16 96.0578 33.7333 96.0578 32.88V25.32C96.0578 24.48 96.4645 24.06 97.2778 24.06C98.0911 24.06 98.4978 24.48 98.4978 25.32V25.94C98.9778 24.7933 100.004 24.1533 101.578 24.02C102.151 23.9533 102.471 24.28 102.538 25C102.604 25.7067 102.258 26.1 101.498 26.18L101.058 26.22C99.4178 26.38 98.5978 27.22 98.5978 28.74V32.88C98.5978 33.7333 98.1778 34.16 97.3378 34.16ZM108.554 34.2C107.447 34.2 106.494 33.9933 105.694 33.58C104.894 33.1667 104.274 32.58 103.834 31.82C103.407 31.06 103.194 30.16 103.194 29.12C103.194 28.1067 103.4 27.22 103.814 26.46C104.24 25.7 104.82 25.1067 105.554 24.68C106.3 24.24 107.147 24.02 108.094 24.02C109.48 24.02 110.574 24.46 111.374 25.34C112.187 26.22 112.594 27.42 112.594 28.94C112.594 29.4333 112.274 29.68 111.634 29.68H105.594C105.78 31.4267 106.78 32.3 108.594 32.3C108.94 32.3 109.327 32.26 109.754 32.18C110.194 32.0867 110.607 31.9333 110.994 31.72C111.34 31.52 111.634 31.46 111.874 31.54C112.114 31.6067 112.28 31.7467 112.374 31.96C112.48 32.1733 112.494 32.4133 112.414 32.68C112.347 32.9333 112.16 33.1533 111.854 33.34C111.387 33.6333 110.847 33.8533 110.234 34C109.634 34.1333 109.074 34.2 108.554 34.2ZM108.194 25.72C107.46 25.72 106.867 25.9467 106.414 26.4C105.96 26.8533 105.687 27.4667 105.594 28.24H110.514C110.46 27.4267 110.234 26.8067 109.834 26.38C109.447 25.94 108.9 25.72 108.194 25.72ZM122.483 37.76C122.03 37.76 121.716 37.5933 121.543 37.26C121.37 36.9267 121.376 36.5467 121.563 36.12L122.703 33.6L119.283 25.72C119.096 25.28 119.096 24.8933 119.283 24.56C119.47 24.2267 119.836 24.06 120.383 24.06C120.69 24.06 120.936 24.1333 121.123 24.28C121.31 24.4133 121.476 24.6733 121.623 25.06L124.023 31.06L126.483 25.04C126.63 24.6667 126.803 24.4133 127.003 24.28C127.203 24.1333 127.47 24.06 127.803 24.06C128.23 24.06 128.53 24.2267 128.703 24.56C128.876 24.8933 128.87 25.2733 128.683 25.7L123.823 36.8C123.65 37.1733 123.463 37.4267 123.263 37.56C123.063 37.6933 122.803 37.76 122.483 37.76ZM134.795 34.2C133.782 34.2 132.902 33.9933 132.155 33.58C131.408 33.1667 130.828 32.58 130.415 31.82C130.002 31.0467 129.795 30.14 129.795 29.1C129.795 28.06 130.002 27.16 130.415 26.4C130.828 25.64 131.408 25.0533 132.155 24.64C132.902 24.2267 133.782 24.02 134.795 24.02C135.808 24.02 136.688 24.2267 137.435 24.64C138.182 25.0533 138.762 25.64 139.175 26.4C139.588 27.16 139.795 28.06 139.795 29.1C139.795 30.14 139.588 31.0467 139.175 31.82C138.762 32.58 138.182 33.1667 137.435 33.58C136.688 33.9933 135.808 34.2 134.795 34.2ZM134.795 32.3C135.542 32.3 136.142 32.0333 136.595 31.5C137.048 30.9533 137.275 30.1533 137.275 29.1C137.275 28.0333 137.048 27.24 136.595 26.72C136.142 26.1867 135.542 25.92 134.795 25.92C134.048 25.92 133.448 26.1867 132.995 26.72C132.542 27.24 132.315 28.0333 132.315 29.1C132.315 30.1533 132.542 30.9533 132.995 31.5C133.448 32.0333 134.048 32.3 134.795 32.3ZM145.399 34.2C142.999 34.2 141.799 32.8533 141.799 30.16V25.32C141.799 24.48 142.212 24.06 143.039 24.06C143.879 24.06 144.299 24.48 144.299 25.32V30.2C144.299 30.8933 144.439 31.4067 144.719 31.74C144.999 32.0733 145.445 32.24 146.059 32.24C146.725 32.24 147.272 32.0133 147.699 31.56C148.125 31.0933 148.339 30.48 148.339 29.72V25.32C148.339 24.48 148.752 24.06 149.579 24.06C150.419 24.06 150.839 24.48 150.839 25.32V32.88C150.839 33.7333 150.432 34.16 149.619 34.16C148.805 34.16 148.399 33.7333 148.399 32.88V32.54C147.745 33.6467 146.745 34.2 145.399 34.2ZM37.88 66.2C37.3067 66.2 36.7 66.14 36.06 66.02C35.42 65.9 34.8467 65.6933 34.34 65.4C34.06 65.24 33.8867 65.0467 33.82 64.82C33.7533 64.58 33.76 64.36 33.84 64.16C33.9333 63.9467 34.08 63.7933 34.28 63.7C34.4933 63.6067 34.74 63.6267 35.02 63.76C35.5533 64.0133 36.0533 64.1933 36.52 64.3C36.9867 64.3933 37.4467 64.44 37.9 64.44C38.54 64.44 39.0133 64.3333 39.32 64.12C39.64 63.8933 39.8 63.6 39.8 63.24C39.8 62.68 39.3867 62.32 38.56 62.16L36.56 61.78C34.8667 61.46 34.02 60.58 34.02 59.14C34.02 58.5 34.1933 57.9467 34.54 57.48C34.9 57.0133 35.3933 56.6533 36.02 56.4C36.6467 56.1467 37.3667 56.02 38.18 56.02C39.3533 56.02 40.4 56.28 41.32 56.8C41.5733 56.9333 41.72 57.12 41.76 57.36C41.8133 57.5867 41.7867 57.8067 41.68 58.02C41.5867 58.22 41.4333 58.3667 41.22 58.46C41.0067 58.54 40.76 58.5133 40.48 58.38C40.0667 58.1667 39.6667 58.0133 39.28 57.92C38.9067 57.8267 38.5467 57.78 38.2 57.78C37.5467 57.78 37.06 57.8933 36.74 58.12C36.4333 58.3467 36.28 58.6467 36.28 59.02C36.28 59.6067 36.66 59.9667 37.42 60.1L39.42 60.48C40.2867 60.64 40.94 60.9333 41.38 61.36C41.8333 61.7867 42.06 62.36 42.06 63.08C42.06 64.0533 41.68 64.82 40.92 65.38C40.16 65.9267 39.1467 66.2 37.88 66.2ZM48.448 66.2C45.8613 66.2 44.568 64.92 44.568 62.36V58.1H43.528C42.8613 58.1 42.528 57.7867 42.528 57.16C42.528 56.5333 42.8613 56.22 43.528 56.22H44.568V54.4C44.568 53.56 44.988 53.14 45.828 53.14C46.6546 53.14 47.068 53.56 47.068 54.4V56.22H49.188C49.8546 56.22 50.188 56.5333 50.188 57.16C50.188 57.7867 49.8546 58.1 49.188 58.1H47.068V62.22C47.068 62.86 47.208 63.34 47.488 63.66C47.768 63.98 48.2213 64.14 48.848 64.14C49.0746 64.14 49.2746 64.12 49.448 64.08C49.6213 64.04 49.7746 64.0133 49.908 64C50.068 63.9867 50.2013 64.04 50.308 64.16C50.4146 64.2667 50.468 64.4933 50.468 64.84C50.468 65.1067 50.4213 65.3467 50.328 65.56C50.248 65.76 50.0946 65.9 49.868 65.98C49.6946 66.0333 49.468 66.08 49.188 66.12C48.908 66.1733 48.6613 66.2 48.448 66.2ZM55.1838 66.2C52.7838 66.2 51.5838 64.8533 51.5838 62.16V57.32C51.5838 56.48 51.9971 56.06 52.8238 56.06C53.6638 56.06 54.0838 56.48 54.0838 57.32V62.2C54.0838 62.8933 54.2238 63.4067 54.5038 63.74C54.7838 64.0733 55.2304 64.24 55.8438 64.24C56.5104 64.24 57.0571 64.0133 57.4838 63.56C57.9104 63.0933 58.1238 62.48 58.1238 61.72V57.32C58.1238 56.48 58.5371 56.06 59.3638 56.06C60.2038 56.06 60.6237 56.48 60.6237 57.32V64.88C60.6237 65.7333 60.2171 66.16 59.4038 66.16C58.5904 66.16 58.1838 65.7333 58.1838 64.88V64.54C57.5304 65.6467 56.5304 66.2 55.1838 66.2ZM66.9858 66.2C66.1324 66.2 65.3791 65.9933 64.7258 65.58C64.0858 65.1667 63.5858 64.58 63.2258 63.82C62.8658 63.0467 62.6858 62.14 62.6858 61.1C62.6858 60.0467 62.8658 59.1467 63.2258 58.4C63.5858 57.64 64.0858 57.0533 64.7258 56.64C65.3791 56.2267 66.1324 56.02 66.9858 56.02C67.6791 56.02 68.3058 56.1733 68.8658 56.48C69.4258 56.7867 69.8458 57.1933 70.1258 57.7V53C70.1258 52.16 70.5391 51.74 71.3658 51.74C72.2058 51.74 72.6258 52.16 72.6258 53V64.88C72.6258 65.7333 72.2124 66.16 71.3858 66.16C70.5591 66.16 70.1458 65.7333 70.1458 64.88V64.46C69.8658 64.9933 69.4458 65.42 68.8858 65.74C68.3258 66.0467 67.6924 66.2 66.9858 66.2ZM67.6858 64.3C68.4324 64.3 69.0324 64.0333 69.4858 63.5C69.9391 62.9533 70.1658 62.1533 70.1658 61.1C70.1658 60.0333 69.9391 59.24 69.4858 58.72C69.0324 58.1867 68.4324 57.92 67.6858 57.92C66.9391 57.92 66.3391 58.1867 65.8858 58.72C65.4324 59.24 65.2058 60.0333 65.2058 61.1C65.2058 62.1533 65.4324 62.9533 65.8858 63.5C66.3391 64.0333 66.9391 64.3 67.6858 64.3ZM77.698 69.76C77.2446 69.76 76.9313 69.5933 76.758 69.26C76.5846 68.9267 76.5913 68.5467 76.778 68.12L77.918 65.6L74.498 57.72C74.3113 57.28 74.3113 56.8933 74.498 56.56C74.6846 56.2267 75.0513 56.06 75.598 56.06C75.9046 56.06 76.1513 56.1333 76.338 56.28C76.5246 56.4133 76.6913 56.6733 76.838 57.06L79.238 63.06L81.698 57.04C81.8446 56.6667 82.018 56.4133 82.218 56.28C82.418 56.1333 82.6846 56.06 83.018 56.06C83.4446 56.06 83.7446 56.2267 83.918 56.56C84.0913 56.8933 84.0846 57.2733 83.898 57.7L79.038 68.8C78.8646 69.1733 78.678 69.4267 78.478 69.56C78.278 69.6933 78.018 69.76 77.698 69.76ZM86.9853 54.22C86.5186 54.22 86.152 54.1067 85.8853 53.88C85.632 53.64 85.5053 53.3133 85.5053 52.9C85.5053 52.4733 85.632 52.1467 85.8853 51.92C86.152 51.6933 86.5186 51.58 86.9853 51.58C87.972 51.58 88.4653 52.02 88.4653 52.9C88.4653 53.78 87.972 54.22 86.9853 54.22ZM86.9853 66.14C86.5853 66.14 86.2786 66.02 86.0653 65.78C85.852 65.54 85.7453 65.2067 85.7453 64.78V57.44C85.7453 56.5333 86.1586 56.08 86.9853 56.08C87.8253 56.08 88.2453 56.5333 88.2453 57.44V64.78C88.2453 65.2067 88.1386 65.54 87.9253 65.78C87.712 66.02 87.3986 66.14 86.9853 66.14ZM92.083 66.16C91.2563 66.16 90.843 65.7333 90.843 64.88V57.32C90.843 56.48 91.2496 56.06 92.063 56.06C92.8763 56.06 93.283 56.48 93.283 57.32V57.74C93.6163 57.18 94.063 56.7533 94.623 56.46C95.1963 56.1667 95.8363 56.02 96.543 56.02C98.8496 56.02 100.003 57.36 100.003 60.04V64.88C100.003 65.7333 99.5896 66.16 98.763 66.16C97.923 66.16 97.503 65.7333 97.503 64.88V60.16C97.503 59.4 97.3563 58.8467 97.063 58.5C96.783 58.1533 96.343 57.98 95.743 57.98C95.0096 57.98 94.423 58.2133 93.983 58.68C93.5563 59.1333 93.343 59.74 93.343 60.5V64.88C93.343 65.7333 92.923 66.16 92.083 66.16ZM107.102 69.8C106.382 69.8 105.682 69.7333 105.002 69.6C104.336 69.4667 103.729 69.26 103.182 68.98C102.862 68.82 102.669 68.6133 102.602 68.36C102.549 68.12 102.576 67.8867 102.682 67.66C102.789 67.4333 102.949 67.2667 103.162 67.16C103.389 67.0667 103.629 67.08 103.882 67.2C104.469 67.4933 105.022 67.68 105.542 67.76C106.076 67.8533 106.529 67.9 106.902 67.9C108.689 67.9 109.582 67.04 109.582 65.32V63.98C109.302 64.5267 108.869 64.96 108.282 65.28C107.709 65.6 107.069 65.76 106.362 65.76C105.482 65.76 104.716 65.56 104.062 65.16C103.409 64.7467 102.902 64.1733 102.542 63.44C102.182 62.7067 102.002 61.8533 102.002 60.88C102.002 59.9067 102.182 59.06 102.542 58.34C102.902 57.6067 103.409 57.04 104.062 56.64C104.716 56.2267 105.482 56.02 106.362 56.02C107.069 56.02 107.709 56.1733 108.282 56.48C108.856 56.7867 109.276 57.2067 109.542 57.74V57.32C109.542 56.9067 109.649 56.5933 109.862 56.38C110.089 56.1667 110.396 56.06 110.782 56.06C111.609 56.06 112.022 56.48 112.022 57.32V65.02C112.022 66.6067 111.602 67.8 110.762 68.6C109.922 69.4 108.702 69.8 107.102 69.8ZM107.042 63.86C107.816 63.86 108.429 63.5933 108.882 63.06C109.336 62.5267 109.562 61.8 109.562 60.88C109.562 59.96 109.336 59.24 108.882 58.72C108.429 58.1867 107.816 57.92 107.042 57.92C106.269 57.92 105.656 58.1867 105.202 58.72C104.749 59.24 104.522 59.96 104.522 60.88C104.522 61.8 104.749 62.5267 105.202 63.06C105.656 63.5933 106.269 63.86 107.042 63.86ZM121.642 66C120.736 66 120.282 65.5467 120.282 64.64V53.26C120.282 52.3533 120.736 51.9 121.642 51.9H128.782C129.476 51.9 129.822 52.2333 129.822 52.9C129.822 53.5933 129.476 53.94 128.782 53.94H122.742V57.82H128.342C129.036 57.82 129.382 58.16 129.382 58.84C129.382 59.52 129.036 59.86 128.342 59.86H122.742V63.96H128.782C129.476 63.96 129.822 64.3 129.822 64.98C129.822 65.66 129.476 66 128.782 66H121.642ZM133.216 66.16C132.389 66.16 131.976 65.7333 131.976 64.88V57.32C131.976 56.48 132.382 56.06 133.196 56.06C134.009 56.06 134.416 56.48 134.416 57.32V57.74C134.749 57.18 135.196 56.7533 135.756 56.46C136.329 56.1667 136.969 56.02 137.676 56.02C139.982 56.02 141.136 57.36 141.136 60.04V64.88C141.136 65.7333 140.722 66.16 139.896 66.16C139.056 66.16 138.636 65.7333 138.636 64.88V60.16C138.636 59.4 138.489 58.8467 138.196 58.5C137.916 58.1533 137.476 57.98 136.876 57.98C136.142 57.98 135.556 58.2133 135.116 58.68C134.689 59.1333 134.476 59.74 134.476 60.5V64.88C134.476 65.7333 134.056 66.16 133.216 66.16ZM148.235 69.8C147.515 69.8 146.815 69.7333 146.135 69.6C145.468 69.4667 144.862 69.26 144.315 68.98C143.995 68.82 143.802 68.6133 143.735 68.36C143.682 68.12 143.708 67.8867 143.815 67.66C143.922 67.4333 144.082 67.2667 144.295 67.16C144.522 67.0667 144.762 67.08 145.015 67.2C145.602 67.4933 146.155 67.68 146.675 67.76C147.208 67.8533 147.662 67.9 148.035 67.9C149.822 67.9 150.715 67.04 150.715 65.32V63.98C150.435 64.5267 150.002 64.96 149.415 65.28C148.842 65.6 148.202 65.76 147.495 65.76C146.615 65.76 145.848 65.56 145.195 65.16C144.542 64.7467 144.035 64.1733 143.675 63.44C143.315 62.7067 143.135 61.8533 143.135 60.88C143.135 59.9067 143.315 59.06 143.675 58.34C144.035 57.6067 144.542 57.04 145.195 56.64C145.848 56.2267 146.615 56.02 147.495 56.02C148.202 56.02 148.842 56.1733 149.415 56.48C149.988 56.7867 150.408 57.2067 150.675 57.74V57.32C150.675 56.9067 150.782 56.5933 150.995 56.38C151.222 56.1667 151.528 56.06 151.915 56.06C152.742 56.06 153.155 56.48 153.155 57.32V65.02C153.155 66.6067 152.735 67.8 151.895 68.6C151.055 69.4 149.835 69.8 148.235 69.8ZM148.175 63.86C148.948 63.86 149.562 63.5933 150.015 63.06C150.468 62.5267 150.695 61.8 150.695 60.88C150.695 59.96 150.468 59.24 150.015 58.72C149.562 58.1867 148.948 57.92 148.175 57.92C147.402 57.92 146.788 58.1867 146.335 58.72C145.882 59.24 145.655 59.96 145.655 60.88C145.655 61.8 145.882 62.5267 146.335 63.06C146.788 63.5933 147.402 63.86 148.175 63.86ZM159.085 66.2C156.859 66.2 155.745 64.9533 155.745 62.46V53C155.745 52.16 156.159 51.74 156.985 51.74C157.825 51.74 158.245 52.16 158.245 53V62.34C158.245 63.54 158.745 64.14 159.745 64.14C159.852 64.14 159.952 64.14 160.045 64.14C160.139 64.1267 160.232 64.1133 160.325 64.1C160.512 64.0733 160.639 64.1267 160.705 64.26C160.772 64.38 160.805 64.6333 160.805 65.02C160.805 65.3533 160.739 65.6133 160.605 65.8C160.472 65.9867 160.252 66.1 159.945 66.14C159.665 66.18 159.379 66.2 159.085 66.2ZM163.372 54.22C162.905 54.22 162.539 54.1067 162.272 53.88C162.019 53.64 161.892 53.3133 161.892 52.9C161.892 52.4733 162.019 52.1467 162.272 51.92C162.539 51.6933 162.905 51.58 163.372 51.58C164.359 51.58 164.852 52.02 164.852 52.9C164.852 53.78 164.359 54.22 163.372 54.22ZM163.372 66.14C162.972 66.14 162.665 66.02 162.452 65.78C162.239 65.54 162.132 65.2067 162.132 64.78V57.44C162.132 56.5333 162.545 56.08 163.372 56.08C164.212 56.08 164.632 56.5333 164.632 57.44V64.78C164.632 65.2067 164.525 65.54 164.312 65.78C164.099 66.02 163.785 66.14 163.372 66.14ZM170.81 66.2C170.236 66.2 169.63 66.14 168.99 66.02C168.35 65.9 167.776 65.6933 167.27 65.4C166.99 65.24 166.816 65.0467 166.75 64.82C166.683 64.58 166.69 64.36 166.77 64.16C166.863 63.9467 167.01 63.7933 167.21 63.7C167.423 63.6067 167.67 63.6267 167.95 63.76C168.483 64.0133 168.983 64.1933 169.45 64.3C169.916 64.3933 170.376 64.44 170.83 64.44C171.47 64.44 171.943 64.3333 172.25 64.12C172.57 63.8933 172.73 63.6 172.73 63.24C172.73 62.68 172.316 62.32 171.49 62.16L169.49 61.78C167.796 61.46 166.95 60.58 166.95 59.14C166.95 58.5 167.123 57.9467 167.47 57.48C167.83 57.0133 168.323 56.6533 168.95 56.4C169.576 56.1467 170.296 56.02 171.11 56.02C172.283 56.02 173.33 56.28 174.25 56.8C174.503 56.9333 174.65 57.12 174.69 57.36C174.743 57.5867 174.716 57.8067 174.61 58.02C174.516 58.22 174.363 58.3667 174.15 58.46C173.936 58.54 173.69 58.5133 173.41 58.38C172.996 58.1667 172.596 58.0133 172.21 57.92C171.836 57.8267 171.476 57.78 171.13 57.78C170.476 57.78 169.99 57.8933 169.67 58.12C169.363 58.3467 169.21 58.6467 169.21 59.02C169.21 59.6067 169.59 59.9667 170.35 60.1L172.35 60.48C173.216 60.64 173.87 60.9333 174.31 61.36C174.763 61.7867 174.99 62.36 174.99 63.08C174.99 64.0533 174.61 64.82 173.85 65.38C173.09 65.9267 172.076 66.2 170.81 66.2ZM178.235 66.16C177.409 66.16 176.995 65.7333 176.995 64.88V53C176.995 52.16 177.409 51.74 178.235 51.74C179.075 51.74 179.495 52.16 179.495 53V57.64C179.829 57.1067 180.275 56.7067 180.835 56.44C181.395 56.16 182.015 56.02 182.695 56.02C185.002 56.02 186.155 57.36 186.155 60.04V64.88C186.155 65.7333 185.742 66.16 184.915 66.16C184.075 66.16 183.655 65.7333 183.655 64.88V60.16C183.655 59.4 183.509 58.8467 183.215 58.5C182.935 58.1533 182.495 57.98 181.895 57.98C181.162 57.98 180.575 58.2133 180.135 58.68C179.709 59.1333 179.495 59.74 179.495 60.5V64.88C179.495 65.7333 179.075 66.16 178.235 66.16ZM191.601 61.92C191.347 61.92 191.147 61.84 191.001 61.68C190.867 61.5067 190.801 61.28 190.801 61C190.801 60.3867 190.914 59.8133 191.141 59.28C191.381 58.7467 191.781 58.1667 192.341 57.54C192.767 57.0733 193.061 56.6733 193.221 56.34C193.394 56.0067 193.481 55.6533 193.481 55.28C193.481 54.84 193.321 54.4933 193.001 54.24C192.681 53.9867 192.227 53.86 191.641 53.86C191.107 53.86 190.621 53.9333 190.181 54.08C189.754 54.2133 189.321 54.4067 188.881 54.66C188.521 54.8733 188.201 54.9467 187.921 54.88C187.654 54.8 187.461 54.64 187.341 54.4C187.221 54.16 187.201 53.8933 187.281 53.6C187.361 53.3067 187.574 53.0467 187.921 52.82C188.467 52.46 189.094 52.1867 189.801 52C190.507 51.8 191.174 51.7 191.801 51.7C192.641 51.7 193.374 51.84 194.001 52.12C194.641 52.4 195.134 52.7867 195.481 53.28C195.841 53.7733 196.021 54.3533 196.021 55.02C196.021 55.6333 195.881 56.2067 195.601 56.74C195.334 57.2733 194.854 57.8533 194.161 58.48C193.534 59.0533 193.101 59.5467 192.861 59.96C192.621 60.3733 192.467 60.8133 192.401 61.28C192.387 61.4667 192.307 61.62 192.161 61.74C192.027 61.86 191.841 61.92 191.601 61.92ZM191.561 66.1C191.107 66.1 190.741 65.96 190.461 65.68C190.194 65.4 190.061 65.04 190.061 64.6C190.061 64.1733 190.194 63.8267 190.461 63.56C190.741 63.28 191.107 63.14 191.561 63.14C192.027 63.14 192.387 63.28 192.641 63.56C192.907 63.8267 193.041 64.1733 193.041 64.6C193.041 65.04 192.907 65.4 192.641 65.68C192.387 65.96 192.027 66.1 191.561 66.1Z" fill="#212121"/>
</svg>
